999
dxflib 2.2.0.0
  0
SECTION
  2
HEADER
  9
$ACADVER
  1
AC1015
  9
$HANDSEED
  5
FFFF
  9
$DIMASZ
 40
2.5
  9
$PLIMMIN
 10
0.0
 20
0.0
  9
$DIMEXE
 40
1.25
  9
$DIMGAP
 40
0.625
  9
$PLIMMAX
 10
210.0
 20
297.0
  9
$INSUNITS
 70
4
  9
$DIMSTYLE
  2
Standard
  9
$MEASUREMENT
 70
1
  9
$DIMEXO
 40
0.625
  9
$DIMTXT
 40
2.5
  0
ENDSEC
  0
SECTION
  2
TABLES
  0
TABLE
  2
VPORT
  5
8
100
AcDbSymbolTable
 70
1
  0
VPORT
  5
30
100
AcDbSymbolTableRecord
100
AcDbViewportTableRecord
  2
*Active
 70
0
 10
0.0
 20
0.0
 11
1.0
 21
1.0
 12
286.3055555555554861
 22
148.5
 13
0.0
 23
0.0
 14
10.0
 24
10.0
 15
10.0
 25
10.0
 16
0.0
 26
0.0
 36
1.0
 17
0.0
 27
0.0
 37
0.0
 40
297.0
 41
1.92798353909465
 42
50.0
 43
0.0
 44
0.0
 50
0.0
 51
0.0
 71
0
 72
100
 73
1
 74
3
 75
1
 76
1
 77
0
 78
0
281
0
 65
1
110
0.0
120
0.0
130
0.0
111
1.0
121
0.0
131
0.0
112
0.0
122
1.0
132
0.0
 79
0
146
0.0
  0
ENDTAB
  0
TABLE
  2
LTYPE
  5
5
100
AcDbSymbolTable
 70
21
  0
LTYPE
  5
14
100
AcDbSymbolTableRecord
100
AcDbLinetypeTableRecord
  2
ByBlock
 70
0
  3

 72
65
 73
0
 40
0.0
  0
LTYPE
  5
15
100
AcDbSymbolTableRecord
100
AcDbLinetypeTableRecord
  2
ByLayer
 70
0
  3

 72
65
 73
0
 40
0.0
  0
LTYPE
  5
16
100
AcDbSymbolTableRecord
100
AcDbLinetypeTableRecord
  2
CONTINUOUS
 70
0
  3
Solid line
 72
65
 73
0
 40
0.0
  0
LTYPE
  5
31
100
AcDbSymbolTableRecord
100
AcDbLinetypeTableRecord
  2
DOT
 70
0
  3
Dot . . . . . . . . . . . . . . . . . . . . . .
 72
65
 73
2
 40
6.3499999999999996
 49
0.0
 74
0
 49
-6.3499999999999996
 74
0
  0
LTYPE
  5
32
100
AcDbSymbolTableRecord
100
AcDbLinetypeTableRecord
  2
DOT2
 70
0
  3
Dot (.5x) .....................................
 72
65
 73
2
 40
3.1749999999999998
 49
0.0
 74
0
 49
-3.1749999999999998
 74
0
  0
LTYPE
  5
33
100
AcDbSymbolTableRecord
100
AcDbLinetypeTableRecord
  2
DOTX2
 70
0
  3
Dot (2x) .  .  .  .  .  .  .  .  .  .  .  .  .
 72
65
 73
2
 40
12.6999999999999993
 49
0.0
 74
0
 49
-12.6999999999999993
 74
0
  0
LTYPE
  5
34
100
AcDbSymbolTableRecord
100
AcDbLinetypeTableRecord
  2
DASHED
 70
0
  3
Dashed __ __ __ __ __ __ __ __ __ __ __ __ __ _
 72
65
 73
2
 40
19.0500000000000007
 49
12.6999999999999993
 74
0
 49
-6.3499999999999996
 74
0
  0
LTYPE
  5
35
100
AcDbSymbolTableRecord
100
AcDbLinetypeTableRecord
  2
DASHED2
 70
0
  3
Dashed (.5x) _ _ _ _ _ _ _ _ _ _ _ _ _ _ _ _ _
 72
65
 73
2
 40
9.5250000000000004
 49
6.3499999999999996
 74
0
 49
-3.1749999999999998
 74
0
  0
LTYPE
  5
36
100
AcDbSymbolTableRecord
100
AcDbLinetypeTableRecord
  2
DASHEDX2
 70
0
  3
Dashed (2x) ____  ____  ____  ____  ____  ___
 72
65
 73
2
 40
38.1000000000000014
 49
25.3999999999999986
 74
0
 49
-12.6999999999999993
 74
0
  0
LTYPE
  5
37
100
AcDbSymbolTableRecord
100
AcDbLinetypeTableRecord
  2
DASHDOT
 70
0
  3
Dash dot __ . __ . __ . __ . __ . __ . __ . __
 72
65
 73
4
 40
25.3999999999999986
 49
12.6999999999999993
 74
0
 49
-6.3499999999999996
 74
0
 49
0.0
 74
0
 49
-6.3499999999999996
 74
0
  0
LTYPE
  5
38
100
AcDbSymbolTableRecord
100
AcDbLinetypeTableRecord
  2
DASHDOT2
 70
0
  3
Dash dot (.5x) _._._._._._._._._._._._._._._.
 72
65
 73
4
 40
12.6999999999999993
 49
6.3499999999999996
 74
0
 49
-3.1749999999999998
 74
0
 49
0.0
 74
0
 49
-3.1749999999999998
 74
0
  0
LTYPE
  5
39
100
AcDbSymbolTableRecord
100
AcDbLinetypeTableRecord
  2
DASHDOTX2
 70
0
  3
Dash dot (2x) ____  .  ____  .  ____  .  ___
 72
65
 73
4
 40
50.7999999999999972
 49
25.3999999999999986
 74
0
 49
-12.6999999999999993
 74
0
 49
0.0
 74
0
 49
-12.6999999999999993
 74
0
  0
LTYPE
  5
3A
100
AcDbSymbolTableRecord
100
AcDbLinetypeTableRecord
  2
DIVIDE
 70
0
  3
Divide ____ . . ____ . . ____ . . ____ . . ____
 72
65
 73
6
 40
31.75
 49
12.6999999999999993
 74
0
 49
-6.3499999999999996
 74
0
 49
0.0
 74
0
 49
-6.3499999999999996
 74
0
 49
0.0
 74
0
 49
-6.3499999999999996
 74
0
  0
LTYPE
  5
3B
100
AcDbSymbolTableRecord
100
AcDbLinetypeTableRecord
  2
DIVIDE2
 70
0
  3
Divide (.5x) __..__..__..__..__..__..__..__.._
 72
65
 73
6
 40
15.875
 49
6.3499999999999996
 74
0
 49
-3.1749999999999998
 74
0
 49
0.0
 74
0
 49
-3.1749999999999998
 74
0
 49
0.0
 74
0
 49
-3.1749999999999998
 74
0
  0
LTYPE
  5
3C
100
AcDbSymbolTableRecord
100
AcDbLinetypeTableRecord
  2
DIVIDEX2
 70
0
  3
Divide (2x) ________  .  .  ________  .  .  _
 72
65
 73
6
 40
63.5
 49
25.3999999999999986
 74
0
 49
-12.6999999999999993
 74
0
 49
0.0
 74
0
 49
-12.6999999999999993
 74
0
 49
0.0
 74
0
 49
-12.6999999999999993
 74
0
  0
LTYPE
  5
3D
100
AcDbSymbolTableRecord
100
AcDbLinetypeTableRecord
  2
CENTER
 70
0
  3
Center ____ _ ____ _ ____ _ ____ _ ____ _ ____
 72
65
 73
4
 40
50.7999999999999972
 49
31.75
 74
0
 49
-6.3499999999999996
 74
0
 49
6.3499999999999996
 74
0
 49
-6.3499999999999996
 74
0
  0
LTYPE
  5
3E
100
AcDbSymbolTableRecord
100
AcDbLinetypeTableRecord
  2
CENTER2
 70
0
  3
Center (.5x) ___ _ ___ _ ___ _ ___ _ ___ _ ___
 72
65
 73
4
 40
28.5749999999999993
 49
19.0500000000000007
 74
0
 49
-3.1749999999999998
 74
0
 49
3.1749999999999998
 74
0
 49
-3.1749999999999998
 74
0
  0
LTYPE
  5
3F
100
AcDbSymbolTableRecord
100
AcDbLinetypeTableRecord
  2
CENTERX2
 70
0
  3
Center (2x) ________  __  ________  __  _____
 72
65
 73
4
 40
101.5999999999999943
 49
63.5
 74
0
 49
-12.6999999999999993
 74
0
 49
12.6999999999999993
 74
0
 49
-12.6999999999999993
 74
0
  0
LTYPE
  5
40
100
AcDbSymbolTableRecord
100
AcDbLinetypeTableRecord
  2
BORDER
 70
0
  3
Border __ __ . __ __ . __ __ . __ __ . __ __ .
 72
65
 73
6
 40
44.4500000000000028
 49
12.6999999999999993
 74
0
 49
-6.3499999999999996
 74
0
 49
12.6999999999999993
 74
0
 49
-6.3499999999999996
 74
0
 49
0.0
 74
0
 49
-6.3499999999999996
 74
0
  0
LTYPE
  5
41
100
AcDbSymbolTableRecord
100
AcDbLinetypeTableRecord
  2
BORDER2
 70
0
  3
Border (.5x) __.__.__.__.__.__.__.__.__.__.__.
 72
65
 73
6
 40
22.2250000000000014
 49
6.3499999999999996
 74
0
 49
-3.1749999999999998
 74
0
 49
6.3499999999999996
 74
0
 49
-3.1749999999999998
 74
0
 49
0.0
 74
0
 49
-3.1749999999999998
 74
0
  0
LTYPE
  5
42
100
AcDbSymbolTableRecord
100
AcDbLinetypeTableRecord
  2
BORDERX2
 70
0
  3
Border (2x) ____  ____  .  ____  ____  .  ___
 72
65
 73
6
 40
88.9000000000000057
 49
25.3999999999999986
 74
0
 49
-12.6999999999999993
 74
0
 49
25.3999999999999986
 74
0
 49
-12.6999999999999993
 74
0
 49
0.0
 74
0
 49
-12.6999999999999993
 74
0
  0
ENDTAB
  0
TABLE
  2
LAYER
  5
2
100
AcDbSymbolTable
 70
2
  0
LAYER
  5
10
100
AcDbSymbolTableRecord
100
AcDbLayerTableRecord
  2
0
 70
0
 62
7
  6
CONTINUOUS
390
F
  0
LAYER
  5
43
100
AcDbSymbolTableRecord
100
AcDbLayerTableRecord
  2
Layer_1
 70
0
 62
7
  6
CONTINUOUS
390
F
  0
ENDTAB
  0
TABLE
  2
STYLE
  5
3
100
AcDbSymbolTable
 70
1
  0
STYLE
  5
11
100
AcDbSymbolTableRecord
100
AcDbTextStyleTableRecord
  2
Standard
 70
0
 40
0.0
 41
0.75
 50
0.0
 71
0
 42
2.5
  3
txt
  4

  0
ENDTAB
  0
TABLE
  2
VIEW
  5
6
100
AcDbSymbolTable
 70
0
  0
ENDTAB
  0
TABLE
  2
UCS
  5
7
100
AcDbSymbolTable
 70
0
  0
ENDTAB
  0
TABLE
  2
APPID
  5
9
100
AcDbSymbolTable
 70
1
  0
APPID
  5
12
100
AcDbSymbolTableRecord
100
AcDbRegAppTableRecord
  2
ACAD
 70
0
  0
ENDTAB
  0
TABLE
  2
DIMSTYLE
  5
A
100
AcDbSymbolTable
 70
1
100
AcDbDimStyleTable
 71
0
  0
DIMSTYLE
105
27
100
AcDbSymbolTableRecord
100
AcDbDimStyleTableRecord
  2
Standard
 41
2.5
 42
0.625
 43
3.75
 44
1.25
 70
0
 73
0
 74
0
 77
1
 78
8
140
2.5
141
2.5
143
0.03937007874016
147
0.625
171
3
172
1
271
2
272
2
274
3
278
44
283
0
284
8
340
11
  0
ENDTAB
  0
TABLE
  2
BLOCK_RECORD
  5
1
100
AcDbSymbolTable
 70
1
  0
BLOCK_RECORD
  5
1F
100
AcDbSymbolTableRecord
100
AcDbBlockTableRecord
  2
*Model_Space
340
22
  0
BLOCK_RECORD
  5
1B
100
AcDbSymbolTableRecord
100
AcDbBlockTableRecord
  2
*Paper_Space
340
1E
  0
BLOCK_RECORD
  5
23
100
AcDbSymbolTableRecord
100
AcDbBlockTableRecord
  2
*Paper_Space0
340
26
  0
ENDTAB
  0
ENDSEC
  0
SECTION
  2
BLOCKS
  0
BLOCK
  5
20
100
AcDbEntity
  8
0
100
AcDbBlockBegin
  2
*Model_Space
 70
0
 10
0.0
 20
0.0
 30
0.0
  3
*Model_Space
  1

  0
ENDBLK
  5
21
100
AcDbEntity
  8
0
100
AcDbBlockEnd
  0
BLOCK
  5
1C
100
AcDbEntity
 67
1
  8
0
100
AcDbBlockBegin
  2
*Paper_Space
 70
0
 10
0.0
 20
0.0
 30
0.0
  3
*Paper_Space
  1

  0
ENDBLK
  5
1D
100
AcDbEntity
 67
1
  8
0
100
AcDbBlockEnd
  0
BLOCK
  5
24
100
AcDbEntity
  8
0
100
AcDbBlockBegin
  2
*Paper_Space0
 70
0
 10
0.0
 20
0.0
 30
0.0
  3
*Paper_Space0
  1

  0
ENDBLK
  5
25
100
AcDbEntity
  8
0
100
AcDbBlockEnd
  0
ENDSEC
  0
SECTION
  2
ENTITIES
  0
ARC
  5
44
100
AcDbEntity
  8
Layer_1
 62
256
370
-1
  6
ByLayer
100
AcDbCircle
 10
5.0
 20
85.0
 30
0.0
 40
5.0
100
AcDbArc
 50
90.0
 51
180.0
  0
LINE
  5
45
100
AcDbEntity
100
AcDbLine
  8
Layer_1
 62
256
370
-1
  6
ByLayer
 10
0.0
 20
5.0
 30
0.0
 11
0.0
 21
85.0
 31
0.0
  0
ARC
  5
46
100
AcDbEntity
  8
Layer_1
 62
256
370
-1
  6
ByLayer
100
AcDbCircle
 10
5.0
 20
5.0
 30
0.0
 40
5.0
100
AcDbArc
 50
180.0
 51
270.0
  0
LINE
  5
47
100
AcDbEntity
100
AcDbLine
  8
Layer_1
 62
256
370
-1
  6
ByLayer
 10
95.0
 20
0.0
 30
0.0
 11
5.0
 21
0.0
 31
0.0
  0
ARC
  5
48
100
AcDbEntity
  8
Layer_1
 62
256
370
-1
  6
ByLayer
100
AcDbCircle
 10
95.0
 20
5.0
 30
0.0
 40
5.0
100
AcDbArc
 50
270.0
 51
0.0
  0
LINE
  5
49
100
AcDbEntity
100
AcDbLine
  8
Layer_1
 62
256
370
-1
  6
ByLayer
 10
100.0
 20
85.0
 30
0.0
 11
100.0
 21
5.0
 31
0.0
  0
LINE
  5
4A
100
AcDbEntity
100
AcDbLine
  8
Layer_1
 62
256
370
-1
  6
ByLayer
 10
5.0
 20
90.0
 30
0.0
 11
95.0
 21
90.0
 31
0.0
  0
ARC
  5
4B
100
AcDbEntity
  8
Layer_1
 62
256
370
-1
  6
ByLayer
100
AcDbCircle
 10
95.0
 20
85.0
 30
0.0
 40
5.0
100
AcDbArc
 50
0.0
 51
90.0
  0
SPLINE
  5
4C
  8
Layer_1
 62
7
370
-1
  6
ByLayer
100
AcDbEntity
100
AcDbSpline
 70
8
 71
3
 72
8
 73
4
 74
0
 40
0.0
 40
0.0
 40
0.0
 40
0.0
 40
1.0
 40
1.0
 40
1.0
 40
1.0
 10
52.2569999999999837
 20
40.3331990000000076
 30
0.0
 10
56.7860940000000127
 20
40.953534999999988
 30
0.0
 10
59.9637809999999689
 20
43.3100479999999877
 30
0.0
 10
61.0596040000000002
 20
46.861058000000007
 30
0.0
  0
SPLINE
  5
4D
  8
Layer_1
 62
7
370
-1
  6
ByLayer
100
AcDbEntity
100
AcDbSpline
 70
8
 71
3
 72
8
 73
4
 74
0
 40
0.0
 40
0.0
 40
0.0
 40
0.0
 40
1.0
 40
1.0
 40
1.0
 40
1.0
 10
61.0596040000000002
 20
46.861058000000007
 30
0.0
 10
61.5578960000000066
 20
48.475767999999988
 30
0.0
 10
61.5625720000000172
 20
48.5965359999999933
 30
0.0
 10
61.5629989999999836
 20
59.8610609999999994
 30
0.0
  0
SPLINE
  5
4E
  8
Layer_1
 62
7
370
-1
  6
ByLayer
100
AcDbEntity
100
AcDbSpline
 70
8
 71
3
 72
8
 73
4
 74
0
 40
0.0
 40
0.0
 40
0.0
 40
0.0
 40
1.0
 40
1.0
 40
1.0
 40
1.0
 10
55.8196239999999975
 20
59.8610610000000065
 30
0.0
 10
55.8179310000000015
 20
48.3910730000000058
 30
0.0
 10
55.8334529999999774
 20
48.7255680000000027
 30
0.0
 10
55.25123099999999
 20
47.5329700000000059
 30
0.0
  0
SPLINE
  5
4F
  8
Layer_1
 62
7
370
-1
  6
ByLayer
100
AcDbEntity
100
AcDbSpline
 70
8
 71
3
 72
8
 73
4
 74
0
 40
0.0
 40
0.0
 40
0.0
 40
0.0
 40
1.0
 40
1.0
 40
1.0
 40
1.0
 10
55.25123099999999
 20
47.5329700000000059
 30
0.0
 10
54.6852569999999929
 20
46.3736519999999928
 30
0.0
 10
53.4425760000000096
 20
45.5097869999999887
 30
0.0
 10
51.8574359999999785
 20
45.1737280000000112
 30
0.0
  0
SPLINE
  5
50
  8
Layer_1
 62
7
370
-1
  6
ByLayer
100
AcDbEntity
100
AcDbSpline
 70
8
 71
3
 72
8
 73
4
 74
0
 40
0.0
 40
0.0
 40
0.0
 40
0.0
 40
1.0
 40
1.0
 40
1.0
 40
1.0
 10
51.8574359999999785
 20
45.1737280000000112
 30
0.0
 10
50.6969629999999825
 20
44.9277010000000132
 30
0.0
 10
48.4992279999999809
 20
45.0251580000000118
 30
0.0
 10
47.4393089999999802
 20
45.3696439999999939
 30
0.0
  0
SPLINE
  5
51
  8
Layer_1
 62
7
370
-1
  6
ByLayer
100
AcDbEntity
100
AcDbSpline
 70
8
 71
3
 72
8
 73
4
 74
0
 40
0.0
 40
0.0
 40
0.0
 40
0.0
 40
1.0
 40
1.0
 40
1.0
 40
1.0
 10
47.4393089999999802
 20
45.3696439999999939
 30
0.0
 10
45.4727279999999965
 20
46.008812000000006
 30
0.0
 10
44.4448289999999702
 20
47.407810000000012
 30
0.0
 10
44.2352569999999901
 20
49.730450999999988
 30
0.0
  0
SPLINE
  5
52
  8
Layer_1
 62
7
370
-1
  6
ByLayer
100
AcDbEntity
100
AcDbSpline
 70
8
 71
3
 72
8
 73
4
 74
0
 40
0.0
 40
0.0
 40
0.0
 40
0.0
 40
1.0
 40
1.0
 40
1.0
 40
1.0
 10
44.2352569999999901
 20
49.730450999999988
 30
0.0
 10
44.1857579999999857
 20
50.2790599999999941
 30
0.0
 10
44.1437579999999983
 20
55.1496989999999983
 30
0.0
 10
44.1419229999999914
 20
60.5540909999999997
 30
0.0
  0
LWPOLYLINE
  5
53
  8
Layer_1
 62
7
370
-1
  6
ByLayer
100
AcDbEntity
100
AcDbPolyline
 90
5
 70
0
 10
61.5629989999999836
 20
59.8610609999999994
 10
61.5632810000000035
 20
70.3802589999999952
 10
58.6921579999999992
 20
70.3802589999999952
 10
55.821035000000002
 20
70.3802589999999952
 10
55.8196239999999975
 20
59.8610610000000065
  0
SPLINE
  5
54
  8
Layer_1
 62
7
370
-1
  6
ByLayer
100
AcDbEntity
100
AcDbSpline
 70
8
 71
3
 72
8
 73
4
 74
0
 40
0.0
 40
0.0
 40
0.0
 40
0.0
 40
1.0
 40
1.0
 40
1.0
 40
1.0
 10
38.7698490000000007
 20
47.6587910000000079
 30
0.0
 10
39.6635670000000005
 20
44.4673990000000003
 30
0.0
 10
41.2106669999999795
 20
42.6376989999999978
 30
0.0
 10
44.0756290000000064
 20
41.3838389999999947
 30
0.0
  0
SPLINE
  5
55
  8
Layer_1
 62
7
370
-1
  6
ByLayer
100
AcDbEntity
100
AcDbSpline
 70
8
 71
3
 72
8
 73
4
 74
0
 40
0.0
 40
0.0
 40
0.0
 40
0.0
 40
1.0
 40
1.0
 40
1.0
 40
1.0
 10
44.0756290000000064
 20
41.3838389999999947
 30
0.0
 10
46.4885249999999957
 20
40.3278290000000084
 30
0.0
 10
49.4453869999999824
 20
39.9481100000000211
 30
0.0
 10
52.2569379999999981
 20
40.3331990000000076
 30
0.0
  0
LWPOLYLINE
  5
56
  8
Layer_1
 62
7
370
-1
  6
ByLayer
100
AcDbEntity
100
AcDbPolyline
 90
7
 70
0
 10
44.1419229999999914
 20
60.5540909999999997
 10
44.1385930000000002
 20
70.3802589999999952
 10
41.3136869999999945
 20
70.3802589999999952
 10
38.488781000000003
 20
70.3802589999999952
 10
38.5184140000000141
 20
59.4155419999999879
 10
38.5480499999999751
 20
48.450825000000016
 10
38.7698490000000007
 20
47.6587910000000079
  0
SPLINE
  5
57
  8
Layer_1
 62
7
370
-1
  6
ByLayer
100
AcDbEntity
100
AcDbSpline
 70
8
 71
3
 72
8
 73
4
 74
0
 40
0.0
 40
0.0
 40
0.0
 40
0.0
 40
1.0
 40
1.0
 40
1.0
 40
1.0
 10
60.2710250000000016
 20
19.4673420000000021
 30
0.0
 10
60.2680899999999724
 20
19.5081789999999842
 30
0.0
 10
58.9179189999999835
 20
23.3285060000000044
 30
0.0
 10
57.2706220000000101
 20
27.9569529999999986
 30
0.0
  0
LWPOLYLINE
  5
58
  8
Layer_1
 62
7
370
-1
  6
ByLayer
100
AcDbEntity
100
AcDbPolyline
 90
2
 70
0
 10
52.2569379999999981
 20
40.3331990000000076
 10
52.2569999999999837
 20
40.3331990000000076
  0
SPLINE
  5
59
  8
Layer_1
 62
7
370
-1
  6
ByLayer
100
AcDbEntity
100
AcDbSpline
 70
8
 71
3
 72
8
 73
4
 74
0
 40
0.0
 40
0.0
 40
0.0
 40
0.0
 40
1.0
 40
1.0
 40
1.0
 40
1.0
 10
48.1570729999999614
 20
29.5672429999999835
 30
0.0
 10
46.8550270000000069
 20
25.7956159999999954
 30
0.0
 10
45.5302730000000011
 20
21.9624210000000062
 30
0.0
 10
45.2131710000000027
 20
21.0490309999999994
 30
0.0
  0
LWPOLYLINE
  5
5A
  8
Layer_1
 62
7
370
-1
  6
ByLayer
100
AcDbEntity
100
AcDbPolyline
 90
5
 70
0
 10
57.2706220000000101
 20
27.9569529999999986
 10
54.2755409999999898
 20
36.3723119999999867
 10
52.3999820000000014
 20
36.3985299999999867
 10
50.5244269999999673
 20
36.4247489999999914
 10
48.1570729999999614
 20
29.5672429999999835
  0
SPLINE
  5
5B
  8
Layer_1
 62
7
370
-1
  6
ByLayer
100
AcDbEntity
100
AcDbSpline
 70
8
 71
3
 72
8
 73
4
 74
0
 40
0.0
 40
0.0
 40
0.0
 40
0.0
 40
1.0
 40
1.0
 40
1.0
 40
1.0
 10
58.6654059999999973
 20
19.3931199999999819
 30
0.0
 10
59.5514200000000216
 20
19.3931199999999961
 30
0.0
 10
60.2739489999999662
 20
19.4265329999999921
 30
0.0
 10
60.27102500000003
 20
19.4673729999999949
 30
0.0
  0
LWPOLYLINE
  5
5C
  8
Layer_1
 62
7
370
-1
  6
ByLayer
100
AcDbEntity
100
AcDbPolyline
 90
11
 70
0
 10
45.2131710000000027
 20
21.0490309999999994
 10
44.6366220000000311
 20
19.3883229999999855
 10
46.2914489999999859
 20
19.4154720000000083
 10
47.9462759999999903
 20
19.4426220000000001
 10
48.4886200000000187
 20
21.150445000000019
 10
49.030963000000007
 20
22.8582669999999979
 10
52.4683539999999908
 20
22.8582669999999979
 10
55.9057439999999843
 20
22.8582669999999979
 10
56.4801060000000277
 20
21.1256939999999958
 10
57.0544679999999715
 20
19.3931199999999819
 10
58.6654059999999973
 20
19.3931199999999819
  0
SPLINE
  5
5D
  8
Layer_1
 62
7
370
-1
  6
ByLayer
100
AcDbEntity
100
AcDbSpline
 70
8
 71
3
 72
8
 73
4
 74
0
 40
0.0
 40
0.0
 40
0.0
 40
0.0
 40
1.0
 40
1.0
 40
1.0
 40
1.0
 10
49.9799040000000119
 20
25.6055849999999907
 30
0.0
 10
49.9799039999999835
 20
25.7322069999999883
 30
0.0
 10
52.3769419999999855
 20
32.9029150000000072
 30
0.0
 10
52.4444719999999691
 20
32.9783099999999934
 30
0.0
  0
SPLINE
  5
5E
  8
Layer_1
 62
7
370
-1
  6
ByLayer
100
AcDbEntity
100
AcDbSpline
 70
8
 71
3
 72
8
 73
4
 74
0
 40
0.0
 40
0.0
 40
0.0
 40
0.0
 40
1.0
 40
1.0
 40
1.0
 40
1.0
 10
52.4444719999999691
 20
32.9783099999999934
 30
0.0
 10
52.4795209999999912
 20
33.0174399999999935
 30
0.0
 10
53.0716230000000166
 20
31.3578829999999797
 30
0.0
 10
53.7602509999999896
 20
29.2904019999999932
 30
0.0
  0
LWPOLYLINE
  5
5F
  8
Layer_1
 62
7
370
-1
  6
ByLayer
100
AcDbEntity
100
AcDbPolyline
 90
2
 70
0
 10
60.27102500000003
 20
19.4673729999999949
 10
60.2710250000000016
 20
19.4673420000000021
  0
SPLINE
  5
60
  8
Layer_1
 62
7
370
-1
  6
ByLayer
100
AcDbEntity
100
AcDbSpline
 70
8
 71
3
 72
8
 73
4
 74
0
 40
0.0
 40
0.0
 40
0.0
 40
0.0
 40
1.0
 40
1.0
 40
1.0
 40
1.0
 10
52.496105
 20
25.5313490000000058
 30
0.0
 10
51.1121939999999881
 20
25.5313490000000201
 30
0.0
 10
49.9799039999999835
 20
25.5647559999999885
 30
0.0
 10
49.9799040000000119
 20
25.6055849999999907
 30
0.0
  0
LWPOLYLINE
  5
61
  8
Layer_1
 62
7
370
-1
  6
ByLayer
100
AcDbEntity
100
AcDbPolyline
 90
3
 70
0
 10
53.7602509999999896
 20
29.2904019999999932
 10
55.0123079999999618
 20
25.5313490000000058
 10
52.496105
 20
25.5313490000000058
  0
LWPOLYLINE
  5
62
  8
Layer_1
 62
7
370
-1
  6
ByLayer
100
AcDbEntity
100
AcDbPolyline
 90
2
 70
0
 10
49.9799040000000119
 20
25.6055849999999907
 10
49.9799040000000119
 20
25.6055849999999907
  0
SPLINE
  5
63
  8
Layer_1
 62
7
370
-1
  6
ByLayer
100
AcDbEntity
100
AcDbSpline
 70
8
 71
3
 72
8
 73
4
 74
0
 40
0.0
 40
0.0
 40
0.0
 40
0.0
 40
1.0
 40
1.0
 40
1.0
 40
1.0
 10
36.6742639999999795
 20
36.421814000000019
 30
0.0
 10
31.8558079999999642
 20
36.4218140000000261
 30
0.0
 10
31.5517809999999805
 20
36.4112590000000083
 30
0.0
 10
30.9411509999999765
 20
36.222647000000002
 30
0.0
  0
SPLINE
  5
64
  8
Layer_1
 62
7
370
-1
  6
ByLayer
100
AcDbEntity
100
AcDbSpline
 70
8
 71
3
 72
8
 73
4
 74
0
 40
0.0
 40
0.0
 40
0.0
 40
0.0
 40
1.0
 40
1.0
 40
1.0
 40
1.0
 10
30.9411509999999765
 20
36.222647000000002
 30
0.0
 10
30.0622829999999794
 20
35.9511910000000015
 30
0.0
 10
29.415036999999991
 20
35.4855250000000026
 30
0.0
 10
28.9395520000000062
 20
34.782574000000011
 30
0.0
  0
SPLINE
  5
65
  8
Layer_1
 62
7
370
-1
  6
ByLayer
100
AcDbEntity
100
AcDbSpline
 70
8
 71
3
 72
8
 73
4
 74
0
 40
0.0
 40
0.0
 40
0.0
 40
0.0
 40
1.0
 40
1.0
 40
1.0
 40
1.0
 10
28.9395520000000062
 20
34.782574000000011
 30
0.0
 10
28.3929470000000101
 20
33.9744790000000023
 30
0.0
 10
28.180447000000008
 20
33.2869369999999876
 30
0.0
 10
28.1244549999999869
 20
32.1453229999999905
 30
0.0
  0
SPLINE
  5
66
  8
Layer_1
 62
7
370
-1
  6
ByLayer
100
AcDbEntity
100
AcDbSpline
 70
8
 71
3
 72
8
 73
4
 74
0
 40
0.0
 40
0.0
 40
0.0
 40
0.0
 40
1.0
 40
1.0
 40
1.0
 40
1.0
 10
28.1244549999999869
 20
32.1453229999999905
 30
0.0
 10
28.0669069999999827
 20
30.9719640000000282
 30
0.0
 10
28.3046729999999762
 20
30.0543360000000064
 30
0.0
 10
28.852059999999959
 20
29.3372170000000239
 30
0.0
  0
SPLINE
  5
67
  8
Layer_1
 62
7
370
-1
  6
ByLayer
100
AcDbEntity
100
AcDbSpline
 70
8
 71
3
 72
8
 73
4
 74
0
 40
0.0
 40
0.0
 40
0.0
 40
0.0
 40
1.0
 40
1.0
 40
1.0
 40
1.0
 10
28.852059999999959
 20
29.3372170000000239
 30
0.0
 10
29.3631530000000005
 20
28.6676480000000069
 30
0.0
 10
29.640218999999977
 20
28.447328000000013
 30
0.0
 10
30.4948279999999841
 20
28.0308980000000147
 30
0.0
  0
SPLINE
  5
68
  8
Layer_1
 62
7
370
-1
  6
ByLayer
100
AcDbEntity
100
AcDbSpline
 70
8
 71
3
 72
8
 73
4
 74
0
 40
0.0
 40
0.0
 40
0.0
 40
0.0
 40
1.0
 40
1.0
 40
1.0
 40
1.0
 10
30.4948279999999841
 20
28.0308980000000147
 30
0.0
 10
30.9135380000000168
 20
27.8268710000000112
 30
0.0
 10
31.2588149999999843
 20
27.636136999999998
 30
0.0
 10
31.2621109999999831
 20
27.6070430000000115
 30
0.0
  0
SPLINE
  5
69
  8
Layer_1
 62
7
370
-1
  6
ByLayer
100
AcDbEntity
100
AcDbSpline
 70
8
 71
3
 72
8
 73
4
 74
0
 40
0.0
 40
0.0
 40
0.0
 40
0.0
 40
1.0
 40
1.0
 40
1.0
 40
1.0
 10
31.2621109999999831
 20
27.6070430000000115
 30
0.0
 10
31.2654130000000201
 20
27.5779489999999896
 30
0.0
 10
31.0578719999999997
 20
27.4762269999999944
 30
0.0
 10
30.8009229999999832
 20
27.380993999999987
 30
0.0
  0
SPLINE
  5
6A
  8
Layer_1
 62
7
370
-1
  6
ByLayer
100
AcDbEntity
100
AcDbSpline
 70
8
 71
3
 72
8
 73
4
 74
0
 40
0.0
 40
0.0
 40
0.0
 40
0.0
 40
1.0
 40
1.0
 40
1.0
 40
1.0
 10
30.8009229999999832
 20
27.380993999999987
 30
0.0
 10
29.0512749999999649
 20
26.7325290000000209
 30
0.0
 10
28.7574389999999802
 20
26.0843920000000153
 30
0.0
 10
28.6382909999999526
 20
22.6107250000000164
 30
0.0
  0
SPLINE
  5
6B
  8
Layer_1
 62
7
370
-1
  6
ByLayer
100
AcDbEntity
100
AcDbSpline
 70
8
 71
3
 72
8
 73
4
 74
0
 40
0.0
 40
0.0
 40
0.0
 40
0.0
 40
1.0
 40
1.0
 40
1.0
 40
1.0
 10
28.6382909999999526
 20
22.6107250000000164
 30
0.0
 10
28.6046699999999952
 20
21.6305839999999847
 30
0.0
 10
28.5355930000000058
 20
20.691203999999999
 30
0.0
 10
28.4847849999999951
 20
20.5232170000000167
 30
0.0
  0
SPLINE
  5
6C
  8
Layer_1
 62
7
370
-1
  6
ByLayer
100
AcDbEntity
100
AcDbSpline
 70
8
 71
3
 72
8
 73
4
 74
0
 40
0.0
 40
0.0
 40
0.0
 40
0.0
 40
1.0
 40
1.0
 40
1.0
 40
1.0
 10
28.4847849999999951
 20
20.5232170000000167
 30
0.0
 10
28.4339760000000119
 20
20.3552269999999993
 30
0.0
 10
28.2597799999999744
 20
20.0907170000000121
 30
0.0
 10
28.0976830000000213
 20
19.935418999999996
 30
0.0
  0
SPLINE
  5
6D
  8
Layer_1
 62
7
370
-1
  6
ByLayer
100
AcDbEntity
100
AcDbSpline
 70
8
 71
3
 72
8
 73
4
 74
0
 40
0.0
 40
0.0
 40
0.0
 40
0.0
 40
1.0
 40
1.0
 40
1.0
 40
1.0
 10
28.0976830000000213
 20
19.935418999999996
 30
0.0
 10
27.5566319999999614
 20
19.4170579999999973
 30
0.0
 10
27.6236119999999623
 20
19.3930890000000176
 30
0.0
 10
29.6131819999999806
 20
19.3930890000000176
 30
0.0
  0
LWPOLYLINE
  5
6E
  8
Layer_1
 62
7
370
-1
  6
ByLayer
100
AcDbEntity
100
AcDbPolyline
 90
3
 70
0
 10
41.7625530000000111
 20
27.9074510000000018
 10
41.762553000000004
 20
36.4218140000000119
 10
36.6742639999999795
 20
36.421814000000019
  0
SPLINE
  5
6F
  8
Layer_1
 62
7
370
-1
  6
ByLayer
100
AcDbEntity
100
AcDbSpline
 70
8
 71
3
 72
8
 73
4
 74
0
 40
0.0
 40
0.0
 40
0.0
 40
0.0
 40
1.0
 40
1.0
 40
1.0
 40
1.0
 10
31.6102490000000245
 20
19.8633589999999884
 30
0.0
 10
31.7673929999999984
 20
20.2588739999999916
 30
0.0
 10
31.8062160000000311
 20
20.7034699999999816
 30
0.0
 10
31.8544810000000176
 20
22.6602259999999944
 30
0.0
  0
SPLINE
  5
70
  8
Layer_1
 62
7
370
-1
  6
ByLayer
100
AcDbEntity
100
AcDbSpline
 70
8
 71
3
 72
8
 73
4
 74
0
 40
0.0
 40
0.0
 40
0.0
 40
0.0
 40
1.0
 40
1.0
 40
1.0
 40
1.0
 10
31.8544810000000176
 20
22.6602259999999944
 30
0.0
 10
31.914805999999988
 20
25.1060260000000142
 30
0.0
 10
31.955342000000023
 20
25.3256289999999922
 30
0.0
 10
32.4248919999999998
 20
25.7505649999999946
 30
0.0
  0
SPLINE
  5
71
  8
Layer_1
 62
7
370
-1
  6
ByLayer
100
AcDbEntity
100
AcDbSpline
 70
8
 71
3
 72
8
 73
4
 74
0
 40
0.0
 40
0.0
 40
0.0
 40
0.0
 40
1.0
 40
1.0
 40
1.0
 40
1.0
 10
32.4248919999999998
 20
25.7505649999999946
 30
0.0
 10
32.9349999999999739
 20
26.2122080000000111
 30
0.0
 10
33.2654710000000122
 20
26.2634280000000047
 30
0.0
 10
35.9955559999999792
 20
26.3040029999999945
 30
0.0
  0
LWPOLYLINE
  5
72
  8
Layer_1
 62
7
370
-1
  6
ByLayer
100
AcDbEntity
100
AcDbPolyline
 90
3
 70
0
 10
29.6131819999999806
 20
19.3930890000000176
 10
31.4234039999999588
 20
19.3930890000000176
 10
31.6102490000000245
 20
19.8633589999999884
  0
SPLINE
  5
73
  8
Layer_1
 62
7
370
-1
  6
ByLayer
100
AcDbEntity
100
AcDbSpline
 70
8
 71
3
 72
8
 73
4
 74
0
 40
0.0
 40
0.0
 40
0.0
 40
0.0
 40
1.0
 40
1.0
 40
1.0
 40
1.0
 10
32.914110000000008
 20
29.0374129999999866
 30
0.0
 10
32.1693569999999625
 20
29.2126220000000174
 30
0.0
 10
31.8719369999999742
 20
29.4339290000000133
 30
0.0
 10
31.5651189999999602
 20
30.0411870000000221
 30
0.0
  0
SPLINE
  5
74
  8
Layer_1
 62
7
370
-1
  6
ByLayer
100
AcDbEntity
100
AcDbSpline
 70
8
 71
3
 72
8
 73
4
 74
0
 40
0.0
 40
0.0
 40
0.0
 40
0.0
 40
1.0
 40
1.0
 40
1.0
 40
1.0
 10
31.5651189999999602
 20
30.0411870000000221
 30
0.0
 10
31.3555520000000172
 20
30.4559659999999894
 30
0.0
 10
31.317685999999977
 20
30.6676579999999959
 30
0.0
 10
31.3181259999999959
 20
31.4221000000000004
 30
0.0
  0
SPLINE
  5
75
  8
Layer_1
 62
7
370
-1
  6
ByLayer
100
AcDbEntity
100
AcDbSpline
 70
8
 71
3
 72
8
 73
4
 74
0
 40
0.0
 40
0.0
 40
0.0
 40
0.0
 40
1.0
 40
1.0
 40
1.0
 40
1.0
 10
31.3181259999999959
 20
31.4221000000000004
 30
0.0
 10
31.3184089999999955
 20
32.1609379999999874
 30
0.0
 10
31.359128000000009
 20
32.3955550000000017
 30
0.0
 10
31.5556389999999958
 20
32.7956390000000013
 30
0.0
  0
SPLINE
  5
76
  8
Layer_1
 62
7
370
-1
  6
ByLayer
100
AcDbEntity
100
AcDbSpline
 70
8
 71
3
 72
8
 73
4
 74
0
 40
0.0
 40
0.0
 40
0.0
 40
0.0
 40
1.0
 40
1.0
 40
1.0
 40
1.0
 10
31.5556389999999958
 20
32.7956390000000013
 30
0.0
 10
31.7551080000000105
 20
33.2017429999999862
 30
0.0
 10
31.8804369999999686
 20
33.3193140000000056
 30
0.0
 10
32.3471539999999891
 20
33.5381710000000055
 30
0.0
  0
SPLINE
  5
77
  8
Layer_1
 62
7
370
-1
  6
ByLayer
100
AcDbEntity
100
AcDbSpline
 70
8
 71
3
 72
8
 73
4
 74
0
 40
0.0
 40
0.0
 40
0.0
 40
0.0
 40
1.0
 40
1.0
 40
1.0
 40
1.0
 10
32.3471539999999891
 20
33.5381710000000055
 30
0.0
 10
32.8995050000000049
 20
33.7971839999999943
 30
0.0
 10
32.9128260000000026
 20
33.798324000000008
 30
0.0
 10
35.7480469999999997
 20
33.8297489999999925
 30
0.0
  0
LWPOLYLINE
  5
78
  8
Layer_1
 62
7
370
-1
  6
ByLayer
100
AcDbEntity
100
AcDbPolyline
 90
8
 70
0
 10
35.9955559999999792
 20
26.3040029999999945
 10
38.5944189999999807
 20
26.3426249999999911
 10
38.594419000000002
 20
22.8678570000000008
 10
38.5944190000000162
 20
19.3930890000000034
 10
40.1784850000000162
 20
19.3930890000000034
 10
41.7625529999999756
 20
19.3930890000000034
 10
41.7625530000000111
 20
27.9074510000000018
 10
41.7625530000000111
 20
27.9074510000000018
  0
SPLINE
  5
79
  8
Layer_1
 62
7
370
-1
  6
ByLayer
100
AcDbEntity
100
AcDbSpline
 70
8
 71
3
 72
8
 73
4
 74
0
 40
0.0
 40
0.0
 40
0.0
 40
0.0
 40
1.0
 40
1.0
 40
1.0
 40
1.0
 10
36.0450609999999756
 20
28.8989039999999946
 30
0.0
 10
34.2270699999999835
 20
28.9000330000000076
 30
0.0
 10
33.3288519999999693
 20
28.9397050000000107
 30
0.0
 10
32.914110000000008
 20
29.0372769999999818
 30
0.0
  0
LWPOLYLINE
  5
7A
  8
Layer_1
 62
7
370
-1
  6
ByLayer
100
AcDbEntity
100
AcDbPolyline
 90
5
 70
0
 10
35.7480469999999997
 20
33.8297489999999925
 10
38.5944189999999736
 20
33.8612990000000096
 10
38.594419000000002
 20
31.3793939999999978
 10
38.5944189999999736
 20
28.8974929999999972
 10
36.0450609999999756
 20
28.8989039999999946
  0
LWPOLYLINE
  5
7B
  8
Layer_1
 62
7
370
-1
  6
ByLayer
100
AcDbEntity
100
AcDbPolyline
 90
2
 70
0
 10
32.914110000000008
 20
29.0372769999999818
 10
32.914110000000008
 20
29.0374129999999866
  0
SPLINE
  5
7C
  8
Layer_1
 62
7
370
-1
  6
ByLayer
100
AcDbEntity
100
AcDbSpline
 70
8
 71
3
 72
8
 73
4
 74
0
 40
0.0
 40
0.0
 40
0.0
 40
0.0
 40
1.0
 40
1.0
 40
1.0
 40
1.0
 10
25.1259419999999949
 20
70.3802589999999952
 30
0.0
 10
20.9191119999999948
 20
70.3802589999999952
 30
0.0
 10
17.9245849999999933
 20
70.339429999999993
 30
0.0
 10
17.3385200000000026
 20
70.2740790000000004
 30
0.0
  0
SPLINE
  5
7D
  8
Layer_1
 62
7
370
-1
  6
ByLayer
100
AcDbEntity
100
AcDbSpline
 70
8
 71
3
 72
8
 73
4
 74
0
 40
0.0
 40
0.0
 40
0.0
 40
0.0
 40
1.0
 40
1.0
 40
1.0
 40
1.0
 10
17.3385200000000026
 20
70.2740790000000004
 30
0.0
 10
14.3277870000000007
 20
69.9383640000000071
 30
0.0
 10
12.2454750000000061
 20
68.8413070000000005
 30
0.0
 10
10.8858330000000052
 20
66.8745120000000099
 30
0.0
  0
SPLINE
  5
7E
  8
Layer_1
 62
7
370
-1
  6
ByLayer
100
AcDbEntity
100
AcDbSpline
 70
8
 71
3
 72
8
 73
4
 74
0
 40
0.0
 40
0.0
 40
0.0
 40
0.0
 40
1.0
 40
1.0
 40
1.0
 40
1.0
 10
10.8858330000000052
 20
66.8745120000000099
 30
0.0
 10
9.9441510000000122
 20
65.5123209999999858
 30
0.0
 10
9.4860249999999979
 20
64.1488970000000052
 30
0.0
 10
9.4886410000000012
 20
62.7163480000000035
 30
0.0
  0
SPLINE
  5
7F
  8
Layer_1
 62
7
370
-1
  6
ByLayer
100
AcDbEntity
100
AcDbSpline
 70
8
 71
3
 72
8
 73
4
 74
0
 40
0.0
 40
0.0
 40
0.0
 40
0.0
 40
1.0
 40
1.0
 40
1.0
 40
1.0
 10
9.4886410000000012
 20
62.7163480000000035
 30
0.0
 10
9.493015999999983
 20
60.3218480000000028
 30
0.0
 10
10.3863649999999978
 20
58.9964790000000079
 30
0.0
 10
13.4884019999999794
 20
56.7822930000000241
 30
0.0
  0
SPLINE
  5
80
  8
Layer_1
 62
7
370
-1
  6
ByLayer
100
AcDbEntity
100
AcDbSpline
 70
8
 71
3
 72
8
 73
4
 74
0
 40
0.0
 40
0.0
 40
0.0
 40
0.0
 40
1.0
 40
1.0
 40
1.0
 40
1.0
 10
13.4884019999999794
 20
56.7822930000000241
 30
0.0
 10
13.6645369999999815
 20
56.6565740000000204
 30
0.0
 10
13.6189489999999935
 20
56.6079670000000164
 30
0.0
 10
12.8448759999999922
 20
56.0961289999999906
 30
0.0
  0
SPLINE
  5
81
  8
Layer_1
 62
7
370
-1
  6
ByLayer
100
AcDbEntity
100
AcDbSpline
 70
8
 71
3
 72
8
 73
4
 74
0
 40
0.0
 40
0.0
 40
0.0
 40
0.0
 40
1.0
 40
1.0
 40
1.0
 40
1.0
 10
12.8448759999999922
 20
56.0961289999999906
 30
0.0
 10
11.079823999999995
 20
54.9290330000000182
 30
0.0
 10
9.9341180000000051
 20
53.7114100000000008
 30
0.0
 10
9.2842500000000143
 20
52.3119890000000041
 30
0.0
  0
SPLINE
  5
82
  8
Layer_1
 62
7
370
-1
  6
ByLayer
100
AcDbEntity
100
AcDbSpline
 70
8
 71
3
 72
8
 73
4
 74
0
 40
0.0
 40
0.0
 40
0.0
 40
0.0
 40
1.0
 40
1.0
 40
1.0
 40
1.0
 10
9.2842500000000143
 20
52.3119890000000041
 30
0.0
 10
8.7637869999999864
 20
51.1912340000000157
 30
0.0
 10
8.6437379999999919
 20
50.6123049999999992
 30
0.0
 10
8.6580840000000023
 20
49.2923610000000068
 30
0.0
  0
SPLINE
  5
83
  8
Layer_1
 62
7
370
-1
  6
ByLayer
100
AcDbEntity
100
AcDbSpline
 70
8
 71
3
 72
8
 73
4
 74
0
 40
0.0
 40
0.0
 40
0.0
 40
0.0
 40
1.0
 40
1.0
 40
1.0
 40
1.0
 10
8.6580840000000023
 20
49.2923610000000068
 30
0.0
 10
8.6726460000000145
 20
47.9531430000000043
 30
0.0
 10
8.8902029999999996
 20
47.0155439999999984
 30
0.0
 10
9.4422890000000024
 20
45.9127889999999965
 30
0.0
  0
SPLINE
  5
84
  8
Layer_1
 62
7
370
-1
  6
ByLayer
100
AcDbEntity
100
AcDbSpline
 70
8
 71
3
 72
8
 73
4
 74
0
 40
0.0
 40
0.0
 40
0.0
 40
0.0
 40
1.0
 40
1.0
 40
1.0
 40
1.0
 10
9.4422890000000024
 20
45.9127889999999965
 30
0.0
 10
10.9575539999999947
 20
42.8861530000000073
 30
0.0
 10
13.3758769999999885
 20
41.4810200000000009
 30
0.0
 10
17.6021120000000053
 20
41.1716330000000141
 30
0.0
  0
SPLINE
  5
85
  8
Layer_1
 62
7
370
-1
  6
ByLayer
100
AcDbEntity
100
AcDbSpline
 70
8
 71
3
 72
8
 73
4
 74
0
 40
0.0
 40
0.0
 40
0.0
 40
0.0
 40
1.0
 40
1.0
 40
1.0
 40
1.0
 10
17.6021120000000053
 20
41.1716330000000141
 30
0.0
 10
18.2846440000000108
 20
41.12166899999999
 30
0.0
 10
21.7946390000000036
 20
41.0794880000000049
 30
0.0
 10
25.4021049999999846
 20
41.0778990000000164
 30
0.0
  0
LWPOLYLINE
  5
86
  8
Layer_1
 62
7
370
-1
  6
ByLayer
100
AcDbEntity
100
AcDbPolyline
 90
3
 70
0
 10
31.9611359999999998
 20
55.7276369999999943
 10
31.9611359999999927
 20
70.3802589999999952
 10
25.1259419999999949
 20
70.3802589999999952
  0
SPLINE
  5
87
  8
Layer_1
 62
7
370
-1
  6
ByLayer
100
AcDbEntity
100
AcDbSpline
 70
8
 71
3
 72
8
 73
4
 74
0
 40
0.0
 40
0.0
 40
0.0
 40
0.0
 40
1.0
 40
1.0
 40
1.0
 40
1.0
 10
17.1617330000000052
 20
45.977084999999974
 30
0.0
 10
15.8297230000000013
 20
46.259237000000013
 30
0.0
 10
14.8689059999999884
 20
46.9572310000000215
 30
0.0
 10
14.4220919999999992
 20
47.9673300000000182
 30
0.0
  0
SPLINE
  5
88
  8
Layer_1
 62
7
370
-1
  6
ByLayer
100
AcDbEntity
100
AcDbSpline
 70
8
 71
3
 72
8
 73
4
 74
0
 40
0.0
 40
0.0
 40
0.0
 40
0.0
 40
1.0
 40
1.0
 40
1.0
 40
1.0
 10
14.4220919999999992
 20
47.9673300000000182
 30
0.0
 10
14.0174329999999827
 20
48.8821280000000087
 30
0.0
 10
14.0182539999999989
 20
50.7934979999999996
 30
0.0
 10
14.4237850000000023
 20
51.7100769999999983
 30
0.0
  0
SPLINE
  5
89
  8
Layer_1
 62
7
370
-1
  6
ByLayer
100
AcDbEntity
100
AcDbSpline
 70
8
 71
3
 72
8
 73
4
 74
0
 40
0.0
 40
0.0
 40
0.0
 40
0.0
 40
1.0
 40
1.0
 40
1.0
 40
1.0
 10
14.4237850000000023
 20
51.7100769999999983
 30
0.0
 10
14.6877810000000082
 20
52.30688099999999
 30
0.0
 10
15.3673689999999823
 20
53.0207080000000275
 30
0.0
 10
15.9550890000000081
 20
53.3185259999999772
 30
0.0
  0
SPLINE
  5
8A
  8
Layer_1
 62
7
370
-1
  6
ByLayer
100
AcDbEntity
100
AcDbSpline
 70
8
 71
3
 72
8
 73
4
 74
0
 40
0.0
 40
0.0
 40
0.0
 40
0.0
 40
1.0
 40
1.0
 40
1.0
 40
1.0
 10
15.9550890000000081
 20
53.3185259999999772
 30
0.0
 10
16.9006940000000156
 20
53.7977030000000056
 30
0.0
 10
17.4195959999999843
 20
53.8429820000000205
 30
0.0
 10
21.9865469999999803
 20
53.8448359999999937
 30
0.0
  0
LWPOLYLINE
  5
8B
  8
Layer_1
 62
7
370
-1
  6
ByLayer
100
AcDbEntity
100
AcDbPolyline
 90
4
 70
0
 10
25.4021049999999846
 20
41.0778990000000164
 10
31.961135999999982
 20
41.0750200000000021
 10
31.9611359999999927
 20
55.7276449999999954
 10
31.9611359999999998
 20
55.7276369999999943
  0
SPLINE
  5
8C
  8
Layer_1
 62
7
370
-1
  6
ByLayer
100
AcDbEntity
100
AcDbSpline
 70
8
 71
3
 72
8
 73
4
 74
0
 40
0.0
 40
0.0
 40
0.0
 40
0.0
 40
1.0
 40
1.0
 40
1.0
 40
1.0
 10
22.0360519999999802
 20
45.8288820000000001
 30
0.0
 10
18.7269820000000244
 20
45.8302930000000046
 30
0.0
 10
17.7087049999999877
 20
45.861192999999993
 30
0.0
 10
17.1618229999999912
 20
45.9770370000000028
 30
0.0
  0
LWPOLYLINE
  5
8D
  8
Layer_1
 62
7
370
-1
  6
ByLayer
100
AcDbEntity
100
AcDbPolyline
 90
5
 70
0
 10
21.9865469999999803
 20
53.8448359999999937
 10
26.2189799999999877
 20
53.8465300000000084
 10
26.2189799999999948
 20
49.8368600000000015
 10
26.218980000000002
 20
45.8271880000000067
 10
22.0360519999999802
 20
45.8288820000000001
  0
SPLINE
  5
8E
  8
Layer_1
 62
7
370
-1
  6
ByLayer
100
AcDbEntity
100
AcDbSpline
 70
8
 71
3
 72
8
 73
4
 74
0
 40
0.0
 40
0.0
 40
0.0
 40
0.0
 40
1.0
 40
1.0
 40
1.0
 40
1.0
 10
17.209506999999995
 20
58.8747190000000131
 30
0.0
 10
16.2394730000000038
 20
59.2062999999999988
 30
0.0
 10
15.7057989999999918
 20
59.6487789999999976
 30
0.0
 10
15.3125929999999997
 20
60.447496000000001
 30
0.0
  0
SPLINE
  5
8F
  8
Layer_1
 62
7
370
-1
  6
ByLayer
100
AcDbEntity
100
AcDbSpline
 70
8
 71
3
 72
8
 73
4
 74
0
 40
0.0
 40
0.0
 40
0.0
 40
0.0
 40
1.0
 40
1.0
 40
1.0
 40
1.0
 10
15.3125929999999997
 20
60.447496000000001
 30
0.0
 10
15.0042339999999825
 20
61.0738600000000176
 30
0.0
 10
14.9819129999999916
 20
61.1863140000000243
 30
0.0
 10
14.9819130000000129
 20
62.1134089999999759
 30
0.0
  0
SPLINE
  5
90
  8
Layer_1
 62
7
370
-1
  6
ByLayer
100
AcDbEntity
100
AcDbSpline
 70
8
 71
3
 72
8
 73
4
 74
0
 40
0.0
 40
0.0
 40
0.0
 40
0.0
 40
1.0
 40
1.0
 40
1.0
 40
1.0
 10
14.9819130000000129
 20
62.1134089999999759
 30
0.0
 10
14.98191300000002
 20
63.037169999999989
 30
0.0
 10
15.0049429999999901
 20
63.154422000000018
 30
0.0
 10
15.3071320000000028
 20
63.7682269999999889
 30
0.0
  0
SPLINE
  5
91
  8
Layer_1
 62
7
370
-1
  6
ByLayer
100
AcDbEntity
100
AcDbSpline
 70
8
 71
3
 72
8
 73
4
 74
0
 40
0.0
 40
0.0
 40
0.0
 40
0.0
 40
1.0
 40
1.0
 40
1.0
 40
1.0
 10
15.3071320000000028
 20
63.7682269999999889
 30
0.0
 10
15.693959999999997
 20
64.553984000000014
 30
0.0
 10
16.1598330000000132
 20
64.958439999999996
 30
0.0
 10
17.0950009999999892
 20
65.3204010000000181
 30
0.0
  0
LWPOLYLINE
  5
92
  8
Layer_1
 62
7
370
-1
  6
ByLayer
100
AcDbEntity
100
AcDbPolyline
 90
3
 70
0
 10
17.1618229999999912
 20
45.9770370000000028
 10
17.1618230000000125
 20
45.9770310000000038
 10
17.1617330000000052
 20
45.977084999999974
  0
SPLINE
  5
93
  8
Layer_1
 62
7
370
-1
  6
ByLayer
100
AcDbEntity
100
AcDbSpline
 70
8
 71
3
 72
8
 73
4
 74
0
 40
0.0
 40
0.0
 40
0.0
 40
0.0
 40
1.0
 40
1.0
 40
1.0
 40
1.0
 10
22.0359619999999872
 20
58.6208890000000196
 30
0.0
 10
18.0200380000000067
 20
58.6533949999999749
 30
0.0
 10
17.8273429999999848
 20
58.663527000000002
 30
0.0
 10
17.209506999999995
 20
58.8747190000000131
 30
0.0
  0
LWPOLYLINE
  5
94
  8
Layer_1
 62
7
370
-1
  6
ByLayer
100
AcDbEntity
100
AcDbPolyline
 90
7
 70
0
 10
17.0950009999999892
 20
65.3204010000000181
 10
17.7540299999999931
 20
65.575482000000008
 10
21.9864599999999903
 20
65.6075759999999946
 10
26.2188899999999983
 20
65.6396709999999928
 10
26.2188899999999983
 20
62.1133519999999919
 10
26.2188899999999983
 20
58.5870309999999961
 10
22.0359619999999872
 20
58.6208890000000196
  0
LWPOLYLINE
  5
95
  8
Layer_1
 62
7
370
-1
  6
ByLayer
100
AcDbEntity
100
AcDbPolyline
 90
2
 70
0
 10
17.209506999999995
 20
58.8747190000000131
 10
17.209506999999995
 20
58.8747190000000131
  0
SPLINE
  5
96
  8
Layer_1
 62
7
370
-1
  6
ByLayer
100
AcDbEntity
100
AcDbSpline
 70
8
 71
3
 72
8
 73
4
 74
0
 40
0.0
 40
0.0
 40
0.0
 40
0.0
 40
1.0
 40
1.0
 40
1.0
 40
1.0
 10
18.8720760000000283
 20
29.5410329999999917
 30
0.0
 10
18.0148140000000083
 20
25.7838219999999865
 30
0.0
 10
17.312314999999991
 20
22.6986030000000056
 30
0.0
 10
17.3109660000000005
 20
22.6849890000000016
 30
0.0
  0
SPLINE
  5
97
  8
Layer_1
 62
7
370
-1
  6
ByLayer
100
AcDbEntity
100
AcDbSpline
 70
8
 71
3
 72
8
 73
4
 74
0
 40
0.0
 40
0.0
 40
0.0
 40
0.0
 40
1.0
 40
1.0
 40
1.0
 40
1.0
 10
17.3109660000000005
 20
22.6849890000000016
 30
0.0
 10
17.3095549999999889
 20
22.671385000000015
 30
0.0
 10
17.226618000000002
 20
22.6602380000000068
 30
0.0
 10
17.126527999999972
 20
22.660238000000021
 30
0.0
  0
SPLINE
  5
98
  8
Layer_1
 62
7
370
-1
  6
ByLayer
100
AcDbEntity
100
AcDbSpline
 70
8
 71
3
 72
8
 73
4
 74
0
 40
0.0
 40
0.0
 40
0.0
 40
0.0
 40
1.0
 40
1.0
 40
1.0
 40
1.0
 10
17.126527999999972
 20
22.660238000000021
 30
0.0
 10
16.9719100000000083
 20
22.6602380000000068
 30
0.0
 10
16.8911859999999621
 20
22.9021590000000259
 30
0.0
 10
16.589702000000031
 20
24.2690569999999894
 30
0.0
  0
SPLINE
  5
99
  8
Layer_1
 62
7
370
-1
  6
ByLayer
100
AcDbEntity
100
AcDbSpline
 70
8
 71
3
 72
8
 73
4
 74
0
 40
0.0
 40
0.0
 40
0.0
 40
0.0
 40
1.0
 40
1.0
 40
1.0
 40
1.0
 10
16.589702000000031
 20
24.2690569999999894
 30
0.0
 10
16.3945369999999784
 20
25.1539080000000297
 30
0.0
 10
15.7121210000000033
 20
28.2502639999999801
 30
0.0
 10
15.0732209999999682
 20
31.1498490000000103
 30
0.0
  0
LWPOLYLINE
  5
9A
  8
Layer_1
 62
7
370
-1
  6
ByLayer
100
AcDbEntity
100
AcDbPolyline
 90
5
 70
0
 10
25.5258620000000143
 20
27.9091219999999964
 10
25.5258619999999716
 20
36.4251550000000037
 10
22.9782959999999932
 20
36.3987389999999991
 10
20.4307319999999919
 20
36.3723230000000015
 10
18.8720760000000283
 20
29.5410329999999917
  0
SPLINE
  5
9B
  8
Layer_1
 62
7
370
-1
  6
ByLayer
100
AcDbEntity
100
AcDbSpline
 70
8
 71
3
 72
8
 73
4
 74
0
 40
0.0
 40
0.0
 40
0.0
 40
0.0
 40
1.0
 40
1.0
 40
1.0
 40
1.0
 10
12.0612889999999879
 20
26.1253869999999964
 30
0.0
 10
12.0612890000000021
 20
32.5726190000000102
 30
0.0
 10
12.068936999999984
 20
32.8576720000000151
 30
0.0
 10
12.2416879999999964
 20
32.857672000000008
 30
0.0
  0
SPLINE
  5
9C
  8
Layer_1
 62
7
370
-1
  6
ByLayer
100
AcDbEntity
100
AcDbSpline
 70
8
 71
3
 72
8
 73
4
 74
0
 40
0.0
 40
0.0
 40
0.0
 40
0.0
 40
1.0
 40
1.0
 40
1.0
 40
1.0
 10
12.2416879999999964
 20
32.857672000000008
 30
0.0
 10
12.3994729999999862
 20
32.857672000000008
 30
0.0
 10
12.6135549999999839
 20
32.0137900000000215
 30
0.0
 10
13.9495100000000107
 20
26.1257119999999858
 30
0.0
  0
LWPOLYLINE
  5
9D
  8
Layer_1
 62
7
370
-1
  6
ByLayer
100
AcDbEntity
100
AcDbPolyline
 90
9
 70
0
 10
15.0732209999999682
 20
31.1498490000000103
 10
13.9115829999999647
 20
36.4218250000000268
 10
11.3528659999999775
 20
36.4218250000000339
 10
8.7941490000000115
 20
36.4218250000000126
 10
8.7941490000000186
 20
27.9074629999999999
 10
8.7941490000000186
 20
19.3931010000000015
 10
10.4277189999999536
 20
19.3931010000000299
 10
12.0612890000000164
 20
19.3931010000000015
 10
12.0612889999999879
 20
26.1253869999999964
  0
SPLINE
  5
9E
  8
Layer_1
 62
7
370
-1
  6
ByLayer
100
AcDbEntity
100
AcDbSpline
 70
8
 71
3
 72
8
 73
4
 74
0
 40
0.0
 40
0.0
 40
0.0
 40
0.0
 40
1.0
 40
1.0
 40
1.0
 40
1.0
 10
18.8746099999999721
 20
19.8139560000000188
 30
0.0
 10
19.0604899999999624
 20
20.562121000000019
 30
0.0
 10
21.8627049999999841
 20
32.7403490000000232
 30
0.0
 10
21.8627049999999805
 20
32.8000160000000136
 30
0.0
  0
SPLINE
  5
9F
  8
Layer_1
 62
7
370
-1
  6
ByLayer
100
AcDbEntity
100
AcDbSpline
 70
8
 71
3
 72
8
 73
4
 74
0
 40
0.0
 40
0.0
 40
0.0
 40
0.0
 40
1.0
 40
1.0
 40
1.0
 40
1.0
 10
21.8627049999999805
 20
32.8000160000000136
 30
0.0
 10
21.8627050000000018
 20
32.8317749999999933
 30
0.0
 10
21.9518090000000079
 20
32.8577589999999802
 30
0.0
 10
22.0607150000000054
 20
32.8577589999999873
 30
0.0
  0
SPLINE
  5
A0
  8
Layer_1
 62
7
370
-1
  6
ByLayer
100
AcDbEntity
100
AcDbSpline
 70
8
 71
3
 72
8
 73
4
 74
0
 40
0.0
 40
0.0
 40
0.0
 40
0.0
 40
1.0
 40
1.0
 40
1.0
 40
1.0
 10
22.0607150000000054
 20
32.8577589999999873
 30
0.0
 10
22.2567810000000001
 20
32.8577589999999873
 30
0.0
 10
22.2587220000000165
 20
32.7917590000000061
 30
0.0
 10
22.2587219999999739
 20
26.1254750000000158
 30
0.0
  0
LWPOLYLINE
  5
A1
  8
Layer_1
 62
7
370
-1
  6
ByLayer
100
AcDbEntity
100
AcDbPolyline
 90
5
 70
0
 10
13.9495100000000107
 20
26.1257119999999858
 10
15.4769339999999858
 20
19.3937520000000205
 10
17.123500000000007
 20
19.3934699999999935
 10
18.7700690000000066
 20
19.393187999999995
 10
18.8746099999999721
 20
19.8139560000000188
  0
LWPOLYLINE
  5
A2
  8
Layer_1
 62
7
370
-1
  6
ByLayer
100
AcDbEntity
100
AcDbPolyline
 90
6
 70
0
 10
22.2587219999999739
 20
26.1254750000000158
 10
22.258721999999981
 20
19.393187999999995
 10
23.8922919999999657
 20
19.3931880000000092
 10
25.5258619999999574
 20
19.3931880000000092
 10
25.5258619999999894
 20
27.9092210000000165
 10
25.5258620000000143
 20
27.9091219999999964
  0
SPLINE
  5
A3
  8
Layer_1
 62
7
370
-1
  6
ByLayer
100
AcDbEntity
100
AcDbSpline
 70
8
 71
3
 72
8
 73
4
 74
0
 40
0.0
 40
0.0
 40
0.0
 40
0.0
 40
1.0
 40
1.0
 40
1.0
 40
1.0
 10
91.0240259999999921
 20
19.5663449999999983
 30
0.0
 10
90.9932419999999809
 20
19.6616379999999964
 30
0.0
 10
89.6384229999999889
 20
23.48196200000001
 30
0.0
 10
88.0133169999999723
 20
28.0559569999999781
 30
0.0
  0
LWPOLYLINE
  5
A4
  8
Layer_1
 62
7
370
-1
  6
ByLayer
100
AcDbEntity
100
AcDbPolyline
 90
14
 70
0
 10
73.7409159999999702
 20
27.9074510000000018
 10
73.7409159999999702
 20
36.4218140000000048
 10
72.1568479999999681
 20
36.4218140000000119
 10
70.5727790000000113
 20
36.4218140000000261
 10
70.5727790000000113
 20
29.1945059999999827
 10
70.572778999999997
 20
21.9671989999999795
 10
66.3650999999999698
 20
21.9671989999999795
 10
62.1574209999999709
 20
21.9671989999999795
 10
62.1574210000000065
 20
20.6801439999999985
 10
62.1574209999999852
 20
19.3930889999999891
 10
67.9491680000000002
 20
19.3930890000000034
 10
73.7409159999999417
 20
19.3930889999999891
 10
73.7409159999999702
 20
27.9074510000000018
 10
73.7409159999999702
 20
27.9074510000000018
  0
SPLINE
  5
A5
  8
Layer_1
 62
7
370
-1
  6
ByLayer
100
AcDbEntity
100
AcDbSpline
 70
8
 71
3
 72
8
 73
4
 74
0
 40
0.0
 40
0.0
 40
0.0
 40
0.0
 40
1.0
 40
1.0
 40
1.0
 40
1.0
 10
79.1120250000000169
 20
30.0628590000000031
 30
0.0
 10
77.9023109999999548
 20
26.5631649999999837
 30
0.0
 10
76.5783019999999794
 20
22.7297010000000057
 30
0.0
 10
76.1697849999999761
 20
21.5440519999999793
 30
0.0
  0
LWPOLYLINE
  5
A6
  8
Layer_1
 62
7
370
-1
  6
ByLayer
100
AcDbEntity
100
AcDbPolyline
 90
5
 70
0
 10
88.0133169999999723
 20
28.0559569999999781
 10
85.0585769999999854
 20
36.3723119999999867
 10
83.1850450000000023
 20
36.3991229999999888
 10
81.3115099999999842
 20
36.425933999999998
 10
79.1120250000000169
 20
30.0628590000000031
  0
SPLINE
  5
A7
  8
Layer_1
 62
7
370
-1
  6
ByLayer
100
AcDbEntity
100
AcDbSpline
 70
8
 71
3
 72
8
 73
4
 74
0
 40
0.0
 40
0.0
 40
0.0
 40
0.0
 40
1.0
 40
1.0
 40
1.0
 40
1.0
 10
89.4623880000000042
 20
19.3931199999999961
 30
0.0
 10
90.9582860000000153
 20
19.3931199999999961
 30
0.0
 10
91.0757849999999962
 20
19.4061590000000024
 30
0.0
 10
91.0240259999999921
 20
19.566377000000017
 30
0.0
  0
LWPOLYLINE
  5
A8
  8
Layer_1
 62
7
370
-1
  6
ByLayer
100
AcDbEntity
100
AcDbPolyline
 90
11
 70
0
 10
76.1697849999999761
 20
21.5440519999999793
 10
75.4270300000000162
 20
19.3883229999999998
 10
77.0767320000000211
 20
19.4154720000000083
 10
78.7264309999999909
 20
19.4426220000000001
 10
79.2704309999999737
 20
21.1504449999999906
 10
79.8144309999999848
 20
22.8582669999999979
 10
83.2552420000000097
 20
22.8582670000000121
 10
86.696052999999992
 20
22.8582669999999979
 10
87.2704179999999781
 20
21.1256939999999958
 10
87.8447789999999458
 20
19.3931199999999677
 10
89.4623880000000042
 20
19.3931199999999961
  0
SPLINE
  5
A9
  8
Layer_1
 62
7
370
-1
  6
ByLayer
100
AcDbEntity
100
AcDbSpline
 70
8
 71
3
 72
8
 73
4
 74
0
 40
0.0
 40
0.0
 40
0.0
 40
0.0
 40
1.0
 40
1.0
 40
1.0
 40
1.0
 10
80.770212999999984
 20
25.6071479999999951
 30
0.0
 10
80.7702129999999556
 20
25.680367999999973
 30
0.0
 10
83.0829429999999576
 20
32.6557699999999755
 30
0.0
 10
83.2069820000000107
 20
32.9566670000000101
 30
0.0
  0
SPLINE
  5
AA
  8
Layer_1
 62
7
370
-1
  6
ByLayer
100
AcDbEntity
100
AcDbSpline
 70
8
 71
3
 72
8
 73
4
 74
0
 40
0.0
 40
0.0
 40
0.0
 40
0.0
 40
1.0
 40
1.0
 40
1.0
 40
1.0
 10
83.2069820000000107
 20
32.9566670000000101
 30
0.0
 10
83.2624249999999932
 20
33.0911570000000026
 30
0.0
 10
85.7204250000000059
 20
25.9516460000000109
 30
0.0
 10
85.7204250000000343
 20
25.6561140000000165
 30
0.0
  0
SPLINE
  5
AB
  8
Layer_1
 62
7
370
-1
  6
ByLayer
100
AcDbEntity
100
AcDbSpline
 70
8
 71
3
 72
8
 73
4
 74
0
 40
0.0
 40
0.0
 40
0.0
 40
0.0
 40
1.0
 40
1.0
 40
1.0
 40
1.0
 10
85.7204250000000343
 20
25.6561140000000165
 30
0.0
 10
85.7204249999999774
 20
25.5590919999999784
 30
0.0
 10
85.1700800000000271
 20
25.5313490000000201
 30
0.0
 10
83.2453190000000234
 20
25.5313490000000201
 30
0.0
  0
SPLINE
  5
AC
  8
Layer_1
 62
7
370
-1
  6
ByLayer
100
AcDbEntity
100
AcDbSpline
 70
8
 71
3
 72
8
 73
4
 74
0
 40
0.0
 40
0.0
 40
0.0
 40
0.0
 40
1.0
 40
1.0
 40
1.0
 40
1.0
 10
83.2453190000000234
 20
25.5313490000000201
 30
0.0
 10
81.8840119999999843
 20
25.5313489999999916
 30
0.0
 10
80.770212999999984
 20
25.5654590000000042
 30
0.0
 10
80.770212999999984
 20
25.6071479999999951
 30
0.0
  0
LWPOLYLINE
  5
AD
  8
Layer_1
 62
7
370
-1
  6
ByLayer
100
AcDbEntity
100
AcDbPolyline
 90
2
 70
0
 10
91.0240259999999921
 20
19.566377000000017
 10
91.0240259999999921
 20
19.5663449999999983
  0
LWPOLYLINE
  5
AE
  8
Layer_1
 62
7
370
-1
  6
ByLayer
100
AcDbEntity
100
AcDbPolyline
 90
2
 70
0
 10
80.770212999999984
 20
25.6071479999999951
 10
80.770212999999984
 20
25.6071479999999951
  0
SPLINE
  5
AF
  8
Layer_1
 62
7
370
-1
  6
ByLayer
100
AcDbEntity
100
AcDbSpline
 70
8
 71
3
 72
8
 73
4
 74
0
 40
0.0
 40
0.0
 40
0.0
 40
0.0
 40
1.0
 40
1.0
 40
1.0
 40
1.0
 10
81.954363999999984
 20
70.380258999999981
 30
0.0
 10
77.8655509999999964
 20
70.3802589999999952
 30
0.0
 10
74.8403409999999951
 20
70.3388909999999896
 30
0.0
 10
74.2567840000000103
 20
70.2750010000000032
 30
0.0
  0
SPLINE
  5
B0
  8
Layer_1
 62
7
370
-1
  6
ByLayer
100
AcDbEntity
100
AcDbSpline
 70
8
 71
3
 72
8
 73
4
 74
0
 40
0.0
 40
0.0
 40
0.0
 40
0.0
 40
1.0
 40
1.0
 40
1.0
 40
1.0
 10
74.2567840000000103
 20
70.2750010000000032
 30
0.0
 10
69.9508409999999969
 20
69.8035580000000095
 30
0.0
 10
67.3464540000000085
 20
67.5068980000000067
 30
0.0
 10
66.6611029999999971
 20
63.5767979999999966
 30
0.0
  0
SPLINE
  5
B1
  8
Layer_1
 62
7
370
-1
  6
ByLayer
100
AcDbEntity
100
AcDbSpline
 70
8
 71
3
 72
8
 73
4
 74
0
 40
0.0
 40
0.0
 40
0.0
 40
0.0
 40
1.0
 40
1.0
 40
1.0
 40
1.0
 10
66.6611029999999971
 20
63.5767979999999966
 30
0.0
 10
66.467148999999992
 20
62.4645800000000051
 30
0.0
 10
66.4698240000000169
 20
60.1637100000000089
 30
0.0
 10
66.6663810000000012
 20
59.0324929999999881
 30
0.0
  0
SPLINE
  5
B2
  8
Layer_1
 62
7
370
-1
  6
ByLayer
100
AcDbEntity
100
AcDbSpline
 70
8
 71
3
 72
8
 73
4
 74
0
 40
0.0
 40
0.0
 40
0.0
 40
0.0
 40
1.0
 40
1.0
 40
1.0
 40
1.0
 10
66.6663810000000012
 20
59.0324929999999881
 30
0.0
 10
67.3004920000000197
 20
55.3832439999999977
 30
0.0
 10
69.5497319999999775
 20
52.8168870000000013
 30
0.0
 10
72.8770049999999969
 20
51.9462460000000092
 30
0.0
  0
SPLINE
  5
B3
  8
Layer_1
 62
7
370
-1
  6
ByLayer
100
AcDbEntity
100
AcDbSpline
 70
8
 71
3
 72
8
 73
4
 74
0
 40
0.0
 40
0.0
 40
0.0
 40
0.0
 40
1.0
 40
1.0
 40
1.0
 40
1.0
 10
72.8770049999999969
 20
51.9462460000000092
 30
0.0
 10
73.6428549999999831
 20
51.7458479999999881
 30
0.0
 10
73.9702719999999658
 20
51.7308059999999941
 30
0.0
 10
78.3693519999999921
 20
51.6939079999999933
 30
0.0
  0
LWPOLYLINE
  5
B4
  8
Layer_1
 62
7
370
-1
  6
ByLayer
100
AcDbEntity
100
AcDbPolyline
 90
3
 70
0
 10
88.6905509999999992
 20
55.7276369999999943
 10
88.6905509999999992
 20
70.380258999999981
 10
81.954363999999984
 20
70.380258999999981
  0
SPLINE
  5
B5
  8
Layer_1
 62
7
370
-1
  6
ByLayer
100
AcDbEntity
100
AcDbSpline
 70
8
 71
3
 72
8
 73
4
 74
0
 40
0.0
 40
0.0
 40
0.0
 40
0.0
 40
1.0
 40
1.0
 40
1.0
 40
1.0
 10
75.5659250000000071
 20
56.5279650000000089
 30
0.0
 10
73.2688760000000059
 20
56.9475229999999968
 30
0.0
 10
71.9826659999999947
 20
58.8551730000000077
 30
0.0
 10
72.2063040000000029
 20
61.510795999999992
 30
0.0
  0
SPLINE
  5
B6
  8
Layer_1
 62
7
370
-1
  6
ByLayer
100
AcDbEntity
100
AcDbSpline
 70
8
 71
3
 72
8
 73
4
 74
0
 40
0.0
 40
0.0
 40
0.0
 40
0.0
 40
1.0
 40
1.0
 40
1.0
 40
1.0
 10
72.2063040000000029
 20
61.510795999999992
 30
0.0
 10
72.3975829999999974
 20
63.7821830000000034
 30
0.0
 10
73.3716359999999952
 20
65.0128779999999864
 30
0.0
 10
75.3466159999999974
 20
65.4785109999999975
 30
0.0
  0
SPLINE
  5
B7
  8
Layer_1
 62
7
370
-1
  6
ByLayer
100
AcDbEntity
100
AcDbSpline
 70
8
 71
3
 72
8
 73
4
 74
0
 40
0.0
 40
0.0
 40
0.0
 40
0.0
 40
1.0
 40
1.0
 40
1.0
 40
1.0
 10
75.3466159999999974
 20
65.4785109999999975
 30
0.0
 10
75.8343550000000022
 20
65.5935020000000009
 30
0.0
 10
76.7320250000000073
 20
65.6254470000000225
 30
0.0
 10
79.5079089999999837
 20
65.6265930000000139
 30
0.0
  0
LWPOLYLINE
  5
B8
  8
Layer_1
 62
7
370
-1
  6
ByLayer
100
AcDbEntity
100
AcDbPolyline
 90
8
 70
0
 10
78.3693519999999921
 20
51.6939079999999933
 10
83.0473040000000111
 20
51.6546730000000167
 10
83.0473040000000111
 20
46.3648410000000339
 10
83.0473040000000253
 20
41.075012000000001
 10
85.8689219999999835
 20
41.0750119999999797
 10
88.6905429999999768
 20
41.0750119999999654
 10
88.6905429999999768
 20
55.7276369999999659
 10
88.6905509999999992
 20
55.7276369999999943
  0
SPLINE
  5
B9
  8
Layer_1
 62
7
370
-1
  6
ByLayer
100
AcDbEntity
100
AcDbSpline
 70
8
 71
3
 72
8
 73
4
 74
0
 40
0.0
 40
0.0
 40
0.0
 40
0.0
 40
1.0
 40
1.0
 40
1.0
 40
1.0
 10
79.6003460000000018
 20
56.420611000000001
 30
0.0
 10
77.5520699999999863
 20
56.4206109999999939
 30
0.0
 10
75.9150089999999835
 20
56.4641489999999777
 30
0.0
 10
75.5659250000000071
 20
56.5279119999999935
 30
0.0
  0
LWPOLYLINE
  5
BA
  8
Layer_1
 62
7
370
-1
  6
ByLayer
100
AcDbEntity
100
AcDbPolyline
 90
5
 70
0
 10
79.5079089999999837
 20
65.6265930000000139
 10
83.0473120000000051
 20
65.6280040000000042
 10
83.0473119999999767
 20
61.024306999999979
 10
83.0473120000000051
 20
56.4206110000000223
 10
79.6003460000000018
 20
56.420611000000001
  0
LWPOLYLINE
  5
BB
  8
Layer_1
 62
7
370
-1
  6
ByLayer
100
AcDbEntity
100
AcDbPolyline
 90
2
 70
0
 10
75.5659250000000071
 20
56.5279119999999935
 10
75.5659250000000071
 20
56.5279650000000089
  0
ENDSEC
  0
SECTION
  2
OBJECTS
  0
DICTIONARY
  5
C
100
AcDbDictionary
280
0
281
1
  3
ACAD_GROUP
350
D
  3
ACAD_LAYOUT
350
1A
  3
ACAD_MLINESTYLE
350
17
  3
ACAD_PLOTSETTINGS
350
19
  3
ACAD_PLOTSTYLENAME
350
E
  3
AcDbVariableDictionary
350
BC
  0
DICTIONARY
  5
D
100
AcDbDictionary
280
0
281
1
  0
ACDBDICTIONARYWDFLT
  5
E
100
AcDbDictionary
281
1
  3
Normal
350
F
100
AcDbDictionaryWithDefault
340
F
  0
ACDBPLACEHOLDER
  5
F
  0
DICTIONARY
  5
17
100
AcDbDictionary
280
0
281
1
  3
Standard
350
18
  0
MLINESTYLE
  5
18
100
AcDbMlineStyle
  2
STANDARD
 70
0
  3

 62
256
 51
90.0
 52
90.0
 71
2
 49
0.5
 62
256
  6
BYLAYER
 49
-0.5
 62
256
  6
BYLAYER
  0
DICTIONARY
  5
19
100
AcDbDictionary
280
0
281
1
  0
DICTIONARY
  5
1A
100
AcDbDictionary
281
1
  3
Layout1
350
1E
  3
Layout2
350
26
  3
Model
350
22
  0
LAYOUT
  5
1E
100
AcDbPlotSettings
  1

  2
C:\Program Files\AutoCAD 2002\plotters\DWF ePlot (optimized for plotting).pc3
  4

  6

 40
0.0
 41
0.0
 42
0.0
 43
0.0
 44
0.0
 45
0.0
 46
0.0
 47
0.0
 48
0.0
 49
0.0
140
0.0
141
0.0
142
1.0
143
1.0
 70
688
 72
0
 73
0
 74
5
  7

 75
16
147
1.0
148
0.0
149
0.0
100
AcDbLayout
  1
Layout1
 70
1
 71
1
 10
0.0
 20
0.0
 11
420.0
 21
297.0
 12
0.0
 22
0.0
 32
0.0
 14
100000000000000000000.0
 24
100000000000000000000.0
 34
100000000000000000000.0
 15
-100000000000000000000.0
 25
-100000000000000000000.0
 35
-100000000000000000000.0
146
0.0
 13
0.0
 23
0.0
 33
0.0
 16
1.0
 26
0.0
 36
0.0
 17
0.0
 27
1.0
 37
0.0
 76
0
330
1B
  0
LAYOUT
  5
22
100
AcDbPlotSettings
  1

  2
C:\Program Files\AutoCAD 2002\plotters\DWF ePlot (optimized for plotting).pc3
  4

  6

 40
0.0
 41
0.0
 42
0.0
 43
0.0
 44
0.0
 45
0.0
 46
0.0
 47
0.0
 48
0.0
 49
0.0
140
0.0
141
0.0
142
1.0
143
1.0
 70
1712
 72
0
 73
0
 74
0
  7

 75
0
147
1.0
148
0.0
149
0.0
100
AcDbLayout
  1
Model
 70
1
 71
0
 10
0.0
 20
0.0
 11
12.0
 21
9.0
 12
0.0
 22
0.0
 32
0.0
 14
0.0
 24
0.0
 34
0.0
 15
0.0
 25
0.0
 35
0.0
146
0.0
 13
0.0
 23
0.0
 33
0.0
 16
1.0
 26
0.0
 36
0.0
 17
0.0
 27
1.0
 37
0.0
 76
0
330
1F
  0
LAYOUT
  5
26
100
AcDbPlotSettings
  1

  2
C:\Program Files\AutoCAD 2002\plotters\DWF ePlot (optimized for plotting).pc3
  4

  6

 40
0.0
 41
0.0
 42
0.0
 43
0.0
 44
0.0
 45
0.0
 46
0.0
 47
0.0
 48
0.0
 49
0.0
140
0.0
141
0.0
142
1.0
143
1.0
 70
688
 72
0
 73
0
 74
5
  7

 75
16
147
1.0
148
0.0
149
0.0
100
AcDbLayout
  1
Layout2
 70
1
 71
2
 10
0.0
 20
0.0
 11
12.0
 21
9.0
 12
0.0
 22
0.0
 32
0.0
 14
0.0
 24
0.0
 34
0.0
 15
0.0
 25
0.0
 35
0.0
146
0.0
 13
0.0
 23
0.0
 33
0.0
 16
1.0
 26
0.0
 36
0.0
 17
0.0
 27
1.0
 37
0.0
 76
0
330
23
  0
DICTIONARY
  5
BC
100
AcDbDictionary
281
1
  3
DIMASSOC
350
BE
  3
HIDETEXT
350
BD
  0
DICTIONARYVAR
  5
BD
100
DictionaryVariables
280
0
  1
2
  0
DICTIONARYVAR
  5
BE
100
DictionaryVariables
280
0
  1
1
  0
ENDSEC
  0
EOF
