999
dxflib 2.2.0.0
  0
SECTION
  2
HEADER
  9
$ACADVER
  1
AC1015
  9
$HANDSEED
  5
FFFF
  9
$DIMASZ
 40
2.5
  9
$PLIMMIN
 10
0.0
 20
0.0
  9
$DIMEXE
 40
1.25
  9
$DIMGAP
 40
0.625
  9
$PLIMMAX
 10
210.0
 20
297.0
  9
$INSUNITS
 70
4
  9
$DIMSTYLE
  2
Standard
  9
$DIMEXO
 40
0.625
  9
$DIMTXT
 40
2.5
  0
ENDSEC
  0
SECTION
  2
TABLES
  0
TABLE
  2
VPORT
  5
8
100
AcDbSymbolTable
 70
1
  0
VPORT
  5
30
100
AcDbSymbolTableRecord
100
AcDbViewportTableRecord
  2
*Active
 70
0
 10
0.0
 20
0.0
 11
1.0
 21
1.0
 12
286.3055555555554861
 22
148.5
 13
0.0
 23
0.0
 14
10.0
 24
10.0
 15
10.0
 25
10.0
 16
0.0
 26
0.0
 36
1.0
 17
0.0
 27
0.0
 37
0.0
 40
297.0
 41
1.92798353909465
 42
50.0
 43
0.0
 44
0.0
 50
0.0
 51
0.0
 71
0
 72
100
 73
1
 74
3
 75
1
 76
1
 77
0
 78
0
281
0
 65
1
110
0.0
120
0.0
130
0.0
111
1.0
121
0.0
131
0.0
112
0.0
122
1.0
132
0.0
 79
0
146
0.0
  0
ENDTAB
  0
TABLE
  2
LTYPE
  5
5
100
AcDbSymbolTable
 70
21
  0
LTYPE
  5
14
100
AcDbSymbolTableRecord
100
AcDbLinetypeTableRecord
  2
ByBlock
 70
0
  3

 72
65
 73
0
 40
0.0
  0
LTYPE
  5
15
100
AcDbSymbolTableRecord
100
AcDbLinetypeTableRecord
  2
ByLayer
 70
0
  3

 72
65
 73
0
 40
0.0
  0
LTYPE
  5
16
100
AcDbSymbolTableRecord
100
AcDbLinetypeTableRecord
  2
CONTINUOUS
 70
0
  3
Solid line
 72
65
 73
0
 40
0.0
  0
LTYPE
  5
31
100
AcDbSymbolTableRecord
100
AcDbLinetypeTableRecord
  2
DOT
 70
0
  3
Dot . . . . . . . . . . . . . . . . . . . . . .
 72
65
 73
2
 40
6.3499999999999996
 49
0.0
 74
0
 49
-6.3499999999999996
 74
0
  0
LTYPE
  5
32
100
AcDbSymbolTableRecord
100
AcDbLinetypeTableRecord
  2
DOT2
 70
0
  3
Dot (.5x) .....................................
 72
65
 73
2
 40
3.1749999999999998
 49
0.0
 74
0
 49
-3.1749999999999998
 74
0
  0
LTYPE
  5
33
100
AcDbSymbolTableRecord
100
AcDbLinetypeTableRecord
  2
DOTX2
 70
0
  3
Dot (2x) .  .  .  .  .  .  .  .  .  .  .  .  .
 72
65
 73
2
 40
12.6999999999999993
 49
0.0
 74
0
 49
-12.6999999999999993
 74
0
  0
LTYPE
  5
34
100
AcDbSymbolTableRecord
100
AcDbLinetypeTableRecord
  2
DASHED
 70
0
  3
Dashed __ __ __ __ __ __ __ __ __ __ __ __ __ _
 72
65
 73
2
 40
19.0500000000000007
 49
12.6999999999999993
 74
0
 49
-6.3499999999999996
 74
0
  0
LTYPE
  5
35
100
AcDbSymbolTableRecord
100
AcDbLinetypeTableRecord
  2
DASHED2
 70
0
  3
Dashed (.5x) _ _ _ _ _ _ _ _ _ _ _ _ _ _ _ _ _
 72
65
 73
2
 40
9.5250000000000004
 49
6.3499999999999996
 74
0
 49
-3.1749999999999998
 74
0
  0
LTYPE
  5
36
100
AcDbSymbolTableRecord
100
AcDbLinetypeTableRecord
  2
DASHEDX2
 70
0
  3
Dashed (2x) ____  ____  ____  ____  ____  ___
 72
65
 73
2
 40
38.1000000000000014
 49
25.3999999999999986
 74
0
 49
-12.6999999999999993
 74
0
  0
LTYPE
  5
37
100
AcDbSymbolTableRecord
100
AcDbLinetypeTableRecord
  2
DASHDOT
 70
0
  3
Dash dot __ . __ . __ . __ . __ . __ . __ . __
 72
65
 73
4
 40
25.3999999999999986
 49
12.6999999999999993
 74
0
 49
-6.3499999999999996
 74
0
 49
0.0
 74
0
 49
-6.3499999999999996
 74
0
  0
LTYPE
  5
38
100
AcDbSymbolTableRecord
100
AcDbLinetypeTableRecord
  2
DASHDOT2
 70
0
  3
Dash dot (.5x) _._._._._._._._._._._._._._._.
 72
65
 73
4
 40
12.6999999999999993
 49
6.3499999999999996
 74
0
 49
-3.1749999999999998
 74
0
 49
0.0
 74
0
 49
-3.1749999999999998
 74
0
  0
LTYPE
  5
39
100
AcDbSymbolTableRecord
100
AcDbLinetypeTableRecord
  2
DASHDOTX2
 70
0
  3
Dash dot (2x) ____  .  ____  .  ____  .  ___
 72
65
 73
4
 40
50.7999999999999972
 49
25.3999999999999986
 74
0
 49
-12.6999999999999993
 74
0
 49
0.0
 74
0
 49
-12.6999999999999993
 74
0
  0
LTYPE
  5
3A
100
AcDbSymbolTableRecord
100
AcDbLinetypeTableRecord
  2
DIVIDE
 70
0
  3
Divide ____ . . ____ . . ____ . . ____ . . ____
 72
65
 73
6
 40
31.75
 49
12.6999999999999993
 74
0
 49
-6.3499999999999996
 74
0
 49
0.0
 74
0
 49
-6.3499999999999996
 74
0
 49
0.0
 74
0
 49
-6.3499999999999996
 74
0
  0
LTYPE
  5
3B
100
AcDbSymbolTableRecord
100
AcDbLinetypeTableRecord
  2
DIVIDE2
 70
0
  3
Divide (.5x) __..__..__..__..__..__..__..__.._
 72
65
 73
6
 40
15.875
 49
6.3499999999999996
 74
0
 49
-3.1749999999999998
 74
0
 49
0.0
 74
0
 49
-3.1749999999999998
 74
0
 49
0.0
 74
0
 49
-3.1749999999999998
 74
0
  0
LTYPE
  5
3C
100
AcDbSymbolTableRecord
100
AcDbLinetypeTableRecord
  2
DIVIDEX2
 70
0
  3
Divide (2x) ________  .  .  ________  .  .  _
 72
65
 73
6
 40
63.5
 49
25.3999999999999986
 74
0
 49
-12.6999999999999993
 74
0
 49
0.0
 74
0
 49
-12.6999999999999993
 74
0
 49
0.0
 74
0
 49
-12.6999999999999993
 74
0
  0
LTYPE
  5
3D
100
AcDbSymbolTableRecord
100
AcDbLinetypeTableRecord
  2
CENTER
 70
0
  3
Center ____ _ ____ _ ____ _ ____ _ ____ _ ____
 72
65
 73
4
 40
50.7999999999999972
 49
31.75
 74
0
 49
-6.3499999999999996
 74
0
 49
6.3499999999999996
 74
0
 49
-6.3499999999999996
 74
0
  0
LTYPE
  5
3E
100
AcDbSymbolTableRecord
100
AcDbLinetypeTableRecord
  2
CENTER2
 70
0
  3
Center (.5x) ___ _ ___ _ ___ _ ___ _ ___ _ ___
 72
65
 73
4
 40
28.5749999999999993
 49
19.0500000000000007
 74
0
 49
-3.1749999999999998
 74
0
 49
3.1749999999999998
 74
0
 49
-3.1749999999999998
 74
0
  0
LTYPE
  5
3F
100
AcDbSymbolTableRecord
100
AcDbLinetypeTableRecord
  2
CENTERX2
 70
0
  3
Center (2x) ________  __  ________  __  _____
 72
65
 73
4
 40
101.5999999999999943
 49
63.5
 74
0
 49
-12.6999999999999993
 74
0
 49
12.6999999999999993
 74
0
 49
-12.6999999999999993
 74
0
  0
LTYPE
  5
40
100
AcDbSymbolTableRecord
100
AcDbLinetypeTableRecord
  2
BORDER
 70
0
  3
Border __ __ . __ __ . __ __ . __ __ . __ __ .
 72
65
 73
6
 40
44.4500000000000028
 49
12.6999999999999993
 74
0
 49
-6.3499999999999996
 74
0
 49
12.6999999999999993
 74
0
 49
-6.3499999999999996
 74
0
 49
0.0
 74
0
 49
-6.3499999999999996
 74
0
  0
LTYPE
  5
41
100
AcDbSymbolTableRecord
100
AcDbLinetypeTableRecord
  2
BORDER2
 70
0
  3
Border (.5x) __.__.__.__.__.__.__.__.__.__.__.
 72
65
 73
6
 40
22.2250000000000014
 49
6.3499999999999996
 74
0
 49
-3.1749999999999998
 74
0
 49
6.3499999999999996
 74
0
 49
-3.1749999999999998
 74
0
 49
0.0
 74
0
 49
-3.1749999999999998
 74
0
  0
LTYPE
  5
42
100
AcDbSymbolTableRecord
100
AcDbLinetypeTableRecord
  2
BORDERX2
 70
0
  3
Border (2x) ____  ____  .  ____  ____  .  ___
 72
65
 73
6
 40
88.9000000000000057
 49
25.3999999999999986
 74
0
 49
-12.6999999999999993
 74
0
 49
25.3999999999999986
 74
0
 49
-12.6999999999999993
 74
0
 49
0.0
 74
0
 49
-12.6999999999999993
 74
0
  0
ENDTAB
  0
TABLE
  2
LAYER
  5
2
100
AcDbSymbolTable
 70
5
  0
LAYER
  5
10
100
AcDbSymbolTableRecord
100
AcDbLayerTableRecord
  2
0
 70
0
 62
7
  6
CONTINUOUS
370
0
390
F
  0
LAYER
  5
43
100
AcDbSymbolTableRecord
100
AcDbLayerTableRecord
  2
RaspberryPi_MountingHoles
 70
0
 62
1
  6
CONTINUOUS
370
0
390
F
  0
LAYER
  5
44
100
AcDbSymbolTableRecord
100
AcDbLayerTableRecord
  2
RaspberryPi_BoardHeaders
 70
0
 62
4
  6
CONTINUOUS
370
0
390
F
  0
LAYER
  5
45
100
AcDbSymbolTableRecord
100
AcDbLayerTableRecord
  2
RaspberryPi_Connectors
 70
0
 62
3
  6
CONTINUOUS
370
0
390
F
  0
LAYER
  5
46
100
AcDbSymbolTableRecord
100
AcDbLayerTableRecord
  2
RaspberryPi_Board
 70
0
 62
2
  6
CONTINUOUS
370
0
390
F
  0
ENDTAB
  0
TABLE
  2
STYLE
  5
3
100
AcDbSymbolTable
 70
1
  0
STYLE
  5
11
100
AcDbSymbolTableRecord
100
AcDbTextStyleTableRecord
  2
Standard
 70
0
 40
0.0
 41
0.75
 50
0.0
 71
0
 42
2.5
  3
txt
  4

  0
ENDTAB
  0
TABLE
  2
VIEW
  5
6
100
AcDbSymbolTable
 70
0
  0
ENDTAB
  0
TABLE
  2
UCS
  5
7
100
AcDbSymbolTable
 70
0
  0
ENDTAB
  0
TABLE
  2
APPID
  5
9
100
AcDbSymbolTable
 70
1
  0
APPID
  5
12
100
AcDbSymbolTableRecord
100
AcDbRegAppTableRecord
  2
ACAD
 70
0
  0
ENDTAB
  0
TABLE
  2
DIMSTYLE
  5
A
100
AcDbSymbolTable
 70
1
100
AcDbDimStyleTable
 71
0
  0
DIMSTYLE
105
27
100
AcDbSymbolTableRecord
100
AcDbDimStyleTableRecord
  2
Standard
 41
2.5
 42
0.625
 43
3.75
 44
1.25
 70
0
 73
0
 74
0
 77
1
 78
8
140
2.5
141
2.5
143
0.03937007874016
147
0.625
171
3
172
1
271
2
272
2
274
3
278
44
283
0
284
8
340
11
  0
ENDTAB
  0
TABLE
  2
BLOCK_RECORD
  5
1
100
AcDbSymbolTable
 70
1
  0
BLOCK_RECORD
  5
1F
100
AcDbSymbolTableRecord
100
AcDbBlockTableRecord
  2
*Model_Space
340
22
  0
BLOCK_RECORD
  5
1B
100
AcDbSymbolTableRecord
100
AcDbBlockTableRecord
  2
*Paper_Space
340
1E
  0
BLOCK_RECORD
  5
23
100
AcDbSymbolTableRecord
100
AcDbBlockTableRecord
  2
*Paper_Space0
340
26
  0
ENDTAB
  0
ENDSEC
  0
SECTION
  2
BLOCKS
  0
BLOCK
  5
20
100
AcDbEntity
  8
0
100
AcDbBlockBegin
  2
*Model_Space
 70
0
 10
0.0
 20
0.0
 30
0.0
  3
*Model_Space
  1

  0
ENDBLK
  5
21
100
AcDbEntity
  8
0
100
AcDbBlockEnd
  0
BLOCK
  5
1C
100
AcDbEntity
 67
1
  8
0
100
AcDbBlockBegin
  2
*Paper_Space
 70
0
 10
0.0
 20
0.0
 30
0.0
  3
*Paper_Space
  1

  0
ENDBLK
  5
1D
100
AcDbEntity
 67
1
  8
0
100
AcDbBlockEnd
  0
BLOCK
  5
24
100
AcDbEntity
  8
0
100
AcDbBlockBegin
  2
*Paper_Space0
 70
0
 10
0.0
 20
0.0
 30
0.0
  3
*Paper_Space0
  1

  0
ENDBLK
  5
25
100
AcDbEntity
  8
0
100
AcDbBlockEnd
  0
ENDSEC
  0
SECTION
  2
ENTITIES
  0
CIRCLE
  5
47
100
AcDbEntity
100
AcDbCircle
  8
RaspberryPi_MountingHoles
 62
256
370
-1
  6
ByLayer
 10
25.5
 20
18.0
 30
0.0
 40
1.45
  0
CIRCLE
  5
48
100
AcDbEntity
100
AcDbCircle
  8
RaspberryPi_MountingHoles
 62
256
370
-1
  6
ByLayer
 10
79.9999999999999858
 20
43.5000000000000071
 30
0.0
 40
1.45
  0
LINE
  5
49
100
AcDbEntity
100
AcDbLine
  8
RaspberryPi_BoardHeaders
 62
256
370
-1
  6
ByLayer
 10
59.7455680000000058
 20
21.9499990000000054
 30
0.0
 11
59.7455680000000058
 21
0.5329089999999823
 31
0.0
  0
LINE
  5
4A
100
AcDbEntity
100
AcDbLine
  8
RaspberryPi_BoardHeaders
 62
256
370
-1
  6
ByLayer
 10
56.746955000000014
 20
0.5329090000000036
 30
0.0
 11
59.7455680000000058
 21
0.5329089999999823
 31
0.0
  0
LINE
  5
4B
100
AcDbEntity
100
AcDbLine
  8
RaspberryPi_BoardHeaders
 62
256
370
-1
  6
ByLayer
 10
56.7469549999999998
 20
21.9499989999999698
 30
0.0
 11
56.746955000000014
 21
0.5329090000000036
 31
0.0
  0
LINE
  5
4C
100
AcDbEntity
100
AcDbLine
  8
RaspberryPi_BoardHeaders
 62
256
370
-1
  6
ByLayer
 10
56.7469549999999998
 20
21.9499989999999698
 30
0.0
 11
59.7455680000000058
 21
21.9499990000000054
 31
0.0
  0
LINE
  5
4D
100
AcDbEntity
100
AcDbLine
  8
RaspberryPi_BoardHeaders
 62
256
370
-1
  6
ByLayer
 10
13.0906800000000061
 20
39.6912639999999968
 30
0.0
 11
13.0906800000000061
 21
18.1999989999999698
 31
0.0
  0
LINE
  5
4E
100
AcDbEntity
100
AcDbLine
  8
RaspberryPi_BoardHeaders
 62
256
370
-1
  6
ByLayer
 10
10.1802620000000132
 20
18.1999989999999769
 30
0.0
 11
13.0906800000000061
 21
18.1999989999999698
 31
0.0
  0
LINE
  5
4F
100
AcDbEntity
100
AcDbLine
  8
RaspberryPi_BoardHeaders
 62
256
370
-1
  6
ByLayer
 10
10.1802620000000132
 20
39.6912639999999968
 30
0.0
 11
10.1802620000000132
 21
18.1999989999999769
 31
0.0
  0
LINE
  5
50
100
AcDbEntity
100
AcDbLine
  8
RaspberryPi_BoardHeaders
 62
256
370
-1
  6
ByLayer
 10
10.1802620000000132
 20
39.6912639999999968
 30
0.0
 11
13.0906800000000061
 21
39.6912639999999968
 31
0.0
  0
LINE
  5
51
100
AcDbEntity
100
AcDbLine
  8
RaspberryPi_BoardHeaders
 62
256
370
-1
  6
ByLayer
 10
0.6299990000000051
 20
50.0799989999999795
 30
0.0
 11
33.6499990000000082
 21
50.0799989999999937
 31
0.0
  0
LINE
  5
52
100
AcDbEntity
100
AcDbLine
  8
RaspberryPi_BoardHeaders
 62
256
370
-1
  6
ByLayer
 10
0.6299990000000051
 20
55.159998999999992
 30
0.0
 11
33.6499990000000082
 21
55.159998999999992
 31
0.0
  0
LINE
  5
53
100
AcDbEntity
100
AcDbLine
  8
RaspberryPi_BoardHeaders
 62
256
370
-1
  6
ByLayer
 10
33.6499990000000082
 20
55.159998999999992
 30
0.0
 11
33.6499990000000082
 21
50.0799989999999937
 31
0.0
  0
LINE
  5
54
100
AcDbEntity
100
AcDbLine
  8
RaspberryPi_BoardHeaders
 62
256
370
-1
  6
ByLayer
 10
0.6299990000000051
 20
55.159998999999992
 30
0.0
 11
0.6299990000000051
 21
50.0799989999999795
 31
0.0
  0
LWPOLYLINE
  5
55
  8
RaspberryPi_BoardHeaders
 62
256
370
-1
  6
ByLayer
100
AcDbEntity
100
AcDbPolyline
 90
4
 70
1
 10
1.1379990000000078
 20
52.1119989999999902
 10
2.6619990000000087
 20
52.1119989999999902
 10
2.6619990000000087
 20
50.5879989999999893
 10
1.1379990000000006
 20
50.5879990000000035
  0
LWPOLYLINE
  5
56
  8
RaspberryPi_BoardHeaders
 62
256
370
-1
  6
ByLayer
100
AcDbEntity
100
AcDbPolyline
 90
4
 70
1
 10
1.1379990000000006
 20
54.6519989999999964
 10
2.6619989999999945
 20
54.6519989999999964
 10
2.6619990000000087
 20
53.1279989999999955
 10
1.1379990000000078
 20
53.1279989999999955
  0
LWPOLYLINE
  5
57
  8
RaspberryPi_BoardHeaders
 62
256
370
-1
  6
ByLayer
100
AcDbEntity
100
AcDbPolyline
 90
4
 70
1
 10
3.6779989999999856
 20
52.1119989999999902
 10
5.2019990000000007
 20
52.1119989999999902
 10
5.2019990000000007
 20
50.5879990000000035
 10
3.6779989999999856
 20
50.5879989999999893
  0
LWPOLYLINE
  5
58
  8
RaspberryPi_BoardHeaders
 62
256
370
-1
  6
ByLayer
100
AcDbEntity
100
AcDbPolyline
 90
4
 70
1
 10
3.6779989999999856
 20
54.6519989999999964
 10
5.2019990000000007
 20
54.6519989999999964
 10
5.2019989999999865
 20
53.1279989999999955
 10
3.6779989999999998
 20
53.1279989999999955
  0
LWPOLYLINE
  5
59
  8
RaspberryPi_BoardHeaders
 62
256
370
-1
  6
ByLayer
100
AcDbEntity
100
AcDbPolyline
 90
4
 70
1
 10
6.2179989999999918
 20
52.1119990000000044
 10
7.741999000000007
 20
52.1119989999999902
 10
7.741999000000007
 20
50.5879990000000035
 10
6.217999000000006
 20
50.5879990000000035
  0
LWPOLYLINE
  5
5A
  8
RaspberryPi_BoardHeaders
 62
256
370
-1
  6
ByLayer
100
AcDbEntity
100
AcDbPolyline
 90
4
 70
1
 10
6.217999000000006
 20
54.6519989999999964
 10
7.741999000000007
 20
54.6519989999999964
 10
7.741999000000007
 20
53.1279989999999955
 10
6.217999000000006
 20
53.1279989999999955
  0
LWPOLYLINE
  5
5B
  8
RaspberryPi_BoardHeaders
 62
256
370
-1
  6
ByLayer
100
AcDbEntity
100
AcDbPolyline
 90
4
 70
1
 10
8.7579990000000123
 20
52.1119989999999902
 10
10.281998999999999
 20
52.1119990000000044
 10
10.2819990000000132
 20
50.5879989999999893
 10
8.7579990000000123
 20
50.5879989999999893
  0
LWPOLYLINE
  5
5C
  8
RaspberryPi_BoardHeaders
 62
256
370
-1
  6
ByLayer
100
AcDbEntity
100
AcDbPolyline
 90
4
 70
1
 10
8.7579990000000123
 20
54.6519989999999964
 10
10.2819990000000132
 20
54.6519989999999964
 10
10.281998999999999
 20
53.1279989999999955
 10
8.7579989999999981
 20
53.1279989999999955
  0
LWPOLYLINE
  5
5D
  8
RaspberryPi_BoardHeaders
 62
256
370
-1
  6
ByLayer
100
AcDbEntity
100
AcDbPolyline
 90
4
 70
1
 10
11.2979990000000043
 20
52.1119989999999902
 10
12.8219990000000053
 20
52.1119989999999902
 10
12.821998999999991
 20
50.5879990000000035
 10
11.2979990000000043
 20
50.5879989999999893
  0
LWPOLYLINE
  5
5E
  8
RaspberryPi_BoardHeaders
 62
256
370
-1
  6
ByLayer
100
AcDbEntity
100
AcDbPolyline
 90
4
 70
1
 10
11.2979990000000043
 20
54.6519989999999964
 10
12.8219990000000053
 20
54.6519989999999964
 10
12.821998999999991
 20
53.1279989999999955
 10
11.2979989999999901
 20
53.1279989999999955
  0
LWPOLYLINE
  5
5F
  8
RaspberryPi_BoardHeaders
 62
256
370
-1
  6
ByLayer
100
AcDbEntity
100
AcDbPolyline
 90
4
 70
1
 10
13.8379990000000106
 20
52.1119990000000044
 10
15.3619990000000115
 20
52.1119989999999902
 10
15.3619990000000115
 20
50.5879990000000035
 10
13.8379990000000106
 20
50.5879990000000035
  0
LWPOLYLINE
  5
60
  8
RaspberryPi_BoardHeaders
 62
256
370
-1
  6
ByLayer
100
AcDbEntity
100
AcDbPolyline
 90
4
 70
1
 10
13.8379989999999964
 20
54.6519990000000107
 10
15.3619990000000115
 20
54.6519989999999822
 10
15.3619990000000115
 20
53.1279989999999813
 10
13.8379989999999964
 20
53.1279989999999955
  0
LWPOLYLINE
  5
61
  8
RaspberryPi_BoardHeaders
 62
256
370
-1
  6
ByLayer
100
AcDbEntity
100
AcDbPolyline
 90
4
 70
1
 10
16.3779990000000026
 20
52.1119989999999902
 10
17.9019990000000035
 20
52.1119989999999902
 10
17.9019990000000035
 20
50.5879990000000035
 10
16.3779989999999884
 20
50.5879990000000035
  0
LWPOLYLINE
  5
62
  8
RaspberryPi_BoardHeaders
 62
256
370
-1
  6
ByLayer
100
AcDbEntity
100
AcDbPolyline
 90
4
 70
1
 10
16.3779990000000026
 20
54.6519989999999964
 10
17.9019990000000035
 20
54.6519989999999964
 10
17.9019990000000035
 20
53.1279990000000097
 10
16.3779989999999884
 20
53.1279990000000097
  0
LWPOLYLINE
  5
63
  8
RaspberryPi_BoardHeaders
 62
256
370
-1
  6
ByLayer
100
AcDbEntity
100
AcDbPolyline
 90
4
 70
1
 10
18.9179990000000089
 20
52.1119989999999902
 10
20.4419990000000098
 20
52.1119990000000044
 10
20.4419989999999956
 20
50.5879990000000035
 10
18.9179990000000089
 20
50.5879989999999751
  0
LWPOLYLINE
  5
64
  8
RaspberryPi_BoardHeaders
 62
256
370
-1
  6
ByLayer
100
AcDbEntity
100
AcDbPolyline
 90
4
 70
1
 10
18.9179989999999947
 20
54.6519989999999964
 10
20.4419989999999956
 20
54.6519989999999964
 10
20.4419989999999956
 20
53.1279990000000097
 10
18.9179989999999947
 20
53.1279990000000097
  0
LWPOLYLINE
  5
65
  8
RaspberryPi_BoardHeaders
 62
256
370
-1
  6
ByLayer
100
AcDbEntity
100
AcDbPolyline
 90
4
 70
1
 10
21.4579990000000009
 20
52.1119989999999902
 10
22.9819989999999876
 20
52.1119990000000044
 10
22.9819990000000018
 20
50.5879989999999893
 10
21.4579990000000009
 20
50.5879990000000035
  0
LWPOLYLINE
  5
66
  8
RaspberryPi_BoardHeaders
 62
256
370
-1
  6
ByLayer
100
AcDbEntity
100
AcDbPolyline
 90
4
 70
1
 10
21.4579989999999867
 20
54.6519990000000107
 10
22.9819990000000018
 20
54.6519989999999822
 10
22.9819990000000018
 20
53.1279989999999955
 10
21.4579989999999867
 20
53.1279990000000097
  0
LWPOLYLINE
  5
67
  8
RaspberryPi_BoardHeaders
 62
256
370
-1
  6
ByLayer
100
AcDbEntity
100
AcDbPolyline
 90
4
 70
1
 10
23.9979990000000072
 20
52.1119989999999902
 10
25.5219990000000081
 20
52.1119989999999902
 10
25.5219990000000081
 20
50.5879989999999893
 10
23.9979990000000072
 20
50.5879990000000035
  0
LWPOLYLINE
  5
68
  8
RaspberryPi_BoardHeaders
 62
256
370
-1
  6
ByLayer
100
AcDbEntity
100
AcDbPolyline
 90
4
 70
1
 10
23.9979990000000072
 20
54.6519989999999964
 10
25.5219990000000081
 20
54.6519989999999964
 10
25.5219990000000081
 20
53.1279989999999813
 10
23.9979990000000072
 20
53.1279989999999955
  0
LWPOLYLINE
  5
69
  8
RaspberryPi_BoardHeaders
 62
256
370
-1
  6
ByLayer
100
AcDbEntity
100
AcDbPolyline
 90
4
 70
1
 10
26.5379989999999992
 20
52.1119990000000044
 10
28.0619990000000001
 20
52.1119990000000044
 10
28.0619990000000001
 20
50.5879990000000177
 10
26.5379989999999992
 20
50.5879989999999893
  0
LWPOLYLINE
  5
6A
  8
RaspberryPi_BoardHeaders
 62
256
370
-1
  6
ByLayer
100
AcDbEntity
100
AcDbPolyline
 90
4
 70
1
 10
26.5379989999999992
 20
54.6519989999999964
 10
28.0619990000000001
 20
54.6519989999999964
 10
28.0619990000000001
 20
53.1279989999999955
 10
26.5379989999999992
 20
53.1279989999999955
  0
LWPOLYLINE
  5
6B
  8
RaspberryPi_BoardHeaders
 62
256
370
-1
  6
ByLayer
100
AcDbEntity
100
AcDbPolyline
 90
4
 70
1
 10
29.0779989999999913
 20
52.1119989999999902
 10
30.6019989999999922
 20
52.1119990000000044
 10
30.6019990000000064
 20
50.5879989999999893
 10
29.0779989999999913
 20
50.5879990000000177
  0
LWPOLYLINE
  5
6C
  8
RaspberryPi_BoardHeaders
 62
256
370
-1
  6
ByLayer
100
AcDbEntity
100
AcDbPolyline
 90
4
 70
1
 10
29.0779990000000055
 20
54.6519989999999964
 10
30.6019989999999922
 20
54.6519989999999964
 10
30.6019990000000206
 20
53.1279989999999813
 10
29.0779990000000197
 20
53.1279989999999813
  0
LWPOLYLINE
  5
6D
  8
RaspberryPi_BoardHeaders
 62
256
370
-1
  6
ByLayer
100
AcDbEntity
100
AcDbPolyline
 90
4
 70
1
 10
31.6179990000000117
 20
52.1119990000000044
 10
33.1419989999999984
 20
52.1119990000000186
 10
33.1419990000000126
 20
50.5879990000000035
 10
31.6179990000000117
 20
50.5879989999999893
  0
LWPOLYLINE
  5
6E
  8
RaspberryPi_BoardHeaders
 62
256
370
-1
  6
ByLayer
100
AcDbEntity
100
AcDbPolyline
 90
4
 70
1
 10
31.6179990000000117
 20
54.6519989999999964
 10
33.1419990000000126
 20
54.6519990000000107
 10
33.1419990000000126
 20
53.1279989999999813
 10
31.6179990000000117
 20
53.1279989999999813
  0
MTEXT
  5
6F
100
AcDbEntity
100
AcDbMText
  8
RaspberryPi_BoardHeaders
 62
256
370
-1
  6
CONTINUOUS
 10
34.6749999999999972
 20
54.5749979999999866
 30
0.0
 40
0.7500010013580322
 41
100.0
 71
9
 72
2
  1
26
  7
standard
 50
450.0
 73
0
 44
1.0
  0
MTEXT
  5
70
100
AcDbEntity
100
AcDbMText
  8
RaspberryPi_BoardHeaders
 62
256
370
-1
  6
CONTINUOUS
 10
34.6750000000000256
 20
51.9749990000000039
 30
0.0
 40
0.7500010013580322
 41
100.0
 71
9
 72
2
  1
25
  7
standard
 50
450.0
 73
0
 44
1.0
  0
MTEXT
  5
71
100
AcDbEntity
100
AcDbMText
  8
RaspberryPi_BoardHeaders
 62
256
370
-1
  6
CONTINUOUS
 10
2.3000000000000114
 20
55.9499999999999957
 30
0.0
 40
0.7500010013580322
 41
100.0
 71
9
 72
2
  1
2
  7
standard
 50
450.0
 73
0
 44
1.0
  0
MTEXT
  5
72
100
AcDbEntity
100
AcDbMText
  8
RaspberryPi_BoardHeaders
 62
256
370
-1
  6
CONTINUOUS
 10
2.2249990000000111
 20
49.6749980000000093
 30
0.0
 40
0.7500010013580322
 41
100.0
 71
9
 72
2
  1
1
  7
standard
 50
450.0
 73
0
 44
1.0
  0
LINE
  5
73
100
AcDbEntity
100
AcDbLine
  8
RaspberryPi_Connectors
 62
256
370
-1
  6
ByLayer
 10
17.5004040000000032
 20
42.4252949999999984
 30
0.0
 11
17.5004040000000032
 21
18.1718099999999865
 31
0.0
  0
LINE
  5
74
100
AcDbEntity
100
AcDbLine
  8
RaspberryPi_Connectors
 62
256
370
-1
  6
ByLayer
 10
0.0000000000000071
 20
42.4252949999999984
 30
0.0
 11
17.5004040000000032
 21
42.4252949999999984
 31
0.0
  0
LINE
  5
75
100
AcDbEntity
100
AcDbLine
  8
RaspberryPi_Connectors
 62
256
370
-1
  6
ByLayer
 10
0.0000000000000142
 20
18.1718099999999865
 30
0.0
 11
17.5004040000000032
 21
18.1718099999999865
 31
0.0
  0
LINE
  5
76
100
AcDbEntity
100
AcDbLine
  8
RaspberryPi_Connectors
 62
256
370
-1
  6
ByLayer
 10
4.2999989999999997
 20
11.469026999999997
 30
0.0
 11
4.2999989999999997
 21
3.8843019999999839
 31
0.0
  0
LINE
  5
77
100
AcDbEntity
100
AcDbLine
  8
RaspberryPi_Connectors
 62
256
370
-1
  6
ByLayer
 10
0.0
 20
11.4690269999999899
 30
0.0
 11
4.2999989999999997
 21
11.469026999999997
 31
0.0
  0
LINE
  5
78
100
AcDbEntity
100
AcDbLine
  8
RaspberryPi_Connectors
 62
256
370
-1
  6
ByLayer
 10
0.0000000000000142
 20
3.8843019999999839
 30
0.0
 11
4.2999989999999997
 21
3.8843019999999839
 31
0.0
  0
LINE
  5
79
100
AcDbEntity
100
AcDbLine
  8
RaspberryPi_Connectors
 62
256
370
-1
  6
ByLayer
 10
51.984453000000002
 20
10.7634709999999885
 30
0.0
 11
51.9844529999999878
 21
-0.0000000000000071
 31
0.0
  0
LINE
  5
7A
100
AcDbEntity
100
AcDbLine
  8
RaspberryPi_Connectors
 62
256
370
-1
  6
ByLayer
 10
37.0795829999999995
 20
10.7634709999999814
 30
0.0
 11
37.0795829999999995
 21
-0.0000000000000142
 31
0.0
  0
LINE
  5
7B
100
AcDbEntity
100
AcDbLine
  8
RaspberryPi_Connectors
 62
256
370
-1
  6
ByLayer
 10
37.0795829999999995
 20
10.7634709999999814
 30
0.0
 11
51.984453000000002
 21
10.7634709999999885
 31
0.0
  0
LINE
  5
7C
100
AcDbEntity
100
AcDbLine
  8
RaspberryPi_Connectors
 62
256
370
-1
  6
ByLayer
 10
65.7427920000000086
 20
2.2968000000000046
 30
0.0
 11
85.0000000000000142
 21
2.2967999999999904
 31
0.0
  0
LINE
  5
7D
100
AcDbEntity
100
AcDbLine
  8
RaspberryPi_Connectors
 62
256
370
-1
  6
ByLayer
 10
65.7427919999999943
 20
18.0836129999999642
 30
0.0
 11
65.7427920000000086
 21
2.2968000000000046
 31
0.0
  0
LINE
  5
7E
100
AcDbEntity
100
AcDbLine
  8
RaspberryPi_Connectors
 62
256
370
-1
  6
ByLayer
 10
65.7427919999999943
 20
18.0836129999999642
 30
0.0
 11
84.9999999999999858
 21
18.0836129999999642
 31
0.0
  0
LINE
  5
7F
100
AcDbEntity
100
AcDbLine
  8
RaspberryPi_Connectors
 62
256
370
-1
  6
ByLayer
 10
75.3559910000000031
 20
37.6627920000000316
 30
0.0
 11
75.3559910000000031
 21
24.345425000000013
 31
0.0
  0
LINE
  5
80
100
AcDbEntity
100
AcDbLine
  8
RaspberryPi_Connectors
 62
256
370
-1
  6
ByLayer
 10
75.3559910000000031
 20
37.6627920000000316
 30
0.0
 11
85.0000000000000426
 21
37.6627920000000032
 31
0.0
  0
LINE
  5
81
100
AcDbEntity
100
AcDbLine
  8
RaspberryPi_Connectors
 62
256
370
-1
  6
ByLayer
 10
75.3559910000000031
 20
24.345425000000013
 30
0.0
 11
85.0000000000000142
 21
24.3454249999999561
 31
0.0
  0
LINE
  5
82
100
AcDbEntity
100
AcDbLine
  8
RaspberryPi_Connectors
 62
256
370
-1
  6
ByLayer
 10
70.7698790000000173
 20
56.1999989999999841
 30
0.0
 11
70.7698790000000173
 21
45.5121009999999941
 31
0.0
  0
LINE
  5
83
100
AcDbEntity
100
AcDbLine
  8
RaspberryPi_Connectors
 62
256
370
-1
  6
ByLayer
 10
58.5108430000000084
 20
56.1999989999999983
 30
0.0
 11
58.5108430000000084
 21
45.5121009999999941
 31
0.0
  0
LINE
  5
84
100
AcDbEntity
100
AcDbLine
  8
RaspberryPi_Connectors
 62
256
370
-1
  6
ByLayer
 10
58.5108430000000084
 20
45.5121009999999941
 30
0.0
 11
70.7698790000000173
 21
45.5121009999999941
 31
0.0
  0
LINE
  5
85
100
AcDbEntity
100
AcDbLine
  8
RaspberryPi_Connectors
 62
256
370
-1
  6
ByLayer
 10
51.4552839999999918
 20
53.8905780000000263
 30
0.0
 11
51.455284000000006
 21
43.7482129999999856
 31
0.0
  0
LINE
  5
86
100
AcDbEntity
100
AcDbLine
  8
RaspberryPi_Connectors
 62
256
370
-1
  6
ByLayer
 10
40.695557000000008
 20
43.7482129999999998
 30
0.0
 11
51.455284000000006
 21
43.7482129999999856
 31
0.0
  0
LINE
  5
87
100
AcDbEntity
100
AcDbLine
  8
RaspberryPi_Connectors
 62
256
370
-1
  6
ByLayer
 10
40.6955569999999938
 20
53.8905779999999979
 30
0.0
 11
40.695557000000008
 21
43.7482129999999998
 31
0.0
  0
LINE
  5
88
100
AcDbEntity
100
AcDbLine
  8
RaspberryPi_Connectors
 62
256
370
-1
  6
ByLayer
 10
40.6955569999999938
 20
53.8905779999999979
 30
0.0
 11
51.4552839999999918
 21
53.8905780000000263
 31
0.0
  0
LINE
  5
89
100
AcDbEntity
100
AcDbLine
  8
RaspberryPi_Connectors
 62
256
370
-1
  6
ByLayer
 10
50.1323689999999971
 20
56.1999989999999983
 30
0.0
 11
50.1323690000000113
 21
53.8905779999999837
 31
0.0
  0
LINE
  5
8A
100
AcDbEntity
100
AcDbLine
  8
RaspberryPi_Connectors
 62
256
370
-1
  6
ByLayer
 10
41.8420849999999973
 20
56.1999990000000125
 30
0.0
 11
41.8420850000000115
 21
53.8905779999999837
 31
0.0
  0
LINE
  5
8B
100
AcDbEntity
100
AcDbLine
  8
RaspberryPi_Connectors
 62
256
370
-1
  6
ByLayer
 10
41.8420850000000115
 20
53.8905779999999837
 30
0.0
 11
50.1323690000000113
 21
53.8905779999999837
 31
0.0
  0
LINE
  5
8C
100
AcDbEntity
100
AcDbLine
  8
RaspberryPi_Connectors
 62
256
370
-1
  6
ByLayer
 10
61.1500000000000057
 20
60.0999990000000039
 30
0.0
 11
68.2249990000000111
 21
60.0999990000000324
 31
0.0
  0
LINE
  5
8D
100
AcDbEntity
100
AcDbLine
  8
RaspberryPi_Connectors
 62
256
370
-1
  6
ByLayer
 10
58.4999999999999858
 20
56.5750000000000099
 30
0.0
 11
70.7749990000000224
 21
56.5749999999999815
 31
0.0
  0
LINE
  5
8E
100
AcDbEntity
100
AcDbLine
  8
RaspberryPi_Connectors
 62
256
370
-1
  6
ByLayer
 10
85.0000000000000142
 20
37.6749990000000636
 30
0.0
 11
92.524998999999994
 21
37.6749989999999784
 31
0.0
  0
LINE
  5
8F
100
AcDbEntity
100
AcDbLine
  8
RaspberryPi_Connectors
 62
256
370
-1
  6
ByLayer
 10
85.0000000000000142
 20
24.3499989999999542
 30
0.0
 11
92.524998999999994
 21
24.3499989999999826
 31
0.0
  0
LINE
  5
90
100
AcDbEntity
100
AcDbLine
  8
RaspberryPi_Connectors
 62
256
370
-1
  6
ByLayer
 10
41.8500000000000085
 20
63.2999999999999901
 30
0.0
 11
50.1249999999999858
 21
63.2999999999999901
 31
0.0
  0
LINE
  5
91
100
AcDbEntity
100
AcDbLine
  8
RaspberryPi_Connectors
 62
256
370
-1
  6
ByLayer
 10
37.0750010000000145
 20
-1.1500009999999889
 30
0.0
 11
51.9999999999999858
 21
-1.1500010000000245
 31
0.0
  0
LINE
  5
92
100
AcDbEntity
100
AcDbLine
  8
RaspberryPi_Connectors
 62
256
370
-1
  6
ByLayer
 10
-17.9999999999999929
 20
42.4249999999999901
 30
0.0
 11
-0.024998999999994
 21
42.4249999999999901
 31
0.0
  0
LINE
  5
93
100
AcDbEntity
100
AcDbLine
  8
RaspberryPi_Connectors
 62
256
370
-1
  6
ByLayer
 10
-17.9999999999999787
 20
18.1749999999999829
 30
0.0
 11
0.0000000000000142
 21
18.1749999999999901
 31
0.0
  0
LINE
  5
94
100
AcDbEntity
100
AcDbLine
  8
RaspberryPi_Connectors
 62
256
370
-1
  6
ByLayer
 10
-0.7500009999999833
 20
11.4749979999999923
 30
0.0
 11
0.0000000000000142
 21
11.4749979999999923
 31
0.0
  0
LINE
  5
95
100
AcDbEntity
100
AcDbLine
  8
RaspberryPi_Connectors
 62
256
370
-1
  6
ByLayer
 10
85.0000000000000142
 20
18.0749980000000008
 30
0.0
 11
86.0000010000000117
 21
18.0749979999999653
 31
0.0
  0
LINE
  5
96
100
AcDbEntity
100
AcDbLine
  8
RaspberryPi_Connectors
 62
256
370
-1
  6
ByLayer
 10
85.0000000000000142
 20
2.3000000000000043
 30
0.0
 11
86.0000010000000117
 21
2.2999999999999758
 31
0.0
  0
LINE
  5
97
100
AcDbEntity
100
AcDbLine
  8
RaspberryPi_Connectors
 62
256
370
-1
  6
ByLayer
 10
-0.7500009999999904
 20
3.8749979999999837
 30
0.0
 11
0.0
 21
3.8749979999999837
 31
0.0
  0
LINE
  5
98
100
AcDbEntity
100
AcDbLine
  8
RaspberryPi_Connectors
 62
256
370
-1
  6
ByLayer
 10
92.524998999999994
 20
37.6749989999999784
 30
0.0
 11
92.524998999999994
 21
24.3499989999999826
 31
0.0
  0
LINE
  5
99
100
AcDbEntity
100
AcDbLine
  8
RaspberryPi_Connectors
 62
256
370
-1
  6
ByLayer
 10
50.1249999999999858
 20
63.2999999999999901
 30
0.0
 11
50.125
 21
56.1999990000000125
 31
0.0
  0
LINE
  5
9A
100
AcDbEntity
100
AcDbLine
  8
RaspberryPi_Connectors
 62
256
370
-1
  6
ByLayer
 10
41.8500000000000085
 20
63.2999999999999901
 30
0.0
 11
41.8500000000000085
 21
56.1999989999999983
 31
0.0
  0
LINE
  5
9B
100
AcDbEntity
100
AcDbLine
  8
RaspberryPi_Connectors
 62
256
370
-1
  6
ByLayer
 10
-17.9999999999999929
 20
42.4249999999999901
 30
0.0
 11
-17.9999999999999787
 21
18.1749999999999829
 31
0.0
  0
LINE
  5
9C
100
AcDbEntity
100
AcDbLine
  8
RaspberryPi_Connectors
 62
256
370
-1
  6
ByLayer
 10
86.0000010000000117
 20
18.0749979999999653
 30
0.0
 11
86.0000010000000117
 21
2.2999999999999758
 31
0.0
  0
LINE
  5
9D
100
AcDbEntity
100
AcDbLine
  8
RaspberryPi_Connectors
 62
256
370
-1
  6
ByLayer
 10
-0.7500009999999833
 20
11.4749979999999923
 30
0.0
 11
-0.7500009999999904
 21
3.8749979999999837
 31
0.0
  0
LINE
  5
9E
100
AcDbEntity
100
AcDbLine
  8
RaspberryPi_Connectors
 62
256
370
-1
  6
ByLayer
 10
70.7749990000000224
 20
56.5749999999999815
 30
0.0
 11
70.774998999999994
 21
56.1999989999999698
 31
0.0
  0
LINE
  5
9F
100
AcDbEntity
100
AcDbLine
  8
RaspberryPi_Connectors
 62
256
370
-1
  6
ByLayer
 10
68.2249990000000111
 20
60.0999990000000324
 30
0.0
 11
68.2249990000000111
 21
56.5750000000000242
 31
0.0
  0
LINE
  5
A0
100
AcDbEntity
100
AcDbLine
  8
RaspberryPi_Connectors
 62
256
370
-1
  6
ByLayer
 10
61.1500000000000057
 20
60.0999990000000039
 30
0.0
 11
61.1499999999999915
 21
56.5750000000000242
 31
0.0
  0
LINE
  5
A1
100
AcDbEntity
100
AcDbLine
  8
RaspberryPi_Connectors
 62
256
370
-1
  6
ByLayer
 10
58.4999999999999858
 20
56.5750000000000099
 30
0.0
 11
58.5
 21
56.1999989999999841
 31
0.0
  0
LINE
  5
A2
100
AcDbEntity
100
AcDbLine
  8
RaspberryPi_Connectors
 62
256
370
-1
  6
ByLayer
 10
52.0
 20
0.0
 30
0.0
 11
51.9999999999999858
 21
-1.1500010000000245
 31
0.0
  0
LINE
  5
A3
100
AcDbEntity
100
AcDbLine
  8
RaspberryPi_Connectors
 62
256
370
-1
  6
ByLayer
 10
37.0750010000000003
 20
0.0
 30
0.0
 11
37.0750010000000145
 21
-1.1500009999999889
 31
0.0
  0
LINE
  5
A4
100
AcDbEntity
100
AcDbLine
  8
RaspberryPi_Board
 62
256
370
-1
  6
ByLayer
 10
0.0000000000000071
 20
56.1999989999999983
 30
0.0
 11
0.0000000000000142
 21
0.0002989999999983
 31
0.0
  0
LINE
  5
A5
100
AcDbEntity
100
AcDbLine
  8
RaspberryPi_Board
 62
256
370
-1
  6
ByLayer
 10
0.0000000000000071
 20
56.1999989999999983
 30
0.0
 11
85.0000000000000142
 21
56.1999989999999841
 31
0.0
  0
LINE
  5
A6
100
AcDbEntity
100
AcDbLine
  8
RaspberryPi_Board
 62
256
370
-1
  6
ByLayer
 10
0.0
 20
0.0
 30
0.0
 11
85.0000000000000426
 21
0.0000000000000284
 31
0.0
  0
LINE
  5
A7
100
AcDbEntity
100
AcDbLine
  8
RaspberryPi_Board
 62
256
370
-1
  6
ByLayer
 10
85.0000000000000142
 20
56.1999989999999841
 30
0.0
 11
85.0000000000000426
 21
0.0000000000000284
 31
0.0
  0
ENDSEC
  0
SECTION
  2
OBJECTS
  0
DICTIONARY
  5
C
100
AcDbDictionary
280
0
281
1
  3
ACAD_GROUP
350
D
  3
ACAD_LAYOUT
350
1A
  3
ACAD_MLINESTYLE
350
17
  3
ACAD_PLOTSETTINGS
350
19
  3
ACAD_PLOTSTYLENAME
350
E
  3
AcDbVariableDictionary
350
A8
  0
DICTIONARY
  5
D
100
AcDbDictionary
280
0
281
1
  0
ACDBDICTIONARYWDFLT
  5
E
100
AcDbDictionary
281
1
  3
Normal
350
F
100
AcDbDictionaryWithDefault
340
F
  0
ACDBPLACEHOLDER
  5
F
  0
DICTIONARY
  5
17
100
AcDbDictionary
280
0
281
1
  3
Standard
350
18
  0
MLINESTYLE
  5
18
100
AcDbMlineStyle
  2
STANDARD
 70
0
  3

 62
256
 51
90.0
 52
90.0
 71
2
 49
0.5
 62
256
  6
BYLAYER
 49
-0.5
 62
256
  6
BYLAYER
  0
DICTIONARY
  5
19
100
AcDbDictionary
280
0
281
1
  0
DICTIONARY
  5
1A
100
AcDbDictionary
281
1
  3
Layout1
350
1E
  3
Layout2
350
26
  3
Model
350
22
  0
LAYOUT
  5
1E
100
AcDbPlotSettings
  1

  2
C:\Program Files\AutoCAD 2002\plotters\DWF ePlot (optimized for plotting).pc3
  4

  6

 40
0.0
 41
0.0
 42
0.0
 43
0.0
 44
0.0
 45
0.0
 46
0.0
 47
0.0
 48
0.0
 49
0.0
140
0.0
141
0.0
142
1.0
143
1.0
 70
688
 72
0
 73
0
 74
5
  7

 75
16
147
1.0
148
0.0
149
0.0
100
AcDbLayout
  1
Layout1
 70
1
 71
1
 10
0.0
 20
0.0
 11
420.0
 21
297.0
 12
0.0
 22
0.0
 32
0.0
 14
100000000000000000000.0
 24
100000000000000000000.0
 34
100000000000000000000.0
 15
-100000000000000000000.0
 25
-100000000000000000000.0
 35
-100000000000000000000.0
146
0.0
 13
0.0
 23
0.0
 33
0.0
 16
1.0
 26
0.0
 36
0.0
 17
0.0
 27
1.0
 37
0.0
 76
0
330
1B
  0
LAYOUT
  5
22
100
AcDbPlotSettings
  1

  2
C:\Program Files\AutoCAD 2002\plotters\DWF ePlot (optimized for plotting).pc3
  4

  6

 40
0.0
 41
0.0
 42
0.0
 43
0.0
 44
0.0
 45
0.0
 46
0.0
 47
0.0
 48
0.0
 49
0.0
140
0.0
141
0.0
142
1.0
143
1.0
 70
1712
 72
0
 73
0
 74
0
  7

 75
0
147
1.0
148
0.0
149
0.0
100
AcDbLayout
  1
Model
 70
1
 71
0
 10
0.0
 20
0.0
 11
12.0
 21
9.0
 12
0.0
 22
0.0
 32
0.0
 14
0.0
 24
0.0
 34
0.0
 15
0.0
 25
0.0
 35
0.0
146
0.0
 13
0.0
 23
0.0
 33
0.0
 16
1.0
 26
0.0
 36
0.0
 17
0.0
 27
1.0
 37
0.0
 76
0
330
1F
  0
LAYOUT
  5
26
100
AcDbPlotSettings
  1

  2
C:\Program Files\AutoCAD 2002\plotters\DWF ePlot (optimized for plotting).pc3
  4

  6

 40
0.0
 41
0.0
 42
0.0
 43
0.0
 44
0.0
 45
0.0
 46
0.0
 47
0.0
 48
0.0
 49
0.0
140
0.0
141
0.0
142
1.0
143
1.0
 70
688
 72
0
 73
0
 74
5
  7

 75
16
147
1.0
148
0.0
149
0.0
100
AcDbLayout
  1
Layout2
 70
1
 71
2
 10
0.0
 20
0.0
 11
12.0
 21
9.0
 12
0.0
 22
0.0
 32
0.0
 14
0.0
 24
0.0
 34
0.0
 15
0.0
 25
0.0
 35
0.0
146
0.0
 13
0.0
 23
0.0
 33
0.0
 16
1.0
 26
0.0
 36
0.0
 17
0.0
 27
1.0
 37
0.0
 76
0
330
23
  0
DICTIONARY
  5
A8
100
AcDbDictionary
281
1
  3
DIMASSOC
350
AA
  3
HIDETEXT
350
A9
  0
DICTIONARYVAR
  5
A9
100
DictionaryVariables
280
0
  1
2
  0
DICTIONARYVAR
  5
AA
100
DictionaryVariables
280
0
  1
1
  0
ENDSEC
  0
EOF
