<?xml version="1.0" encoding="UTF-8" standalone="no"?>
<!-- Created with Inkscape (http://www.inkscape.org/) -->

<svg
   xmlns:dc="http://purl.org/dc/elements/1.1/"
   xmlns:cc="http://creativecommons.org/ns#"
   xmlns:rdf="http://www.w3.org/1999/02/22-rdf-syntax-ns#"
   xmlns:svg="http://www.w3.org/2000/svg"
   xmlns="http://www.w3.org/2000/svg"
   xmlns:sodipodi="http://sodipodi.sourceforge.net/DTD/sodipodi-0.dtd"
   xmlns:inkscape="http://www.inkscape.org/namespaces/inkscape"
   width="2125.9841"
   height="1417.3228"
   id="svg2"
   version="1.1"
   inkscape:version="0.48.3.1 r9886"
   sodipodi:docname="LaserKeyring2_Graphics.svg">
  <sodipodi:namedview
     id="base"
     pagecolor="#ffffff"
     bordercolor="#666666"
     borderopacity="1.0"
     inkscape:pageopacity="0.0"
     inkscape:pageshadow="2"
     inkscape:zoom="3.4855494"
     inkscape:cx="897.81092"
     inkscape:cy="337.5414"
     inkscape:document-units="mm"
     inkscape:current-layer="layer1"
     showgrid="false"
     units="mm"
     inkscape:window-width="1366"
     inkscape:window-height="692"
     inkscape:window-x="0"
     inkscape:window-y="24"
     inkscape:window-maximized="1" />
  <defs
     id="defs4" />
  <metadata
     id="metadata7">
    <rdf:RDF>
      <cc:Work
         rdf:about="">
        <dc:format>image/svg+xml</dc:format>
        <dc:type
           rdf:resource="http://purl.org/dc/dcmitype/StillImage" />
        <dc:title />
      </cc:Work>
    </rdf:RDF>
  </metadata>
  <g
     inkscape:label="Layer 1"
     inkscape:groupmode="layer"
     id="layer1"
     transform="translate(0,364.96061)">
    <path
       style="fill:#000000"
       d="M746.71125 732.43968L746.4510775 727.514245L746.216483438 726.693995625L745.93367 727.11554L745.110725 728.9435275L744.08411 729.93195L743.387405 729.49384L743.86169 727.0127L744.53375375 723.51996625L741.41312 728.50722L737.34613625 734.907445L736.136255469 736.092358125L735.36272 736.0748L738.38988 729.76863L741.3757275 723.9164325L741.213109688 723.31203L739.83099 724.66551L737.51417 726.18968L737.48344 725.4119675L738.88662 723.54215L740.033339219 722.19425L739.90355375 721.873505L734.56093 724.62821L729.7937425 726.948545L727.81093 727.28429L729.426555 725.6114975L733.31093 723.10277L738.51918875 719.7199575L738.336598906 719.258692813L736.31093 719.60032L733.90859625 719.58371875L735.42814 717.72763L735.954985937 717.164577656L735.4909 716.87169125L730.92814 716.98758L726.32739625 717.04265125L724.81093 716.30987L726.70269875 715.45421875L732.06093 715.0833L737.56905375 714.806175L737.751589219 714.461979375L736.56093 713.89026L734.6187425 712.8539125L733.81093 711.88823L734.6187425 711.43685375L736.56093 711.63704L738.60875625 711.99730625L737.31093 710.90957L731.06093 707.16967L726.81093 704.00554L727.110929531 703.325891406L728.21926875 703.47044875L734.11101 706.69225L740.22506625 710.006765L740.375618906 709.5344725L738.81093 707.68968L737.633050625 706.121082031L737.46316 705.23627125L738.167154375 705.253164844L739.61093 706.38968L740.655079062 707.150124375L740.6615675 706.38757L737.81093 701.03526L734.81093 695.17466L735.147925156 694.169286875L736.15515125 694.853705L740.15774 701.26622L744.16702375 707.5976725L744.557511387 707.822026055L744.655333906 707.456614062L743.87712 704.86377L743.42686625 702.85652L743.76373 701.71885L744.6783225 702.14596375L745.64657 703.93345L746.162828437 705.060863437L746.480875 704.8323725L746.73198 699.43968L747.099982344 693.964842969L747.81356125 692.27610625L748.528634531 694.294156406L748.90112 699.93968L749.14569625 705.70290125L749.446501719 705.819097344L749.93895 704.40404L750.831722187 702.378922813L751.7217325 701.713775L752.268749062 702.402909688L752.13254 704.44064L752.229450156 704.820720469L752.85599625 704.19305875L755.28433 700.43964L758.1335275 696.0255775L759.86884 694.18964L760.777195 694.99228625L759.96094 696.73964L755.79663 703.68964L753.3778875 708.41420125L753.699120937 708.505153281L754.96104 707.43964L758.24416625 705.2592625L758.187358594 705.975536875L756.73522 707.83717L755.566657344 709.202204062L755.66380875 709.5405575L760.907 706.83717L767.42633875 703.49350875L768.538686406 703.330807969L768.8109 703.95882L762.8109 708.02651L757.13927 711.603125L757.24357875 712.117333438L759.3109 711.779L761.093147187 711.60336125L761.751225 712.0658375L761.251640312 712.89374L759.5609 713.81438L770.704058281 714.173154688L803.10492875 714.5006525L914.0609 714.93413L1031.5487375 715.3823325L1070.8109 716.20204L1031.88822875 716.89228125L914.90633 716.94893L804.93491 716.986115L759.46535 717.43964L761.36992 718.18964L762.3876125 718.48339L762.8109 719.18964L762.644278906 719.887396719L761.97019375 720.12905875L758.0543 719.25944L754.8109 718.67337L761.26694 722.62792L768.32595 727.21398L768.343353594 727.901553281L767.56529125 728.16660375L765.2609 727.3542L759.3109 723.70731L755.24226375 721.57360875L756.57005 723.36693L758.011347344 725.38067875L758.08860375 726.4661L757.021620781 726.39739875L755.0302 724.94878L753.951181562 724.052097344L753.752365 724.26608875L756.20344 728.68963L759.521425 734.76531625L759.666985937 735.889887344L758.96983 736.18963L755.40742 731.18963L752.38912625 726.43898L751.929559844 726.450348125L752.3109 728.18963L752.46154375 729.61107L751.90688 730.18963L750.8975725 729.2349425L749.92968 726.93963L749.449699062 725.612005625L749.15038 725.8467325L748.90109 731.93963L748.529115937 737.970394375L747.81355 740.11572L747.094286562 738.298000625L746.71122 732.43963L746.71125 732.43968"
       id="path3012"
       inkscape:connector-curvature="0" />
    <path
       style="fill:none;stroke:#000000;stroke-width:0.35345826000000002"
       d="M777.90036 1054.6964L777.90036 1040.9115L780.90476 1040.9115L783.90915 1040.9115L783.90915 1054.6964L783.90915 1068.4813L780.90476 1068.4813L777.90036 1068.4813L777.90036 1054.6964L777.90036 1054.6964"
       id="path3020"
       inkscape:connector-curvature="0"
       transform="translate(0,-364.96061)" />
    <path
       style="fill:none;stroke:#000000;stroke-width:0.35345826000000002"
       d="M792.74561 1054.6855L792.74561 1040.8898L797.01249 1040.9888L801.27938 1041.0878L804.68512 1049.1289L808.28268 1057.1648L811.85801 1049.1236L815.24151 1041.0878L819.54573 1040.9888L823.84994 1040.8898L823.84994 1054.6855L823.84994 1068.4813L821.02227 1068.4813L818.19461 1068.4813L818.19461 1058.0297L818.19461 1047.5781L817.43044 1047.691L816.2014325 1049.2131L813.46179 1055.315L810.2573 1062.8259L808.27541 1062.8259L806.29353 1062.8259L803.08468 1055.315L800.36395375 1049.2651125L799.13839 1047.691L798.713697031 1047.79700938L798.49458375 1048.919475L798.40094 1058.0297L798.40094 1068.4813L795.57328 1068.4813L792.74561 1068.4813L792.74561 1054.6855L792.74561 1054.6855"
       id="path3026"
       inkscape:connector-curvature="0"
       transform="translate(0,-364.96061)" />
    <path
       style="fill:none;stroke:#000000;stroke-width:0.35345826000000002"
       d="M832.68639 1054.6964L832.68639 1040.9115L836.86747 1040.9115L841.04855 1040.9115L844.49754 1049.043L848.18512 1057.0269L851.77735 1048.8999L855.13099 1040.9203L859.46086 1040.9203L863.79072 1040.9203L863.79072 1054.7052L863.79072 1068.4901L860.78633 1068.4901L857.78193 1068.4901L857.78193 1058.0631L857.714906094 1050.47379375L857.23501375 1047.651825L855.924022031 1049.33011875L853.3637 1055.2416L850.18258 1062.8385L848.12063 1062.7485L846.05869 1062.6585L842.84887 1055.1475L840.16718125 1049.1853125L838.99039 1047.6365L838.43558875 1049.1453125L838.34173 1058.0636L838.34173 1068.4906L835.51406 1068.4906L832.68639 1068.4906L832.68639 1054.7057L832.68639 1054.6964"
       id="path3028"
       inkscape:connector-curvature="0"
       transform="translate(0,-364.96061)" />
    <path
       style="fill:none;stroke:#000000;stroke-width:0.35345826000000002"
       d="M869.52027 1068.0395L874.58858 1054.2546L879.50705 1040.9115L883.5781 1040.9215L887.64916 1040.9315L892.59757 1054.3759L897.66381 1068.1528L894.77317 1068.4852L891.76472 1068.4852L891.07747 1066.6295L890.14211 1063.9707L889.1202875 1063.2807625L883.49885 1063.2638L877.1037 1063.3598L876.24982 1065.9224L875.39593 1068.485L872.38318 1068.485L869.52027 1068.0432L869.52027 1068.0395M886.42562 1053.1942L883.93739 1046.0367L883.656067969 1045.578175L883.26730375 1046.020925L881.29857 1051.3645L878.83252 1058.522L878.773088125 1058.9650375L879.248695 1059.19365L883.54261 1059.2914L888.49689 1059.2914L886.42562 1053.1942L886.42562 1053.1942L886.42562 1053.1942"
       id="path3030"
       inkscape:connector-curvature="0"
       transform="translate(0,-364.96061)" />
    <path
       style="fill:none;stroke:#000000;stroke-width:0.35345826000000002"
       d="M917.16292 1054.6964L917.16292 1040.9115L926.70629 1040.9115L936.24967 1040.9115L936.24967 1043.0323L936.24967 1045.153L929.88742 1045.153L923.52517 1045.153L923.52517 1048.5109L923.52517 1051.8687L929.53396 1051.8687L935.54275 1051.8687L935.54275 1053.9895L935.54275 1056.1102L929.53396 1056.1102L923.52517 1056.1102L923.52517 1062.2958L923.52517 1068.4813L920.34405 1068.4813L917.16292 1068.4813L917.16292 1054.6964L917.16292 1054.6964"
       id="path3034"
       inkscape:connector-curvature="0"
       transform="translate(0,-364.96061)" />
    <path
       style="fill:none;stroke:#000000;stroke-width:0.35345826000000002"
       d="M944.73267 1054.6964L944.73267 1040.9115L947.73706 1040.9115L950.74146 1040.9115L950.74146 1054.6964L950.74146 1068.4813L947.73706 1068.4813L944.73267 1068.4813L944.73267 1054.6964L944.73267 1054.6964"
       id="path3036"
       inkscape:connector-curvature="0"
       transform="translate(0,-364.96061)" />
    <path
       style="fill:none;stroke:#000000;stroke-width:0.35345826000000002"
       d="M1008.7086 1104.7108L1008.7086 1090.7492L1014.9535 1090.7492L1021.03990781 1090.92151562L1025.0894375 1091.532825L1027.61839844 1092.72467188L1029.1431 1094.6386L1029.7783625 1096.3731L1029.8413 1098.5639L1028.839425 1102.2286125L1025.6915 1104.6007L1023.411 1105.6987L1025.1996 1106.4881L1027.8845 1108.4683L1033.0972 1118.4902L1029.9927 1118.6724L1026.8882 1118.6724L1024.7863 1114.4214L1021.5153 1109.0374L1020.1138875 1108.0625125L1017.7086 1107.7711L1015.0709 1107.6379L1015.0709 1113.1551L1015.0709 1118.6724L1011.8897 1118.6724L1008.7086 1118.6724L1008.7086 1104.7108L1008.7086 1104.7108M1022.0381 1103.0036L1023.27224375 1101.76250937L1023.816275 1099.94255L1023.63306875 1097.93741562L1022.6855 1096.1408L1021.4731625 1095.2925875L1018.4597 1095.0449L1015.0709 1094.9224L1015.0709 1099.4191L1015.0709 1103.9158L1017.9869 1103.7569L1022.0381 1103.0036L1022.0381 1103.0036"
       id="path3048"
       inkscape:connector-curvature="0"
       transform="translate(0,-364.96061)" />
    <path
       style="fill:none;stroke:#000000;stroke-width:0.35345826000000002"
       d="M981.49233 1104.7108L981.49233 1090.7492L990.85897 1090.7492L1000.2256 1090.7492L1000.2256 1092.8699L1000.2256 1094.9907L993.86337 1094.9907L987.50112 1094.9907L987.50112 1098.5252L987.50112 1102.0598L993.50991 1102.0598L999.5187 1102.0598L999.5187 1104.1806L999.5187 1106.3013L993.50991 1106.3013L987.50112 1106.3013L987.50112 1110.3661L987.50112 1114.4309L994.21682 1114.4309L1000.9325 1114.4309L1000.9325 1116.5516L1000.9325 1118.6724L991.21243 1118.6724L981.49233 1118.6724L981.49233 1104.7108L981.49233 1104.7108"
       id="path3050"
       inkscape:connector-curvature="0"
       transform="translate(0,-364.96061)" />
    <path
       style="fill:none;stroke:#000000;stroke-width:0.35345826000000002"
       d="M950.388 1116.9482L950.388 1115.224L958.51754 1105.3794L966.64708 1095.2627L958.871 1094.9907L951.09491 1094.9907L951.09491 1092.8699L951.09491 1090.7492L962.58231 1090.7492L974.0697 1090.7492L974.0697 1092.6171L974.0697 1094.485L966.11689 1104.0947L958.16408 1114.0676L966.47035 1114.4309L974.77662 1114.4309L974.77662 1116.5516L974.77662 1118.6724L962.58231 1118.6724L950.388 1118.6724L950.388 1116.9482L950.388 1116.9482"
       id="path3052"
       inkscape:connector-curvature="0"
       transform="translate(0,-364.96061)" />
    <path
       style="fill:none;stroke:#000000;stroke-width:0.35345826000000002"
       d="M919.96958 1114.1658L925.14064 1100.2042L928.63441 1090.7492L932.59337 1090.7492L936.55233 1090.7492L937.31592 1092.7815L942.33582 1106.3013L946.76059 1118.2305L943.91223 1118.6724L940.89542 1118.6724L940.20817 1116.8167L939.27531 1114.1658L938.2287425 1113.4731L932.57677 1113.3705L926.12384 1113.3705L925.29246 1116.0214L924.46109 1118.6724L921.37668 1118.6724L918.29228 1118.6724L919.96958 1114.1658L919.96958 1114.1658M937.31004 1108.802L932.72668 1095.5892L930.23167 1101.7747L927.84572 1108.6872L932.50054 1109.129L937.31004 1108.802L937.31004 1108.802"
       id="path3054"
       inkscape:connector-curvature="0"
       transform="translate(0,-364.96061)" />
    <path
       style="fill:none;stroke:#000000;stroke-width:0.35345826000000002"
       d="M895.95542 1104.7108L895.95542 1090.7492L899.13655 1090.7492L902.31767 1090.7492L902.31767 1102.59L902.31767 1114.4309L908.85665 1114.4309L915.39563 1114.4309L915.39563 1116.5516L915.39563 1118.6724L905.67553 1118.6724L895.95542 1118.6724L895.95542 1104.7108L895.95542 1104.7108"
       id="path3056"
       inkscape:connector-curvature="0"
       transform="translate(0,-364.96061)" />
    <path
       style="fill:none;stroke:#000000;stroke-width:0.35345826000000002"
       d="M848.59202 1104.7108L848.59202 1090.7492L851.58744 1090.7492L854.58286 1090.7492L854.68016 1096.3161L854.77746 1101.8831L861.05134 1101.9791L867.32522 1102.0761L867.32522 1096.4126L867.32522 1090.7492L870.32962 1090.7492L873.33402 1090.7492L873.33402 1104.7108L873.33402 1118.6724L870.32962 1118.6724L867.32522 1118.6724L867.32522 1112.4868L867.32522 1106.3013L860.96298 1106.3013L854.60073 1106.3013L854.60073 1112.4868L854.60073 1118.6724L851.59633 1118.6724L848.59194 1118.6724L848.59194 1104.7108L848.59202 1104.7108"
       id="path3058"
       inkscape:connector-curvature="0"
       transform="translate(0,-364.96061)" />
    <path
       style="fill:none;stroke:#000000;stroke-width:0.35345826000000002"
       d="M814.66163 1118.4073L819.70111 1104.534L824.73898 1090.9259L828.7734 1090.9259L832.80781 1090.9259L837.86524 1104.534L842.92967 1118.4073L839.96174 1118.6724L836.9868 1118.6724L836.13261 1116.1098L835.27842 1113.5472L828.80877 1113.5472L822.33912 1113.5472L821.44022 1116.1098L820.54132 1118.6724L817.60067 1118.6724L814.66163 1118.4073L814.66163 1118.4073M831.34526 1102.2388L828.78236 1095.3464L826.23244 1102.2365L823.87523 1109.129L828.79534 1109.129L833.71545 1109.129L831.34526 1102.2388L831.34526 1102.2388"
       id="path3060"
       inkscape:connector-curvature="0"
       transform="translate(0,-364.96061)" />
    <path
       style="fill:none;stroke:#000000;stroke-width:0.35345826000000002"
       d="M777.90036 1104.7108L777.90036 1090.7492L782.05806 1090.7492L786.21575 1090.7492L789.6138 1098.7758L793.32055 1106.8995L797.01276 1098.9612L800.39627 1090.9259L804.70048 1090.8269L809.00469 1090.7279L809.00469 1104.7004L809.00469 1118.6729L806.00029 1118.6729L802.9959 1118.6729L802.9959 1108.2837L802.90117 1099.6775L802.45496 1097.6869L801.56573 1098.2676L798.26931 1105.9484L795.32119 1112.8408L793.39115 1112.9449L791.4611 1113.0489L788.1749 1105.3455L784.80298 1097.5454L784.13647 1097.6716L783.6508925 1099.5609125L783.55569 1108.2837L783.55569 1118.6729L780.72803 1118.6729L777.90036 1118.6729L777.90036 1104.7113L777.90036 1104.7108"
       id="path3062"
       inkscape:connector-curvature="0"
       transform="translate(0,-364.96061)" />
    <path
       inkscape:connector-curvature="0"
       id="path3005"
       d="M964.33052 696.78313L968.97714 689.44093L964.47562 682.28333L959.96538 675.66403L963.07441 675.67803L966.18345 675.69203L969.49278 680.62643L973.02736 685.55173L976.52332 680.60333L979.79403 675.66393L982.7972 675.66393L985.80038 675.83093L981.21063 682.69873L976.62088 689.39943L981.14518 696.05153L985.93253 703.14533L983.18502 703.58713L980.17449 703.58713L976.71355 698.47673L972.98886 693.35163L969.31049 698.46203L965.89587 703.58713L962.79425 703.58713L959.69263 703.58713L964.33052 696.78303L964.33052 696.78313"
       style="fill:none;stroke:#000000;stroke-width:0.35345826000000002" />
    <path
       inkscape:connector-curvature="0"
       id="path3007"
       d="M992.86955 689.62563L992.86955 675.66403L995.87395 675.66403L998.87834 675.66403L998.87834 689.62563L998.87834 703.58723L995.87395 703.58723L992.86955 703.58723L992.86955 689.62563L992.86955 689.62563"
       style="fill:none;stroke:#000000;stroke-width:0.35345826000000002" />
    <path
       inkscape:connector-curvature="0"
       id="path3009"
       d="M1007.7148 689.62563L1007.7148 675.66403L1011.3378 675.67403L1014.9607 675.68403L1020.1342 685.48523L1024.10611406 692.887694063L1026.0724625 695.3653675L1026.73652969 692.929397187L1026.8016 685.59093L1026.8016 675.66953L1029.6292 675.66953L1032.4569 675.66953L1032.4569 689.63113L1032.4569 703.59273L1028.8219 703.59273L1025.1868 703.59273L1019.9531 693.69593L1014.6039 683.79903L1013.9292 684.01363L1013.4655625 685.8440925L1013.3701 693.91043L1013.3701 703.59273L1010.5425 703.59273L1007.7148 703.59273L1007.7148 689.63113L1007.7148 689.62563"
       style="fill:none;stroke:#000000;stroke-width:0.35345826000000002" />
    <path
       inkscape:connector-curvature="0"
       id="path3011"
       d="M1041.2934 680.43573L1041.2934 675.66403L1042.8839 675.66403L1044.4745 675.66403L1044.4745 680.43573L1044.4745 685.20743L1042.8839 685.20743L1041.2934 685.20743L1041.2934 680.43573L1041.2934 680.43573"
       style="fill:none;stroke:#000000;stroke-width:0.35345826000000002" />
  </g>
</svg>
