999
dxflib 2.2.0.0
  0
SECTION
  2
HEADER
  9
$ACADVER
  1
AC1015
  9
$HANDSEED
  5
FFFF
  9
$DIMASZ
 40
2.5
  9
$PLIMMIN
 10
0.0
 20
0.0
  9
$DIMEXE
 40
1.25
  9
$DIMGAP
 40
0.625
  9
$PLIMMAX
 10
210.0
 20
297.0
  9
$INSUNITS
 70
4
  9
$DIMSTYLE
  2
Standard
  9
$MEASUREMENT
 70
1
  9
$DIMEXO
 40
0.625
  9
$DIMTXT
 40
2.5
  0
ENDSEC
  0
SECTION
  2
TABLES
  0
TABLE
  2
VPORT
  5
8
100
AcDbSymbolTable
 70
1
  0
VPORT
  5
30
100
AcDbSymbolTableRecord
100
AcDbViewportTableRecord
  2
*Active
 70
0
 10
0.0
 20
0.0
 11
1.0
 21
1.0
 12
286.3055555555554861
 22
148.5
 13
0.0
 23
0.0
 14
10.0
 24
10.0
 15
10.0
 25
10.0
 16
0.0
 26
0.0
 36
1.0
 17
0.0
 27
0.0
 37
0.0
 40
297.0
 41
1.92798353909465
 42
50.0
 43
0.0
 44
0.0
 50
0.0
 51
0.0
 71
0
 72
100
 73
1
 74
3
 75
1
 76
1
 77
0
 78
0
281
0
 65
1
110
0.0
120
0.0
130
0.0
111
1.0
121
0.0
131
0.0
112
0.0
122
1.0
132
0.0
 79
0
146
0.0
  0
ENDTAB
  0
TABLE
  2
LTYPE
  5
5
100
AcDbSymbolTable
 70
21
  0
LTYPE
  5
14
100
AcDbSymbolTableRecord
100
AcDbLinetypeTableRecord
  2
ByBlock
 70
0
  3

 72
65
 73
0
 40
0.0
  0
LTYPE
  5
15
100
AcDbSymbolTableRecord
100
AcDbLinetypeTableRecord
  2
ByLayer
 70
0
  3

 72
65
 73
0
 40
0.0
  0
LTYPE
  5
16
100
AcDbSymbolTableRecord
100
AcDbLinetypeTableRecord
  2
CONTINUOUS
 70
0
  3
Solid line
 72
65
 73
0
 40
0.0
  0
LTYPE
  5
31
100
AcDbSymbolTableRecord
100
AcDbLinetypeTableRecord
  2
DOT
 70
0
  3
Dot . . . . . . . . . . . . . . . . . . . . . .
 72
65
 73
2
 40
6.3499999999999996
 49
0.0
 74
0
 49
-6.3499999999999996
 74
0
  0
LTYPE
  5
32
100
AcDbSymbolTableRecord
100
AcDbLinetypeTableRecord
  2
DOT2
 70
0
  3
Dot (.5x) .....................................
 72
65
 73
2
 40
3.1749999999999998
 49
0.0
 74
0
 49
-3.1749999999999998
 74
0
  0
LTYPE
  5
33
100
AcDbSymbolTableRecord
100
AcDbLinetypeTableRecord
  2
DOTX2
 70
0
  3
Dot (2x) .  .  .  .  .  .  .  .  .  .  .  .  .
 72
65
 73
2
 40
12.6999999999999993
 49
0.0
 74
0
 49
-12.6999999999999993
 74
0
  0
LTYPE
  5
34
100
AcDbSymbolTableRecord
100
AcDbLinetypeTableRecord
  2
DASHED
 70
0
  3
Dashed __ __ __ __ __ __ __ __ __ __ __ __ __ _
 72
65
 73
2
 40
19.0500000000000007
 49
12.6999999999999993
 74
0
 49
-6.3499999999999996
 74
0
  0
LTYPE
  5
35
100
AcDbSymbolTableRecord
100
AcDbLinetypeTableRecord
  2
DASHED2
 70
0
  3
Dashed (.5x) _ _ _ _ _ _ _ _ _ _ _ _ _ _ _ _ _
 72
65
 73
2
 40
9.5250000000000004
 49
6.3499999999999996
 74
0
 49
-3.1749999999999998
 74
0
  0
LTYPE
  5
36
100
AcDbSymbolTableRecord
100
AcDbLinetypeTableRecord
  2
DASHEDX2
 70
0
  3
Dashed (2x) ____  ____  ____  ____  ____  ___
 72
65
 73
2
 40
38.1000000000000014
 49
25.3999999999999986
 74
0
 49
-12.6999999999999993
 74
0
  0
LTYPE
  5
37
100
AcDbSymbolTableRecord
100
AcDbLinetypeTableRecord
  2
DASHDOT
 70
0
  3
Dash dot __ . __ . __ . __ . __ . __ . __ . __
 72
65
 73
4
 40
25.3999999999999986
 49
12.6999999999999993
 74
0
 49
-6.3499999999999996
 74
0
 49
0.0
 74
0
 49
-6.3499999999999996
 74
0
  0
LTYPE
  5
38
100
AcDbSymbolTableRecord
100
AcDbLinetypeTableRecord
  2
DASHDOT2
 70
0
  3
Dash dot (.5x) _._._._._._._._._._._._._._._.
 72
65
 73
4
 40
12.6999999999999993
 49
6.3499999999999996
 74
0
 49
-3.1749999999999998
 74
0
 49
0.0
 74
0
 49
-3.1749999999999998
 74
0
  0
LTYPE
  5
39
100
AcDbSymbolTableRecord
100
AcDbLinetypeTableRecord
  2
DASHDOTX2
 70
0
  3
Dash dot (2x) ____  .  ____  .  ____  .  ___
 72
65
 73
4
 40
50.7999999999999972
 49
25.3999999999999986
 74
0
 49
-12.6999999999999993
 74
0
 49
0.0
 74
0
 49
-12.6999999999999993
 74
0
  0
LTYPE
  5
3A
100
AcDbSymbolTableRecord
100
AcDbLinetypeTableRecord
  2
DIVIDE
 70
0
  3
Divide ____ . . ____ . . ____ . . ____ . . ____
 72
65
 73
6
 40
31.75
 49
12.6999999999999993
 74
0
 49
-6.3499999999999996
 74
0
 49
0.0
 74
0
 49
-6.3499999999999996
 74
0
 49
0.0
 74
0
 49
-6.3499999999999996
 74
0
  0
LTYPE
  5
3B
100
AcDbSymbolTableRecord
100
AcDbLinetypeTableRecord
  2
DIVIDE2
 70
0
  3
Divide (.5x) __..__..__..__..__..__..__..__.._
 72
65
 73
6
 40
15.875
 49
6.3499999999999996
 74
0
 49
-3.1749999999999998
 74
0
 49
0.0
 74
0
 49
-3.1749999999999998
 74
0
 49
0.0
 74
0
 49
-3.1749999999999998
 74
0
  0
LTYPE
  5
3C
100
AcDbSymbolTableRecord
100
AcDbLinetypeTableRecord
  2
DIVIDEX2
 70
0
  3
Divide (2x) ________  .  .  ________  .  .  _
 72
65
 73
6
 40
63.5
 49
25.3999999999999986
 74
0
 49
-12.6999999999999993
 74
0
 49
0.0
 74
0
 49
-12.6999999999999993
 74
0
 49
0.0
 74
0
 49
-12.6999999999999993
 74
0
  0
LTYPE
  5
3D
100
AcDbSymbolTableRecord
100
AcDbLinetypeTableRecord
  2
CENTER
 70
0
  3
Center ____ _ ____ _ ____ _ ____ _ ____ _ ____
 72
65
 73
4
 40
50.7999999999999972
 49
31.75
 74
0
 49
-6.3499999999999996
 74
0
 49
6.3499999999999996
 74
0
 49
-6.3499999999999996
 74
0
  0
LTYPE
  5
3E
100
AcDbSymbolTableRecord
100
AcDbLinetypeTableRecord
  2
CENTER2
 70
0
  3
Center (.5x) ___ _ ___ _ ___ _ ___ _ ___ _ ___
 72
65
 73
4
 40
28.5749999999999993
 49
19.0500000000000007
 74
0
 49
-3.1749999999999998
 74
0
 49
3.1749999999999998
 74
0
 49
-3.1749999999999998
 74
0
  0
LTYPE
  5
3F
100
AcDbSymbolTableRecord
100
AcDbLinetypeTableRecord
  2
CENTERX2
 70
0
  3
Center (2x) ________  __  ________  __  _____
 72
65
 73
4
 40
101.5999999999999943
 49
63.5
 74
0
 49
-12.6999999999999993
 74
0
 49
12.6999999999999993
 74
0
 49
-12.6999999999999993
 74
0
  0
LTYPE
  5
40
100
AcDbSymbolTableRecord
100
AcDbLinetypeTableRecord
  2
BORDER
 70
0
  3
Border __ __ . __ __ . __ __ . __ __ . __ __ .
 72
65
 73
6
 40
44.4500000000000028
 49
12.6999999999999993
 74
0
 49
-6.3499999999999996
 74
0
 49
12.6999999999999993
 74
0
 49
-6.3499999999999996
 74
0
 49
0.0
 74
0
 49
-6.3499999999999996
 74
0
  0
LTYPE
  5
41
100
AcDbSymbolTableRecord
100
AcDbLinetypeTableRecord
  2
BORDER2
 70
0
  3
Border (.5x) __.__.__.__.__.__.__.__.__.__.__.
 72
65
 73
6
 40
22.2250000000000014
 49
6.3499999999999996
 74
0
 49
-3.1749999999999998
 74
0
 49
6.3499999999999996
 74
0
 49
-3.1749999999999998
 74
0
 49
0.0
 74
0
 49
-3.1749999999999998
 74
0
  0
LTYPE
  5
42
100
AcDbSymbolTableRecord
100
AcDbLinetypeTableRecord
  2
BORDERX2
 70
0
  3
Border (2x) ____  ____  .  ____  ____  .  ___
 72
65
 73
6
 40
88.9000000000000057
 49
25.3999999999999986
 74
0
 49
-12.6999999999999993
 74
0
 49
25.3999999999999986
 74
0
 49
-12.6999999999999993
 74
0
 49
0.0
 74
0
 49
-12.6999999999999993
 74
0
  0
ENDTAB
  0
TABLE
  2
LAYER
  5
2
100
AcDbSymbolTable
 70
2
  0
LAYER
  5
10
100
AcDbSymbolTableRecord
100
AcDbLayerTableRecord
  2
0
 70
0
 62
7
  6
CONTINUOUS
390
F
  0
LAYER
  5
43
100
AcDbSymbolTableRecord
100
AcDbLayerTableRecord
  2
Layer_1
 70
0
 62
7
  6
CONTINUOUS
390
F
  0
ENDTAB
  0
TABLE
  2
STYLE
  5
3
100
AcDbSymbolTable
 70
1
  0
STYLE
  5
11
100
AcDbSymbolTableRecord
100
AcDbTextStyleTableRecord
  2
Standard
 70
0
 40
0.0
 41
0.75
 50
0.0
 71
0
 42
2.5
  3
txt
  4

  0
ENDTAB
  0
TABLE
  2
VIEW
  5
6
100
AcDbSymbolTable
 70
0
  0
ENDTAB
  0
TABLE
  2
UCS
  5
7
100
AcDbSymbolTable
 70
0
  0
ENDTAB
  0
TABLE
  2
APPID
  5
9
100
AcDbSymbolTable
 70
1
  0
APPID
  5
12
100
AcDbSymbolTableRecord
100
AcDbRegAppTableRecord
  2
ACAD
 70
0
  0
ENDTAB
  0
TABLE
  2
DIMSTYLE
  5
A
100
AcDbSymbolTable
 70
1
100
AcDbDimStyleTable
 71
0
  0
DIMSTYLE
105
27
100
AcDbSymbolTableRecord
100
AcDbDimStyleTableRecord
  2
Standard
 41
2.5
 42
0.625
 43
3.75
 44
1.25
 70
0
 73
0
 74
0
 77
1
 78
8
140
2.5
141
2.5
143
0.03937007874016
147
0.625
171
3
172
1
271
2
272
2
274
3
278
44
283
0
284
8
340
11
  0
ENDTAB
  0
TABLE
  2
BLOCK_RECORD
  5
1
100
AcDbSymbolTable
 70
1
  0
BLOCK_RECORD
  5
1F
100
AcDbSymbolTableRecord
100
AcDbBlockTableRecord
  2
*Model_Space
340
22
  0
BLOCK_RECORD
  5
1B
100
AcDbSymbolTableRecord
100
AcDbBlockTableRecord
  2
*Paper_Space
340
1E
  0
BLOCK_RECORD
  5
23
100
AcDbSymbolTableRecord
100
AcDbBlockTableRecord
  2
*Paper_Space0
340
26
  0
ENDTAB
  0
ENDSEC
  0
SECTION
  2
BLOCKS
  0
BLOCK
  5
20
100
AcDbEntity
  8
0
100
AcDbBlockBegin
  2
*Model_Space
 70
0
 10
0.0
 20
0.0
 30
0.0
  3
*Model_Space
  1

  0
ENDBLK
  5
21
100
AcDbEntity
  8
0
100
AcDbBlockEnd
  0
BLOCK
  5
1C
100
AcDbEntity
 67
1
  8
0
100
AcDbBlockBegin
  2
*Paper_Space
 70
0
 10
0.0
 20
0.0
 30
0.0
  3
*Paper_Space
  1

  0
ENDBLK
  5
1D
100
AcDbEntity
 67
1
  8
0
100
AcDbBlockEnd
  0
BLOCK
  5
24
100
AcDbEntity
  8
0
100
AcDbBlockBegin
  2
*Paper_Space0
 70
0
 10
0.0
 20
0.0
 30
0.0
  3
*Paper_Space0
  1

  0
ENDBLK
  5
25
100
AcDbEntity
  8
0
100
AcDbBlockEnd
  0
ENDSEC
  0
SECTION
  2
ENTITIES
  0
ARC
  5
44
100
AcDbEntity
  8
Layer_1
 62
256
370
-1
  6
ByLayer
100
AcDbCircle
 10
5.0
 20
8.0
 30
0.0
 40
5.0
100
AcDbArc
 50
90.0
 51
180.0
  0
LINE
  5
45
100
AcDbEntity
100
AcDbLine
  8
Layer_1
 62
256
370
-1
  6
ByLayer
 10
0.0
 20
5.0
 30
0.0
 11
0.0
 21
8.0
 31
0.0
  0
ARC
  5
46
100
AcDbEntity
  8
Layer_1
 62
256
370
-1
  6
ByLayer
100
AcDbCircle
 10
5.0
 20
5.0
 30
0.0
 40
5.0
100
AcDbArc
 50
180.0
 51
270.0
  0
LINE
  5
47
100
AcDbEntity
100
AcDbLine
  8
Layer_1
 62
256
370
-1
  6
ByLayer
 10
5.0
 20
13.0
 30
0.0
 11
45.0
 21
13.0
 31
0.0
  0
LINE
  5
48
100
AcDbEntity
100
AcDbLine
  8
Layer_1
 62
256
370
-1
  6
ByLayer
 10
45.0
 20
0.0
 30
0.0
 11
5.0
 21
0.0
 31
0.0
  0
CIRCLE
  5
49
100
AcDbEntity
100
AcDbCircle
  8
Layer_1
 62
256
370
-1
  6
ByLayer
 10
46.0
 20
6.5
 30
0.0
 40
2.5
  0
ARC
  5
4A
100
AcDbEntity
  8
Layer_1
 62
256
370
-1
  6
ByLayer
100
AcDbCircle
 10
46.0
 20
8.0
 30
0.0
 40
5.0
100
AcDbArc
 50
0.0
 51
90.0
  0
LINE
  5
4B
100
AcDbEntity
100
AcDbLine
  8
Layer_1
 62
256
370
-1
  6
ByLayer
 10
51.0
 20
8.0
 30
0.0
 11
51.0
 21
5.0
 31
0.0
  0
ARC
  5
4C
100
AcDbEntity
  8
Layer_1
 62
256
370
-1
  6
ByLayer
100
AcDbCircle
 10
46.0
 20
5.0
 30
0.0
 40
5.0
100
AcDbArc
 50
270.0
 51
0.0
  0
LINE
  5
4D
100
AcDbEntity
100
AcDbLine
  8
Layer_1
 62
256
370
-1
  6
ByLayer
 10
46.0
 20
13.0
 30
0.0
 11
45.0
 21
13.0
 31
0.0
  0
LINE
  5
4E
100
AcDbEntity
100
AcDbLine
  8
Layer_1
 62
256
370
-1
  6
ByLayer
 10
45.0
 20
0.0
 30
0.0
 11
46.0
 21
0.0
 31
0.0
  0
LWPOLYLINE
  5
4F
  8
Layer_1
 62
7
370
-1
  6
ByLayer
100
AcDbEntity
100
AcDbPolyline
 90
167
 70
0
 10
4.2954031999999982
 20
4.1156968000000012
 10
4.266032800000005
 20
4.6717236000000018
 10
4.2395495999999984
 20
4.7643208000000019
 10
4.2076232000000005
 20
4.7167327999999999
 10
4.1147219999999951
 20
4.510373600000003
 10
3.9988284000000025
 20
4.3987915999999982
 10
3.9201779999999986
 20
4.4482491999999985
 10
3.9737196000000043
 20
4.7283424000000025
 10
4.0495884000000046
 20
5.1226332000000019
 10
3.697303199999999
 20
4.5596275999999989
 10
3.2381859999999962
 20
3.8371135999999981
 10
3.1016039999999978
 20
3.7033500000000004
 10
3.0142803999999956
 20
3.7053319999999985
 10
3.3560131999999956
 20
4.4172283999999991
 10
3.693082000000004
 20
5.0778768000000021
 10
3.6747244000000023
 20
5.1461068000000019
 10
3.5186984000000052
 20
4.993313999999998
 10
3.2571551999999997
 20
4.8212523999999979
 10
3.253686000000005
 20
4.9090471999999981
 10
3.4120896000000016
 20
5.120128799999998
 10
3.5415416000000053
 20
5.2722919999999993
 10
3.5268900000000034
 20
5.3085004000000033
 10
2.9237671999999977
 20
4.9975248000000025
 10
2.385604799999999
 20
4.735584799999998
 10
2.1617671999999972
 20
4.6976828000000017
 10
2.3441532000000054
 20
4.8865228000000007
 10
2.7826559999999976
 20
5.1697299999999986
 10
3.3706107999999975
 20
5.5516120000000004
 10
3.349998400000004
 20
5.6036836000000001
 10
3.1213227999999962
 20
5.5651176000000024
 10
2.8501260000000004
 20
5.5669919999999991
 10
3.0216655999999946
 20
5.7765236000000018
 10
3.0811408000000031
 20
5.840086000000003
 10
3.0287504000000016
 20
5.8731495999999996
 10
2.5136656000000017
 20
5.8600671999999978
 10
1.9942928000000053
 20
5.8538500000000004
 10
1.8231003999999986
 20
5.936573199999998
 10
2.0366604000000055
 20
6.0331663999999989
 10
2.641544799999997
 20
6.0750391999999982
 10
3.2633508000000009
 20
6.1063236000000023
 10
3.2839571999999979
 20
6.1451792000000012
 10
3.149544800000001
 20
6.209719999999999
 10
2.9302936000000046
 20
6.3267124000000026
 10
2.8391003999999955
 20
6.4357272000000023
 10
2.9302936000000046
 20
6.4866824000000012
 10
3.149544800000001
 20
6.4640835999999986
 10
3.3807220000000031
 20
6.4234135999999982
 10
3.2342116000000036
 20
6.5462067999999993
 10
2.5286560000000011
 20
6.9684000000000026
 10
2.0488784000000009
 20
7.3255951999999986
 10
2.0827448000000004
 20
7.4023199999999978
 10
2.2078639999999949
 20
7.386001199999999
 10
2.8729764000000046
 20
7.0222956000000014
 10
3.5631851999999982
 20
6.6481236000000026
 10
3.5801808000000053
 20
6.7014400000000025
 10
3.4035447999999975
 20
6.9096968000000007
 10
3.2705755999999955
 20
7.0867740000000028
 10
3.251396799999998
 20
7.1866592000000029
 10
3.3308700000000044
 20
7.1847519999999978
 10
3.4938560000000054
 20
7.0564524000000013
 10
3.6117288000000034
 20
6.970606400000003
 10
3.6124611999999958
 20
7.0566904000000026
 10
3.2906560000000016
 20
7.6609067999999985
 10
2.9519896000000019
 20
8.3225031999999999
 10
2.9900323999999956
 20
8.4359987999999984
 10
3.1037372000000008
 20
8.358735600000001
 10
3.555584799999997
 20
7.6348340000000015
 10
4.0081883999999945
 20
6.9200831999999997
 10
4.0522699999999992
 20
6.8947564000000003
 10
4.063313200000005
 20
6.9360072000000006
 10
3.9754616000000058
 20
7.2287104000000006
 10
3.924632799999995
 20
7.4553067999999998
 10
3.9626612000000025
 20
7.5837372000000016
 10
4.0659084000000005
 20
7.5355208000000005
 10
4.1752127999999971
 20
7.3337332000000011
 10
4.2334927999999996
 20
7.2064608000000021
 10
4.2693964000000051
 20
7.2322547999999989
 10
4.2977436000000013
 20
7.8410300000000008
 10
4.3392868000000027
 20
8.4590783999999992
 10
4.4198420000000054
 20
8.6497180000000018
 10
4.5005660000000036
 20
8.4219023999999987
 10
4.5426152000000002
 20
7.7845856000000033
 10
4.5702252000000048
 20
7.1339819999999978
 10
4.6041828000000011
 20
7.1208647999999988
 10
4.6597748000000028
 20
7.2806087999999995
 10
4.760558800000001
 20
7.5092220000000003
 10
4.8610312000000029
 20
7.5843099999999994
 10
4.922783200000004
 20
7.5065143999999977
 10
4.9074068000000013
 20
7.2764771999999995
 10
4.9183467999999948
 20
7.2335704000000023
 10
4.9890767999999985
 20
7.3044264000000005
 10
5.2632087999999957
 20
7.7281455999999995
 10
5.5848516000000021
 20
8.2264444000000037
 10
5.7807492000000025
 20
8.4337012000000016
 10
5.8832924000000055
 20
8.3430911999999982
 10
5.7911460000000039
 20
8.1458344000000018
 10
5.3210416000000009
 20
7.3612568000000014
 10
5.0479927999999976
 20
6.8279064000000007
 10
5.0842564000000046
 20
6.8176387999999974
 10
5.2267127999999961
 20
6.9379235999999995
 10
5.5973416000000045
 20
7.1840640000000011
 10
5.5909283999999957
 20
7.1032043999999992
 10
5.4269980000000038
 20
6.8930468000000022
 10
5.2950803999999954
 20
6.7389496000000015
 10
5.3060475999999994
 20
6.700753200000003
 10
5.8979456000000035
 20
7.0059355999999982
 10
6.6339068000000001
 20
7.3833976000000012
 10
6.7594784000000008
 20
7.4017648000000014
 10
6.7902083999999947
 20
7.3308692000000013
 10
6.1128747999999975
 20
6.8716724000000005
 10
5.4726107999999956
 20
6.4679124000000003
 10
5.4843864000000053
 20
6.4098639999999989
 10
5.7177639999999998
 20
6.4480579999999978
 10
5.9189596000000053
 20
6.4678855999999998
 10
5.9932492000000028
 20
6.4156771999999993
 10
5.9368519999999991
 20
6.3222159999999974
 10
5.7459860000000056
 20
6.2182860000000009
 10
7.0039248000000045
 20
6.177784400000002
 10
10.6616231999999975
 20
6.1408136000000013
 10
23.1873192000000046
 20
6.0918788000000008
 10
36.4503907999999939
 20
6.0412816000000022
 10
40.8826528000000096
 20
5.9487459999999999
 10
36.488715599999999
 20
5.8708252000000023
 10
23.2827592000000116
 20
5.864430399999998
 10
10.8682076000000052
 20
5.860232400000001
 10
5.7351995999999987
 20
5.8090344000000016
 10
5.9502043999999961
 20
5.7243679999999983
 10
6.0650903999999972
 20
5.691206799999998
 10
6.1128747999999975
 20
5.6114787999999978
 10
6.0940652000000002
 20
5.532709999999998
 10
6.0179683999999956
 20
5.5054291999999982
 10
5.5759076000000052
 20
5.6035992000000023
 10
5.2097639999999963
 20
5.6697600000000028
 10
5.9385792000000039
 20
5.2233352000000028
 10
6.735462800000005
 20
4.7056199999999988
 10
6.7374276000000011
 20
4.6280008000000015
 10
6.6495928000000051
 20
4.5980796000000002
 10
6.3894528000000044
 20
4.6897907999999973
 10
5.7177639999999998
 20
5.1014843999999986
 10
5.258460000000003
 20
5.3423551999999974
 10
5.4083524000000018
 20
5.1399092
 10
5.571058800000003
 20
4.9125795999999982
 10
5.5797800000000057
 20
4.790047600000003
 10
5.4593296000000011
 20
4.7978031999999988
 10
5.2345203999999974
 20
4.9613360000000002
 10
5.1127112000000015
 20
5.0625615999999987
 10
5.0902667999999949
 20
5.0384044000000019
 10
5.3669660000000023
 20
4.5390356000000001
 10
5.7415296000000016
 20
3.8531580000000023
 10
5.7579619999999982
 20
3.7262067999999999
 10
5.679260799999998
 20
3.6923688000000028
 10
5.2771043999999963
 20
4.2568135999999983
 10
4.9363724000000051
 20
4.7931091999999982
 10
4.8844923999999992
 20
4.7918255999999984
 10
4.9275415999999952
 20
4.5954799999999976
 10
4.944547599999999
 20
4.4350151999999978
 10
4.8819324000000055
 20
4.3697024000000004
 10
4.7679928000000018
 20
4.477476000000002
 10
4.6587283999999958
 20
4.7365911999999986
 10
4.6045439999999989
 20
4.8864651999999982
 10
4.570754
 20
4.8599671999999998
 10
4.5426119999999974
 20
4.1721468000000019
 10
4.5006200000000041
 20
3.4913404000000017
 10
4.4198407999999976
 20
3.2491572000000022
 10
4.3386439999999995
 20
3.4543571999999987
 10
4.2953999999999954
 20
4.1157023999999982
 10
4.2954031999999982
 20
4.1156968000000012
  0
LWPOLYLINE
  5
50
  8
Layer_1
 62
7
370
-1
  6
ByLayer
100
AcDbEntity
100
AcDbPolyline
 90
10
 70
0
 10
7.816307200000006
 20
8.9364912000000007
 10
7.816307200000006
 20
10.4926536000000006
 10
8.1554708000000016
 20
10.4926536000000006
 10
8.4946327999999998
 20
10.4926536000000006
 10
8.4946327999999998
 20
8.9364912000000007
 10
8.4946327999999998
 20
7.3803292000000003
 10
8.1554708000000016
 20
7.3803292000000003
 10
7.816307200000006
 20
7.3803292000000003
 10
7.816307200000006
 20
8.9364912000000007
 10
7.816307200000006
 20
8.9364912000000007
  0
LWPOLYLINE
  5
51
  8
Layer_1
 62
7
370
-1
  6
ByLayer
100
AcDbEntity
100
AcDbPolyline
 90
33
 70
0
 10
9.492171199999996
 20
8.9377220000000026
 10
9.492171199999996
 20
10.4951032000000009
 10
9.9738544000000058
 20
10.4839272000000001
 10
10.4555387999999994
 20
10.4727511999999994
 10
10.8400091999999972
 20
9.5650004000000024
 10
11.2461335999999967
 20
8.6578364000000025
 10
11.6497487999999976
 20
9.5655983999999989
 10
12.031708400000003
 20
10.4727511999999994
 10
12.5176067999999994
 20
10.4839272000000001
 10
13.0035043999999971
 20
10.4951032000000009
 10
13.0035043999999971
 20
8.9377220000000026
 10
13.0035043999999971
 20
7.3803292000000003
 10
12.6842920000000063
 20
7.3803292000000003
 10
12.3650804000000001
 20
7.3803292000000003
 10
12.3650804000000001
 20
8.5601988000000002
 10
12.3650804000000001
 20
9.740068400000002
 10
12.2788140000000006
 20
9.7273232000000007
 10
12.1400727999999969
 20
9.5554952000000011
 10
11.8307976000000057
 20
8.8666584000000004
 10
11.4690464000000034
 20
8.0187612000000001
 10
11.2453128000000007
 20
8.0187612000000001
 10
11.0215808000000042
 20
8.0187612000000001
 10
10.6593372000000048
 20
8.8666584000000004
 10
10.3521976000000002
 20
9.5496232000000028
 10
10.2138448000000039
 20
9.7273232000000007
 10
10.1659015999999962
 20
9.7153560000000034
 10
10.1411663999999977
 20
9.5886419999999983
 10
10.1305952000000055
 20
8.5601988000000002
 10
10.1305952000000055
 20
7.3803292000000003
 10
9.8113835999999992
 20
7.3803292000000003
 10
9.492171199999996
 20
7.3803292000000003
 10
9.492171199999996
 20
8.9377220000000026
 10
9.492171199999996
 20
8.9377220000000026
  0
LWPOLYLINE
  5
52
  8
Layer_1
 62
7
370
-1
  6
ByLayer
100
AcDbEntity
100
AcDbPolyline
 90
32
 70
0
 10
14.0010411999999977
 20
8.9364912000000007
 10
14.0010411999999977
 20
10.4926536000000006
 10
14.4730387999999959
 20
10.4926536000000006
 10
14.9450364000000047
 20
10.4926536000000006
 10
15.3343887999999993
 20
9.5746976000000021
 10
15.750675600000001
 20
8.6734039999999997
 10
16.1561988000000056
 20
9.5908520000000017
 10
16.5347872000000073
 20
10.4916600000000031
 10
17.0235816
 20
10.4916600000000031
 10
17.5123747999999999
 20
10.4916600000000031
 10
17.5123747999999999
 20
8.9354980000000008
 10
17.5123747999999999
 20
7.3793360000000012
 10
17.1732124000000006
 20
7.3793360000000012
 10
16.834048800000005
 20
7.3793360000000012
 10
16.834048800000005
 20
8.5564283999999997
 10
16.8264827999999973
 20
9.4131768000000022
 10
16.7723083999999965
 20
9.7317456
 10
16.6243119999999998
 20
9.5422847999999991
 10
16.3352800000000009
 20
8.8749443999999986
 10
15.9761667999999997
 20
8.0173387999999992
 10
15.7433955999999977
 20
8.0274988000000018
 10
15.5106256000000045
 20
8.0376588000000027
 10
15.1482723999999962
 20
8.8855672000000023
 10
14.8455395999999951
 20
9.5586320000000011
 10
14.7126928000000028
 20
9.7334756000000038
 10
14.6500620000000037
 20
9.5631476000000024
 10
14.6394664000000034
 20
8.5563719999999996
 10
14.6394664000000034
 20
7.3792796000000012
 10
14.3202540000000003
 20
7.3792796000000012
 10
14.0010411999999977
 20
7.3792796000000012
 10
14.0010411999999977
 20
8.9354416000000025
 10
14.0010411999999977
 20
8.9364912000000007
  0
LWPOLYLINE
  5
53
  8
Layer_1
 62
7
370
-1
  6
ByLayer
100
AcDbEntity
100
AcDbPolyline
 90
19
 70
0
 10
18.1591771999999985
 20
7.4302035999999987
 10
18.7313331999999946
 20
8.9863655999999992
 10
19.286573599999997
 20
10.4926536000000006
 10
19.7461500000000001
 20
10.4915243999999976
 10
20.2057272000000019
 20
10.4903955999999994
 10
20.7643479999999983
 20
8.9726723999999987
 10
21.3362700000000025
 20
7.4174131999999986
 10
21.0099487999999965
 20
7.3798892000000027
 10
20.670328400000006
 20
7.3798892000000027
 10
20.5927456000000006
 20
7.5893768000000028
 10
20.4871535999999992
 20
7.8895260000000009
 10
20.3718012000000073
 20
7.9674124000000006
 10
19.7372036000000008
 20
7.9693271999999986
 10
19.0152619999999963
 20
7.9584896000000018
 10
18.9188683999999974
 20
7.6692007999999987
 10
18.8224739999999997
 20
7.3799116000000033
 10
18.4823679999999975
 20
7.3799116000000033
 10
18.1591771999999985
 20
7.4297860000000018
 10
18.1591771999999985
 20
7.4302035999999987
  0
LWPOLYLINE
  5
54
  8
Layer_1
 62
7
370
-1
  6
ByLayer
100
AcDbEntity
100
AcDbPolyline
 90
13
 70
0
 10
20.0676031999999971
 20
9.1060731999999973
 10
19.7867100000000065
 20
9.9140752000000028
 10
19.7549516000000054
 20
9.9658375999999986
 10
19.7110643999999979
 20
9.9158560000000033
 10
19.4888163999999975
 20
9.3126259999999998
 10
19.2104268000000076
 20
8.5046236000000022
 10
19.2037176000000045
 20
8.4546095999999977
 10
19.2574083999999992
 20
8.4288020000000028
 10
19.7421435999999986
 20
8.417766799999999
 10
20.3014268000000015
 20
8.417766799999999
 10
20.0676031999999971
 20
9.1060731999999973
 10
20.0676031999999971
 20
9.1060731999999973
 10
20.0676031999999971
 20
9.1060731999999973
  0
LWPOLYLINE
  5
55
  8
Layer_1
 62
7
370
-1
  6
ByLayer
100
AcDbEntity
100
AcDbPolyline
 90
22
 70
0
 10
23.5375027999999951
 20
8.9364912000000007
 10
23.5375027999999951
 20
10.4926536000000006
 10
24.6148435999999968
 20
10.4926536000000006
 10
25.6921847999999962
 20
10.4926536000000006
 10
25.6921847999999962
 20
10.2532388000000036
 10
25.6921847999999962
 20
10.0138352000000008
 10
24.973957599999995
 20
10.0138352000000008
 10
24.2557303999999938
 20
10.0138352000000008
 10
24.2557303999999938
 20
9.6347655999999979
 10
24.2557303999999938
 20
9.2557072000000016
 10
24.9340560000000124
 20
9.2557072000000016
 10
25.6123816000000062
 20
9.2557072000000016
 10
25.6123816000000062
 20
9.0162923999999975
 10
25.6123816000000062
 20
8.7768891999999994
 10
24.9340560000000124
 20
8.7768891999999994
 10
24.2557303999999938
 20
8.7768891999999994
 10
24.2557303999999938
 20
8.0786036000000028
 10
24.2557303999999938
 20
7.3803292000000003
 10
23.8966171999999943
 20
7.3803292000000003
 10
23.5375027999999951
 20
7.3803292000000003
 10
23.5375027999999951
 20
8.9364912000000007
 10
23.5375027999999951
 20
8.9364912000000007
  0
LWPOLYLINE
  5
56
  8
Layer_1
 62
7
370
-1
  6
ByLayer
100
AcDbEntity
100
AcDbPolyline
 90
10
 70
0
 10
26.6498215999999957
 20
8.9364912000000007
 10
26.6498215999999957
 20
10.4926536000000006
 10
26.9889836000000081
 20
10.4926536000000006
 10
27.3281471999999894
 20
10.4926536000000006
 10
27.3281471999999894
 20
8.9364912000000007
 10
27.3281471999999894
 20
7.3803292000000003
 10
26.9889836000000081
 20
7.3803292000000003
 10
26.6498215999999957
 20
7.3803292000000003
 10
26.6498215999999957
 20
8.9364912000000007
 10
26.6498215999999957
 20
8.9364912000000007
  0
LWPOLYLINE
  5
57
  8
Layer_1
 62
7
370
-1
  6
ByLayer
100
AcDbEntity
100
AcDbPolyline
 90
28
 70
0
 10
33.8719931999999986
 20
3.2904211999999973
 10
33.8719931999999986
 20
4.8665307999999987
 10
34.5769728000000001
 20
4.8665307999999987
 10
35.2640607999999958
 20
4.8470783999999982
 10
35.7212076000000067
 20
4.7780684000000013
 10
36.006699200000007
 20
4.6435220000000017
 10
36.1788211999999945
 20
4.4274608000000004
 10
36.2505351999999945
 20
4.2316552000000005
 10
36.257639999999995
 20
3.9843380000000028
 10
36.1445396000000088
 20
3.5706327999999985
 10
35.7891736000000051
 20
3.3028504000000001
 10
35.5317307999999912
 20
3.1788984000000031
 10
35.7336436000000077
 20
3.0897839999999976
 10
36.0367392000000137
 20
2.8662412000000019
 10
36.6251952000000074
 20
1.7348799999999984
 10
36.2747315999999955
 20
1.7143120000000012
 10
35.924268000000005
 20
1.7143120000000012
 10
35.6869867999999997
 20
2.1942024000000004
 10
35.3177271999999931
 20
2.8019964000000019
 10
35.1595231999999882
 20
2.9120503999999983
 10
34.8879932000000039
 20
2.9449476000000008
 10
34.5902260000000084
 20
2.959984400000002
 10
34.5902260000000084
 20
2.3371535999999993
 10
34.5902260000000084
 20
1.7143120000000012
 10
34.2311040000000091
 20
1.7143120000000012
 10
33.8719931999999986
 20
1.7143120000000012
 10
33.8719931999999986
 20
3.2904211999999973
 10
33.8719931999999986
 20
3.2904211999999973
  0
LWPOLYLINE
  5
58
  8
Layer_1
 62
7
370
-1
  6
ByLayer
100
AcDbEntity
100
AcDbPolyline
 90
13
 70
0
 10
35.3767456000000067
 20
3.4831452000000014
 10
35.5160667999999973
 20
3.6232504000000008
 10
35.5774816000000129
 20
3.8287036000000003
 10
35.556799599999998
 20
4.0550611999999999
 10
35.4498296000000011
 20
4.2578792000000023
 10
35.3129703999999975
 20
4.3536328000000024
 10
34.9727840000000043
 20
4.3815940000000015
 10
34.5902260000000084
 20
4.3954228000000004
 10
34.5902260000000084
 20
3.8877955999999987
 10
34.5902260000000084
 20
3.3801679999999976
 10
34.9194099999999921
 20
3.3981060000000016
 10
35.3767456000000067
 20
3.4831452000000014
 10
35.3767456000000067
 20
3.4831452000000014
  0
LWPOLYLINE
  5
59
  8
Layer_1
 62
7
370
-1
  6
ByLayer
100
AcDbEntity
100
AcDbPolyline
 90
26
 70
0
 10
30.7995783999999979
 20
3.2904211999999973
 10
30.7995783999999979
 20
4.8665307999999987
 10
31.8569680000000091
 20
4.8665307999999987
 10
32.9143568000000002
 20
4.8665307999999987
 10
32.9143568000000002
 20
4.6271272000000012
 10
32.9143568000000002
 20
4.3877128000000027
 10
32.196131599999994
 20
4.3877128000000027
 10
31.4779044000000141
 20
4.3877128000000027
 10
31.4779044000000141
 20
3.9887068000000001
 10
31.4779044000000141
 20
3.5896896000000029
 10
32.1562300000000079
 20
3.5896896000000029
 10
32.8345556000000016
 20
3.5896896000000029
 10
32.8345556000000016
 20
3.3502751999999987
 10
32.8345556000000016
 20
3.1108716000000016
 10
32.1562300000000079
 20
3.1108716000000016
 10
31.4779044000000141
 20
3.1108716000000016
 10
31.4779044000000141
 20
2.6520008000000019
 10
31.4779044000000141
 20
2.1931300000000022
 10
32.2360320000000016
 20
2.1931300000000022
 10
32.9941575999999941
 20
2.1931300000000022
 10
32.9941575999999941
 20
1.9537263999999994
 10
32.9941575999999941
 20
1.7143120000000012
 10
31.8968699999999927
 20
1.7143120000000012
 10
30.7995783999999979
 20
1.7143120000000012
 10
30.7995783999999979
 20
3.2904211999999973
 10
30.7995783999999979
 20
3.2904211999999973
  0
LWPOLYLINE
  5
5A
  8
Layer_1
 62
7
370
-1
  6
ByLayer
100
AcDbEntity
100
AcDbPolyline
 90
22
 70
0
 10
27.2882452000000058
 20
1.9089547999999981
 10
27.2882452000000058
 20
2.1035979999999994
 10
28.2059800000000003
 20
3.2149440000000027
 10
29.1237147999999948
 20
4.3570067999999997
 10
28.2458816000000077
 20
4.3877128000000027
 10
27.3680476000000006
 20
4.3877128000000027
 10
27.3680476000000006
 20
4.6271272000000012
 10
27.3680476000000006
 20
4.8665307999999987
 10
28.6648476000000088
 20
4.8665307999999987
 10
29.9616459999999982
 20
4.8665307999999987
 10
29.9616459999999982
 20
4.6556655999999981
 10
29.9616459999999982
 20
4.4448004000000028
 10
29.0638623999999943
 20
3.3599719999999991
 10
28.1660783999999929
 20
2.2341424000000019
 10
29.1037640000000017
 20
2.1931300000000022
 10
30.0414496000000106
 20
2.1931300000000022
 10
30.0414496000000106
 20
1.9537263999999994
 10
30.0414496000000106
 20
1.7143120000000012
 10
28.6648476000000088
 20
1.7143120000000012
 10
27.2882452000000058
 20
1.7143120000000012
 10
27.2882452000000058
 20
1.9089547999999981
 10
27.2882452000000058
 20
1.9089547999999981
  0
LWPOLYLINE
  5
5B
  8
Layer_1
 62
7
370
-1
  6
ByLayer
100
AcDbEntity
100
AcDbPolyline
 90
21
 70
0
 10
23.8543435999999929
 20
2.2230568000000006
 10
24.4380987999999917
 20
3.7991664000000016
 10
24.8325068000000115
 20
4.8665307999999987
 10
25.2794292000000063
 20
4.8665307999999987
 10
25.7263519999999986
 20
4.8665307999999987
 10
25.812552800000006
 20
4.637106799999998
 10
26.3792435999999952
 20
3.1108716000000016
 10
26.8787512000000106
 20
1.7641976000000001
 10
26.557202800000006
 20
1.7143120000000012
 10
26.2166384000000114
 20
1.7143120000000012
 10
26.1390556000000061
 20
1.9237996000000011
 10
26.0337459999999972
 20
2.2230568000000006
 10
25.9156003999999953
 20
2.3012552000000031
 10
25.277555200000009
 20
2.3128376000000004
 10
24.5490911999999994
 20
2.3128376000000004
 10
24.4552376000000109
 20
2.0135804000000008
 10
24.3613851999999973
 20
1.7143120000000012
 10
24.0131896000000111
 20
1.7143120000000012
 10
23.6649951999999999
 20
1.7143120000000012
 10
23.8543435999999929
 20
2.2230568000000006
 10
23.8543435999999929
 20
2.2230568000000006
  0
LWPOLYLINE
  5
5C
  8
Layer_1
 62
7
370
-1
  6
ByLayer
100
AcDbEntity
100
AcDbPolyline
 90
7
 70
0
 10
25.8118887999999984
 20
2.8285704000000012
 10
25.2944784000000027
 20
4.3201487999999983
 10
25.0128195999999896
 20
3.6218744000000016
 10
24.7434723999999981
 20
2.8415300000000006
 10
25.2689499999999967
 20
2.7916556000000017
 10
25.8118887999999984
 20
2.8285704000000012
 10
25.8118887999999984
 20
2.8285704000000012
  0
LWPOLYLINE
  5
5D
  8
Layer_1
 62
7
370
-1
  6
ByLayer
100
AcDbEntity
100
AcDbPolyline
 90
14
 70
0
 10
21.1434120000000014
 20
3.2904211999999973
 10
21.1434120000000014
 20
4.8665307999999987
 10
21.5025260000000031
 20
4.8665307999999987
 10
21.8616392000000026
 20
4.8665307999999987
 10
21.8616392000000026
 20
3.5298360000000004
 10
21.8616392000000026
 20
2.1931300000000022
 10
22.5998172000000075
 20
2.1931300000000022
 10
23.3379955999999993
 20
2.1931300000000022
 10
23.3379955999999993
 20
1.9537263999999994
 10
23.3379955999999993
 20
1.7143120000000012
 10
22.2407044000000056
 20
1.7143120000000012
 10
21.1434120000000014
 20
1.7143120000000012
 10
21.1434120000000014
 20
3.2904211999999973
 10
21.1434120000000014
 20
3.2904211999999973
  0
LWPOLYLINE
  5
5E
  8
Layer_1
 62
7
370
-1
  6
ByLayer
100
AcDbEntity
100
AcDbPolyline
 90
26
 70
0
 10
15.7966103999999987
 20
3.2904211999999973
 10
15.7966103999999987
 20
4.8665307999999987
 10
16.1347600000000071
 20
4.8665307999999987
 10
16.4729096000000048
 20
4.8665307999999987
 10
16.4838935999999983
 20
4.2380896000000012
 10
16.4948775999999953
 20
3.6096371999999977
 10
17.2031292000000029
 20
3.5988000000000002
 10
17.9113803999999952
 20
3.5878495999999984
 10
17.9113803999999952
 20
4.2271959999999984
 10
17.9113803999999952
 20
4.8665307999999987
 10
18.2505436000000039
 20
4.8665307999999987
 10
18.5897071999999994
 20
4.8665307999999987
 10
18.5897071999999994
 20
3.2904211999999973
 10
18.5897071999999994
 20
1.7143120000000012
 10
18.2505436000000039
 20
1.7143120000000012
 10
17.9113803999999952
 20
1.7143120000000012
 10
17.9113803999999952
 20
2.4125971999999991
 10
17.9113803999999952
 20
3.1108716000000016
 10
17.1931540000000034
 20
3.1108716000000016
 10
16.4749268000000022
 20
3.1108716000000016
 10
16.4749268000000022
 20
2.4125971999999991
 10
16.4749268000000022
 20
1.7143120000000012
 10
16.1357635999999971
 20
1.7143120000000012
 10
15.7966011999999978
 20
1.7143120000000012
 10
15.7966011999999978
 20
3.2904211999999973
 10
15.7966103999999987
 20
3.2904211999999973
  0
LWPOLYLINE
  5
5F
  8
Layer_1
 62
7
370
-1
  6
ByLayer
100
AcDbEntity
100
AcDbPolyline
 90
18
 70
0
 10
11.9662464000000011
 20
1.7442387999999995
 10
12.5351476000000055
 20
3.3103799999999981
 10
13.1038672000000034
 20
4.8465831999999978
 10
13.559308399999999
 20
4.8465831999999978
 10
14.0147483999999967
 20
4.8465831999999978
 10
14.5856760000000012
 20
3.3103799999999981
 10
15.157394
 20
1.7442387999999995
 10
14.8223476000000005
 20
1.7143120000000012
 10
14.4865099999999991
 20
1.7143120000000012
 10
14.3900811999999974
 20
2.0036007999999983
 10
14.2936527999999967
 20
2.2928899999999999
 10
13.5633012000000015
 20
2.2928899999999999
 10
12.8329495999999956
 20
2.2928899999999999
 10
12.7314736000000046
 20
2.0036007999999983
 10
12.6299980000000005
 20
1.7143120000000012
 10
12.298031200000004
 20
1.7143120000000012
 10
11.9662464000000011
 20
1.7442387999999995
 10
11.9662464000000011
 20
1.7442387999999995
  0
LWPOLYLINE
  5
60
  8
Layer_1
 62
7
370
-1
  6
ByLayer
100
AcDbEntity
100
AcDbPolyline
 90
8
 70
0
 10
13.8496428000000051
 20
3.5694827999999976
 10
13.5603196000000032
 20
4.3475579999999985
 10
13.2724619999999973
 20
3.5697424000000013
 10
13.0063591999999986
 20
2.7916556000000017
 10
13.5617851999999974
 20
2.7916556000000017
 10
14.1172107999999987
 20
2.7916556000000017
 10
13.8496428000000051
 20
3.5694827999999976
 10
13.8496428000000051
 20
3.5694827999999976
  0
LWPOLYLINE
  5
61
  8
Layer_1
 62
7
370
-1
  6
ByLayer
100
AcDbEntity
100
AcDbPolyline
 90
32
 70
0
 10
7.816307200000006
 20
3.2904211999999973
 10
7.816307200000006
 20
4.8665307999999987
 10
8.2856656000000051
 20
4.8665307999999987
 10
8.7550223999999961
 20
4.8665307999999987
 10
9.138624400000003
 20
3.9604168000000017
 10
9.5570755999999957
 20
3.0433416000000024
 10
9.9738847999999969
 20
3.9394872000000021
 10
10.3558455999999985
 20
4.8465831999999978
 10
10.8417431999999962
 20
4.8577591999999985
 10
11.3276403999999964
 20
4.8689351999999992
 10
11.3276403999999964
 20
3.2915952000000006
 10
11.3276403999999964
 20
1.7142552000000024
 10
10.9884772000000002
 20
1.7142552000000024
 10
10.6493148000000026
 20
1.7142552000000024
 10
10.6493148000000026
 20
2.8870808000000014
 10
10.6386208000000018
 20
3.8586248000000012
 10
10.588248799999997
 20
4.0833415999999998
 10
10.4878648000000005
 20
4.0177871999999981
 10
10.115735600000006
 20
3.1507099999999983
 10
9.7829255999999987
 20
2.3726347999999975
 10
9.5650451999999984
 20
2.3608828000000019
 10
9.3471639999999976
 20
2.3491423999999994
 10
8.976188800000001
 20
3.2187707999999988
 10
8.5955364000000039
 20
4.0993152000000013
 10
8.5202948000000003
 20
4.0850687999999993
 10
8.465478399999995
 20
3.8717864000000022
 10
8.454731200000003
 20
2.8870808000000014
 10
8.454731200000003
 20
1.7142552000000024
 10
8.1355199999999979
 20
1.7142552000000024
 10
7.816307200000006
 20
1.7142552000000024
 10
7.816307200000006
 20
3.2903647999999976
 10
7.816307200000006
 20
3.2904211999999973
  0
LWPOLYLINE
  5
62
  8
Layer_1
 62
7
370
-1
  6
ByLayer
100
AcDbEntity
100
AcDbPolyline
 90
26
 70
0
 10
28.8622008000000072
 20
8.1409247999999987
 10
29.3867528
 20
8.9697775999999987
 10
28.8785812000000099
 20
9.7777912000000029
 10
28.369425200000002
 20
10.5250367999999987
 10
28.7203999999999979
 20
10.5234563999999988
 10
29.0713760000000114
 20
10.5218759999999989
 10
29.4449628000000097
 20
9.9648368000000005
 10
29.8439775999999952
 20
9.4088252000000008
 10
30.2386324000000073
 20
9.9674447999999991
 10
30.6078592000000071
 20
10.5250479999999982
 10
30.9468840000000007
 20
10.5250479999999982
 10
31.285909599999993
 20
10.5061956000000016
 10
30.7677776000000023
 20
9.7308971999999994
 10
30.2496460000000091
 20
8.9744627999999977
 10
30.7603892000000094
 20
8.2235143999999991
 10
31.3008280000000028
 20
7.4227032000000008
 10
30.9906643999999929
 20
7.3728288000000024
 10
30.6508092000000048
 20
7.3728288000000024
 10
30.2601075999999942
 20
7.9497364000000008
 10
29.8396312000000101
 20
8.5283031999999999
 10
29.4243844000000081
 20
7.9513959999999999
 10
29.0389116000000058
 20
7.3728288000000024
 10
28.6887731999999929
 20
7.3728288000000024
 10
28.3386348000000012
 20
7.3728288000000024
 10
28.8622008000000072
 20
8.1409363999999993
 10
28.8622008000000072
 20
8.1409247999999987
  0
LWPOLYLINE
  5
63
  8
Layer_1
 62
7
370
-1
  6
ByLayer
100
AcDbEntity
100
AcDbPolyline
 90
10
 70
0
 10
32.0839404000000101
 20
8.9489272000000035
 10
32.0839404000000101
 20
10.5250367999999987
 10
32.4231035999999904
 20
10.5250367999999987
 10
32.7622660000000039
 20
10.5250367999999987
 10
32.7622660000000039
 20
8.9489272000000035
 10
32.7622660000000039
 20
7.3728176000000021
 10
32.4231035999999904
 20
7.3728176000000021
 10
32.0839404000000101
 20
7.3728176000000021
 10
32.0839404000000101
 20
8.9489272000000035
 10
32.0839404000000101
 20
8.9489272000000035
  0
LWPOLYLINE
  5
64
  8
Layer_1
 62
7
370
-1
  6
ByLayer
100
AcDbEntity
100
AcDbPolyline
 90
26
 70
0
 10
33.7598040000000097
 20
8.9489272000000035
 10
33.7598040000000097
 20
10.5250367999999987
 10
34.1688004000000092
 20
10.5239080000000005
 10
34.5777855999999915
 20
10.5227787999999975
 10
35.1618163999999993
 20
9.4163323999999999
 10
35.6102012000000059
 20
8.5806763999999998
 10
35.8321803999999915
 20
8.3009748000000005
 10
35.9071459999999902
 20
8.5759687999999983
 10
35.9144915999999981
 20
9.404399999999999
 10
35.9144915999999981
 20
10.5244160000000022
 10
36.2336964000000066
 20
10.5244160000000022
 10
36.5529123999999896
 20
10.5244160000000022
 10
36.5529123999999896
 20
8.9483064000000017
 10
36.5529123999999896
 20
7.3721968000000011
 10
36.1425612000000029
 20
7.3721968000000011
 10
35.7321987999999919
 20
7.3721968000000011
 10
35.141372000000004
 20
8.489435600000002
 10
34.5375068000000098
 20
9.6066855999999987
 10
34.461340799999995
 20
9.5824595999999982
 10
34.4090011999999916
 20
9.3758208000000032
 10
34.3982248000000013
 20
8.4652207999999973
 10
34.3982248000000013
 20
7.3721968000000011
 10
34.0790199999999928
 20
7.3721968000000011
 10
33.7598040000000097
 20
7.3721968000000011
 10
33.7598040000000097
 20
8.9483064000000017
 10
33.7598040000000097
 20
8.9489272000000035
  0
LWPOLYLINE
  5
65
  8
Layer_1
 62
7
370
-1
  6
ByLayer
100
AcDbEntity
100
AcDbPolyline
 90
10
 70
0
 10
37.5504548000000113
 20
9.9863648000000023
 10
37.5504548000000113
 20
10.5250367999999987
 10
37.7300048000000103
 20
10.5250367999999987
 10
37.9095656000000005
 20
10.5250367999999987
 10
37.9095656000000005
 20
9.9863648000000023
 10
37.9095656000000005
 20
9.4476927999999987
 10
37.7300048000000103
 20
9.4476927999999987
 10
37.5504548000000113
 20
9.4476927999999987
 10
37.5504548000000113
 20
9.9863648000000023
 10
37.5504548000000113
 20
9.9863648000000023
  0
ENDSEC
  0
SECTION
  2
OBJECTS
  0
DICTIONARY
  5
C
100
AcDbDictionary
280
0
281
1
  3
ACAD_GROUP
350
D
  3
ACAD_LAYOUT
350
1A
  3
ACAD_MLINESTYLE
350
17
  3
ACAD_PLOTSETTINGS
350
19
  3
ACAD_PLOTSTYLENAME
350
E
  3
AcDbVariableDictionary
350
66
  0
DICTIONARY
  5
D
100
AcDbDictionary
280
0
281
1
  0
ACDBDICTIONARYWDFLT
  5
E
100
AcDbDictionary
281
1
  3
Normal
350
F
100
AcDbDictionaryWithDefault
340
F
  0
ACDBPLACEHOLDER
  5
F
  0
DICTIONARY
  5
17
100
AcDbDictionary
280
0
281
1
  3
Standard
350
18
  0
MLINESTYLE
  5
18
100
AcDbMlineStyle
  2
STANDARD
 70
0
  3

 62
256
 51
90.0
 52
90.0
 71
2
 49
0.5
 62
256
  6
BYLAYER
 49
-0.5
 62
256
  6
BYLAYER
  0
DICTIONARY
  5
19
100
AcDbDictionary
280
0
281
1
  0
DICTIONARY
  5
1A
100
AcDbDictionary
281
1
  3
Layout1
350
1E
  3
Layout2
350
26
  3
Model
350
22
  0
LAYOUT
  5
1E
100
AcDbPlotSettings
  1

  2
C:\Program Files\AutoCAD 2002\plotters\DWF ePlot (optimized for plotting).pc3
  4

  6

 40
0.0
 41
0.0
 42
0.0
 43
0.0
 44
0.0
 45
0.0
 46
0.0
 47
0.0
 48
0.0
 49
0.0
140
0.0
141
0.0
142
1.0
143
1.0
 70
688
 72
0
 73
0
 74
5
  7

 75
16
147
1.0
148
0.0
149
0.0
100
AcDbLayout
  1
Layout1
 70
1
 71
1
 10
0.0
 20
0.0
 11
420.0
 21
297.0
 12
0.0
 22
0.0
 32
0.0
 14
100000000000000000000.0
 24
100000000000000000000.0
 34
100000000000000000000.0
 15
-100000000000000000000.0
 25
-100000000000000000000.0
 35
-100000000000000000000.0
146
0.0
 13
0.0
 23
0.0
 33
0.0
 16
1.0
 26
0.0
 36
0.0
 17
0.0
 27
1.0
 37
0.0
 76
0
330
1B
  0
LAYOUT
  5
22
100
AcDbPlotSettings
  1

  2
C:\Program Files\AutoCAD 2002\plotters\DWF ePlot (optimized for plotting).pc3
  4

  6

 40
0.0
 41
0.0
 42
0.0
 43
0.0
 44
0.0
 45
0.0
 46
0.0
 47
0.0
 48
0.0
 49
0.0
140
0.0
141
0.0
142
1.0
143
1.0
 70
1712
 72
0
 73
0
 74
0
  7

 75
0
147
1.0
148
0.0
149
0.0
100
AcDbLayout
  1
Model
 70
1
 71
0
 10
0.0
 20
0.0
 11
12.0
 21
9.0
 12
0.0
 22
0.0
 32
0.0
 14
0.0
 24
0.0
 34
0.0
 15
0.0
 25
0.0
 35
0.0
146
0.0
 13
0.0
 23
0.0
 33
0.0
 16
1.0
 26
0.0
 36
0.0
 17
0.0
 27
1.0
 37
0.0
 76
0
330
1F
  0
LAYOUT
  5
26
100
AcDbPlotSettings
  1

  2
C:\Program Files\AutoCAD 2002\plotters\DWF ePlot (optimized for plotting).pc3
  4

  6

 40
0.0
 41
0.0
 42
0.0
 43
0.0
 44
0.0
 45
0.0
 46
0.0
 47
0.0
 48
0.0
 49
0.0
140
0.0
141
0.0
142
1.0
143
1.0
 70
688
 72
0
 73
0
 74
5
  7

 75
16
147
1.0
148
0.0
149
0.0
100
AcDbLayout
  1
Layout2
 70
1
 71
2
 10
0.0
 20
0.0
 11
12.0
 21
9.0
 12
0.0
 22
0.0
 32
0.0
 14
0.0
 24
0.0
 34
0.0
 15
0.0
 25
0.0
 35
0.0
146
0.0
 13
0.0
 23
0.0
 33
0.0
 16
1.0
 26
0.0
 36
0.0
 17
0.0
 27
1.0
 37
0.0
 76
0
330
23
  0
DICTIONARY
  5
66
100
AcDbDictionary
281
1
  3
DIMASSOC
350
68
  3
HIDETEXT
350
67
  0
DICTIONARYVAR
  5
67
100
DictionaryVariables
280
0
  1
2
  0
DICTIONARYVAR
  5
68
100
DictionaryVariables
280
0
  1
1
  0
ENDSEC
  0
EOF
