<?xml version="1.0" encoding="UTF-8" standalone="no"?>
<!-- Created with Inkscape (http://www.inkscape.org/) -->

<svg
   xmlns:dc="http://purl.org/dc/elements/1.1/"
   xmlns:cc="http://creativecommons.org/ns#"
   xmlns:rdf="http://www.w3.org/1999/02/22-rdf-syntax-ns#"
   xmlns:svg="http://www.w3.org/2000/svg"
   xmlns="http://www.w3.org/2000/svg"
   xmlns:sodipodi="http://sodipodi.sourceforge.net/DTD/sodipodi-0.dtd"
   xmlns:inkscape="http://www.inkscape.org/namespaces/inkscape"
   width="2125.9841"
   height="1417.3228"
   id="svg2"
   version="1.1"
   inkscape:version="0.48.3.1 r9886"
   sodipodi:docname="Text.svg">
  <sodipodi:namedview
     id="base"
     pagecolor="#ffffff"
     bordercolor="#666666"
     borderopacity="1.0"
     inkscape:pageopacity="0.0"
     inkscape:pageshadow="2"
     inkscape:zoom="0.69658438"
     inkscape:cx="1147.5132"
     inkscape:cy="694.95068"
     inkscape:document-units="mm"
     inkscape:current-layer="layer1"
     showgrid="false"
     units="mm"
     inkscape:window-width="1366"
     inkscape:window-height="692"
     inkscape:window-x="0"
     inkscape:window-y="24"
     inkscape:window-maximized="1" />
  <defs
     id="defs4" />
  <metadata
     id="metadata7">
    <rdf:RDF>
      <cc:Work
         rdf:about="">
        <dc:format>image/svg+xml</dc:format>
        <dc:type
           rdf:resource="http://purl.org/dc/dcmitype/StillImage" />
        <dc:title />
      </cc:Work>
    </rdf:RDF>
  </metadata>
  <g
     inkscape:label="Layer 1"
     inkscape:groupmode="layer"
     id="layer1"
     transform="translate(0,364.96061)">
    <flowRoot
       xml:space="preserve"
       id="flowRoot2990"
       style="fill:none;stroke:#000000;font-size:144px"><flowRegion
         id="flowRegion2992"><rect
           id="rect2994"
           width="1317.1428"
           height="497.14285"
           x="128.57143"
           y="565.89417"
           style="font-size:144px" /></flowRegion><flowPara
         id="flowPara2996" /></flowRoot>    <text
       xml:space="preserve"
       style="font-size:144px;font-style:italic;font-variant:normal;font-weight:bold;font-stretch:normal;fill:none;stroke:#000000;font-family:URW Chancery L;-inkscape-font-specification:URW Chancery L Bold Italic"
       x="808.75275"
       y="534.0827"
       id="text2998"><tspan
         sodipodi:role="line"
         id="tspan3000"
         x="808.75275"
         y="534.0827"
         style="font-style:italic;font-variant:normal;font-weight:bold;font-stretch:normal;font-family:URW Chancery L;-inkscape-font-specification:URW Chancery L Bold Italic">Bar Eastern</tspan></text>
    <text
       xml:space="preserve"
       style="font-size:144px;font-style:italic;font-variant:normal;font-weight:bold;font-stretch:normal;fill:none;stroke:#000000;font-family:URW Chancery L;-inkscape-font-specification:URW Chancery L Bold Italic"
       x="797.09259"
       y="723.17889"
       id="text3002"><tspan
         sodipodi:role="line"
         id="tspan3004"
         x="797.09259"
         y="723.17889"
         style="font-size:40px;font-style:normal;font-variant:normal;font-weight:normal;font-stretch:normal;font-family:Arial;-inkscape-font-specification:Arial">Original content by CAOL ILA (Pixiv)</tspan></text>
    <flowRoot
       xml:space="preserve"
       id="flowRoot3006"
       style="fill:none;stroke:#000000;font-size:40px;-inkscape-font-specification:URW Chancery L Bold Italic;font-family:Arial;font-weight:normal;font-style:italic;font-stretch:normal;font-variant:normal"><flowRegion
         id="flowRegion3008"><rect
           id="rect3010"
           width="1508.5714"
           height="425.71429"
           x="457.14285"
           y="505.8942" /></flowRegion><flowPara
         id="flowPara3012" /></flowRoot>    <text
       xml:space="preserve"
       style="font-size:144px;font-style:italic;font-variant:normal;font-weight:normal;font-stretch:normal;fill:none;stroke:#000000;font-family:Arial;-inkscape-font-specification:URW Chancery L Bold Italic"
       x="505.38062"
       y="96.122055"
       id="text3014"><tspan
         sodipodi:role="line"
         id="tspan3016"
         x="505.38062"
         y="96.122055"
         style="font-style:italic;font-variant:normal;font-weight:bold;font-stretch:normal;font-family:URW Chancery L;-inkscape-font-specification:URW Chancery L Bold Italic">東方 Character Cocktails</tspan></text>
    <path
       style="fill:#ffff00;stroke:#000000;stroke-width:1.07254565"
       d="M543.9121 622.24993L547.04501 604.43976L540.23442 609.00923L530.680618906 615.756367656L519.67158625 622.56056625L508.376257969 628.741306719L497.96357 633.61807L493.90066 635.3133L492.79094 632.40145L491.24731 627.880981094L491.14404 625.19900125L491.718119688 624.302912793L492.754985 623.573008281L496.354 622.2205L503.304278281 619.546238594L511.97285625 615.57371875L520.503991094 611.203112031L527.04194 607.33459L537.82425625 599.6018925L541.063589844 596.909482187L542.24694 595.48403L537.836095 594.8822L527.2313 594.63188L516.626505 594.37577625L512.21566 593.76004L517.04211 568.89078L521.86857 544.5578L540.61768 544.22224L559.3668 544.22224L560.02319 541.27273L561.18845 536.44628L561.22817457 535.863730605L560.841272188 535.415521094L557.883815 534.85225875L536.90789 534.56932L512.11846 534.56932L512.7869 530.54728L513.87438 525.18455L515.284892969 524.544123437L519.48522875 524.1311475L538.94167 523.84387L563.5899 523.84387L564.85597 517.4086L566.12203 510.97332L572.30375 510.97332L578.48547 510.97332L577.48708 515.53164L575.91999 521.96691L575.863894531 522.550323594L576.250129375 522.99893875L579.2891525 523.56206L601.01035 523.84387L626.66939 523.84387L625.60904 529.2066L624.5487 534.56932L599.0838 534.56932L573.6189 534.56932L572.94855 537.92103L572.34902625 541.709805625L572.731268906 542.835825937L573.90939 543.5642675L579.67689375 544.172413125L591.69879 544.22224L606.9628325 544.50219375L609.955318125 544.914254219L610.63465 545.56292L605.4614 570.74168L600.77288 594.57976L584.11231 594.87396L567.45176 595.16815L575.06701 602.75252L581.606081719 608.371632813L589.40664125 613.656825L597.710370156 618.147759687L605.75895 621.3841L609.74468 622.66046L605.90073 628.44985L602.05678 634.23926L598.16109 632.61548L589.389673438 628.278174375L580.5737275 622.690585L572.398840313 616.334643125L565.5506 609.69228L560.19442 604.28479L556.19003 621.98179L552.68003 639.67879L546.54126 639.67879L540.40249 639.67879L543.9121 622.24993L543.9121 622.24993M551.91165 583.63829L552.58826 578.27556L553.25306 574.25351L540.38251 574.25351L527.51197 574.25351L526.84716 578.27556L526.17056 583.63829L526.827670937 584.26910625L529.0011675 584.68315L539.0293 584.97897L549.05784875 584.682655L551.241578594 584.268549375L551.91165 583.63829L551.91165 583.63829M590.86074 584.17456L592.09086 578.81183L592.84513 574.25351L579.41631 574.25351L571.046505313 574.292063594L566.8831225 574.95962625L565.836132852 575.78798998L565.189500938 577.084050781L564.22898 581.49319L563.52741 584.97897L576.95615 584.97897L586.57997875 584.7426725L590.86074 584.17456L590.86074 584.17456M555.46674 563.79619L556.69686 558.43346L557.45112 553.87515L544.57152 553.87515L531.69192 553.87515L530.99035 557.36092L529.76031 562.72365L529.834024063 563.739472969L531.3478075 564.30439125L542.11136 564.6006L551.3473075 564.36430625L555.46674 563.79619L555.46674 563.79619M595.18559 562.72365L596.41564 557.36092L597.1172 553.87515L583.08889 553.87515L571.1991575 554.18172375L569.424161875 554.785644844L569.06058 555.88617L568.39024 561.2489L567.71989 564.6006L581.18851 564.6006L592.4783775 564.28457625L594.476351875 563.717181094L595.18559 562.72365L595.18559 562.72365"
       id="path3037"
       inkscape:connector-curvature="0"
       transform="translate(0,-364.96061)" />
    <path
       style="fill:#ffff00;stroke:#000000;stroke-width:1.07254565"
       d="M628.7642 634.39167L625.97512 630.17708L631.57117 626.16665L640.932716562 618.539815937L649.56816 609.7373025L656.976963437 600.327292812L662.65859 590.87797L665.663721562 584.060669687L668.8888975 575.3530375L674.71683 555.97876L677.38768 544.83228L672.9410625 544.40143625L662.25026 544.22224L647.11284 544.22224L647.87533 539.12764L649.13296 533.22864L656.37414875 532.6605275L673.08852 532.42423L692.93750875 532.128325L696.148681406 531.563444687L697.10186 530.54728L698.83859 521.69878L699.98871625 515.269551562L701.19339 512.1108275L702.108782969 511.396063008L703.38893375 511.064714687L707.51167 510.97332L712.89963125 511.3193025L713.503581719 512.04127125L713.33514 513.38655L709.56405 531.95808L735.30515 532.42423L761.04624 532.42423L760.91935 534.83746L760.105 540.46833L759.41754 543.68596L724.63681 544.22224L689.85609 544.75851L687.40225 554.41142L684.92196 564.86874L693.20865 565.4368525L713.16906 565.67315L741.44263 565.67315L738.38975 578.27556L732.079880625 602.60758375L726.7077625 619.00892L724.188203906 624.705188125L721.680895625 628.98231375L719.111775156 632.02814L716.40678 634.03051L711.786105312 635.852882187L706.004485 637.01082L699.589039687 637.435910312L693.06689 637.05974L687.04059 636.30681L687.04059 630.51372L687.04059 624.72062L697.02336 625.37637L704.097313437 625.606292344L708.6006025 624.93244875L710.187607461 624.151867559L711.491177812 623.019648281L713.72699 619.5327L717.00113625 611.036548281L720.9436825 598.39465625L724.259195 586.064151094L725.65224 578.50216L724.056675469 578.076561719L719.51764125 577.75154125L703.09512 577.47115L684.01816625 577.76933125L680.877628594 578.334496094L679.88734 579.3481L673.8086475 592.77530125L666.21353 606.29815L660.8179225 613.45873875L654.60969 620.49983L648.659992344 626.099394375L641.69213125 632.01565L635.611462031 636.700600625L632.32334 638.60625L630.9601925 637.3682175L628.7642 634.39167L628.7642 634.39167"
       id="path3039"
       inkscape:connector-curvature="0"
       transform="translate(0,-364.96061)" />
    <path
       style="fill:#ffff00;stroke:#000000;stroke-width:1.07254565"
       d="M810.91961 630.64483L807.445207949 628.667212363L804.567999844 626.121872031L802.291294004 623.018285371L800.61839875 619.36592875L799.552622402 615.174278535L799.097273281 610.452811094L799.255659707 605.211002793L800.03109 599.45833L801.837579063 591.352357031L804.23603 584.15226875L807.423878437 577.363666094L811.59856 570.49215L816.856272695 563.569529121L822.882179687 557.243649844L829.454106836 551.649667207L836.34988 546.92273625L843.347325039 543.198012012L850.224267813 540.610649531L856.75853418 539.295803848L862.72795 539.38863L866.63755375 540.2602875L869.67586 541.5992775L871.93277875 543.45992625L873.49822 545.89656L874.518915937 548.870915156L874.4420525 551.29427625L873.163805312 553.523074219L870.58035 555.91374L866.42463 559.20513L865.72311 554.81803L864.38540875 550.77054625L861.91724 547.32658L860.052411719 545.670659219L858.19692375 544.73363875L855.714643906 544.317003906L851.96944 544.22224L845.4255075 544.81085875L839.66684 546.94264L833.528481172 550.816968906L827.818424375 556.00436125L822.654666641 562.289387969L818.155205 569.45662L814.438036484 577.290628281L811.621158125 585.57598375L809.822566953 594.097257344L809.16026 602.63902L809.445339687 609.964845L810.5627525 615.41555L812.741059062 619.66378L816.20882 623.38218L818.76317002 625.22296627L821.654401406 626.564655781L824.866601152 627.40684834L828.38385625 627.74914375L832.190253691 627.591141816L836.269880469 626.932442344L845.18517 624.11135L850.168755313 622.292789844L851.8819225 622.09086125L850.299180938 623.307297031L845.39504 625.74383L835.272752188 629.567155937L825.742985 631.7166825L817.420387813 632.105032812L813.903855898 631.611461602L810.91961 630.64483L810.91961 630.64483"
       id="path3041"
       inkscape:connector-curvature="0"
       transform="translate(0,-364.96061)" />
    <path
       style="fill:#ffff00;stroke:#000000;stroke-width:1.07254565"
       d="M905.22073 620.9608L904.888369844 618.194319687L905.35187125 613.8694575L909.78346 593.92625L912.3238575 581.94275375L912.99776 575.96111L911.754268594 574.558528906L909.30548125 574.63332125L905.159228281 576.316692969L898.82334 579.73985L888.84594 585.56146L884.37696 602.18747L881.21917625 613.91125875L879.38374 619.22188L875.4761 621.23396L872.59098 621.95598L875.192269687 609.734662031L881.029935 585.32179125L887.154670313 560.785644844L890.61717 548.1945L893.148313281 544.13600625L897.21681125 539.4105375L902.182236094 534.687885L907.40416 530.63784L910.844870781 528.844369844L914.94542125 527.48652125L918.977101094 526.751804531L922.2112 526.82773L923.184458281 527.128570781L923.46321375 527.65456625L921.82553 530.42316L920.429960156 532.192419375L919.07578375 533.06508L917.131595469 533.242078125L913.96599 532.92435L910.895965469 532.638439062L908.77037375 532.7978575L907.033077656 533.531127187L905.12794 534.96677L902.3242775 538.2525875L900.15597 542.3051L894.0094125 563.97034375L891.036073125 575.997293281L889.94967 581.78004L893.02414875 580.70284875L899.9409 576.74235L915.65744125 567.55351625L920.079298594 565.572035156L922.37174 565.24975L922.891180469 566.294562656L922.62520875 569.19375125L919.28671 583.17126L915.860130781 596.689430156L914.13261375 605.03730375L913.870677344 609.747352969L914.84084 612.35205L915.774815312 613.440911562L916.71495 613.903375L919.89373 613.15166L923.453104219 612.152064062L923.751046504 612.437506836L923.11512125 613.1976375L919.203555156 615.995544687L912.04218 620.25295L905.91018 623.70783L905.22073 620.9608L905.22073 620.9608L905.22073 620.9608"
       id="path3043"
       inkscape:connector-curvature="0"
       transform="translate(0,-364.96061)" />
    <path
       style="fill:#ffff00;stroke:#000000;stroke-width:1.07254565"
       d="M939.05928 621.94621L938.227103853 620.496482649L937.661357852 618.532943848L937.267423437 613.345198906L937.754011055 606.944509199L938.997655 599.89240875L940.87488957 592.750431582L943.262249062 586.080111719L946.036267773 580.442983184L949.07348 576.40058L953.053575684 572.872647363L957.110880469 570.020630781L961.298007207 567.830143496L965.66756875 566.28679875L970.272177949 565.376209785L975.164447656 565.083989844L980.396990723 565.395752168L986.02242 566.29711L987.3033625 566.630101719L987.8346425 567.08335875L986.90149 569.1818L985.284643125 573.066671406L983.236715 580.05013875L978.74427 599.93266L977.509234375 608.728538281L977.670197344 611.40236459L978.4134125 612.99073875L979.786328594 613.541628066L981.836394375 613.102999844L988.15777 609.44906L991.377085 607.5305475L992.71609 607.30237L989.407366094 610.195887969L981.91478125 615.47128875L973.888715781 620.665785156L968.97955 623.31659L967.629900469 623.096185469L967.02863375 621.40556625L967.158232656 618.057598906L968.00118 612.86515L968.58222 607.68328L956.3079 615.45924L948.783016406 620.395162656L943.98244875 622.90256375L941.032451719 623.310045469L939.05928 621.94621L939.05928 621.94621M956.02413 612.92122L964.7836 607.60034L969.56375 604.36849L973.64716 588.07477L977.28315 571.33361L968.65605 570.26755L961.30113375 570.13369375L959.441477344 570.827362656L957.72231 572.21935L955.631408184 574.634306914L953.613187344 577.835511562L950.02733125 585.9424325L947.429827031 595.231649687L946.28576 604.3947L946.593700781 610.71379L947.202914668 612.759559453L948.15638125 614.0984975L949.484668301 614.757368359L951.218343594 614.76293625L956.02413 612.92122L956.02413 612.92122"
       id="path3045"
       inkscape:connector-curvature="0"
       transform="translate(0,-364.96061)" />
    <path
       style="fill:#ffff00;stroke:#000000;stroke-width:1.07254565"
       d="M1003.0326 605.65248L1008.44935 584.324905L1009.35079688 578.742572812L1009.1903 575.85749L1008.0130875 574.697652969L1005.89425 574.31724125L1003.1685125 574.715053906L1000.1706 575.88989L997.9358 576.79903375L997.00627 576.68697L1002.59116 573.14152625L1018.8448 564.78631L1019.2751625 566.07701875L1019.0123 569.82619L1018.6644625 573.7104875L1018.8903 575.32608L1024.7261 571.58931L1029.31812031 568.564516094L1033.3115375 566.49733625L1036.59753594 565.434565781L1039.0673 565.423L1040.27089844 566.08906125L1040.6404875 567.46622L1040.16683281 569.89193875L1038.8407 573.70368L1038.19284688 575.231796875L1037.5641 575.8489L1036.63212813 575.639113125L1035.0746 574.68656L1032.24059219 573.584565313L1028.8434375 573.509195L1025.10441406 574.434107188L1021.2448 576.33296L1019.134225 577.989023125L1017.451675 581.01138L1015.4669125 587.242596875L1012.4497 598.52524L1009.1596125 610.613834375L1006.734125 617.2719075L1005.54543047 619.158299375L1004.212675 620.399621875L1000.6347 621.89714L999.4670025 621.904048906L999.347625 620.07822125L1003.0326 605.6525L1003.0326 605.65248"
       id="path3047"
       inkscape:connector-curvature="0"
       transform="translate(0,-364.96061)" />
    <path
       style="fill:#ffff00;stroke:#000000;stroke-width:1.07254565"
       d="M1042.6503 621.20687L1041.59030664 618.662130742L1041.10393437 615.051147187L1041.15808242 610.593128164L1041.71965 605.5072825L1044.23264062 594.328946562L1046.11786211 588.674873945L1048.3781 583.26981L1050.25198437 579.652847344L1052.28695 576.93296625L1055.14039062 574.404344531L1059.4697 571.36116L1065.37145 567.894236719L1070.837975 565.73080125L1076.0723375 564.812367656L1081.2776 565.08045L1088.5453 566.23272L1091.7742375 567.0629575L1091.81602656 567.690542813L1091.0443 568.69085L1089.77076836 571.281192734L1088.16159062 576.21144875L1084.6345 590.0174975L1081.85943438 603.96059L1081.19028789 609.062150703L1081.2328 611.89232L1081.96799375 613.29760125L1083.1314 613.8259525L1084.91925625 613.49018L1087.5278 612.30309L1089.870475 611.30485625L1091.1369 611.1817L1090.60811504 611.974457344L1088.65282656 613.51071875L1082.2203875 617.73303L1075.35487969 621.68718625L1071.5716 623.21174L1070.97152969 622.724235L1070.6988625 621.775405L1071.094 618.04284L1072.0378 610.41419L1071.95459688 608.48390375L1071.53968867 608.179172891L1070.62705 608.4270125L1058.2663 616.62851L1050.588225 621.545495L1046.261 623.59061L1044.3996625 622.8903875L1042.6503 621.20687L1042.6503 621.20687M1065.2373 609.37938L1073.5678 603.74852L1077.5589 587.66033L1081.1905 571.20828L1072.2529 570.25647L1067.36388906 569.984271406L1064.4890125 570.14801125L1062.68245469 570.940980469L1060.9984 572.55647L1058.97479004 575.238755645L1056.95997031 578.810944531L1053.2785125 587.68892375L1050.59764844 597.318191094L1049.561 605.82653L1049.98289062 609.390702031L1051.13125 612.31102625L1052.83010937 614.285032344L1054.9035 615.01025L1058.7654 613.3561825L1065.2373 609.37938L1065.2373 609.37938"
       id="path3049"
       inkscape:connector-curvature="0"
       transform="translate(0,-364.96061)" />
    <path
       style="fill:#ffff00;stroke:#000000;stroke-width:1.07254565"
       d="M1104.3669 620.80044L1102.39091719 617.374712656L1101.4305375 613.21787875L1101.45226406 607.995097969L1102.4226 601.37153L1104.49196719 592.994615937L1107.2073375 585.8343875L1110.49561406 580.048462813L1114.2837 575.79446L1119.3664 572.10842L1119.0242875 573.7624875L1117.1116 577.73929L1114.44706719 583.638580937L1112.4128625 590.14909L1111.09185156 596.942221562L1110.5669 603.68938L1110.88316582 608.861426777L1112.00108906 612.822933594L1113.9144834 615.572046426L1116.6171625 617.10691125L1120.10294004 617.425674043L1124.36562969 616.526480781L1129.39904512 614.407477441L1135.197 611.06681L1139.4271625 608.621295L1141.5025 607.92001L1141.10589902 608.621161172L1139.47466094 609.962545625L1133.6932125 613.827105L1126.52803281 618.035869375L1120.349 621.11102L1114.81103438 622.978109531L1110.356125 623.54977375L1106.90212813 622.824416094L1104.3669 620.80044L1104.3669 620.80044"
       id="path3051"
       inkscape:connector-curvature="0"
       transform="translate(0,-364.96061)" />
    <path
       style="fill:#ffff00;stroke:#000000;stroke-width:1.07254565"
       d="M1158.4519 620.42624L1157.23396094 617.375314531L1157.0756125 613.56072875L1158.13798281 607.161971094L1160.5822 596.35853L1164.3234 578.92967L1164.0342 578.270915313L1163.1351 577.8174225L1159.3182 577.47115L1155.99847812 577.253500312L1155.220375 576.715685L1156.86195937 576.030404688L1160.8013 575.37036L1165.7693 574.78978L1167.1852 568.35451L1169.1608 559.51905L1170.79108594 557.423633281L1173.8981125 555.00425875L1176.91290781 553.314144844L1177.89541504 553.071691387L1178.2665 553.40651L1173.315 573.4491L1173.27754531 574.449095L1174.2392875 575.0180425L1181.1437 575.34248L1187.128125 575.6046725L1188.14792188 575.931274062L1187.9194 576.3986L1184.71685 577.137715L1179.2763 577.45473L1172.242 577.47113L1169.3358 590.60981L1167.41547031 599.935338281L1166.6135875 606.01765375L1166.87338594 609.900217344L1168.1381 612.62649L1169.63143125 614.315593906L1171.337275 614.84588875L1173.85000625 614.201269219L1177.764 612.36563L1181.5826625 610.62730125L1183.4283 610.16161L1180.71713594 612.594384375L1173.8255375 617.17343L1166.40037031 621.603810625L1162.0885 623.59059L1160.1931 622.6788825L1158.4519 620.42622L1158.4519 620.42624"
       id="path3053"
       inkscape:connector-curvature="0"
       transform="translate(0,-364.96061)" />
    <path
       style="fill:#ffff00;stroke:#000000;stroke-width:1.07254565"
       d="M1201.5943 622.49456L1199.99360854 621.119760864L1198.7237043 619.219036445L1197.13220312 614.106042187L1196.73168789 607.688038086L1197.43405 600.497485L1199.15118086 593.066843789L1201.79497188 585.928575313L1205.27731445 579.61514043L1209.5101 574.659L1215.38934062 570.119863906L1221.162175 566.97024625L1226.32409687 565.426680469L1228.51830742 565.32483373L1230.3706 565.7057L1232.55433477 567.016330195L1233.95160312 568.906696562L1234.58207617 571.261315273L1234.465425 573.9647025L1233.6213207 576.901374414L1232.06943437 579.955847188L1229.82943711 583.012636992L1226.921 585.95626L1213.5051 595.89699L1204.8997 601.60343L1205.3516 607.29802L1206.05573125 611.351318594L1207.4265 614.38040875L1209.43484375 616.342352031L1212.0517 617.19421L1215.80378594 617.290134531L1219.1630875 616.64044375L1222.74062031 615.047618594L1227.1474 612.31414L1232.3705375 609.0194375L1234.7904 607.89642L1233.17556406 609.861261719L1228.5068125 613.61458625L1222.76992969 617.666810156L1217.9507 620.52835L1213.42204375 622.1977625L1208.6982 623.1406275L1204.51150625 623.26890625L1201.5943 622.49456L1201.5943 622.49456M1217.2992 590.73768L1220.17904863 588.178791445L1222.57598281 585.442907812L1224.45480996 582.624055898L1225.7803375 579.8162625L1226.51737285 577.113554414L1226.63072344 574.609958437L1226.08519668 572.399501367L1224.8456 570.57621L1222.63891113 569.154761445L1220.26112031 569.028655937L1217.78621621 570.115817461L1215.2881875 572.33417L1212.84102285 575.601637539L1210.51871094 579.836144062L1208.39524043 584.955613555L1206.5446 590.87797L1205.38692031 595.539620469L1205.2175625 597.83411625L1205.54425332 598.233063652L1206.16692344 598.207481406L1208.3654 597.10574L1217.2992 590.73768L1217.2992 590.73768"
       id="path3055"
       inkscape:connector-curvature="0"
       transform="translate(0,-364.96061)" />
    <path
       style="fill:#ffff00;stroke:#000000;stroke-width:1.07254565"
       d="M1250.7906 605.65248L1256.2073875 584.324905L1257.10881094 578.742572812L1256.9483 575.85749L1255.77113125 574.697652969L1253.6523 574.31724125L1250.92656875 574.715053906L1247.9287 575.88989L1245.69385 576.79903375L1244.7643 576.68697L1250.349225 573.14152625L1266.6029 564.78631L1267.0331875 566.07701875L1266.7704 569.82619L1266.45915 573.7104875L1266.7704 575.32608L1272.6438 571.57345L1277.13835469 568.557667656L1281.0770375 566.49360625L1284.34325156 565.431854219L1286.8204 565.423L1288.02763438 566.090865625L1288.3929 567.47821L1287.90504063 569.935076875L1286.5529 573.81151L1285.3231625 576.023625L1284.56982031 575.795444688L1283.3678 574.78691L1280.75082188 573.560694219L1277.1793 573.43521875L1273.12807813 574.360648906L1269.072 576.28715L1266.91490156 577.957464063L1265.2188375 580.96395L1263.23205469 587.191558438L1260.2028 598.52524L1256.9127125 610.613834375L1254.487225 617.2719075L1253.29853047 619.158299375L1251.965775 620.399621875L1248.3878 621.89714L1247.22013906 621.904048906L1247.1007625 620.07822125L1250.7857 605.6525L1250.7906 605.65248"
       id="path3057"
       inkscape:connector-curvature="0"
       transform="translate(0,-364.96061)" />
    <path
       style="fill:#ffff00;stroke:#000000;stroke-width:1.07254565"
       d="M1332.713 630.96894L1329.70889219 629.266092188L1326.7633875 626.70735L1324.20621406 623.630410312L1322.3671 620.37297L1321.29216719 615.82464375L1320.8531875 609.496995L1321.06953906 602.54575875L1321.9606 596.12667L1323.90886133 589.041189961L1326.66792188 582.070397813L1330.17962148 575.295519258L1334.3858 568.79778L1339.22829727 562.658405742L1344.64895312 556.958622187L1350.58960742 551.779655039L1356.9921 547.20273L1362.24097402 544.197451777L1367.49392969 541.882103594L1372.63604238 540.269580176L1377.5523875 539.37277625L1382.12804043 539.204586543L1386.24807656 539.777905781L1389.79757129 541.105628691L1392.6616 543.20065L1395.33183437 546.483698125L1396.294675 549.4092475L1395.55782813 552.171428125L1393.129 554.96437L1390.42749219 557.132339219L1388.6635125 558.00644875L1387.70325156 557.610168906L1387.4129 555.96697L1386.93523906 553.363069063L1385.6728625 550.509555L1383.88167969 547.867045938L1381.8176 545.89616L1378.05851094 544.580335156L1372.7175875 544.24190375L1366.93077031 544.853030469L1361.834 546.38588L1358.79023457 548.076626621L1355.57616406 550.421236719L1349.0364125 556.63550375L1343.01335469 564.155593906L1338.3056 572.10842L1334.70149063 580.422244844L1332.309025 588.01998375L1330.98632188 595.476600781L1330.5915 603.36706L1331.03429531 610.518779688L1332.4105125 616.1250925L1334.85489844 620.539569063L1338.5022 624.11578L1341.22408223 625.771960313L1344.34223281 626.912466875L1347.81548262 627.538789375L1351.6026625 627.6524175L1355.66260332 627.254840938L1359.95413594 626.347549375L1369.0673 623.00978L1373.56948437 621.141601563L1375.19555 620.8931775L1373.87974063 622.068062188L1369.5563 624.46981L1359.2354375 628.755070781L1348.986125 631.38459875L1339.811075 632.181514844L1335.93974609 631.83746873L1332.713 630.96894L1332.713 630.96894"
       id="path3059"
       inkscape:connector-curvature="0"
       transform="translate(0,-364.96061)" />
    <path
       style="fill:#ffff00;stroke:#000000;stroke-width:1.07254565"
       d="M1399.2202 620.54734L1397.44405684 618.31545041L1396.17952969 615.677333281L1395.42665957 612.623436074L1395.1854875 609.14420625L1395.45605449 605.23009127L1396.23840156 600.871538594L1399.3386 590.78291L1402.62753906 584.568408906L1407.5899625 578.58313125L1413.81930469 573.238662969L1420.909 568.94659L1425.13981211 567.099934414L1428.98830938 565.903056563L1432.4478332 565.354972305L1435.511725 565.4546975L1438.17332617 566.201248008L1440.42597813 567.593639687L1442.26302227 569.630888398L1443.6778 572.31201L1444.57806348 576.244241406L1444.60133906 581.009553125L1443.83771699 586.323537656L1442.3772875 591.9017875L1440.31014082 597.459895156L1437.72636719 602.713453125L1434.71605684 607.378053906L1431.3693 611.16929L1427.26110469 614.710594219L1425.1220625 615.87869125L1424.82624434 615.573351621L1425.06503906 614.675387656L1427.2029 611.10249L1430.45699395 605.521208828L1432.94035156 599.5272575L1434.63009902 593.409389297L1435.5033625 587.4563575L1435.53726816 581.956915391L1434.70894219 577.19981625L1432.99551074 573.473813359L1430.3741 571.06766L1427.63387031 570.072697793L1424.78908125 569.920081094L1421.89752031 570.573472285L1419.016975 571.99653375L1416.20523281 574.152927871L1413.52008125 577.006317031L1411.01930781 580.520363613L1408.7607 584.65873L1406.28032031 591.714661719L1404.8244125 599.65134375L1404.54564844 607.113461406L1404.89540527 610.243022754L1405.5967 612.7457L1407.53795313 615.506410156L1410.54145 617.60857625L1414.11404688 618.804841719L1417.7626 618.84785L1419.33707344 618.63531625L1419.6073625 618.836145L1415.8353 620.90497L1410.67659531 622.938939375L1406.2242125 623.558105L1402.42359844 622.761293125L1399.2202 620.54733L1399.2202 620.54733L1399.2202 620.54734"
       id="path3061"
       inkscape:connector-curvature="0"
       transform="translate(0,-364.96061)" />
    <path
       style="fill:#ffff00;stroke:#000000;stroke-width:1.07254565"
       d="M1455.5723 620.24015L1453.88713906 618.043688906L1453.0600625 615.95931625L1452.89135469 612.969380469L1453.1813 608.05623L1454.111 600.965840156L1455.775025 593.80330125L1457.9768375 587.265154219L1460.5199 582.04794L1463.02220313 578.879974844L1466.59575 575.25539375L1470.06752188 572.274070781L1472.2645 571.03588L1471.8014125 572.57088L1469.5549 576.26141L1467.5754377 579.762115645L1465.81094531 583.954156406L1463.1203375 593.47878625L1461.87001094 602.968385469L1461.90587012 607.116637949L1462.4469 610.55604L1463.41149941 613.082736426L1464.78103906 615.031378906L1466.54298105 616.399317246L1468.6847875 617.18390125L1471.19392051 617.382480723L1474.05784219 616.992405469L1480.7999 614.43569L1484.68080781 612.706549844L1486.6852625 612.25789125L1486.8846002 612.495914512L1486.49576094 613.032664531L1483.7948 614.97382L1478.20518125 618.119742656L1472.68595 620.67549875L1467.64491875 622.472972969L1463.4899 623.34405L1460.74271563 623.509519531L1458.8822 623.19429625L1457.34613438 622.177974844L1455.5723 620.24015L1455.5723 620.24015L1455.5723 620.24015"
       id="path3063"
       inkscape:connector-curvature="0"
       transform="translate(0,-364.96061)" />
    <path
       style="fill:#ffff00;stroke:#000000;stroke-width:1.07254565"
       d="M1557.4114 642.46511L1552.28542812 640.542531563L1547.777475 638.2278025L1543.92115938 635.541024687L1540.7501 632.5023L1537.3298125 627.292133125L1532.590275 618.4780625L1527.491075 607.946885625L1522.9918 597.5854L1521.62153223 594.677554551L1520.30789531 592.939897656L1519.03812637 592.385362246L1517.7994625 593.02688125L1516.57914082 594.877387598L1515.36439844 597.949814219L1512.9006 607.81216L1510.3999 620.12223L1506.6103 621.28531L1502.5368 622.16455L1509.32365 591.26007L1518.3197 554.41142L1519.75302656 550.160056094L1521.4652125 546.88766625L1524.11866719 543.598680781L1528.3758 539.29753L1534.26397031 534.056830312L1539.6857625 530.2205675L1544.51694844 527.863780937L1548.6333 527.06151L1550.55607031 527.159784844L1551.3322125 527.63954625L1551.04562344 528.778199531L1549.7802 530.85315L1548.69913437 532.19565L1547.405875 533.0011275L1542.8909 533.49678L1538.34391719 534.146720156L1534.6074125 536.14979625L1531.58207656 539.585891719L1529.1686 544.53489L1525.97106406 555.089457031L1521.9291875 570.51530875L1518.60061719 584.580051094L1517.543 591.05129L1520.9389 588.8458975L1528.1601 582.60021L1539.45008125 572.370324375L1546.33535 566.62125L1550.49129375 564.097723125L1553.5933 563.54448L1557.22450312 563.803409531L1558.913 564.72271125L1558.81597187 566.576229844L1557.0906 569.63781L1554.2981625 573.13173375L1553.29913906 573.247036406L1552.0968 572.5473L1549.18617344 571.168269844L1546.0257125 571.28075625L1542.34987031 572.954129531L1537.8931 576.25776L1529.2298 584.13183L1526.7893 586.78403L1537.5415 608.8955L1546.5892 626.476655L1549.88592812 631.989685625L1552.3162 635.23145L1555.17854375 637.774772227L1558.213125 639.622732187L1561.34764375 640.773043555L1564.5098 641.22342L1567.62729375 640.971575195L1570.627825 640.015222812L1573.43909375 638.352076523L1575.9888 635.97985L1578.826325 633.1786375L1579.396425 633.43947625L1579.8163 634.66522L1580.38183125 637.5712825L1580.082275 639.551365L1578.73545625 640.982995L1576.1592 642.2437L1571.92970781 643.403617344L1567.1295125 643.83029625L1562.15721094 643.519029531L1557.4114 642.46511L1557.4114 642.46511L1557.4114 642.46511"
       id="path3065"
       inkscape:connector-curvature="0"
       transform="translate(0,-364.96061)" />
    <path
       style="fill:#ffff00;stroke:#000000;stroke-width:1.07254565"
       d=""
       id="path3067"
       inkscape:connector-curvature="0"
       transform="translate(0,-364.96061)" />
    <path
       style="fill:#ffff00;stroke:#000000;stroke-width:1.07254565"
       d="M1483.7816 575.32708L1482.45186875 572.930099531L1480.498625 571.28890625L1478.11064375 570.508782344L1475.4767 570.69501L1473.68540781 570.991260781L1473.3895875 570.58105375L1477.1626 567.84698L1480.9755125 566.080146719L1484.376 565.47769875L1487.2492375 566.040366406L1489.4804 567.76888L1491.04761094 570.393070156L1491.3528625 572.80039125L1490.40263281 574.945056719L1488.2034 576.78128L1484.957 578.69896L1483.7816 575.32712L1483.7816 575.32708"
       id="path3069"
       inkscape:connector-curvature="0"
       transform="translate(0,-364.96061)" />
    <path
       style="fill:#ffff00;stroke:#000000;stroke-width:1.07254565"
       d="M1574.0707 622.02386L1572.59509844 618.862409063L1572.3231625 613.89694L1573.29339531 606.442573437L1575.5443 595.81443L1579.3985 578.38556L1577.9621375 577.73976L1574.5088 577.47115L1571.1235 577.18054875L1570.35153125 576.842568906L1570.2819 576.3986L1572.1432375 575.6411175L1575.6875 575.32606L1579.6737625 574.890055L1580.52644844 574.156833438L1580.9862 572.91283L1583.082 563.68711L1584.9597 556.68376L1589.3378 554.65639L1593.3782 552.81988L1592.7116 555.76074L1588.3864 573.4491L1588.3353 574.444218906L1589.20805 575.01144125L1595.4777 575.32606L1600.9332625 575.6085675L1602.22217344 575.945532813L1602.4583 576.3986L1599.85665 577.1560875L1594.5325 577.47115L1587.2696 577.47115L1584.1991 590.60983L1582.12986563 600.1612975L1581.2908 606.37309L1581.63215938 610.2537475L1583.1042 612.81181L1584.82152813 614.38241625L1586.5766 614.8417625L1589.01492188 614.1548125L1592.782 612.28653L1597.226275 610.143619688L1598.04744297 609.962280352L1597.960225 610.3430625L1595.1374125 612.697124063L1588.9114 617.01807L1582.56848594 621.052930156L1578.4603375 623.07041125L1575.86754531 623.313169219L1574.0707 622.02386L1574.0707 622.02386L1574.0707 622.02386"
       id="path3071"
       inkscape:connector-curvature="0"
       transform="translate(0,-364.96061)" />
    <path
       style="fill:#ffff00;stroke:#000000;stroke-width:1.07254565"
       d="M1612.9054 621.46007L1611.83775469 617.489356094L1611.6548375 611.26077375L1612.31422656 603.977824531L1613.7735 596.84401L1616.46499687 588.363482188L1619.363175 581.9575725L1622.76171562 577.100971563L1626.9543 573.26837L1633.77036406 568.674087969L1639.6971625 566.01697625L1645.75027969 564.984231406L1652.9453 565.26305L1657.85515156 565.915915312L1660.7134625 566.7120625L1661.73766719 567.754460937L1661.1452 569.14608L1659.19568125 574.594002969L1656.29385 585.44785375L1653.47556875 597.550385156L1651.7767 606.74435L1651.57522187 611.272525781L1651.91481133 612.636933887L1652.593225 613.42853125L1653.6444168 613.667549707L1655.10234063 613.374221094L1659.3742 611.27145L1663.7576 608.946720469L1664.576875 608.732012285L1664.529 609.08573625L1661.9752 611.308463906L1656.383 615.23487L1647.30580156 621.049213438L1644.47831152 622.542314883L1642.6015625 623.1061525L1641.53305566 622.750813555L1641.13029219 621.486385313L1641.752 616.27061L1642.4738 609.02935L1641.62715313 608.820261406L1639.376825 609.80563875L1630.3445 615.53165L1621.3790375 621.20843125L1616.3912 623.57733L1614.4782 622.96075L1612.9054 621.46007L1612.9054 621.46007L1612.9054 621.46007M1636.5116 609.04331L1643.7664 604.0081L1647.8945 587.50623L1652.0075 571.26394L1648.1475 570.62544L1642.24245625 569.937801719L1637.52395 570.04123625L1633.90561875 570.946190156L1631.3011 572.66311L1628.44463652 576.464392012L1625.83587344 581.647671719L1623.59147676 587.706397129L1621.8281125 594.13401625L1620.66244668 600.42397709L1620.21114531 606.069727656L1620.59087441 610.564715957L1621.9183 613.40239L1623.99399219 614.558491719L1626.8461125 614.29858875L1630.88265156 612.500816406L1636.5116 609.04331L1636.5116 609.04331"
       id="path3073"
       inkscape:connector-curvature="0"
       transform="translate(0,-364.96061)" />
    <path
       style="fill:#ffff00;stroke:#000000;stroke-width:1.07254565"
       d="M1674.4976 622.87558L1673.83371719 620.732111094L1674.1644375 616.30092375L1678.0603 598.88774L1680.65738281 588.228705469L1682.0219625 581.01181375L1682.22503594 576.715690156L1681.91319434 575.499986816L1681.3376 574.81896L1679.44845 574.85816625L1676.3464 575.84229L1672.8553875 577.112031094L1672.25457812 577.132795254L1672.40915 576.75261375L1680.465 571.34931L1690.1865 565.84039125L1692.39466875 565.005377344L1693.0884 565.32888L1688.7217 584.33291L1685.46917188 598.491380781L1683.888075 607.09882125L1683.78039063 611.704541094L1684.21719727 612.990915059L1684.9481 613.85785L1686.01560156 614.541693281L1687.1962875 614.73082625L1691.1592 613.56558L1696.0366 612.23821L1693.61497969 614.307647188L1687.4633375 618.1771875L1680.82807656 621.915339063L1676.9556 623.59061L1674.4976 622.87558L1674.4976 622.87558"
       id="path3075"
       inkscape:connector-curvature="0"
       transform="translate(0,-364.96061)" />
    <path
       style="fill:#ffff00;stroke:#000000;stroke-width:1.07254565"
       d="M1690.4795 546.20116L1688.4806 542.81736L1692.1252 539.79474L1696.3755 536.74327L1698.7569 540.43801L1700.5326 544.1616L1696.9774 546.87328L1692.9502 549.58496L1690.4795 546.20116L1690.4795 546.20116"
       id="path3077"
       inkscape:connector-curvature="0"
       transform="translate(0,-364.96061)" />
    <path
       style="fill:#ffff00;stroke:#000000;stroke-width:1.07254565"
       d="M1737.6577 621.17738L1735.5363375 618.50908625L1734.287 615.4826L1734.08400938 613.648973281L1734.46765 612.27859625L1735.66684063 610.986401094L1737.9105 609.38732L1742.1623 606.5736L1742.7492 610.94932L1743.73885 614.59869125L1745.294 617.2281L1747.68531172 618.821021035L1750.4534 619.495022031L1753.40919453 619.332828574L1756.363625 618.41716625L1759.12762109 616.830760645L1761.5121125 614.656337344L1763.32802891 611.976621934L1764.3863 608.87434L1764.65623125 606.4713725L1763.944 604.4137575L1761.60546875 601.69246375L1756.9965 597.29846L1751.97788594 592.300611562L1749.3969125 588.59815L1748.89065918 586.941405117L1748.83795781 585.258965937L1749.8854 581.35095L1751.95461406 577.806457969L1755.3385125 573.84975375L1759.33397969 570.205115156L1763.2379 567.59682L1767.56884844 565.915222188L1771.6545375 565.31123L1775.18108281 565.790005312L1777.8346 567.35671L1780.0176 569.53963L1777.3097 572.08353L1774.6018 574.62743L1772.1195 572.29538L1769.45217344 570.68547125L1766.1886625 570.00887L1762.83742031 570.29554625L1759.9069 571.57547L1757.920725 573.80683375L1756.3775 576.90774L1755.79500312 580.480016406L1756.768775 583.77984125L1759.55570937 587.271390469L1764.4127 591.41884L1769.747725 596.2016025L1770.77316875 598.092787188L1771.1763 600.26861L1771.0568625 603.33658207L1770.22095 606.422032188L1768.72605 609.456487461L1766.62965 612.371475L1763.9892375 615.098521914L1760.8623 617.569155313L1757.306325 619.714902305L1753.3788 621.46729L1748.23150469 623.034480781L1743.9837875 623.51018625L1740.50330156 622.891966094L1737.6577 621.17738L1737.6577 621.17738"
       id="path3079"
       inkscape:connector-curvature="0"
       transform="translate(0,-364.96061)" />
    <path
       style="fill:#ffff00;stroke:#000000;stroke-width:1.07254565"
       d="M1707.6286 621.20687L1706.4493875 619.0191525L1705.9589 617.1067L1711.9396 589.6489825L1720.5948 554.28235L1722.37132969 548.223442344L1724.0304375 544.26554625L1726.32995156 541.031949531L1730.0277 537.14594L1735.08436719 532.430569219L1739.3998375 529.28882125L1743.33916406 527.502767656L1747.2674 526.85448L1750.13251563 526.934178906L1751.581425 527.48694875L1751.67534688 528.578006719L1750.4755 530.27257L1749.27767813 531.289648594L1747.75775 531.95648375L1743.0636 532.44066L1738.97162813 532.619461406L1736.420175 533.45459625L1734.65250938 535.440285469L1732.9119 539.07075L1729.86796563 548.841894062L1725.241625 566.121155L1720.50762188 585.182910937L1717.1407 600.30154L1716.10492188 608.330475625L1716.2215293 611.166288672L1716.76555 613.226065L1717.7402957 614.517104453L1719.14907813 615.046706875L1720.99520898 614.822172109L1723.282 613.8508L1724.9539 613.17377625L1725.9313 613.17419L1724.03497031 615.078416406L1719.1046375 618.62999625L1713.74933594 622.058397969L1710.5781 623.59309L1709.1837125 622.8912525L1707.6286 621.20687L1707.6286 621.20687"
       id="path3081"
       inkscape:connector-curvature="0"
       transform="translate(0,-364.96061)" />
    <path
       style="fill:#ffff00;stroke:#000000;stroke-width:1.07254565"
       d="M1419.1729 781.71675L1418.6358125 779.216678906L1418.92485 775.30501125L1422.872 757.38846L1425.48203906 745.844838281L1426.6446625 738.54009375L1426.43210469 734.620854844L1425.83270605 733.664121387L1424.9166 733.23375L1421.45899219 734.569225625L1415.0242125 737.9539525L1408.36167656 741.857870625L1404.2208 744.75092L1402.6556375 749.09143375L1400.1409 758.33334L1395.9209 774.98779L1394.3944875 778.3285825L1393.18688281 779.332621562L1391.5147 780.08722L1388.989025 780.77807375L1387.659 780.78588L1388.4592125 776.25495875L1391.0553 766.03354L1394.636125 752.225099687L1396.673975 742.716505L1397.2732875 736.900947812L1397.06612891 735.188430742L1396.5385 734.17162L1395.65905156 733.465074687L1394.7144375 733.2127575L1391.7392 734.04785L1388.31822344 735.222350156L1387.91761191 735.117577871L1388.3278875 734.60610625L1397.1424 729.31296L1404.1781625 725.8702025L1407.452 724.78573L1407.3595375 727.47622625L1406.3016 733.10943L1405.0034 741.28535L1408.3741625 739.6764775L1415.8505 735.18045L1430.3849 726.51916L1435.61135 724.53595125L1437.22574375 724.443972344L1437.8225 725.02253L1432.909 743.92456L1428.85743594 760.39480625L1427.95275098 765.827771406L1427.8138875 769.61658L1428.45466309 771.929193594L1429.88889531 772.93357375L1432.13040176 772.797682031L1435.193 771.68948L1440.7016 769.83328L1435.615925 773.68734375L1423.7312 781.11569L1420.3774125 782.74737625L1419.64504531 782.546581719L1419.1729 781.71675L1419.1729 781.71675L1419.1729 781.71675"
       id="path3083"
       inkscape:connector-curvature="0"
       transform="translate(0,-364.96061)" />
    <path
       style="fill:#ffff00;stroke:#000000;stroke-width:1.07254565"
       d="M1343.7701 780.86528L1354.5615 739.73517L1354.584075 736.67503L1353.4947 734.55344L1351.39845 733.4759175L1348.4004 733.54798L1345.0473 734.21785L1348.4715 732.04845L1356.0303875 727.81098625L1362.5248 724.9961L1363.91114844 724.666933437L1364.5602375 725.0755775L1364.2508 729.78113L1363.515 735.32776L1370.6974 730.4105L1375.69359531 727.206215L1379.5333375 725.27717L1382.48153594 724.51847L1384.8031 724.82522L1385.73173438 725.465111562L1385.939675 726.7153925L1384.0122 732.89678L1382.9832375 734.66015125L1382.43842344 734.704462344L1381.7958 734.23746L1379.25132031 733.184055469L1375.3142875 733.04762625L1370.92806094 733.762598906L1367.036 735.2634L1364.65244688 736.831240937L1363.0026 739.216385L1361.36850312 743.982254062L1359.0322 752.69227L1354.90444219 768.373655L1352.4613625 776.1984075L1351.47866777 778.120959453L1350.44565156 779.22704875L1347.6 780.5201L1344.32815 781.54821125L1343.75039062 781.416976719L1343.7701 780.86528L1343.7701 780.86528L1343.7701 780.86528"
       id="path3085"
       inkscape:connector-curvature="0"
       transform="translate(0,-364.96061)" />
    <path
       style="fill:#ffff00;stroke:#000000;stroke-width:1.07254565"
       d="M1299.9744 781.901L1297.31655156 780.145266562L1295.4910625 777.4838425L1294.43899219 773.786462187L1294.1014 768.92286L1294.45589375 762.723486875L1295.544 756.62908L1297.40265625 750.486298125L1300.0688 744.1418L1302.08848281 740.236829219L1304.1068625 737.20463625L1306.42638594 734.656105156L1309.3495 732.20212L1315.86821406 727.732889531L1321.3167625 725.09623625L1325.73775469 724.277247344L1327.57623262 724.544716777L1329.1738 725.26101L1330.63637187 726.855208437L1331.5413 729.24142L1331.81667812 732.100124062L1331.3906 735.1118L1329.58879375 738.975196719L1326.01635 743.25600875L1320.40570625 748.223676406L1312.4893 754.14764L1302.4484 761.26515L1302.9362 767.14798L1303.84445 772.18273L1304.6746625 773.769296875L1305.8531 774.99772L1307.64455762 776.076531816L1309.73429844 776.683490156L1314.6290375 776.51811875L1320.17813281 774.574150469L1326.0224 770.92413L1328.7277625 769.1304075L1330.1573 768.68865L1329.3199 770.178962656L1326.158625 772.87057375L1321.6359875 776.030505469L1316.7145 778.92578L1311.54494062 781.30091375L1307.13035 782.5709675L1303.32280937 782.7622325L1299.9744 781.901L1299.9744 781.901M1310.0602 753.45652L1315.54655625 749.316296094L1319.5931 745.30785375L1322.25019375 741.371484531L1323.5682 737.44748L1323.80277031 733.655368906L1323.0581875 730.91793125L1321.34743594 729.258417969L1318.6835 728.70008L1316.56615898 729.053738945L1314.50210313 730.099313437L1312.5074082 731.813699961L1310.59815 734.173795L1307.10024688 740.738696562L1304.137 749.60919L1302.7772125 755.8173325L1302.80147031 757.219806562L1303.2769 757.65881L1310.0602 753.45652L1310.0602 753.45652"
       id="path3087"
       inkscape:connector-curvature="0"
       transform="translate(0,-364.96061)" />
    <path
       style="fill:#ffff00;stroke:#000000;stroke-width:1.07254565"
       d="M1256.6062 780.53068L1254.98471406 777.568329687L1254.6434875 773.3406075L1255.67586719 766.329774062L1258.1752 755.01809L1261.925 738.1255L1260.2796125 737.5286775L1256.3237 737.28044L1251.92575 737.0436775L1251.86737812 736.5830975L1252.9101 735.74805L1255.6758 734.5645875L1259.253 733.8711L1263.4082 733.52653L1265.2352 725.14832L1267.4431 716.43622L1271.7090125 714.1450625L1275.378 712.83681L1273.1548 723.37322L1270.5269 733.79467L1278.764 734.06281L1284.50625938 734.414697813L1285.77125586 734.792049414L1285.99825 735.24811L1283.43649063 736.229669688L1277.0175 737.026L1269.4329 737.92668L1266.267 752.42024L1263.8453125 764.87545125L1263.88339219 767.808593281L1264.6034 770.1514L1266.20104688 772.702699531L1268.43445 773.67514125L1271.66257813 773.094477344L1276.2444 770.98646L1280.67485156 768.847504531L1281.54472324 768.637374746L1281.5406375 768.96881375L1278.97942969 771.162408594L1273.1289 775.24031L1265.62500156 780.085829688L1261.1744375 782.325135L1259.7170377 782.588205508L1258.57042969 782.344620313L1256.6062 780.53068L1256.6062 780.53068L1256.6062 780.53068"
       id="path3089"
       inkscape:connector-curvature="0"
       transform="translate(0,-364.96061)" />
    <path
       style="fill:#ffff00;stroke:#000000;stroke-width:1.07254565"
       d="M1143.6585 781.52295L1142.25885 779.375515L1141.269 776.84825L1140.97144336 773.676404316L1141.25065313 769.334573281L1143.192 758.60761625L1146.39829688 747.600701094L1148.25869414 742.908922402L1150.1748 739.24715L1153.09807656 735.9289375L1157.6651375 732.0407625L1162.81140469 728.40702125L1167.4723 725.85211L1169.78351562 725.106238125L1172.64615 724.68272L1181.2469 724.70067L1188.46885 725.2373175L1191.8571 725.84496L1191.9287625 726.783695L1191.1764 728.11639L1189.04918438 733.681114844L1186.141575 744.36388375L1183.42787813 756.252500781L1181.8824 765.43477L1181.6061 771.72899L1182.29603438 772.5461425L1183.7625 772.67445L1186.789475 771.85879125L1190.4352 769.89774L1193.4890125 768.1045575L1195.093 767.6925L1192.103675 770.332275L1184.1141 775.8765L1175.2962625 781.24329625L1172.73617344 782.393373281L1171.5317 782.45687L1171.07505 779.9476875L1171.6828 774.70693L1172.3602875 769.80422875L1172.3273 767.45035L1169.1963 768.9727775L1162.4251 773.38971L1151.462725 780.54302375L1145.7733 783.39991L1143.6585 781.52295L1143.6585 781.52295M1166.7636 768.2199L1173.7353 763.59133L1177.6278 747.56087L1180.4239375 734.70881125L1180.63957969 731.855944531L1180.1708 730.69635L1176.7836125 729.546895781L1172.12465 729.03657375L1167.3864125 729.208344844L1163.7614 730.10517L1161.35570664 731.911863262L1158.98055937 734.897516094L1156.72540742 738.831264316L1154.6797 743.48224375L1152.93288633 748.619590215L1151.57441562 754.012439531L1150.69373711 759.42992752L1150.3803 764.64119L1150.7596875 769.7120225L1151.721 772.54211L1153.9267875 773.501766563L1157.233125 773.0829025L1161.54405 771.313089688L1166.7636 768.2199L1166.7636 768.2199L1166.7636 768.2199"
       id="path3091"
       inkscape:connector-curvature="0"
       transform="translate(0,-364.96061)" />
    <path
       style="fill:#ffff00;stroke:#000000;stroke-width:1.07254565"
       d="M1200.0587 781.86762L1197.1609125 779.78468125L1195.5325 776.31401L1194.963675 773.544077031L1195.2713 771.59587875L1196.7016 769.961921094L1199.5008 768.13471L1202.6668 766.27634L1203.3375 770.4703L1204.59517969 774.21505125L1206.8644875 776.9827025L1209.88647656 778.5606025L1213.4022 778.7361L1216.05486074 778.032882207L1218.50094219 776.865017031L1220.67249316 775.314536777L1222.5015625 773.46347375L1223.92019902 771.393860254L1224.86045156 769.187728594L1225.25436895 766.927111074L1225.034 764.69404L1222.8583625 761.4642925L1218.5648 757.43353L1213.69765 753.124400625L1210.81785 749.3499275L1209.7241 745.735853125L1210.2151 741.90792L1212.12448105 737.693913789L1215.06934844 733.805435937L1218.76053848 730.403156367L1222.9088875 727.647745L1227.22523184 725.699871758L1231.42040781 724.720206563L1235.20525176 724.869419336L1238.2906 726.30818L1240.6349 728.20646L1238.2801 731.20009L1235.9253 734.19372L1233.3128 731.73941L1230.8554834 730.06206918L1228.15180469 729.256095937L1225.37868301 729.248345352L1222.7130375 729.9656725L1220.3317873 731.334932461L1218.41185156 733.282980312L1217.13014941 735.736671133L1216.6636 738.62286L1216.99598594 742.095403594L1218.1934875 744.87517875L1220.55662031 747.410827031L1224.3859 750.15099L1228.16800469 752.825115781L1230.4589125 755.21612875L1231.58928906 757.805342344L1231.8898 761.07407L1231.58001387 763.593010195L1230.69447969 766.189587813L1227.4141125 771.3536775L1222.48458906 776.042383438L1216.3418 779.73175L1211.29507344 781.730917031L1207.0064375 782.73918875L1203.31470781 782.777708594L1200.0587 781.86762L1200.0587 781.86762"
       id="path3093"
       inkscape:connector-curvature="0"
       transform="translate(0,-364.96061)" />
    <path
       style="fill:#ffff00;stroke:#000000;stroke-width:1.07254565"
       d="M1068.9639 781.30555L1060.89242656 780.779561563L1057.2981625 780.00861L1057.1019166 779.479824805L1057.93129219 778.828060938L1062.542 777.07328L1067.04059687 774.82041L1068.89541992 773.119884453L1070.55705 770.9279275L1073.51010312 764.74360625L1076.3185 755.61522L1079.2684 745.1579L1079.15055 744.10859125L1077.9113 743.71572L1076.97772812 743.633176094L1076.731775 743.28016625L1078.4294 741.13048L1079.76937813 739.018375781L1081.2677 735.27920375L1085.0258 722.0928L1089.2193 705.2174L1081.2898 705.39612L1075.97463633 706.033904668L1071.41801562 707.091747344L1067.60774336 708.579309785L1064.531625 710.50625375L1062.17746602 712.882240996L1060.53307188 715.716933281L1059.58624805 719.019992363L1059.3248 722.80108L1060.1979 730.84517L1060.44510781 732.341492344L1060.0609375 733.57105375L1056.6134 736.45941L1052.84135 738.62033375L1052.04474688 738.446529844L1051.5215 737.53195L1050.82551094 733.925261875L1050.7703875 729.1142875L1051.29859531 724.272941875L1052.3526 720.57514L1054.34266543 717.211587129L1056.97418594 714.121137031L1060.21254785 711.32346748L1064.0231375 708.83825625L1068.37134121 706.685181113L1073.22254531 704.883919844L1078.54213613 703.454150215L1084.2955 702.41555L1097.1438 700.18504L1098.385825 700.05514625L1098.8981 700.69914L1099.85138125 701.228412031L1102.769925 701.59835125L1114.855 701.88644L1128.003225 702.20551875L1130.84254375 702.711327969L1132.1867 703.54306L1132.735175 704.553380156L1132.542725 705.68320625L1129.3685 709.4988L1125.1755 713.79792L1124.0889 711.15695L1122.13543438 707.362102344L1120.97839102 706.109192598L1119.535675 705.21068375L1115.29682813 704.251043281L1108.4261 704.03153L1097.9082 704.03153L1096.8517 708.05358L1089.2452 738.82653L1092.5719375 739.24957875L1100.5702 739.42554L1108.78985 739.703375L1110.76942188 740.03975625L1111.2324 740.49808L1108.8137125 741.27891875L1103.9294 741.65013L1092.5583 742.45454L1089.7991125 742.976084063L1088.19395 743.901895L1087.1332125 745.900738438L1086.0073 749.64138L1084.00990625 755.820198281L1081.675575 760.71675375L1078.47525625 765.230582344L1073.8799 770.26122L1067.32 776.96463L1093.3687 776.96463L1112.9197625 776.66371L1121.4921 775.85435L1122.473875 775.094903594L1123.11395 773.97682125L1123.5667 770.11804L1123.66305312 767.50064875L1124.18115 765.9132325L1125.46454687 764.8504075L1127.8568 763.80679L1131.588075 762.65404375L1132.07147187 763.178847344L1132.147 764.52358L1131.08240469 767.51861875L1128.2654625 771.36655L1124.26143906 775.41314125L1119.6356 779.00416L1114.6185 782.32736L1098.4461 782.10996L1068.9639 781.30555L1068.9639 781.30555"
       id="path3095"
       inkscape:connector-curvature="0"
       transform="translate(0,-364.96061)" />
    <path
       style="fill:#ffff00;stroke:#000000;stroke-width:1.07254565"
       d="M918.69121 781.23558L917.420332793 779.019463809L916.729617969 775.656789219L916.592364473 771.366490957L916.98187125 766.36750375L919.234361406 755.119201406L921.043942676 749.307755723L923.27348 743.66336L926.048560156 738.837798281L929.89225625 734.43205375L934.749631719 730.498777344L940.56575 727.09062L945.27875 725.399461875L950.923385 724.487175L957.2389475 724.376068125L963.96473 725.08845L967.1378375 725.97889875L967.170738125 726.742707656L966.42806 728.02956L964.156143438 734.418378594L961.11939 745.94672875L958.398229062 758.159722031L957.07309 766.60247L957.277095938 770.657072031L957.797151602 771.821315996L958.6479875 772.42690875L959.868662461 772.48639041L961.498235313 772.012301094L966.14031 769.51357L970.1070325 767.29581625L972.0611 766.67758L968.7387525 769.47201L960.0196 775.45916L950.346595 781.38574625L947.78622625 782.517068281L946.67908 782.46077L946.43392 779.68116375L946.93726 774.76642L947.48403625 770.0363925L947.34331 767.70089L943.91197125 769.33772875L936.54725 774.15822L928.669441094 779.479433906L923.79658875 782.14375125L922.145260059 782.615033379L920.835057031 782.584642969L918.69121 781.23558L918.69121 781.23558M941.02732 768.83287L947.45770125 764.1042025L948.934212344 762.169615938L949.78313 759.98437L955.18711375 738.47054625L956.129855469 732.847841406L955.90197 730.63736L947.87268 729.16114L942.849053438 729.010799844L939.07764 729.95955375L936.070746562 732.239720781L933.34068 736.08362L930.824589062 741.424157969L928.465865 748.23151125L926.594963437 755.412763906L925.54234 761.875L925.331727637 766.323031621L925.653254219 769.712264219L926.547455254 772.060911895L928.05486625 773.38718875L930.216022715 773.709308887L933.071460156 773.045486406L936.661714082 771.41393541L941.02732 768.83287L941.02732 768.83287"
       id="path3097"
       inkscape:connector-curvature="0"
       transform="translate(0,-364.96061)" />
    <path
       style="fill:#ffff00;stroke:#000000;stroke-width:1.07254565"
       d="M978.22942 779.91413L984.2934475 757.41515875L987.194876875 744.985761406L988.42591 738.2409L988.094796094 735.51061625L987.02190875 733.89274L985.087929531 733.29952875L982.17354 733.64324L979.30927 734.29431L981.70328 732.52238L985.673765312 730.169021719L991.2135375 727.43944375L996.248660937 725.290431406L998.7052 724.67877L998.7645725 726.4184675L998.17632 729.87013L997.51424 734.92829L1005.6662 729.86278L1010.57964844 726.754712812L1014.6623875 724.88246L1017.77880781 724.292407187L1019.7933 725.03094L1019.75865 726.858395L1018.8033 730.37995L1017.1277 734.0895575L1016.30020313 734.436235938L1015.2139 734.04909L1012.65054195 733.138567246L1009.79138063 732.887234844L1006.80732273 733.228764082L1003.869275 734.09682625L1001.14814414 735.425092637L998.814836875 737.147234531L997.040259922 739.196923223L995.99532 741.50783L991.64355 758.19508L987.26337 774.98779L985.75453625 778.3283975L984.554407969 779.330152188L982.88869 780.08238L978.72262 781.1814475L978.109405938 780.846927188L978.22942 779.91413L978.22942 779.91413"
       id="path3099"
       inkscape:connector-curvature="0"
       transform="translate(0,-364.96061)" />
    <path
       style="fill:#ffff00;stroke:#000000;stroke-width:1.07254565"
       d="M833.89816 778.67104L836.44676625 776.70840375L838.92293 775.89209L844.27785 774.77797L846.60622375 774.22679375L847.84511 774.69447L851.4421225 775.68314875L859.19583 776.61299L869.616485937 777.208087969L876.8285125 776.81675125L881.975147812 775.258648906L886.19963 772.35345L889.531658438 768.680020312L892.0395475 764.3200275L893.629245312 759.484538437L894.2067 754.38462L893.956383887 750.889582012L893.148443594 747.857082969L891.784016191 745.288090254L889.86423875 743.18357125L887.39024834 741.54449334L884.363182031 740.371823906L880.784176895 739.666530332L876.65437 739.42958L869.45603 739.42558L868.2783 743.98389L866.112375 751.740075L863.95941 756.64233L861.312228437 760.665585781L857.348525 765.62063875L853.501581562 769.826439844L851.20468 771.60194L851.38512625 770.08261875L852.95521 766.42978L856.417695156 755.376329219L862.28195125 734.34510625L867.850394219 713.271000156L870.42544 702.0889L868.747601875 701.992711406L864.65449 702.57123875L855.24736 704.71143L850.147273281 707.089035469L845.32782625 710.69836125L841.339726094 715.042126406L838.73368 719.62305L837.41540875 725.09981375L837.48358 732.29329L838.07679 740.13689L834.15111 741.65284L829.42102 743.53165L828.8529075 741.46057875L828.61661 735.97163L829.209887031 729.155498281L831.05876625 723.14532875L834.266819844 717.706634844L838.93762 712.60493L843.759748281 708.808226094L849.36554875 705.69372875L856.108392344 703.098034531L864.34165 700.85774L871.94077125 698.82557875L876.94406 697.0275L879.51268625 695.9783175L879.977592969 696.195312187L880.0988 696.89841L880.897507969 698.038592812L883.12031125 698.9385375L886.507228906 699.529163437L890.79828 699.74139L894.642787344 700.072023594L898.38257875 700.99923625L901.725693281 702.425995781L904.38017 704.25527L906.391870176 706.815754922L907.383522656 709.824469375L907.405170371 713.148820391L906.50685625 716.656215L904.738623223 720.214060234L902.150514219 723.689763125L898.792572168 726.950730703L894.71484 729.86437L891.884859531 731.435533125L890.56881125 731.7383675L890.721527344 730.746105625L892.29784 728.43198L894.54795625 724.47894375L896.2291 719.86974L896.906606875 716.129509102L896.9773075 712.759112812L896.453138125 709.778735742L895.346035 707.2085625L893.667934375 705.068777695L891.4307725 703.379565937L888.646485625 702.161111836L885.32701 701.4336L879.33595 701.21927L874.6884325 718.08510875L870.47176 735.9398L871.235063906 736.866818906L873.32154875 737.23495375L876.356549219 737.032111719L879.9654 736.2462L882.398792559 735.84442752L885.230759844 735.860920781L891.45608125 736.97271375L897.372689531 739.229597344L899.81876541 740.677453887L901.71191 742.27959L902.987063437 743.902635781L903.75508 745.72205875L904.23108 751.66982L903.564967344 757.512499531L901.39568125 762.49437125L897.466799531 767.015009844L891.5219 771.47399L883.232644375 776.430035312L879.597159453 778.048968477L875.824485 779.211015L866.437713125 780.511967187L852.21262 781.02793L831.29798 781.45003L833.89816 778.67108L833.89816 778.67104"
       id="path3101"
       inkscape:connector-curvature="0"
       transform="translate(0,-364.96061)" />
    <path
       style="fill:#ffff00;stroke:#000000;stroke-width:1.07254565"
       d="M1132.7808 575.86889L1131.5174875 573.226987344L1129.442675 571.42605875L1126.86645 570.638670781L1124.0989 571.03739L1121.46906562 571.828587344L1120.805075 571.53957375L1122.04979688 570.318870781L1125.1461 568.315L1129.30430156 566.284846094L1132.7320875 565.52494375L1135.50862969 566.032067031L1137.7131 567.80299L1139.24774844 570.386120937L1139.5593625 572.77815L1138.65749531 574.906006562L1136.5517 576.69662L1133.76535 577.94521625L1133.21745312 577.359898906L1132.7808 575.86889L1132.7808 575.86889"
       id="path3103"
       inkscape:connector-curvature="0"
       transform="translate(0,-364.96061)" />
    <path
       style="fill:#ffff00;stroke:#000000;stroke-width:0.29290012"
       d="M1259.3213 657.38751L1259.3213 643.62121L1260.6394 643.62121L1261.9574 643.62121L1261.9574 657.38751L1261.9574 671.15382L1260.6394 671.15382L1259.3213 671.15382L1259.3213 657.38751L1259.3213 657.38751"
       id="path3105"
       inkscape:connector-curvature="0" />
    <path
       style="fill:#ffff00;stroke:#000000;stroke-width:0.29290012"
       d="M1269.8657 657.38751L1269.8657 643.62121L1271.0373 643.62121L1272.2089 643.62121L1272.2089 656.36236L1272.2089 669.10352L1279.2385 669.10352L1286.2681 669.10352L1286.2681 670.12867L1286.2681 671.15382L1278.0669 671.15382L1269.8657 671.15382L1269.8657 657.38751L1269.8657 657.38751"
       id="path3107"
       inkscape:connector-curvature="0" />
    <path
       style="fill:#ffff00;stroke:#000000;stroke-width:0.29290012"
       d="M1289.5418 670.75509L1294.7622 656.97877L1299.888 643.60119L1301.4499 643.68439L1303.0117 643.76759L1308.394 656.89838L1313.9601 670.60853L1313.893875 671.08280875L1312.7337 671.0976L1311.3235 671.0073L1309.669 666.76025L1308.0145 662.51319L1301.5688 662.43449L1295.1231 662.35579L1293.8745 665.80288L1291.999375 670.64013125L1291.44680625 671.128403594L1290.6551 671.15382L1289.5418 670.75509L1289.5418 670.75509M1307.064 660.24033L1305.4211 655.62716L1302.5206 647.57536L1301.1207 644.20701L1300.3597 647.2208L1297.8375 654.93158L1295.9338 660.33866L1301.4989 660.60941L1307.064 660.24033L1307.064 660.24033"
       id="path3109"
       inkscape:connector-curvature="0" />
    <path
       style="fill:#ffff00;stroke:#000000;stroke-width:0.29290012"
       d="M1226.8094 657.38751L1226.8094 643.62121L1227.981 643.62121L1229.1526 643.62121L1229.1526 656.36236L1229.1526 669.10352L1236.3287 669.10352L1243.5047 669.10352L1243.5047 670.12867L1243.5047 671.15382L1235.1571 671.15382L1226.8094 671.15382L1226.8094 657.38751L1226.8094 657.38751"
       id="path3111"
       inkscape:connector-curvature="0" />
    <path
       style="fill:#ffff00;stroke:#000000;stroke-width:0.29290012"
       d="M1203.4401 670.89281L1199.45846562 668.611027031L1196.591125 665.06885125L1195.01022187 660.577177344L1194.8879 655.4469L1195.52414531 652.339561562L1196.6064625 649.671575L1198.13564844 647.441453437L1200.1125 645.64771L1203.52796094 643.971140938L1207.3819375 643.32984L1211.26064531 643.736371563L1214.7503 645.2033L1216.647175 646.748174219L1218.277125 648.75653625L1219.5492125 651.092237656L1220.3725 653.61913L1220.5943625 658.582L1219.8146 663.27589L1218.4824125 665.892388906L1216.6895 668.06290125L1214.4873875 669.737815469L1211.9276 670.86752L1207.5715 671.44392625L1203.4401 670.89282L1203.4401 670.89282L1203.4401 670.89281M1211.7728 668.81965L1214.55371719 667.085639219L1216.5098875 664.68397375L1217.66916406 661.565336406L1218.0594 657.68041L1217.64324219 653.393671094L1216.3601875 649.98352375L1214.20786406 647.445864531L1211.1839 645.77659L1207.60815 645.34016L1203.9037 645.95703L1201.42902656 647.304845625L1199.5482125 649.286805L1198.24386719 651.928119375L1197.4986 655.254L1197.34489785 658.384341191L1197.69627031 661.224343906L1198.51717324 663.727450605L1199.7720625 665.84710375L1201.42539395 667.536745801L1203.44162344 668.749819219L1205.78520684 669.439766465L1208.4206 669.56003L1211.7728 668.81965L1211.7728 668.81965"
       id="path3113"
       inkscape:connector-curvature="0" />
    <path
       style="fill:#ffff00;stroke:#000000;stroke-width:0.29290012"
       d="M1166.4667 670.95098L1171.665 657.16784L1176.8686 643.62121L1178.3797 643.62121L1179.8907 643.62121L1180.7691 645.74473L1191.0756 671.01778L1189.6843 671.15351L1188.293 671.1532L1186.6499 666.83323L1185.0068 662.51326L1178.5483 662.43446L1172.0898 662.35566L1171.6235 663.60602L1170.0326 667.93183L1168.9079 671.00728L1167.6899 671.09738L1166.4667 670.95093L1166.4667 670.95093L1166.4667 670.95098M1184.046 660.31186L1182.3931 655.69868L1179.4902 647.57536L1178.0942 644.20701L1177.3359 647.19883L1172.949 659.80394L1172.6374 660.60941L1178.3417 660.60941L1184.046 660.31186L1184.046 660.31186"
       id="path3115"
       inkscape:connector-curvature="0" />
    <path
       style="fill:#ffff00;stroke:#000000;stroke-width:0.29290012"
       d="M1147.7057 671.0613L1143.99811563 669.175893438L1141.297575 665.98226L1139.70287187 661.653411562L1139.3128 656.36236L1139.94032031 652.102826875L1141.4309875 648.66511L1143.79883594 646.027103125L1147.0579 644.1667L1149.0413875 643.617925L1151.9734 643.48309L1154.9354375 643.60357875L1156.8414 644.2466L1159.6895875 646.14158625L1161.671 648.7327L1162.3643 650.46087L1161.1685 650.79587L1160.1322625 650.7563925L1159.2092 649.39351L1157.86025 647.505448125L1156.2398 646.2440825L1154.222075 645.541515625L1151.6813 645.32985L1147.481275 646.136771875L1145.79781719 647.116437187L1144.40295 648.4668725L1142.51165 652.239954375L1141.8727 657.37582L1142.6552125 663.20649125L1143.62720781 665.395091406L1144.9909 667.10988L1147.5799 668.71258L1149.4487375 669.37290625L1151.6805 669.53326L1153.90195 669.3887725L1155.7004 668.71819L1158.317975 666.74895625L1159.9664 664.03378L1160.4675 662.61097L1161.6281 662.7952L1162.9073 663.09803L1162.0276625 665.310785L1160.2127 668.14406L1157.3242 670.29735L1155.284175 671.15128875L1152.2663 671.36148L1147.7057 671.0613L1147.7057 671.0613"
       id="path3117"
       inkscape:connector-curvature="0" />
    <path
       style="fill:#ffff00;stroke:#000000;stroke-width:0.29290012"
       d="M1092.2127 671.03699L1089.9712 669.1446L1088.4426 667.63902L1088.2676 669.39642L1088.1577625 670.934145L1087.3889 671.15382L1086.5102 671.15382L1086.5102 657.38751L1086.5102 643.62121L1087.5354 643.62121L1088.5605 643.62121L1088.5605 649.18631L1088.7521 654.75141L1089.9245 653.60556L1092.3699875 651.74870875L1095.3851 651.29285L1097.54715625 651.689487344L1099.35075 652.57021125L1100.81271875 653.946664531L1101.9499 655.83049L1102.95489531 659.365472656L1102.9604875 663.04422375L1102.02076094 666.456062969L1100.1898 669.19031L1097.8342 670.88041L1094.980025 671.41926L1092.2127 671.03699L1092.2127 671.03699L1092.2127 671.03699M1097.2406 669.20258L1098.97999844 667.72069L1100.1685875 665.4469725L1100.73773281 662.58201125L1100.6188 659.32639L1100.04077188 656.865869687L1099.07925 655.02718L1097.69135313 653.753502812L1095.8342 652.98802L1093.206875 653.0119025L1090.7468 654.49944L1089.64340938 655.765600625L1088.9243 657.2481775L1088.4317 661.48811L1088.8127375 665.39328375L1090.1081 667.83529L1091.65899688 669.132904531L1093.43015 669.80587125L1095.32340313 669.835369844L1097.2406 669.20258L1097.2406 669.20258L1097.2406 669.20258"
       id="path3119"
       inkscape:connector-curvature="0" />
    <path
       style="fill:#ffff00;stroke:#000000;stroke-width:0.29290012"
       d="M1108.4778 678.79318L1108.3 677.76803L1108.4306875 677.3923375L1109.5747 677.30472L1111.01828906 677.1322775L1112.1432875 676.56226L1113.8346 673.91336L1114.6516 671.86067L1111.0013 662.20766L1107.1508 652.04208L1107.19895 651.6222575L1108.1222 651.52951L1109.2938 651.52951L1110.6679 655.26399L1113.805 664.27066L1115.6634 669.64415L1116.3776 667.59385L1119.5171 658.48589L1122.0378 651.52951L1123.0196 651.52951L1124.0015 651.72723L1114.3034 676.86927L1112.46335 678.77359875L1110.0155 679.35393L1108.751275 679.25490125L1108.4778 678.79318L1108.4778 678.79318"
       id="path3121"
       inkscape:connector-curvature="0" />
    <path
       style="fill:#ffff00;stroke:#000000;stroke-width:0.29290012"
       d="M1023.995 670.85491L1021.325275 669.05353125L1019.385 666.34991L1018.8339125 664.51893125L1018.7089 661.48811L1018.830475 658.40753875L1019.4625 656.50881L1020.79592031 654.306099688L1022.4501625 652.7268925L1024.47514844 651.736326563L1026.9208 651.29954L1030.26846094 651.630634844L1032.9880625 653.03066625L1034.97035781 655.411782031L1036.1061 658.68613L1036.42497813 660.435793438L1035.905675 661.2532125L1028.6215 661.48811L1020.8187 661.48811L1020.9885 663.13328L1021.95159844 666.394651094L1023.9092625 668.70051375L1026.60164531 669.857367031L1029.7689 669.67171L1031.8076375 668.52096375L1033.2019 666.76166L1033.7009125 666.03506125L1034.7025 665.88162L1035.79255 666.25843125L1034.9947 667.97628L1033.70076094 669.547220469L1032.0928625 670.62641125L1030.10563281 671.244721406L1027.6737 671.43302L1023.995 670.85491L1023.995 670.85491L1023.995 670.85491M1033.9292 658.92524L1033.1259375 656.22135875L1031.6977 654.34562L1029.09746406 652.996778281L1026.3115375 652.92561125L1023.79169219 654.043038594L1021.9897 656.25998L1021.0936 658.92524L1020.9374 660.02361L1027.5226 660.02361L1034.1077 660.02361L1033.9292 658.92524L1033.9292 658.92524"
       id="path3123"
       inkscape:connector-curvature="0" />
    <path
       style="fill:#ffff00;stroke:#000000;stroke-width:0.29290012"
       d="M1011.5552 671.07952L1009.9443 669.88815L1009.4060625 668.020445L1009.2369 661.02793L1009.1429 652.99401L1007.8458 652.99401L1006.7516375 652.87945375L1006.5487 652.26176L1006.7537375 651.64341375L1007.8668 651.52951L1009.1848 651.52951L1009.1848 648.9173L1009.1848 646.30508L1010.1713 645.6954L1011.3429 645.08571L1011.528 648.30761L1011.528 651.52951L1013.2854 651.52951L1014.7938375 651.63322875L1015.0428 652.26176L1014.793875 652.89027625L1013.2854 652.99401L1011.528 652.99401L1011.528 660.58815L1011.528 668.1823L1012.2998 668.78936L1014.0516 669.39642L1014.8797125 669.53935875L1015.2189 670.14231L1015.2389 671.05536L1013.6197125 671.33111L1011.5554 671.07946L1011.5554 671.07947L1011.5552 671.07952"
       id="path3125"
       inkscape:connector-curvature="0" />
    <path
       style="fill:#ffff00;stroke:#000000;stroke-width:0.29290012"
       d="M1041.9894 661.34166L1041.9894 651.52951L1042.8681 651.52951L1043.7468 651.52951L1043.7468 653.60766L1043.7468 655.68581L1045.5813 653.78703L1048.155275 651.74857875L1051.0693 651.23988L1053.2053625 651.523572656L1055.0118 652.32618375L1056.3762625 653.575012969L1057.1864 655.19736L1057.5115 663.75809L1057.5115 671.15382L1056.3399 671.15382L1055.1683 671.15382L1055.1679 663.75809L1055.0793 657.463805L1054.6553 655.35803L1053.166725 653.6729625L1050.6985 653.05528L1048.9146375 653.110805L1047.2885 653.77428L1045.72268438 654.785578594L1044.87595 656.27415375L1044.3897 664.05099L1044.3017 671.15382L1043.1447 671.15382L1041.9876 671.15382L1041.9876 661.34166L1041.9894 661.34166"
       id="path3127"
       inkscape:connector-curvature="0" />
    <path
       style="fill:#ffff00;stroke:#000000;stroke-width:0.29290012"
       d="M1067.3091 671.14896L1065.6982 670.11197L1064.9821 669.35019L1064.8881 661.1721L1064.7941 652.99401L1063.4967 652.99401L1062.402275 652.87945375L1062.1993 652.26176L1062.4043375 651.64341375L1063.5174 651.52951L1064.8354 651.52951L1064.8354 648.9173L1064.8354 646.30508L1065.8219 645.6954L1066.9935 645.08571L1067.1786 648.30761L1067.1786 651.52951L1068.936 651.52951L1070.4444375 651.63322875L1070.6934 652.26176L1070.444475 652.89027625L1068.936 652.99401L1067.1786 652.99401L1067.1786 660.58815L1067.1786 668.1823L1067.9504 668.78936L1069.7022 669.39642L1070.5303125 669.53935875L1070.8695 670.14231L1070.8895 671.05536L1069.3218 671.32228875L1067.3089 671.14896L1067.3091 671.14896"
       id="path3131"
       inkscape:connector-curvature="0" />
    <path
       style="fill:#ffff00;stroke:#000000;stroke-width:0.29290012"
       d="M968.67732 671.02426L966.700286875 670.040889063L965.0965175 668.655625L963.907809375 666.915250937L963.17596 664.86655L962.96314125 660.22015625L963.78497 656.10024L965.058898281 654.121543594L966.72776625 652.66602375L968.801366094 651.727417031L971.28949 651.29946L973.961345156 651.476703125L976.31888375 652.348375L978.298165469 653.879056875L979.83525 656.03333L980.5095525 657.8758375L980.62686 661.34166L980.50571125 664.83414625L979.80587 666.82121L978.452072031 668.787051406L976.60961625 670.24023875L974.354692344 671.137074219L971.76349 671.43386L968.67732 671.02426L968.67732 671.02426L968.67732 671.02426M973.77323 669.64887L976.54158875 667.86195625L978.16172 664.89392L978.45934 661.07409125L978.00213 657.40763L977.014545 655.446370312L975.6502575 654.034525L973.92133875 653.180934687L971.83986 652.89444L969.969108281 653.119024531L968.36655375 653.78853625L967.042667344 654.896612344L966.00792 656.43689L965.364681875 658.636634844L965.1732325 661.41377375L965.427256875 664.206248281L966.12044 666.452L967.505538594 668.259786094L969.38921375 669.45639625L971.551699531 669.950025781L973.77323 669.64887L973.77323 669.64887"
       id="path3133"
       inkscape:connector-curvature="0" />
    <path
       style="fill:#ffff00;stroke:#000000;stroke-width:0.29290012"
       d="M986.33841 661.34166L986.33841 651.52951L987.21711 651.52951L988.09581 651.52951L988.09581 653.57981L988.31549 655.60832L989.70677 654.09655L991.98545625 652.075815L994.82032 651.2942L996.998025156 651.384158594L998.83328125 651.97788375L1000.28487672 653.054427031L1001.3116 654.59284L1001.7605 656.86351375L1001.8557 663.46519L1001.8657 671.15382L1000.8733 671.15382L999.88091 671.15382L999.76751 663.90454L999.57791 657.6546775L999.07571 655.50256L997.57198625 653.71051375L995.13443 653.05111L993.39612375 653.0950975L991.73182 653.72755L990.2576625 654.65591375L989.39 656.03262L988.7875425 658.27059875L988.68808 664.34389L988.68508 671.15382L987.51348 671.15382L986.34188 671.15382L986.34188 661.34166L986.33841 661.34166"
       id="path3135"
       inkscape:connector-curvature="0" />
    <path
       style="fill:#ffff00;stroke:#000000;stroke-width:0.29290012"
       d="M948.70075 671.08725L946.109534375 669.543274531L944.258265 667.10567125L943.225470625 663.927354844L943.08968 660.16124L943.867134531 656.517455469L945.49063875 653.81063375L947.937663594 652.065415156L951.18568 651.30644L954.22530125 651.5084275L956.71761 652.70733L958.5757975 654.86180625L958.970127187 655.896785156L958.79837 656.51961L957.6358525 656.77929125L956.89167 656.18353L955.66877 654.42892L953.60288625 653.0381825L951.08419 652.86249L948.407067656 653.839302344L946.57176875 655.74443375L945.572245469 658.588015781L945.40245 662.38018L946.0775225 666.01786125L947.74807 668.41349L950.2783325 669.764618594L952.95588 669.83836875L955.3179925 668.729757031L956.90195 666.5338L957.56173625 665.22084625L958.60586 665.00617L959.5176575 665.10662875L959.52464 665.66194L957.65344125 669.0025575L956.284348906 670.230469375L954.73162 671.04512L951.69923875 671.39901625L948.70075 671.08722L948.70075 671.08725"
       id="path3137"
       inkscape:connector-curvature="0" />
    <path
       style="fill:#ffff00;stroke:#000000;stroke-width:0.29290012"
       d="M923.92937 657.38751L923.92937 643.62121L925.10097 643.62121L926.27257 643.62121L926.27257 657.38751L926.27257 671.15382L925.10097 671.15382L923.92937 671.15382L923.92937 657.38751L923.92937 657.38751"
       id="path3139"
       inkscape:connector-curvature="0" />
    <path
       style="fill:#ffff00;stroke:#000000;stroke-width:0.29290012"
       d="M904.09336 671.13773L902.061425 669.71027125L900.84162 667.45566L900.95313875 664.51036875L902.62612 662.25237L904.74494875 661.13978375L909.03985 660.31999L914.04188 659.3819L915.21339 659.03091L915.05514 657.28567L914.564513906 655.274637813L913.47847125 653.8998775L911.738070469 653.116383438L909.28437 652.87915L907.288231094 653.085039219L905.70246875 653.65954125L904.556474531 654.586507656L903.87964 655.84979L903.4926625 656.381905L902.50819 656.50881L901.55019625 656.407755L901.54357 655.85667L902.6316875 653.877771094L904.4429325 652.42929375L906.92542375 651.539489531L910.02728 651.23661L912.74267625 651.503963125L914.8733575 652.27244L916.32845 653.491666875L917.01708 655.11127L917.31181 662.65971L917.74541 670.20189L918.03048 671.15382L916.88278 671.15382L915.86921875 670.99689375L915.5542 670.02261L915.02859625 668.439525L913.77844 669.01827L910.84030125 670.79344625L907.52696 671.34295L904.09336 671.13773L904.09336 671.13773M912.0743 668.95445L913.320230625 667.966500156L914.1930325 666.72301875L915.04314 663.02209L914.9745075 660.7340475L913.47726 660.92561L909.08512 661.92952L905.1544075 662.88775875L903.70468 664.21613L903.173569219 665.605247344L903.21196625 666.99530125L903.794332656 668.276397031L904.89513 669.33864L906.1418775 669.89818375L908.28264 669.93323L910.4803225 669.69513125L912.0743 668.95445L912.0743 668.95445L912.0743 668.95445"
       id="path3141"
       inkscape:connector-curvature="0" />
    <path
       style="fill:#ffff00;stroke:#000000;stroke-width:0.29290012"
       d="M879.40855 661.34166L879.40855 651.52951L880.42087 651.52951L881.43319 651.52951L881.51929 653.64807L881.60539 655.76664L882.71278 654.25558L884.626411406 652.409197031L886.94522375 651.39414125L889.475631719 651.256429844L892.02405 652.04208L893.4482075 652.974795L894.34429 654.31206L894.99074875 656.6110925L895.18129 663.46519L895.28831 671.15382L894.10318 671.15382L892.91805 671.15382L892.82685 663.61164L892.66002 657.137945L892.17621 655.14514L890.376487188 653.5600425L887.8930025 653.0001275L885.296354063 653.47495375L883.15714 654.99408L882.456274688 656.178562187L882.02669 657.9711125L881.75187 665.01733L881.75187 671.15382L880.58027 671.15382L879.40867 671.15382L879.40867 661.34166L879.40855 661.34166"
       id="path3143"
       inkscape:connector-curvature="0" />
    <path
       style="fill:#ffff00;stroke:#000000;stroke-width:0.29290012"
       d="M870.62155 661.34166L870.62155 651.52951L871.79315 651.52951L872.96475 651.52951L872.96475 661.34166L872.96475 671.15382L871.79315 671.15382L870.62155 671.15382L870.62155 661.34166L870.62155 661.34166"
       id="path3145"
       inkscape:connector-curvature="0" />
    <path
       style="fill:#ffff00;stroke:#000000;stroke-width:0.29290012"
       d="M853.48689 679.32747L851.25457125 678.7988825L849.54963 677.71333L848.33074125 676.2049125L847.77534 674.67803L848.77637 674.37572L849.6955225 674.567955L850.31409 675.46594L851.81615 677.1117L854.71682125 677.8201275L857.94462 677.47848L859.607981563 676.658989844L860.7168625 675.37583375L861.385879688 673.420218281L861.72965 670.58335L861.65455 667.63902L860.10575 668.96059L858.296780313 670.317294375L856.21875 670.991705L853.973552187 670.968473125L851.66308 670.23225L849.980015137 669.036462012L848.666320469 667.312952344L847.740003379 665.202119941L847.21907125 662.84436375L847.121531465 660.380082715L847.465391406 657.949675781L848.268658457 655.693541895L849.54934 653.75208L851.7899675 652.0441125L854.68071 651.30744L857.728365 651.623695L860.43969 653.52365L862.12742 655.13348L862.12742 653.3315L862.12742 651.52951L863.00613 651.52951L863.88483 651.52951L863.88483 662.1672L863.7974375 671.12006375L863.41549 674.39578L862.096950625 676.782884531L859.870345 678.46626125L856.934156875 679.347319844L853.48687 679.32747L853.48689 679.32747M857.84601 669.11659L859.9694375 667.55417L861.43018 665.20428L861.94165125 661.4369225L861.57416 657.61945L860.233725 655.17098375L858.21712 653.37837L856.18829375 652.856582969L854.01699 653.13972875L852.03822625 654.125382656L850.58702 655.71112L849.56722875 658.659041406L849.3868075 662.05781125L850.0022225 665.247985469L851.36994 667.57012L853.19399 668.93745L855.46633 669.37838375L857.84601 669.11659L857.84601 669.11659"
       id="path3147"
       inkscape:connector-curvature="0" />
    <path
       style="fill:#ffff00;stroke:#000000;stroke-width:0.29290012"
       d="M870.62155 645.08571L870.62155 643.62121L871.79315 643.62121L872.96475 643.62121L872.96475 645.08571L872.96475 646.55021L871.79315 646.55021L870.62155 646.55021L870.62155 645.08571L870.62155 645.08571"
       id="path3149"
       inkscape:connector-curvature="0" />
    <path
       style="fill:#ffff00;stroke:#000000;stroke-width:0.29290012"
       d="M839.57414 645.08571L839.57414 643.62121L840.59929 643.62121L841.62444 643.62121L841.62444 645.08571L841.62444 646.55021L840.59929 646.55021L839.57414 646.55021L839.57414 645.08571L839.57414 645.08571"
       id="path3151"
       inkscape:connector-curvature="0" />
    <path
       style="fill:#ffff00;stroke:#000000;stroke-width:0.29290012"
       d="M839.57414 661.34166L839.57414 651.52951L840.59929 651.52951L841.62444 651.52951L841.62444 661.34166L841.62444 671.15382L840.59929 671.15382L839.57414 671.15382L839.57414 661.34166L839.57414 661.34166"
       id="path3153"
       inkscape:connector-curvature="0" />
    <path
       style="fill:#ffff00;stroke:#000000;stroke-width:0.29290012"
       d="M826.10073 661.34166L826.10073 651.52951L826.96758 651.52951L827.83444 651.52951L827.91954 653.94594L828.00464 656.36236L829.11404 654.54849L830.468838437 652.652882031L831.7806225 651.57210875L833.191627812 651.231943594L834.84409 651.55816L835.7013175 652.0640075L835.45936 653.05473L834.871565 653.62053625L833.09436 653.72753L831.18332875 653.87264875L830.05454 654.79698L828.73542 656.99373L828.23446 664.63679L828.07066 671.15382L827.08572 671.15382L826.10079 671.15382L826.10079 661.34166L826.10073 661.34166"
       id="path3155"
       inkscape:connector-curvature="0" />
    <path
       style="fill:#ffff00;stroke:#000000;stroke-width:0.29290012"
       d="M802.96162 670.84735L798.9967325 668.573714062L796.19496 665.11979L794.6621125 660.678303438L794.504 655.44198L795.830543906 650.428651875L797.028995527 648.358548281L798.55046125 646.6113075L800.369611816 645.210796406L802.461117969 644.180881875L804.799650449 643.545430781L807.35988 643.32831L811.01161875 643.794255313L814.2099525 645.145195L816.83832 647.310784688L818.78016 650.22068L819.96134375 653.59716125L820.2916 657.58709L819.710266719 662.250863125L818.00144625 666.09687L815.242432656 669.008196875L811.51052 670.86793L807.11581875 671.44710375L802.96162 670.84733L802.96162 670.84735M811.76172 668.63471L814.618753906 666.594225469L816.60761125 663.53926375L817.636642969 659.679812656L817.6142 655.22586L816.478885938 651.034293125L814.30443 647.92075L811.195976563 645.985711875L807.25867 645.32966L803.757617813 645.8832875L800.8652675 647.442125L798.718150938 649.89743L797.4528 653.14046L796.98181375 658.87396875L797.348952656 661.454295781L798.11063 663.72754L800.490478594 667.010730312L803.82064375 669.0170625L807.708574531 669.605425937L811.76172 668.63471L811.76172 668.63471"
       id="path3157"
       inkscape:connector-curvature="0" />
    <path
       style="fill:#ffff00;stroke:#000000;stroke-width:0.29290012"
       d="M1426.5192 677.8173L1428.6734625 672.94059625L1430.2026 667.61957L1430.6932875 664.32427625L1430.6796 660.17006L1430.34182969 656.053826406L1429.6016375 652.34455125L1428.40745156 648.850167969L1426.7077 645.37861L1425.8581625 643.661105L1426.242 643.32831L1428.0332375 645.43361875L1430.497 649.87763L1432.4839 655.33349875L1432.9699 661.34166L1432.846375 665.36011875L1432.2946 668.07837L1429.1049625 675.5351425L1427.30658906 678.467176875L1426.033 679.64792L1425.787175 679.3204975L1426.5192 677.8173L1426.5192 677.8173"
       id="path3159"
       inkscape:connector-curvature="0" />
    <path
       style="fill:#ffff00;stroke:#000000;stroke-width:0.29290012"
       d="M1410.5415 670.34834L1406.8875 660.72629L1403.5363 651.70193L1404.6312 651.58505L1405.726 651.67595L1408.2757 658.852L1411.3108 667.74151L1412.0162 669.20602L1413.3089 665.73516L1416.3606 657.0946L1418.3397 651.67595L1419.4711 651.58275L1420.3733625 651.59664375L1420.3955 652.0221L1416.8644 661.34168L1413.3399 670.64126L1411.9918 671.15384L1410.995225 671.009895L1410.5415 670.34836L1410.5415 670.34834"
       id="path3161"
       inkscape:connector-curvature="0" />
    <path
       style="fill:#ffff00;stroke:#000000;stroke-width:0.29290012"
       d="M1396.2138 661.34166L1396.2138 651.52951L1397.3854 651.52951L1398.557 651.52951L1398.557 661.34166L1398.557 671.15382L1397.3854 671.15382L1396.2138 671.15382L1396.2138 661.34166L1396.2138 661.34166"
       id="path3163"
       inkscape:connector-curvature="0" />
    <path
       style="fill:#ffff00;stroke:#000000;stroke-width:0.29290012"
       d="M1374.8321 670.97473L1378.2004 666.02185L1381.5688 660.96665L1376.3946 653.36013L1375.0954 651.52951L1376.5015 651.53005L1377.9075 651.53058L1380.2752 655.24826L1382.9113 659.03862L1385.8158 655.3239L1388.4519 651.5365L1389.7326 651.5325L1390.6805 651.60745375L1390.7284 651.89513L1384.4002 660.75675L1390.5735 669.76204L1391.5773 671.15332L1390.2354 671.15332L1388.8935 671.15332L1386.0639 666.90627L1383.0333 662.65921L1380.0027 666.90627L1377.1731 671.15332L1376.0026 671.15332L1374.8321 670.97423L1374.8321 670.97473"
       id="path3165"
       inkscape:connector-curvature="0" />
    <path
       style="fill:#ffff00;stroke:#000000;stroke-width:0.29290012"
       d="M1367.5096 661.34166L1367.5096 651.52951L1368.5347 651.52951L1369.5599 651.52951L1369.5599 661.34166L1369.5599 671.15382L1368.5347 671.15382L1367.5096 671.15382L1367.5096 661.34166L1367.5096 661.34166"
       id="path3167"
       inkscape:connector-curvature="0" />
    <path
       style="fill:#ffff00;stroke:#000000;stroke-width:0.29290012"
       d="M1341.1486 657.38751L1341.1486 643.62121L1346.3475 643.62621L1354.1903375 643.92119125L1358.1247 644.96075L1359.74179219 646.182804688L1360.8703625 647.80349L1361.49127656 649.783447812L1361.5854 652.08332L1361.1900625 654.267654531L1360.33025 656.05738125L1358.9795625 657.490979844L1357.1116 658.60693L1354.9399625 659.18469375L1349.7159 659.38496L1343.7847 659.49776L1343.7847 665.32569L1343.7847 671.15362L1342.4666 671.15362L1341.1486 671.15362L1341.1486 657.38731L1341.1486 657.38751M1356.2219 656.50162L1357.42233691 655.627304277L1358.29740156 654.468529844L1359.0592875 651.66548125L1358.48330469 648.828227031L1357.6860334 647.626695566L1356.5452 646.69252L1354.6931 646.0626875L1349.5437 645.96441L1343.7847 645.96441L1343.7847 651.7034L1343.7847 657.44238L1349.2853 657.34172L1354.1958875 657.14835L1356.2219 656.50162L1356.2219 656.50162"
       id="path3169"
       inkscape:connector-curvature="0" />
    <path
       style="fill:#ffff00;stroke:#000000;stroke-width:0.29290012"
       d="M1332.6306 677.85542L1329.912025 672.8683675L1327.9238 667.63902L1327.240925 661.282795L1327.9238 654.96119L1329.22995625 651.33805125L1331.064075 647.5433125L1332.89995625 644.5502375L1334.2114 643.33209L1334.4026 643.7731475L1333.4349 645.74473L1331.67207031 649.485435781L1330.4866375 653.19541125L1329.82003594 657.115891094L1329.6137 661.48811L1329.7491375 665.44718125L1330.2964 668.51772L1331.7047375 673.09719375L1333.6095 677.38899L1334.6577 679.42825L1334.3046 679.64792L1332.6345 677.85542L1332.6306 677.85542"
       id="path3171"
       inkscape:connector-curvature="0" />
    <path
       style="fill:#ffff00;stroke:#000000;stroke-width:0.29290012"
       d="M1367.5096 645.08571L1367.5096 643.62121L1368.5347 643.62121L1369.5599 643.62121L1369.5599 645.08571L1369.5599 646.55021L1368.5347 646.55021L1367.5096 646.55021L1367.5096 645.08571L1367.5096 645.08571"
       id="path3173"
       inkscape:connector-curvature="0" />
    <path
       style="fill:#ffff00;stroke:#000000;stroke-width:0.29290012"
       d="M1396.2138 645.08571L1396.2138 643.62121L1397.3854 643.62121L1398.557 643.62121L1398.557 645.08571L1398.557 646.55021L1397.3854 646.55021L1396.2138 646.55021L1396.2138 645.08571L1396.2138 645.08571"
       id="path3175"
       inkscape:connector-curvature="0" />
  </g>
</svg>
