999
dxflib 2.2.0.0
  0
SECTION
  2
HEADER
  9
$ACADVER
  1
AC1015
  9
$HANDSEED
  5
FFFF
  9
$TEXTSIZE
 40
20.0
  9
$CHAMFERA
 40
10.0
  9
$CHAMFERB
 40
10.0
  9
$DIMEXE
 40
1.25
  9
$LIMMAX
 10
420.0
 20
297.0
  9
$INSUNITS
 70
4
  9
$PLINEGEN
 70
0
  9
$DIMASZ
 40
2.5
  9
$DIMGAP
 40
0.625
  9
$DIMTXT
 40
2.5
  9
$GRIDUNIT
 10
10.0
 20
10.0
  9
$LIMMIN
 10
0.0
 20
0.0
  9
$ANGDIR
 70
0
  9
$DIMEXO
 40
0.625
  9
$EXTMAX
 10
363.2505321080647036
 20
294.4753714995920291
 30
0.0
  9
$CLAYER
  8
Layer_1
  9
$LTSCALE
 40
10.0
  9
$PLIMMIN
 10
0.0
 20
0.0
  9
$SNAPUNIT
 10
1.0
 20
1.0
 30
0.0
  9
$EXTMIN
 10
4.7643118491118059
 20
132.7906455883853027
 30
0.0
  9
$PLIMMAX
 10
210.0
 20
297.0
  9
$DIMSTYLE
  2
Standard
  0
ENDSEC
  0
SECTION
  2
TABLES
  0
TABLE
  2
VPORT
  5
8
100
AcDbSymbolTable
 70
1
  0
VPORT
  5
30
100
AcDbSymbolTableRecord
100
AcDbViewportTableRecord
  2
*Active
 70
0
 10
0.0
 20
0.0
 11
1.0
 21
1.0
 12
286.3055555555554861
 22
148.5
 13
0.0
 23
0.0
 14
10.0
 24
10.0
 15
10.0
 25
10.0
 16
0.0
 26
0.0
 36
1.0
 17
0.0
 27
0.0
 37
0.0
 40
297.0
 41
1.92798353909465
 42
50.0
 43
0.0
 44
0.0
 50
0.0
 51
0.0
 71
0
 72
100
 73
1
 74
3
 75
1
 76
1
 77
0
 78
0
281
0
 65
1
110
0.0
120
0.0
130
0.0
111
1.0
121
0.0
131
0.0
112
0.0
122
1.0
132
0.0
 79
0
146
0.0
  0
ENDTAB
  0
TABLE
  2
LTYPE
  5
5
100
AcDbSymbolTable
 70
21
  0
LTYPE
  5
14
100
AcDbSymbolTableRecord
100
AcDbLinetypeTableRecord
  2
ByBlock
 70
0
  3

 72
65
 73
0
 40
0.0
  0
LTYPE
  5
15
100
AcDbSymbolTableRecord
100
AcDbLinetypeTableRecord
  2
ByLayer
 70
0
  3

 72
65
 73
0
 40
0.0
  0
LTYPE
  5
16
100
AcDbSymbolTableRecord
100
AcDbLinetypeTableRecord
  2
CONTINUOUS
 70
0
  3
Solid line
 72
65
 73
0
 40
0.0
  0
LTYPE
  5
31
100
AcDbSymbolTableRecord
100
AcDbLinetypeTableRecord
  2
DOT
 70
0
  3
Dot . . . . . . . . . . . . . . . . . . . . . .
 72
65
 73
2
 40
6.3499999999999996
 49
0.0
 74
0
 49
-6.3499999999999996
 74
0
  0
LTYPE
  5
32
100
AcDbSymbolTableRecord
100
AcDbLinetypeTableRecord
  2
DOT2
 70
0
  3
Dot (.5x) .....................................
 72
65
 73
2
 40
3.1749999999999998
 49
0.0
 74
0
 49
-3.1749999999999998
 74
0
  0
LTYPE
  5
33
100
AcDbSymbolTableRecord
100
AcDbLinetypeTableRecord
  2
DOTX2
 70
0
  3
Dot (2x) .  .  .  .  .  .  .  .  .  .  .  .  .
 72
65
 73
2
 40
12.6999999999999993
 49
0.0
 74
0
 49
-12.6999999999999993
 74
0
  0
LTYPE
  5
34
100
AcDbSymbolTableRecord
100
AcDbLinetypeTableRecord
  2
DASHED
 70
0
  3
Dashed __ __ __ __ __ __ __ __ __ __ __ __ __ _
 72
65
 73
2
 40
19.0500000000000007
 49
12.6999999999999993
 74
0
 49
-6.3499999999999996
 74
0
  0
LTYPE
  5
35
100
AcDbSymbolTableRecord
100
AcDbLinetypeTableRecord
  2
DASHED2
 70
0
  3
Dashed (.5x) _ _ _ _ _ _ _ _ _ _ _ _ _ _ _ _ _
 72
65
 73
2
 40
9.5250000000000004
 49
6.3499999999999996
 74
0
 49
-3.1749999999999998
 74
0
  0
LTYPE
  5
36
100
AcDbSymbolTableRecord
100
AcDbLinetypeTableRecord
  2
DASHEDX2
 70
0
  3
Dashed (2x) ____  ____  ____  ____  ____  ___
 72
65
 73
2
 40
38.1000000000000014
 49
25.3999999999999986
 74
0
 49
-12.6999999999999993
 74
0
  0
LTYPE
  5
37
100
AcDbSymbolTableRecord
100
AcDbLinetypeTableRecord
  2
DASHDOT
 70
0
  3
Dash dot __ . __ . __ . __ . __ . __ . __ . __
 72
65
 73
4
 40
25.3999999999999986
 49
12.6999999999999993
 74
0
 49
-6.3499999999999996
 74
0
 49
0.0
 74
0
 49
-6.3499999999999996
 74
0
  0
LTYPE
  5
38
100
AcDbSymbolTableRecord
100
AcDbLinetypeTableRecord
  2
DASHDOT2
 70
0
  3
Dash dot (.5x) _._._._._._._._._._._._._._._.
 72
65
 73
4
 40
12.6999999999999993
 49
6.3499999999999996
 74
0
 49
-3.1749999999999998
 74
0
 49
0.0
 74
0
 49
-3.1749999999999998
 74
0
  0
LTYPE
  5
39
100
AcDbSymbolTableRecord
100
AcDbLinetypeTableRecord
  2
DASHDOTX2
 70
0
  3
Dash dot (2x) ____  .  ____  .  ____  .  ___
 72
65
 73
4
 40
50.7999999999999972
 49
25.3999999999999986
 74
0
 49
-12.6999999999999993
 74
0
 49
0.0
 74
0
 49
-12.6999999999999993
 74
0
  0
LTYPE
  5
3A
100
AcDbSymbolTableRecord
100
AcDbLinetypeTableRecord
  2
DIVIDE
 70
0
  3
Divide ____ . . ____ . . ____ . . ____ . . ____
 72
65
 73
6
 40
31.75
 49
12.6999999999999993
 74
0
 49
-6.3499999999999996
 74
0
 49
0.0
 74
0
 49
-6.3499999999999996
 74
0
 49
0.0
 74
0
 49
-6.3499999999999996
 74
0
  0
LTYPE
  5
3B
100
AcDbSymbolTableRecord
100
AcDbLinetypeTableRecord
  2
DIVIDE2
 70
0
  3
Divide (.5x) __..__..__..__..__..__..__..__.._
 72
65
 73
6
 40
15.875
 49
6.3499999999999996
 74
0
 49
-3.1749999999999998
 74
0
 49
0.0
 74
0
 49
-3.1749999999999998
 74
0
 49
0.0
 74
0
 49
-3.1749999999999998
 74
0
  0
LTYPE
  5
3C
100
AcDbSymbolTableRecord
100
AcDbLinetypeTableRecord
  2
DIVIDEX2
 70
0
  3
Divide (2x) ________  .  .  ________  .  .  _
 72
65
 73
6
 40
63.5
 49
25.3999999999999986
 74
0
 49
-12.6999999999999993
 74
0
 49
0.0
 74
0
 49
-12.6999999999999993
 74
0
 49
0.0
 74
0
 49
-12.6999999999999993
 74
0
  0
LTYPE
  5
3D
100
AcDbSymbolTableRecord
100
AcDbLinetypeTableRecord
  2
CENTER
 70
0
  3
Center ____ _ ____ _ ____ _ ____ _ ____ _ ____
 72
65
 73
4
 40
50.7999999999999972
 49
31.75
 74
0
 49
-6.3499999999999996
 74
0
 49
6.3499999999999996
 74
0
 49
-6.3499999999999996
 74
0
  0
LTYPE
  5
3E
100
AcDbSymbolTableRecord
100
AcDbLinetypeTableRecord
  2
CENTER2
 70
0
  3
Center (.5x) ___ _ ___ _ ___ _ ___ _ ___ _ ___
 72
65
 73
4
 40
28.5749999999999993
 49
19.0500000000000007
 74
0
 49
-3.1749999999999998
 74
0
 49
3.1749999999999998
 74
0
 49
-3.1749999999999998
 74
0
  0
LTYPE
  5
3F
100
AcDbSymbolTableRecord
100
AcDbLinetypeTableRecord
  2
CENTERX2
 70
0
  3
Center (2x) ________  __  ________  __  _____
 72
65
 73
4
 40
101.5999999999999943
 49
63.5
 74
0
 49
-12.6999999999999993
 74
0
 49
12.6999999999999993
 74
0
 49
-12.6999999999999993
 74
0
  0
LTYPE
  5
40
100
AcDbSymbolTableRecord
100
AcDbLinetypeTableRecord
  2
BORDER
 70
0
  3
Border __ __ . __ __ . __ __ . __ __ . __ __ .
 72
65
 73
6
 40
44.4500000000000028
 49
12.6999999999999993
 74
0
 49
-6.3499999999999996
 74
0
 49
12.6999999999999993
 74
0
 49
-6.3499999999999996
 74
0
 49
0.0
 74
0
 49
-6.3499999999999996
 74
0
  0
LTYPE
  5
41
100
AcDbSymbolTableRecord
100
AcDbLinetypeTableRecord
  2
BORDER2
 70
0
  3
Border (.5x) __.__.__.__.__.__.__.__.__.__.__.
 72
65
 73
6
 40
22.2250000000000014
 49
6.3499999999999996
 74
0
 49
-3.1749999999999998
 74
0
 49
6.3499999999999996
 74
0
 49
-3.1749999999999998
 74
0
 49
0.0
 74
0
 49
-3.1749999999999998
 74
0
  0
LTYPE
  5
42
100
AcDbSymbolTableRecord
100
AcDbLinetypeTableRecord
  2
BORDERX2
 70
0
  3
Border (2x) ____  ____  .  ____  ____  .  ___
 72
65
 73
6
 40
88.9000000000000057
 49
25.3999999999999986
 74
0
 49
-12.6999999999999993
 74
0
 49
25.3999999999999986
 74
0
 49
-12.6999999999999993
 74
0
 49
0.0
 74
0
 49
-12.6999999999999993
 74
0
  0
ENDTAB
  0
TABLE
  2
LAYER
  5
2
100
AcDbSymbolTable
 70
1
  0
LAYER
  5
10
100
AcDbSymbolTableRecord
100
AcDbLayerTableRecord
  2
0
 70
0
 62
7
  6
CONTINUOUS
370
0
390
F
  0
ENDTAB
  0
TABLE
  2
STYLE
  5
3
100
AcDbSymbolTable
 70
1
  0
STYLE
  5
11
100
AcDbSymbolTableRecord
100
AcDbTextStyleTableRecord
  2
Standard
 70
0
 40
0.0
 41
0.75
 50
0.0
 71
0
 42
2.5
  3
txt
  4

  0
ENDTAB
  0
TABLE
  2
VIEW
  5
6
100
AcDbSymbolTable
 70
0
  0
ENDTAB
  0
TABLE
  2
UCS
  5
7
100
AcDbSymbolTable
 70
0
  0
ENDTAB
  0
TABLE
  2
APPID
  5
9
100
AcDbSymbolTable
 70
1
  0
APPID
  5
12
100
AcDbSymbolTableRecord
100
AcDbRegAppTableRecord
  2
ACAD
 70
0
  0
ENDTAB
  0
TABLE
  2
DIMSTYLE
  5
A
100
AcDbSymbolTable
 70
1
100
AcDbDimStyleTable
 71
0
  0
DIMSTYLE
105
27
100
AcDbSymbolTableRecord
100
AcDbDimStyleTableRecord
  2
Standard
 41
2.5
 42
0.625
 43
3.75
 44
1.25
 70
0
 73
0
 74
0
 77
1
 78
8
140
2.5
141
2.5
143
0.03937007874016
147
0.625
171
3
172
1
271
2
272
2
274
3
278
44
283
0
284
8
340
11
  0
ENDTAB
  0
TABLE
  2
BLOCK_RECORD
  5
1
100
AcDbSymbolTable
 70
1
  0
BLOCK_RECORD
  5
1F
100
AcDbSymbolTableRecord
100
AcDbBlockTableRecord
  2
*Model_Space
340
22
  0
BLOCK_RECORD
  5
1B
100
AcDbSymbolTableRecord
100
AcDbBlockTableRecord
  2
*Paper_Space
340
1E
  0
BLOCK_RECORD
  5
23
100
AcDbSymbolTableRecord
100
AcDbBlockTableRecord
  2
*Paper_Space0
340
26
  0
ENDTAB
  0
ENDSEC
  0
SECTION
  2
BLOCKS
  0
BLOCK
  5
20
100
AcDbEntity
  8
0
100
AcDbBlockBegin
  2
*Model_Space
 70
0
 10
0.0
 20
0.0
 30
0.0
  3
*Model_Space
  1

  0
ENDBLK
  5
21
100
AcDbEntity
  8
0
100
AcDbBlockEnd
  0
BLOCK
  5
1C
100
AcDbEntity
 67
1
  8
0
100
AcDbBlockBegin
  2
*Paper_Space
 70
0
 10
0.0
 20
0.0
 30
0.0
  3
*Paper_Space
  1

  0
ENDBLK
  5
1D
100
AcDbEntity
 67
1
  8
0
100
AcDbBlockEnd
  0
BLOCK
  5
24
100
AcDbEntity
  8
0
100
AcDbBlockBegin
  2
*Paper_Space0
 70
0
 10
0.0
 20
0.0
 30
0.0
  3
*Paper_Space0
  1

  0
ENDBLK
  5
25
100
AcDbEntity
  8
0
100
AcDbBlockEnd
  0
ENDSEC
  0
SECTION
  2
ENTITIES
  0
LINE
  5
43
100
AcDbEntity
100
AcDbLine
  8
0
 62
7
370
-1
  6
CONTINUOUS
 10
29.7643118487526408
 20
154.4481454029893257
 30
0.0
 11
29.7643118492015901
 21
164.4481454029893257
 31
0.0
  0
LINE
  5
44
100
AcDbEntity
100
AcDbLine
  8
0
 62
7
370
-1
  6
CONTINUOUS
 10
29.7643118487526408
 20
132.4481454029893257
 30
0.0
 11
29.7643118496505679
 21
152.4481454029893257
 31
0.0
  0
LINE
  5
45
100
AcDbEntity
100
AcDbLine
  8
0
 62
7
370
-1
  6
CONTINUOUS
 10
29.7643118487526408
 20
110.4481454029893257
 30
0.0
 11
29.7643118496505679
 21
130.4481454029893257
 31
0.0
  0
LINE
  5
46
100
AcDbEntity
100
AcDbLine
  8
0
 62
7
370
-1
  6
CONTINUOUS
 10
29.7643118491118059
 20
96.4481454029893257
 30
0.0
 11
29.7643118496505679
 21
108.4481454029893257
 31
0.0
  0
LINE
  5
47
100
AcDbEntity
100
AcDbLine
  8
0
 62
7
370
-1
  6
CONTINUOUS
 10
30.7643118487526408
 20
98.4481454029893257
 30
0.0
 11
30.7643118496505679
 21
118.4481454029893257
 31
0.0
  0
LINE
  5
48
100
AcDbEntity
100
AcDbLine
  8
0
 62
7
370
-1
  6
CONTINUOUS
 10
30.7643118487526408
 20
120.4481454029893257
 30
0.0
 11
30.7643118496505679
 21
140.4481454029893257
 31
0.0
  0
LINE
  5
49
100
AcDbEntity
100
AcDbLine
  8
0
 62
7
370
-1
  6
CONTINUOUS
 10
30.7643118487526408
 20
142.4481454029893257
 30
0.0
 11
30.7643118496505679
 21
162.4481454029893257
 31
0.0
  0
LINE
  5
4A
100
AcDbEntity
100
AcDbLine
  8
0
 62
7
370
-1
  6
CONTINUOUS
 10
31.7643118487526408
 20
154.4481454029893257
 30
0.0
 11
31.7643118492015901
 21
164.4481454029893257
 31
0.0
  0
LINE
  5
4B
100
AcDbEntity
100
AcDbLine
  8
0
 62
7
370
-1
  6
CONTINUOUS
 10
31.7643118487526408
 20
132.4481454029893257
 30
0.0
 11
31.7643118496505679
 21
152.4481454029893257
 31
0.0
  0
LINE
  5
4C
100
AcDbEntity
100
AcDbLine
  8
0
 62
7
370
-1
  6
CONTINUOUS
 10
31.7643118487526408
 20
110.4481454029893257
 30
0.0
 11
31.7643118496505679
 21
130.4481454029893257
 31
0.0
  0
LINE
  5
4D
100
AcDbEntity
100
AcDbLine
  8
0
 62
7
370
-1
  6
CONTINUOUS
 10
31.7643118491118059
 20
96.4481454029893257
 30
0.0
 11
31.7643118496505679
 21
108.4481454029893257
 31
0.0
  0
LINE
  5
4E
100
AcDbEntity
100
AcDbLine
  8
0
 62
7
370
-1
  6
CONTINUOUS
 10
32.7643118487526408
 20
98.4481454029893257
 30
0.0
 11
32.7643118496505679
 21
118.4481454029893257
 31
0.0
  0
LINE
  5
4F
100
AcDbEntity
100
AcDbLine
  8
0
 62
7
370
-1
  6
CONTINUOUS
 10
32.7643118487526408
 20
120.4481454029893257
 30
0.0
 11
32.7643118496505679
 21
140.4481454029893257
 31
0.0
  0
LINE
  5
50
100
AcDbEntity
100
AcDbLine
  8
0
 62
7
370
-1
  6
CONTINUOUS
 10
32.7643118487526408
 20
142.4481454029893257
 30
0.0
 11
32.7643118496505679
 21
162.4481454029893257
 31
0.0
  0
LINE
  5
51
100
AcDbEntity
100
AcDbLine
  8
0
 62
7
370
-1
  6
CONTINUOUS
 10
33.7643118491118059
 20
96.4481454029893257
 30
0.0
 11
33.7643118496505679
 21
108.4481454029893257
 31
0.0
  0
LINE
  5
52
100
AcDbEntity
100
AcDbLine
  8
0
 62
7
370
-1
  6
CONTINUOUS
 10
33.7643118487526408
 20
110.4481454029893257
 30
0.0
 11
33.7643118496505679
 21
130.4481454029893257
 31
0.0
  0
LINE
  5
53
100
AcDbEntity
100
AcDbLine
  8
0
 62
7
370
-1
  6
CONTINUOUS
 10
33.7643118487526408
 20
132.4481454029893257
 30
0.0
 11
33.7643118496505679
 21
152.4481454029893257
 31
0.0
  0
LINE
  5
54
100
AcDbEntity
100
AcDbLine
  8
0
 62
7
370
-1
  6
CONTINUOUS
 10
33.7643118487526408
 20
154.4481454029893257
 30
0.0
 11
33.7643118492015901
 21
164.4481454029893257
 31
0.0
  0
LINE
  5
55
100
AcDbEntity
100
AcDbLine
  8
0
 62
7
370
-1
  6
CONTINUOUS
 10
34.7643118487526408
 20
98.4481454029893257
 30
0.0
 11
34.7643118496505679
 21
118.4481454029893257
 31
0.0
  0
LINE
  5
56
100
AcDbEntity
100
AcDbLine
  8
0
 62
7
370
-1
  6
CONTINUOUS
 10
34.7643118487526408
 20
120.4481454029893257
 30
0.0
 11
34.7643118496505679
 21
140.4481454029893257
 31
0.0
  0
LINE
  5
57
100
AcDbEntity
100
AcDbLine
  8
0
 62
7
370
-1
  6
CONTINUOUS
 10
34.7643118487526408
 20
142.4481454029893257
 30
0.0
 11
34.7643118496505679
 21
162.4481454029893257
 31
0.0
  0
LINE
  5
58
100
AcDbEntity
100
AcDbLine
  8
0
 62
7
370
-1
  6
CONTINUOUS
 10
35.7643118491118059
 20
96.4481454029893257
 30
0.0
 11
35.7643118496505679
 21
108.4481454029893257
 31
0.0
  0
LINE
  5
59
100
AcDbEntity
100
AcDbLine
  8
0
 62
7
370
-1
  6
CONTINUOUS
 10
35.7643118487526408
 20
110.4481454029893257
 30
0.0
 11
35.7643118496505679
 21
130.4481454029893257
 31
0.0
  0
LINE
  5
5A
100
AcDbEntity
100
AcDbLine
  8
0
 62
7
370
-1
  6
CONTINUOUS
 10
35.7643118487526408
 20
132.4481454029893257
 30
0.0
 11
35.7643118496505679
 21
152.4481454029893257
 31
0.0
  0
LINE
  5
5B
100
AcDbEntity
100
AcDbLine
  8
0
 62
7
370
-1
  6
CONTINUOUS
 10
35.7643118487526408
 20
154.4481454029893257
 30
0.0
 11
35.7643118492015901
 21
164.4481454029893257
 31
0.0
  0
LINE
  5
5C
100
AcDbEntity
100
AcDbLine
  8
0
 62
7
370
-1
  6
CONTINUOUS
 10
36.7643118487526408
 20
98.4481454029893257
 30
0.0
 11
36.7643118496505679
 21
118.4481454029893257
 31
0.0
  0
LINE
  5
5D
100
AcDbEntity
100
AcDbLine
  8
0
 62
7
370
-1
  6
CONTINUOUS
 10
36.7643118487526408
 20
120.4481454029893257
 30
0.0
 11
36.7643118496505679
 21
140.4481454029893257
 31
0.0
  0
LINE
  5
5E
100
AcDbEntity
100
AcDbLine
  8
0
 62
7
370
-1
  6
CONTINUOUS
 10
36.7643118487526408
 20
142.4481454029893257
 30
0.0
 11
36.7643118496505679
 21
162.4481454029893257
 31
0.0
  0
LINE
  5
5F
100
AcDbEntity
100
AcDbLine
  8
0
 62
7
370
-1
  6
CONTINUOUS
 10
37.7643118491118059
 20
96.4481454029893257
 30
0.0
 11
37.7643118496505679
 21
108.4481454029893257
 31
0.0
  0
LINE
  5
60
100
AcDbEntity
100
AcDbLine
  8
0
 62
7
370
-1
  6
CONTINUOUS
 10
37.7643118487526408
 20
110.4481454029893257
 30
0.0
 11
37.7643118496505679
 21
130.4481454029893257
 31
0.0
  0
LINE
  5
61
100
AcDbEntity
100
AcDbLine
  8
0
 62
7
370
-1
  6
CONTINUOUS
 10
37.7643118487526408
 20
132.4481454029893257
 30
0.0
 11
37.7643118496505679
 21
152.4481454029893257
 31
0.0
  0
LINE
  5
62
100
AcDbEntity
100
AcDbLine
  8
0
 62
7
370
-1
  6
CONTINUOUS
 10
37.7643118487526408
 20
154.4481454029893257
 30
0.0
 11
37.7643118492015901
 21
164.4481454029893257
 31
0.0
  0
LINE
  5
63
100
AcDbEntity
100
AcDbLine
  8
0
 62
7
370
-1
  6
CONTINUOUS
 10
38.7643118487526408
 20
98.4481454029893257
 30
0.0
 11
38.7643118496505679
 21
118.4481454029893257
 31
0.0
  0
LINE
  5
64
100
AcDbEntity
100
AcDbLine
  8
0
 62
7
370
-1
  6
CONTINUOUS
 10
38.7643118487526408
 20
120.4481454029893257
 30
0.0
 11
38.7643118496505679
 21
140.4481454029893257
 31
0.0
  0
LINE
  5
65
100
AcDbEntity
100
AcDbLine
  8
0
 62
7
370
-1
  6
CONTINUOUS
 10
38.7643118487526408
 20
142.4481454029893257
 30
0.0
 11
38.7643118496505679
 21
162.4481454029893257
 31
0.0
  0
LINE
  5
66
100
AcDbEntity
100
AcDbLine
  8
0
 62
7
370
-1
  6
CONTINUOUS
 10
39.7643118491118059
 20
96.4481454029893257
 30
0.0
 11
39.7643118496505679
 21
108.4481454029893257
 31
0.0
  0
LINE
  5
67
100
AcDbEntity
100
AcDbLine
  8
0
 62
7
370
-1
  6
CONTINUOUS
 10
39.7643118487526408
 20
110.4481454029893257
 30
0.0
 11
39.7643118496505679
 21
130.4481454029893257
 31
0.0
  0
LINE
  5
68
100
AcDbEntity
100
AcDbLine
  8
0
 62
7
370
-1
  6
CONTINUOUS
 10
39.7643118487526408
 20
132.4481454029893257
 30
0.0
 11
39.7643118496505679
 21
152.4481454029893257
 31
0.0
  0
LINE
  5
69
100
AcDbEntity
100
AcDbLine
  8
0
 62
7
370
-1
  6
CONTINUOUS
 10
39.7643118487526408
 20
154.4481454029893257
 30
0.0
 11
39.7643118492015901
 21
164.4481454029893257
 31
0.0
  0
LINE
  5
6A
100
AcDbEntity
100
AcDbLine
  8
0
 62
7
370
-1
  6
CONTINUOUS
 10
40.7643118487526408
 20
98.4481454029893257
 30
0.0
 11
40.7643118496505679
 21
118.4481454029893257
 31
0.0
  0
LINE
  5
6B
100
AcDbEntity
100
AcDbLine
  8
0
 62
7
370
-1
  6
CONTINUOUS
 10
40.7643118487526408
 20
120.4481454029893257
 30
0.0
 11
40.7643118496505679
 21
140.4481454029893257
 31
0.0
  0
LINE
  5
6C
100
AcDbEntity
100
AcDbLine
  8
0
 62
7
370
-1
  6
CONTINUOUS
 10
40.7643118487526408
 20
142.4481454029893257
 30
0.0
 11
40.7643118496505679
 21
162.4481454029893257
 31
0.0
  0
LINE
  5
6D
100
AcDbEntity
100
AcDbLine
  8
0
 62
7
370
-1
  6
CONTINUOUS
 10
41.7643118491118059
 20
96.4481454029893257
 30
0.0
 11
41.7643118496505679
 21
108.4481454029893257
 31
0.0
  0
LINE
  5
6E
100
AcDbEntity
100
AcDbLine
  8
0
 62
7
370
-1
  6
CONTINUOUS
 10
41.7643118487526408
 20
110.4481454029893257
 30
0.0
 11
41.7643118496505679
 21
130.4481454029893257
 31
0.0
  0
LINE
  5
6F
100
AcDbEntity
100
AcDbLine
  8
0
 62
7
370
-1
  6
CONTINUOUS
 10
41.7643118487526408
 20
132.4481454029893257
 30
0.0
 11
41.7643118496505679
 21
152.4481454029893257
 31
0.0
  0
LINE
  5
70
100
AcDbEntity
100
AcDbLine
  8
0
 62
7
370
-1
  6
CONTINUOUS
 10
41.7643118487526408
 20
154.4481454029893257
 30
0.0
 11
41.7643118492015901
 21
164.4481454029893257
 31
0.0
  0
LINE
  5
71
100
AcDbEntity
100
AcDbLine
  8
0
 62
7
370
-1
  6
CONTINUOUS
 10
42.7643118487526408
 20
98.4481454029893257
 30
0.0
 11
42.7643118496505679
 21
118.4481454029893257
 31
0.0
  0
LINE
  5
72
100
AcDbEntity
100
AcDbLine
  8
0
 62
7
370
-1
  6
CONTINUOUS
 10
42.7643118487526408
 20
120.4481454029893257
 30
0.0
 11
42.7643118496505679
 21
140.4481454029893257
 31
0.0
  0
LINE
  5
73
100
AcDbEntity
100
AcDbLine
  8
0
 62
7
370
-1
  6
CONTINUOUS
 10
42.7643118487526408
 20
142.4481454029893257
 30
0.0
 11
42.7643118496505679
 21
162.4481454029893257
 31
0.0
  0
LINE
  5
74
100
AcDbEntity
100
AcDbLine
  8
0
 62
7
370
-1
  6
CONTINUOUS
 10
43.7643118491118059
 20
96.4481454029893257
 30
0.0
 11
43.7643118496505679
 21
108.4481454029893257
 31
0.0
  0
LINE
  5
75
100
AcDbEntity
100
AcDbLine
  8
0
 62
7
370
-1
  6
CONTINUOUS
 10
43.7643118487526408
 20
110.4481454029893257
 30
0.0
 11
43.7643118496505679
 21
130.4481454029893257
 31
0.0
  0
LINE
  5
76
100
AcDbEntity
100
AcDbLine
  8
0
 62
7
370
-1
  6
CONTINUOUS
 10
43.7643118487526408
 20
132.4481454029893257
 30
0.0
 11
43.7643118496505679
 21
152.4481454029893257
 31
0.0
  0
LINE
  5
77
100
AcDbEntity
100
AcDbLine
  8
0
 62
7
370
-1
  6
CONTINUOUS
 10
43.7643118487526408
 20
154.4481454029893257
 30
0.0
 11
43.7643118492015901
 21
164.4481454029893257
 31
0.0
  0
LINE
  5
78
100
AcDbEntity
100
AcDbLine
  8
0
 62
7
370
-1
  6
CONTINUOUS
 10
44.7643118487526408
 20
98.4481454029893257
 30
0.0
 11
44.7643118496505679
 21
118.4481454029893257
 31
0.0
  0
LINE
  5
79
100
AcDbEntity
100
AcDbLine
  8
0
 62
7
370
-1
  6
CONTINUOUS
 10
44.7643118487526408
 20
120.4481454029893257
 30
0.0
 11
44.7643118496505679
 21
140.4481454029893257
 31
0.0
  0
LINE
  5
7A
100
AcDbEntity
100
AcDbLine
  8
0
 62
7
370
-1
  6
CONTINUOUS
 10
44.7643118487526408
 20
142.4481454029893257
 30
0.0
 11
44.7643118496505679
 21
162.4481454029893257
 31
0.0
  0
LINE
  5
7B
100
AcDbEntity
100
AcDbLine
  8
0
 62
7
370
-1
  6
CONTINUOUS
 10
45.7643118491118059
 20
96.4481454029893257
 30
0.0
 11
45.7643118496505679
 21
108.4481454029893257
 31
0.0
  0
LINE
  5
7C
100
AcDbEntity
100
AcDbLine
  8
0
 62
7
370
-1
  6
CONTINUOUS
 10
45.7643118487526408
 20
110.4481454029893257
 30
0.0
 11
45.7643118496505679
 21
130.4481454029893257
 31
0.0
  0
LINE
  5
7D
100
AcDbEntity
100
AcDbLine
  8
0
 62
7
370
-1
  6
CONTINUOUS
 10
45.7643118487526408
 20
132.4481454029893257
 30
0.0
 11
45.7643118496505679
 21
152.4481454029893257
 31
0.0
  0
LINE
  5
7E
100
AcDbEntity
100
AcDbLine
  8
0
 62
7
370
-1
  6
CONTINUOUS
 10
45.7643118487526408
 20
154.4481454029893257
 30
0.0
 11
45.7643118492015901
 21
164.4481454029893257
 31
0.0
  0
LINE
  5
7F
100
AcDbEntity
100
AcDbLine
  8
0
 62
7
370
-1
  6
CONTINUOUS
 10
29.7643118492015901
 20
164.4481454029893257
 30
0.0
 11
45.7643118492015901
 21
164.4481454029893257
 31
0.0
  0
LINE
  5
80
100
AcDbEntity
100
AcDbLine
  8
0
 62
7
370
-1
  6
CONTINUOUS
 10
29.7643118491118059
 20
96.4481454029893257
 30
0.0
 11
45.7643118491118059
 21
96.4481454029893257
 31
0.0
  0
LINE
  5
81
100
AcDbEntity
100
AcDbLine
  8
0
 62
7
370
-1
  6
CONTINUOUS
 10
95.7873964467711545
 20
154.4282377845237306
 30
0.0
 11
95.7873964472201038
 21
164.4282377845237306
 31
0.0
  0
LINE
  5
82
100
AcDbEntity
100
AcDbLine
  8
0
 62
7
370
-1
  6
CONTINUOUS
 10
95.7873964467711545
 20
132.4282377845237306
 30
0.0
 11
95.7873964476690816
 21
152.4282377845237306
 31
0.0
  0
LINE
  5
83
100
AcDbEntity
100
AcDbLine
  8
0
 62
7
370
-1
  6
CONTINUOUS
 10
95.7873964467711545
 20
110.4282377845237022
 30
0.0
 11
95.7873964476690816
 21
130.4282377845237306
 31
0.0
  0
LINE
  5
84
100
AcDbEntity
100
AcDbLine
  8
0
 62
7
370
-1
  6
CONTINUOUS
 10
95.7873964471303196
 20
96.4282377845237022
 30
0.0
 11
95.7873964476690816
 21
108.4282377845237022
 31
0.0
  0
LINE
  5
85
100
AcDbEntity
100
AcDbLine
  8
0
 62
7
370
-1
  6
CONTINUOUS
 10
96.7873964467711545
 20
98.4282377845237022
 30
0.0
 11
96.7873964476690816
 21
118.4282377845237022
 31
0.0
  0
LINE
  5
86
100
AcDbEntity
100
AcDbLine
  8
0
 62
7
370
-1
  6
CONTINUOUS
 10
96.7873964467711545
 20
120.4282377845237022
 30
0.0
 11
96.7873964476690816
 21
140.4282377845237306
 31
0.0
  0
LINE
  5
87
100
AcDbEntity
100
AcDbLine
  8
0
 62
7
370
-1
  6
CONTINUOUS
 10
96.7873964467711545
 20
142.4282377845237306
 30
0.0
 11
96.7873964476690816
 21
162.4282377845237306
 31
0.0
  0
LINE
  5
88
100
AcDbEntity
100
AcDbLine
  8
0
 62
7
370
-1
  6
CONTINUOUS
 10
97.7873964467711545
 20
154.4282377845237306
 30
0.0
 11
97.7873964472201038
 21
164.4282377845237306
 31
0.0
  0
LINE
  5
89
100
AcDbEntity
100
AcDbLine
  8
0
 62
7
370
-1
  6
CONTINUOUS
 10
97.7873964467711545
 20
132.4282377845237306
 30
0.0
 11
97.7873964476690816
 21
152.4282377845237306
 31
0.0
  0
LINE
  5
8A
100
AcDbEntity
100
AcDbLine
  8
0
 62
7
370
-1
  6
CONTINUOUS
 10
97.7873964467711545
 20
110.4282377845237022
 30
0.0
 11
97.7873964476690816
 21
130.4282377845237306
 31
0.0
  0
LINE
  5
8B
100
AcDbEntity
100
AcDbLine
  8
0
 62
7
370
-1
  6
CONTINUOUS
 10
97.7873964471303196
 20
96.4282377845237022
 30
0.0
 11
97.7873964476690816
 21
108.4282377845237022
 31
0.0
  0
LINE
  5
8C
100
AcDbEntity
100
AcDbLine
  8
0
 62
7
370
-1
  6
CONTINUOUS
 10
98.7873964467711545
 20
98.4282377845237022
 30
0.0
 11
98.7873964476690816
 21
118.4282377845237022
 31
0.0
  0
LINE
  5
8D
100
AcDbEntity
100
AcDbLine
  8
0
 62
7
370
-1
  6
CONTINUOUS
 10
98.7873964467711545
 20
120.4282377845237022
 30
0.0
 11
98.7873964476690816
 21
140.4282377845237306
 31
0.0
  0
LINE
  5
8E
100
AcDbEntity
100
AcDbLine
  8
0
 62
7
370
-1
  6
CONTINUOUS
 10
98.7873964467711545
 20
142.4282377845237306
 30
0.0
 11
98.7873964476690816
 21
162.4282377845237306
 31
0.0
  0
LINE
  5
8F
100
AcDbEntity
100
AcDbLine
  8
0
 62
7
370
-1
  6
CONTINUOUS
 10
99.7873964471303196
 20
96.4282377845237022
 30
0.0
 11
99.7873964476690816
 21
108.4282377845237022
 31
0.0
  0
LINE
  5
90
100
AcDbEntity
100
AcDbLine
  8
0
 62
7
370
-1
  6
CONTINUOUS
 10
99.7873964467711545
 20
110.4282377845237022
 30
0.0
 11
99.7873964476690816
 21
130.4282377845237306
 31
0.0
  0
LINE
  5
91
100
AcDbEntity
100
AcDbLine
  8
0
 62
7
370
-1
  6
CONTINUOUS
 10
99.7873964467711545
 20
132.4282377845237306
 30
0.0
 11
99.7873964476690816
 21
152.4282377845237306
 31
0.0
  0
LINE
  5
92
100
AcDbEntity
100
AcDbLine
  8
0
 62
7
370
-1
  6
CONTINUOUS
 10
99.7873964467711545
 20
154.4282377845237306
 30
0.0
 11
99.7873964472201038
 21
164.4282377845237306
 31
0.0
  0
LINE
  5
93
100
AcDbEntity
100
AcDbLine
  8
0
 62
7
370
-1
  6
CONTINUOUS
 10
100.7873964467711545
 20
98.4282377845237022
 30
0.0
 11
100.7873964476690816
 21
118.4282377845237022
 31
0.0
  0
LINE
  5
94
100
AcDbEntity
100
AcDbLine
  8
0
 62
7
370
-1
  6
CONTINUOUS
 10
100.7873964467711545
 20
120.4282377845237022
 30
0.0
 11
100.7873964476690816
 21
140.4282377845237306
 31
0.0
  0
LINE
  5
95
100
AcDbEntity
100
AcDbLine
  8
0
 62
7
370
-1
  6
CONTINUOUS
 10
100.7873964467711545
 20
142.4282377845237306
 30
0.0
 11
100.7873964476690816
 21
162.4282377845237306
 31
0.0
  0
LINE
  5
96
100
AcDbEntity
100
AcDbLine
  8
0
 62
7
370
-1
  6
CONTINUOUS
 10
101.7873964471303196
 20
96.4282377845237022
 30
0.0
 11
101.7873964476690816
 21
108.4282377845237022
 31
0.0
  0
LINE
  5
97
100
AcDbEntity
100
AcDbLine
  8
0
 62
7
370
-1
  6
CONTINUOUS
 10
101.7873964467711545
 20
110.4282377845237022
 30
0.0
 11
101.7873964476690816
 21
130.4282377845237306
 31
0.0
  0
LINE
  5
98
100
AcDbEntity
100
AcDbLine
  8
0
 62
7
370
-1
  6
CONTINUOUS
 10
101.7873964467711545
 20
132.4282377845237306
 30
0.0
 11
101.7873964476690816
 21
152.4282377845237306
 31
0.0
  0
LINE
  5
99
100
AcDbEntity
100
AcDbLine
  8
0
 62
7
370
-1
  6
CONTINUOUS
 10
101.7873964467711545
 20
154.4282377845237306
 30
0.0
 11
101.7873964472201038
 21
164.4282377845237306
 31
0.0
  0
LINE
  5
9A
100
AcDbEntity
100
AcDbLine
  8
0
 62
7
370
-1
  6
CONTINUOUS
 10
102.7873964467711687
 20
98.4282377845237022
 30
0.0
 11
102.7873964476690674
 21
118.4282377845237022
 31
0.0
  0
LINE
  5
9B
100
AcDbEntity
100
AcDbLine
  8
0
 62
7
370
-1
  6
CONTINUOUS
 10
102.7873964467711687
 20
120.4282377845237022
 30
0.0
 11
102.7873964476690674
 21
140.4282377845237306
 31
0.0
  0
LINE
  5
9C
100
AcDbEntity
100
AcDbLine
  8
0
 62
7
370
-1
  6
CONTINUOUS
 10
102.7873964467711687
 20
142.4282377845237306
 30
0.0
 11
102.7873964476690674
 21
162.4282377845237306
 31
0.0
  0
LINE
  5
9D
100
AcDbEntity
100
AcDbLine
  8
0
 62
7
370
-1
  6
CONTINUOUS
 10
103.7873964471303054
 20
96.4282377845237022
 30
0.0
 11
103.7873964476690674
 21
108.4282377845237022
 31
0.0
  0
LINE
  5
9E
100
AcDbEntity
100
AcDbLine
  8
0
 62
7
370
-1
  6
CONTINUOUS
 10
103.7873964467711687
 20
110.4282377845237022
 30
0.0
 11
103.7873964476690674
 21
130.4282377845237306
 31
0.0
  0
LINE
  5
9F
100
AcDbEntity
100
AcDbLine
  8
0
 62
7
370
-1
  6
CONTINUOUS
 10
103.7873964467711687
 20
132.4282377845237306
 30
0.0
 11
103.7873964476690674
 21
152.4282377845237306
 31
0.0
  0
LINE
  5
A0
100
AcDbEntity
100
AcDbLine
  8
0
 62
7
370
-1
  6
CONTINUOUS
 10
103.7873964467711687
 20
154.4282377845237306
 30
0.0
 11
103.787396447220118
 21
164.4282377845237306
 31
0.0
  0
LINE
  5
A1
100
AcDbEntity
100
AcDbLine
  8
0
 62
7
370
-1
  6
CONTINUOUS
 10
104.7873964467711687
 20
98.4282377845237022
 30
0.0
 11
104.7873964476690674
 21
118.4282377845237022
 31
0.0
  0
LINE
  5
A2
100
AcDbEntity
100
AcDbLine
  8
0
 62
7
370
-1
  6
CONTINUOUS
 10
104.7873964467711687
 20
120.4282377845237022
 30
0.0
 11
104.7873964476690674
 21
140.4282377845237306
 31
0.0
  0
LINE
  5
A3
100
AcDbEntity
100
AcDbLine
  8
0
 62
7
370
-1
  6
CONTINUOUS
 10
104.7873964467711687
 20
142.4282377845237306
 30
0.0
 11
104.7873964476690674
 21
162.4282377845237306
 31
0.0
  0
LINE
  5
A4
100
AcDbEntity
100
AcDbLine
  8
0
 62
7
370
-1
  6
CONTINUOUS
 10
105.7873964471303054
 20
96.4282377845237022
 30
0.0
 11
105.7873964476690674
 21
108.4282377845237022
 31
0.0
  0
LINE
  5
A5
100
AcDbEntity
100
AcDbLine
  8
0
 62
7
370
-1
  6
CONTINUOUS
 10
105.7873964467711687
 20
110.4282377845237022
 30
0.0
 11
105.7873964476690674
 21
130.4282377845237306
 31
0.0
  0
LINE
  5
A6
100
AcDbEntity
100
AcDbLine
  8
0
 62
7
370
-1
  6
CONTINUOUS
 10
105.7873964467711687
 20
132.4282377845237306
 30
0.0
 11
105.7873964476690674
 21
152.4282377845237306
 31
0.0
  0
LINE
  5
A7
100
AcDbEntity
100
AcDbLine
  8
0
 62
7
370
-1
  6
CONTINUOUS
 10
105.7873964467711687
 20
154.4282377845237306
 30
0.0
 11
105.787396447220118
 21
164.4282377845237306
 31
0.0
  0
LINE
  5
A8
100
AcDbEntity
100
AcDbLine
  8
0
 62
7
370
-1
  6
CONTINUOUS
 10
106.7873964467711687
 20
98.4282377845237022
 30
0.0
 11
106.7873964476690674
 21
118.4282377845237022
 31
0.0
  0
LINE
  5
A9
100
AcDbEntity
100
AcDbLine
  8
0
 62
7
370
-1
  6
CONTINUOUS
 10
106.7873964467711687
 20
120.4282377845237022
 30
0.0
 11
106.7873964476690674
 21
140.4282377845237306
 31
0.0
  0
LINE
  5
AA
100
AcDbEntity
100
AcDbLine
  8
0
 62
7
370
-1
  6
CONTINUOUS
 10
106.7873964467711687
 20
142.4282377845237306
 30
0.0
 11
106.7873964476690674
 21
162.4282377845237306
 31
0.0
  0
LINE
  5
AB
100
AcDbEntity
100
AcDbLine
  8
0
 62
7
370
-1
  6
CONTINUOUS
 10
107.7873964471303054
 20
96.4282377845237022
 30
0.0
 11
107.7873964476690674
 21
108.4282377845237022
 31
0.0
  0
LINE
  5
AC
100
AcDbEntity
100
AcDbLine
  8
0
 62
7
370
-1
  6
CONTINUOUS
 10
107.7873964467711687
 20
110.4282377845237022
 30
0.0
 11
107.7873964476690674
 21
130.4282377845237306
 31
0.0
  0
LINE
  5
AD
100
AcDbEntity
100
AcDbLine
  8
0
 62
7
370
-1
  6
CONTINUOUS
 10
107.7873964467711687
 20
132.4282377845237306
 30
0.0
 11
107.7873964476690674
 21
152.4282377845237306
 31
0.0
  0
LINE
  5
AE
100
AcDbEntity
100
AcDbLine
  8
0
 62
7
370
-1
  6
CONTINUOUS
 10
107.7873964467711687
 20
154.4282377845237306
 30
0.0
 11
107.787396447220118
 21
164.4282377845237306
 31
0.0
  0
LINE
  5
AF
100
AcDbEntity
100
AcDbLine
  8
0
 62
7
370
-1
  6
CONTINUOUS
 10
108.7873964467711687
 20
98.4282377845237022
 30
0.0
 11
108.7873964476690674
 21
118.4282377845237022
 31
0.0
  0
LINE
  5
B0
100
AcDbEntity
100
AcDbLine
  8
0
 62
7
370
-1
  6
CONTINUOUS
 10
108.7873964467711687
 20
120.4282377845237022
 30
0.0
 11
108.7873964476690674
 21
140.4282377845237306
 31
0.0
  0
LINE
  5
B1
100
AcDbEntity
100
AcDbLine
  8
0
 62
7
370
-1
  6
CONTINUOUS
 10
108.7873964467711687
 20
142.4282377845237306
 30
0.0
 11
108.7873964476690674
 21
162.4282377845237306
 31
0.0
  0
LINE
  5
B2
100
AcDbEntity
100
AcDbLine
  8
0
 62
7
370
-1
  6
CONTINUOUS
 10
109.7873964471303054
 20
96.4282377845237022
 30
0.0
 11
109.7873964476690674
 21
108.4282377845237022
 31
0.0
  0
LINE
  5
B3
100
AcDbEntity
100
AcDbLine
  8
0
 62
7
370
-1
  6
CONTINUOUS
 10
109.7873964467711687
 20
110.4282377845237022
 30
0.0
 11
109.7873964476690674
 21
130.4282377845237306
 31
0.0
  0
LINE
  5
B4
100
AcDbEntity
100
AcDbLine
  8
0
 62
7
370
-1
  6
CONTINUOUS
 10
109.7873964467711687
 20
132.4282377845237306
 30
0.0
 11
109.7873964476690674
 21
152.4282377845237306
 31
0.0
  0
LINE
  5
B5
100
AcDbEntity
100
AcDbLine
  8
0
 62
7
370
-1
  6
CONTINUOUS
 10
109.7873964467711687
 20
154.4282377845237306
 30
0.0
 11
109.787396447220118
 21
164.4282377845237306
 31
0.0
  0
LINE
  5
B6
100
AcDbEntity
100
AcDbLine
  8
0
 62
7
370
-1
  6
CONTINUOUS
 10
110.7873964467711687
 20
98.4282377845237022
 30
0.0
 11
110.7873964476690674
 21
118.4282377845237022
 31
0.0
  0
LINE
  5
B7
100
AcDbEntity
100
AcDbLine
  8
0
 62
7
370
-1
  6
CONTINUOUS
 10
110.7873964467711687
 20
120.4282377845237022
 30
0.0
 11
110.7873964476690674
 21
140.4282377845237306
 31
0.0
  0
LINE
  5
B8
100
AcDbEntity
100
AcDbLine
  8
0
 62
7
370
-1
  6
CONTINUOUS
 10
110.7873964467711687
 20
142.4282377845237306
 30
0.0
 11
110.7873964476690674
 21
162.4282377845237306
 31
0.0
  0
LINE
  5
B9
100
AcDbEntity
100
AcDbLine
  8
0
 62
7
370
-1
  6
CONTINUOUS
 10
111.7873964471303054
 20
96.4282377845237022
 30
0.0
 11
111.7873964476690674
 21
108.4282377845237022
 31
0.0
  0
LINE
  5
BA
100
AcDbEntity
100
AcDbLine
  8
0
 62
7
370
-1
  6
CONTINUOUS
 10
111.7873964467711687
 20
110.4282377845237022
 30
0.0
 11
111.7873964476690674
 21
130.4282377845237306
 31
0.0
  0
LINE
  5
BB
100
AcDbEntity
100
AcDbLine
  8
0
 62
7
370
-1
  6
CONTINUOUS
 10
111.7873964467711687
 20
132.4282377845237306
 30
0.0
 11
111.7873964476690674
 21
152.4282377845237306
 31
0.0
  0
LINE
  5
BC
100
AcDbEntity
100
AcDbLine
  8
0
 62
7
370
-1
  6
CONTINUOUS
 10
111.7873964467711687
 20
154.4282377845237306
 30
0.0
 11
111.787396447220118
 21
164.4282377845237306
 31
0.0
  0
LINE
  5
BD
100
AcDbEntity
100
AcDbLine
  8
0
 62
7
370
-1
  6
CONTINUOUS
 10
95.7873964472201038
 20
164.4282377845237306
 30
0.0
 11
111.787396447220118
 21
164.4282377845237306
 31
0.0
  0
LINE
  5
BE
100
AcDbEntity
100
AcDbLine
  8
0
 62
7
370
-1
  6
CONTINUOUS
 10
95.7873964471303196
 20
96.4282377845237022
 30
0.0
 11
111.7873964471303054
 21
96.4282377845237022
 31
0.0
  0
LINE
  5
BF
100
AcDbEntity
100
AcDbLine
  8
0
 62
7
370
-1
  6
CONTINUOUS
 10
161.3120646705554577
 20
164.4315723204838378
 30
0.0
 11
162.0143118966355473
 21
164.4315723204838378
 31
0.0
  0
LINE
  5
C0
100
AcDbEntity
100
AcDbLine
  8
0
 62
7
370
-1
  6
CONTINUOUS
 10
162.1203683556252315
 20
154.4282378248683472
 30
0.0
 11
162.1203683560741808
 21
164.4282378248683472
 31
0.0
  0
LINE
  5
C1
100
AcDbEntity
100
AcDbLine
  8
0
 62
7
370
-1
  6
CONTINUOUS
 10
162.1203683556252315
 20
132.4282378248683472
 30
0.0
 11
162.1203683565231302
 21
152.4282378248683472
 31
0.0
  0
LINE
  5
C2
100
AcDbEntity
100
AcDbLine
  8
0
 62
7
370
-1
  6
CONTINUOUS
 10
162.1203683556252315
 20
110.4282378248683187
 30
0.0
 11
162.1203683565231302
 21
130.4282378248683472
 31
0.0
  0
LINE
  5
C3
100
AcDbEntity
100
AcDbLine
  8
0
 62
7
370
-1
  6
CONTINUOUS
 10
162.1203683559843682
 20
96.4282378248683187
 30
0.0
 11
162.1203683565231302
 21
108.4282378248683187
 31
0.0
  0
LINE
  5
C4
100
AcDbEntity
100
AcDbLine
  8
0
 62
7
370
-1
  6
CONTINUOUS
 10
163.1203683556252315
 20
98.4282378248683187
 30
0.0
 11
163.1203683565231302
 21
118.4282378248683187
 31
0.0
  0
LINE
  5
C5
100
AcDbEntity
100
AcDbLine
  8
0
 62
7
370
-1
  6
CONTINUOUS
 10
163.1203683556252315
 20
120.4282378248683187
 30
0.0
 11
163.1203683565231302
 21
140.4282378248683472
 31
0.0
  0
LINE
  5
C6
100
AcDbEntity
100
AcDbLine
  8
0
 62
7
370
-1
  6
CONTINUOUS
 10
163.1203683556252315
 20
142.4282378248683472
 30
0.0
 11
163.1203683565231302
 21
162.4282378248683472
 31
0.0
  0
LINE
  5
C7
100
AcDbEntity
100
AcDbLine
  8
0
 62
7
370
-1
  6
CONTINUOUS
 10
164.1203683556252315
 20
154.4282378248683472
 30
0.0
 11
164.1203683560741808
 21
164.4282378248683472
 31
0.0
  0
LINE
  5
C8
100
AcDbEntity
100
AcDbLine
  8
0
 62
7
370
-1
  6
CONTINUOUS
 10
164.1203683556252315
 20
132.4282378248683472
 30
0.0
 11
164.1203683565231302
 21
152.4282378248683472
 31
0.0
  0
LINE
  5
C9
100
AcDbEntity
100
AcDbLine
  8
0
 62
7
370
-1
  6
CONTINUOUS
 10
164.1203683556252315
 20
110.4282378248683187
 30
0.0
 11
164.1203683565231302
 21
130.4282378248683472
 31
0.0
  0
LINE
  5
CA
100
AcDbEntity
100
AcDbLine
  8
0
 62
7
370
-1
  6
CONTINUOUS
 10
164.1203683559843682
 20
96.4282378248683187
 30
0.0
 11
164.1203683565231302
 21
108.4282378248683187
 31
0.0
  0
LINE
  5
CB
100
AcDbEntity
100
AcDbLine
  8
0
 62
7
370
-1
  6
CONTINUOUS
 10
165.1203683556252315
 20
98.4282378248683187
 30
0.0
 11
165.1203683565231302
 21
118.4282378248683187
 31
0.0
  0
LINE
  5
CC
100
AcDbEntity
100
AcDbLine
  8
0
 62
7
370
-1
  6
CONTINUOUS
 10
165.1203683556252315
 20
120.4282378248683187
 30
0.0
 11
165.1203683565231302
 21
140.4282378248683472
 31
0.0
  0
LINE
  5
CD
100
AcDbEntity
100
AcDbLine
  8
0
 62
7
370
-1
  6
CONTINUOUS
 10
165.1203683556252315
 20
142.4282378248683472
 30
0.0
 11
165.1203683565231302
 21
162.4282378248683472
 31
0.0
  0
LINE
  5
CE
100
AcDbEntity
100
AcDbLine
  8
0
 62
7
370
-1
  6
CONTINUOUS
 10
166.1203683559843682
 20
96.4282378248683187
 30
0.0
 11
166.1203683565231302
 21
108.4282378248683187
 31
0.0
  0
LINE
  5
CF
100
AcDbEntity
100
AcDbLine
  8
0
 62
7
370
-1
  6
CONTINUOUS
 10
166.1203683556252315
 20
110.4282378248683187
 30
0.0
 11
166.1203683565231302
 21
130.4282378248683472
 31
0.0
  0
LINE
  5
D0
100
AcDbEntity
100
AcDbLine
  8
0
 62
7
370
-1
  6
CONTINUOUS
 10
166.1203683556252315
 20
132.4282378248683472
 30
0.0
 11
166.1203683565231302
 21
152.4282378248683472
 31
0.0
  0
LINE
  5
D1
100
AcDbEntity
100
AcDbLine
  8
0
 62
7
370
-1
  6
CONTINUOUS
 10
166.1203683556252315
 20
154.4282378248683472
 30
0.0
 11
166.1203683560741808
 21
164.4282378248683472
 31
0.0
  0
LINE
  5
D2
100
AcDbEntity
100
AcDbLine
  8
0
 62
7
370
-1
  6
CONTINUOUS
 10
167.1203683556252315
 20
98.4282378248683187
 30
0.0
 11
167.1203683565231302
 21
118.4282378248683187
 31
0.0
  0
LINE
  5
D3
100
AcDbEntity
100
AcDbLine
  8
0
 62
7
370
-1
  6
CONTINUOUS
 10
167.1203683556252315
 20
120.4282378248683187
 30
0.0
 11
167.1203683565231302
 21
140.4282378248683472
 31
0.0
  0
LINE
  5
D4
100
AcDbEntity
100
AcDbLine
  8
0
 62
7
370
-1
  6
CONTINUOUS
 10
167.1203683556252315
 20
142.4282378248683472
 30
0.0
 11
167.1203683565231302
 21
162.4282378248683472
 31
0.0
  0
LINE
  5
D5
100
AcDbEntity
100
AcDbLine
  8
0
 62
7
370
-1
  6
CONTINUOUS
 10
168.1203683559843682
 20
96.4282378248683187
 30
0.0
 11
168.1203683565231302
 21
108.4282378248683187
 31
0.0
  0
LINE
  5
D6
100
AcDbEntity
100
AcDbLine
  8
0
 62
7
370
-1
  6
CONTINUOUS
 10
168.1203683556252315
 20
110.4282378248683187
 30
0.0
 11
168.1203683565231302
 21
130.4282378248683472
 31
0.0
  0
LINE
  5
D7
100
AcDbEntity
100
AcDbLine
  8
0
 62
7
370
-1
  6
CONTINUOUS
 10
168.1203683556252315
 20
132.4282378248683472
 30
0.0
 11
168.1203683565231302
 21
152.4282378248683472
 31
0.0
  0
LINE
  5
D8
100
AcDbEntity
100
AcDbLine
  8
0
 62
7
370
-1
  6
CONTINUOUS
 10
168.1203683556252315
 20
154.4282378248683472
 30
0.0
 11
168.1203683560741808
 21
164.4282378248683472
 31
0.0
  0
LINE
  5
D9
100
AcDbEntity
100
AcDbLine
  8
0
 62
7
370
-1
  6
CONTINUOUS
 10
169.1203683556252315
 20
98.4282378248683187
 30
0.0
 11
169.1203683565231302
 21
118.4282378248683187
 31
0.0
  0
LINE
  5
DA
100
AcDbEntity
100
AcDbLine
  8
0
 62
7
370
-1
  6
CONTINUOUS
 10
169.1203683556252315
 20
120.4282378248683187
 30
0.0
 11
169.1203683565231302
 21
140.4282378248683472
 31
0.0
  0
LINE
  5
DB
100
AcDbEntity
100
AcDbLine
  8
0
 62
7
370
-1
  6
CONTINUOUS
 10
169.1203683556252315
 20
142.4282378248683472
 30
0.0
 11
169.1203683565231302
 21
162.4282378248683472
 31
0.0
  0
LINE
  5
DC
100
AcDbEntity
100
AcDbLine
  8
0
 62
7
370
-1
  6
CONTINUOUS
 10
170.1203683559843682
 20
96.4282378248683187
 30
0.0
 11
170.1203683565231302
 21
108.4282378248683187
 31
0.0
  0
LINE
  5
DD
100
AcDbEntity
100
AcDbLine
  8
0
 62
7
370
-1
  6
CONTINUOUS
 10
170.1203683556252315
 20
110.4282378248683187
 30
0.0
 11
170.1203683565231302
 21
130.4282378248683472
 31
0.0
  0
LINE
  5
DE
100
AcDbEntity
100
AcDbLine
  8
0
 62
7
370
-1
  6
CONTINUOUS
 10
170.1203683556252315
 20
132.4282378248683472
 30
0.0
 11
170.1203683565231302
 21
152.4282378248683472
 31
0.0
  0
LINE
  5
DF
100
AcDbEntity
100
AcDbLine
  8
0
 62
7
370
-1
  6
CONTINUOUS
 10
170.1203683556252315
 20
154.4282378248683472
 30
0.0
 11
170.1203683560741808
 21
164.4282378248683472
 31
0.0
  0
LINE
  5
E0
100
AcDbEntity
100
AcDbLine
  8
0
 62
7
370
-1
  6
CONTINUOUS
 10
171.1203683556252315
 20
98.4282378248683187
 30
0.0
 11
171.1203683565231302
 21
118.4282378248683187
 31
0.0
  0
LINE
  5
E1
100
AcDbEntity
100
AcDbLine
  8
0
 62
7
370
-1
  6
CONTINUOUS
 10
171.1203683556252315
 20
120.4282378248683187
 30
0.0
 11
171.1203683565231302
 21
140.4282378248683472
 31
0.0
  0
LINE
  5
E2
100
AcDbEntity
100
AcDbLine
  8
0
 62
7
370
-1
  6
CONTINUOUS
 10
171.1203683556252315
 20
142.4282378248683472
 30
0.0
 11
171.1203683565231302
 21
162.4282378248683472
 31
0.0
  0
LINE
  5
E3
100
AcDbEntity
100
AcDbLine
  8
0
 62
7
370
-1
  6
CONTINUOUS
 10
172.1203683559843682
 20
96.4282378248683187
 30
0.0
 11
172.1203683565231302
 21
108.4282378248683187
 31
0.0
  0
LINE
  5
E4
100
AcDbEntity
100
AcDbLine
  8
0
 62
7
370
-1
  6
CONTINUOUS
 10
172.1203683556252315
 20
110.4282378248683187
 30
0.0
 11
172.1203683565231302
 21
130.4282378248683472
 31
0.0
  0
LINE
  5
E5
100
AcDbEntity
100
AcDbLine
  8
0
 62
7
370
-1
  6
CONTINUOUS
 10
172.1203683556252315
 20
132.4282378248683472
 30
0.0
 11
172.1203683565231302
 21
152.4282378248683472
 31
0.0
  0
LINE
  5
E6
100
AcDbEntity
100
AcDbLine
  8
0
 62
7
370
-1
  6
CONTINUOUS
 10
172.1203683556252315
 20
154.4282378248683472
 30
0.0
 11
172.1203683560741808
 21
164.4282378248683472
 31
0.0
  0
LINE
  5
E7
100
AcDbEntity
100
AcDbLine
  8
0
 62
7
370
-1
  6
CONTINUOUS
 10
173.1203683556252315
 20
98.4282378248683187
 30
0.0
 11
173.1203683565231302
 21
118.4282378248683187
 31
0.0
  0
LINE
  5
E8
100
AcDbEntity
100
AcDbLine
  8
0
 62
7
370
-1
  6
CONTINUOUS
 10
173.1203683556252315
 20
120.4282378248683187
 30
0.0
 11
173.1203683565231302
 21
140.4282378248683472
 31
0.0
  0
LINE
  5
E9
100
AcDbEntity
100
AcDbLine
  8
0
 62
7
370
-1
  6
CONTINUOUS
 10
173.1203683556252315
 20
142.4282378248683472
 30
0.0
 11
173.1203683565231302
 21
162.4282378248683472
 31
0.0
  0
LINE
  5
EA
100
AcDbEntity
100
AcDbLine
  8
0
 62
7
370
-1
  6
CONTINUOUS
 10
174.1203683559843682
 20
96.4282378248683187
 30
0.0
 11
174.1203683565231302
 21
108.4282378248683187
 31
0.0
  0
LINE
  5
EB
100
AcDbEntity
100
AcDbLine
  8
0
 62
7
370
-1
  6
CONTINUOUS
 10
174.1203683556252315
 20
110.4282378248683187
 30
0.0
 11
174.1203683565231302
 21
130.4282378248683472
 31
0.0
  0
LINE
  5
EC
100
AcDbEntity
100
AcDbLine
  8
0
 62
7
370
-1
  6
CONTINUOUS
 10
174.1203683556252315
 20
132.4282378248683472
 30
0.0
 11
174.1203683565231302
 21
152.4282378248683472
 31
0.0
  0
LINE
  5
ED
100
AcDbEntity
100
AcDbLine
  8
0
 62
7
370
-1
  6
CONTINUOUS
 10
174.1203683556252315
 20
154.4282378248683472
 30
0.0
 11
174.1203683560741808
 21
164.4282378248683472
 31
0.0
  0
LINE
  5
EE
100
AcDbEntity
100
AcDbLine
  8
0
 62
7
370
-1
  6
CONTINUOUS
 10
175.1203683556252315
 20
98.4282378248683187
 30
0.0
 11
175.1203683565231302
 21
118.4282378248683187
 31
0.0
  0
LINE
  5
EF
100
AcDbEntity
100
AcDbLine
  8
0
 62
7
370
-1
  6
CONTINUOUS
 10
175.1203683556252315
 20
120.4282378248683187
 30
0.0
 11
175.1203683565231302
 21
140.4282378248683472
 31
0.0
  0
LINE
  5
F0
100
AcDbEntity
100
AcDbLine
  8
0
 62
7
370
-1
  6
CONTINUOUS
 10
175.1203683556252315
 20
142.4282378248683472
 30
0.0
 11
175.1203683565231302
 21
162.4282378248683472
 31
0.0
  0
LINE
  5
F1
100
AcDbEntity
100
AcDbLine
  8
0
 62
7
370
-1
  6
CONTINUOUS
 10
176.1203683559843682
 20
96.4282378248683187
 30
0.0
 11
176.1203683565231302
 21
108.4282378248683187
 31
0.0
  0
LINE
  5
F2
100
AcDbEntity
100
AcDbLine
  8
0
 62
7
370
-1
  6
CONTINUOUS
 10
176.1203683556252315
 20
110.4282378248683187
 30
0.0
 11
176.1203683565231302
 21
130.4282378248683472
 31
0.0
  0
LINE
  5
F3
100
AcDbEntity
100
AcDbLine
  8
0
 62
7
370
-1
  6
CONTINUOUS
 10
176.1203683556252315
 20
132.4282378248683472
 30
0.0
 11
176.1203683565231302
 21
152.4282378248683472
 31
0.0
  0
LINE
  5
F4
100
AcDbEntity
100
AcDbLine
  8
0
 62
7
370
-1
  6
CONTINUOUS
 10
176.1203683556252315
 20
154.4282378248683472
 30
0.0
 11
176.1203683560741808
 21
164.4282378248683472
 31
0.0
  0
LINE
  5
F5
100
AcDbEntity
100
AcDbLine
  8
0
 62
7
370
-1
  6
CONTINUOUS
 10
177.1203683556252315
 20
98.4282378248683187
 30
0.0
 11
177.1203683565231302
 21
118.4282378248683187
 31
0.0
  0
LINE
  5
F6
100
AcDbEntity
100
AcDbLine
  8
0
 62
7
370
-1
  6
CONTINUOUS
 10
177.1203683556252315
 20
120.4282378248683187
 30
0.0
 11
177.1203683565231302
 21
140.4282378248683472
 31
0.0
  0
LINE
  5
F7
100
AcDbEntity
100
AcDbLine
  8
0
 62
7
370
-1
  6
CONTINUOUS
 10
177.1203683556252315
 20
142.4282378248683472
 30
0.0
 11
177.1203683565231302
 21
162.4282378248683472
 31
0.0
  0
LINE
  5
F8
100
AcDbEntity
100
AcDbLine
  8
0
 62
7
370
-1
  6
CONTINUOUS
 10
178.1203683559843682
 20
96.4282378248683187
 30
0.0
 11
178.1203683565231302
 21
108.4282378248683187
 31
0.0
  0
LINE
  5
F9
100
AcDbEntity
100
AcDbLine
  8
0
 62
7
370
-1
  6
CONTINUOUS
 10
178.1203683556252315
 20
110.4282378248683187
 30
0.0
 11
178.1203683565231302
 21
130.4282378248683472
 31
0.0
  0
LINE
  5
FA
100
AcDbEntity
100
AcDbLine
  8
0
 62
7
370
-1
  6
CONTINUOUS
 10
178.1203683556252315
 20
132.4282378248683472
 30
0.0
 11
178.1203683565231302
 21
152.4282378248683472
 31
0.0
  0
LINE
  5
FB
100
AcDbEntity
100
AcDbLine
  8
0
 62
7
370
-1
  6
CONTINUOUS
 10
178.1203683556252315
 20
154.4282378248683472
 30
0.0
 11
178.1203683560741808
 21
164.4282378248683472
 31
0.0
  0
LINE
  5
FC
100
AcDbEntity
100
AcDbLine
  8
0
 62
7
370
-1
  6
CONTINUOUS
 10
162.1203683560741808
 20
164.4282378248683472
 30
0.0
 11
178.1203683560741808
 21
164.4282378248683472
 31
0.0
  0
LINE
  5
FD
100
AcDbEntity
100
AcDbLine
  8
0
 62
7
370
-1
  6
CONTINUOUS
 10
162.1203683559843682
 20
96.4282378248683187
 30
0.0
 11
178.1203683559843682
 21
96.4282378248683187
 31
0.0
  0
LINE
  5
FE
100
AcDbEntity
100
AcDbLine
  8
0
 62
7
370
-1
  6
CONTINUOUS
 10
228.1052938091775957
 20
164.4282378248683472
 30
0.0
 11
228.1203683560741808
 21
164.4282378248683472
 31
0.0
  0
LINE
  5
FF
100
AcDbEntity
100
AcDbLine
  8
0
 62
7
370
-1
  6
CONTINUOUS
 10
228.1052938087307496
 20
154.4753714995920291
 30
0.0
 11
228.1052938091796989
 21
164.4753714995920291
 31
0.0
  0
LINE
  5
100
100
AcDbEntity
100
AcDbLine
  8
0
 62
7
370
-1
  6
CONTINUOUS
 10
228.1052938087307496
 20
132.4753714995920291
 30
0.0
 11
228.1052938096286482
 21
152.4753714995920291
 31
0.0
  0
LINE
  5
101
100
AcDbEntity
100
AcDbLine
  8
0
 62
7
370
-1
  6
CONTINUOUS
 10
228.1052938087307496
 20
110.4753714995920291
 30
0.0
 11
228.1052938096286482
 21
130.4753714995920291
 31
0.0
  0
LINE
  5
102
100
AcDbEntity
100
AcDbLine
  8
0
 62
7
370
-1
  6
CONTINUOUS
 10
228.1052938090898863
 20
96.4753714995920291
 30
0.0
 11
228.1052938096286482
 21
108.4753714995920291
 31
0.0
  0
LINE
  5
103
100
AcDbEntity
100
AcDbLine
  8
0
 62
7
370
-1
  6
CONTINUOUS
 10
229.1052938087307496
 20
98.4753714995920291
 30
0.0
 11
229.1052938096286482
 21
118.4753714995920291
 31
0.0
  0
LINE
  5
104
100
AcDbEntity
100
AcDbLine
  8
0
 62
7
370
-1
  6
CONTINUOUS
 10
229.1052938087307496
 20
120.4753714995920291
 30
0.0
 11
229.1052938096286482
 21
140.4753714995920291
 31
0.0
  0
LINE
  5
105
100
AcDbEntity
100
AcDbLine
  8
0
 62
7
370
-1
  6
CONTINUOUS
 10
229.1052938087307496
 20
142.4753714995920291
 30
0.0
 11
229.1052938096286482
 21
162.4753714995920291
 31
0.0
  0
LINE
  5
106
100
AcDbEntity
100
AcDbLine
  8
0
 62
7
370
-1
  6
CONTINUOUS
 10
230.1052938087307496
 20
154.4753714995920291
 30
0.0
 11
230.1052938091796989
 21
164.4753714995920291
 31
0.0
  0
LINE
  5
107
100
AcDbEntity
100
AcDbLine
  8
0
 62
7
370
-1
  6
CONTINUOUS
 10
230.1052938087307496
 20
132.4753714995920291
 30
0.0
 11
230.1052938096286482
 21
152.4753714995920291
 31
0.0
  0
LINE
  5
108
100
AcDbEntity
100
AcDbLine
  8
0
 62
7
370
-1
  6
CONTINUOUS
 10
230.1052938087307496
 20
110.4753714995920291
 30
0.0
 11
230.1052938096286482
 21
130.4753714995920291
 31
0.0
  0
LINE
  5
109
100
AcDbEntity
100
AcDbLine
  8
0
 62
7
370
-1
  6
CONTINUOUS
 10
230.1052938090898863
 20
96.4753714995920291
 30
0.0
 11
230.1052938096286482
 21
108.4753714995920291
 31
0.0
  0
LINE
  5
10A
100
AcDbEntity
100
AcDbLine
  8
0
 62
7
370
-1
  6
CONTINUOUS
 10
231.1052938087307496
 20
98.4753714995920291
 30
0.0
 11
231.1052938096286482
 21
118.4753714995920291
 31
0.0
  0
LINE
  5
10B
100
AcDbEntity
100
AcDbLine
  8
0
 62
7
370
-1
  6
CONTINUOUS
 10
231.1052938087307496
 20
120.4753714995920291
 30
0.0
 11
231.1052938096286482
 21
140.4753714995920291
 31
0.0
  0
LINE
  5
10C
100
AcDbEntity
100
AcDbLine
  8
0
 62
7
370
-1
  6
CONTINUOUS
 10
231.1052938087307496
 20
142.4753714995920291
 30
0.0
 11
231.1052938096286482
 21
162.4753714995920291
 31
0.0
  0
LINE
  5
10D
100
AcDbEntity
100
AcDbLine
  8
0
 62
7
370
-1
  6
CONTINUOUS
 10
232.1052938090898863
 20
96.4753714995920291
 30
0.0
 11
232.1052938096286482
 21
108.4753714995920291
 31
0.0
  0
LINE
  5
10E
100
AcDbEntity
100
AcDbLine
  8
0
 62
7
370
-1
  6
CONTINUOUS
 10
232.1052938087307496
 20
110.4753714995920291
 30
0.0
 11
232.1052938096286482
 21
130.4753714995920291
 31
0.0
  0
LINE
  5
10F
100
AcDbEntity
100
AcDbLine
  8
0
 62
7
370
-1
  6
CONTINUOUS
 10
232.1052938087307496
 20
132.4753714995920291
 30
0.0
 11
232.1052938096286482
 21
152.4753714995920291
 31
0.0
  0
LINE
  5
110
100
AcDbEntity
100
AcDbLine
  8
0
 62
7
370
-1
  6
CONTINUOUS
 10
232.1052938087307496
 20
154.4753714995920291
 30
0.0
 11
232.1052938091796989
 21
164.4753714995920291
 31
0.0
  0
LINE
  5
111
100
AcDbEntity
100
AcDbLine
  8
0
 62
7
370
-1
  6
CONTINUOUS
 10
233.1052938087307496
 20
98.4753714995920291
 30
0.0
 11
233.1052938096286482
 21
118.4753714995920291
 31
0.0
  0
LINE
  5
112
100
AcDbEntity
100
AcDbLine
  8
0
 62
7
370
-1
  6
CONTINUOUS
 10
233.1052938087307496
 20
120.4753714995920291
 30
0.0
 11
233.1052938096286482
 21
140.4753714995920291
 31
0.0
  0
LINE
  5
113
100
AcDbEntity
100
AcDbLine
  8
0
 62
7
370
-1
  6
CONTINUOUS
 10
233.1052938087307496
 20
142.4753714995920291
 30
0.0
 11
233.1052938096286482
 21
162.4753714995920291
 31
0.0
  0
LINE
  5
114
100
AcDbEntity
100
AcDbLine
  8
0
 62
7
370
-1
  6
CONTINUOUS
 10
234.1052938090898863
 20
96.4753714995920291
 30
0.0
 11
234.1052938096286482
 21
108.4753714995920291
 31
0.0
  0
LINE
  5
115
100
AcDbEntity
100
AcDbLine
  8
0
 62
7
370
-1
  6
CONTINUOUS
 10
234.1052938087307496
 20
110.4753714995920291
 30
0.0
 11
234.1052938096286482
 21
130.4753714995920291
 31
0.0
  0
LINE
  5
116
100
AcDbEntity
100
AcDbLine
  8
0
 62
7
370
-1
  6
CONTINUOUS
 10
234.1052938087307496
 20
132.4753714995920291
 30
0.0
 11
234.1052938096286482
 21
152.4753714995920291
 31
0.0
  0
LINE
  5
117
100
AcDbEntity
100
AcDbLine
  8
0
 62
7
370
-1
  6
CONTINUOUS
 10
234.1052938087307496
 20
154.4753714995920291
 30
0.0
 11
234.1052938091796989
 21
164.4753714995920291
 31
0.0
  0
LINE
  5
118
100
AcDbEntity
100
AcDbLine
  8
0
 62
7
370
-1
  6
CONTINUOUS
 10
235.1052938087307496
 20
98.4753714995920291
 30
0.0
 11
235.1052938096286482
 21
118.4753714995920291
 31
0.0
  0
LINE
  5
119
100
AcDbEntity
100
AcDbLine
  8
0
 62
7
370
-1
  6
CONTINUOUS
 10
235.1052938087307496
 20
120.4753714995920291
 30
0.0
 11
235.1052938096286482
 21
140.4753714995920291
 31
0.0
  0
LINE
  5
11A
100
AcDbEntity
100
AcDbLine
  8
0
 62
7
370
-1
  6
CONTINUOUS
 10
235.1052938087307496
 20
142.4753714995920291
 30
0.0
 11
235.1052938096286482
 21
162.4753714995920291
 31
0.0
  0
LINE
  5
11B
100
AcDbEntity
100
AcDbLine
  8
0
 62
7
370
-1
  6
CONTINUOUS
 10
236.1052938090898863
 20
96.4753714995920291
 30
0.0
 11
236.1052938096286482
 21
108.4753714995920291
 31
0.0
  0
LINE
  5
11C
100
AcDbEntity
100
AcDbLine
  8
0
 62
7
370
-1
  6
CONTINUOUS
 10
236.1052938087307496
 20
110.4753714995920291
 30
0.0
 11
236.1052938096286482
 21
130.4753714995920291
 31
0.0
  0
LINE
  5
11D
100
AcDbEntity
100
AcDbLine
  8
0
 62
7
370
-1
  6
CONTINUOUS
 10
236.1052938087307496
 20
132.4753714995920291
 30
0.0
 11
236.1052938096286482
 21
152.4753714995920291
 31
0.0
  0
LINE
  5
11E
100
AcDbEntity
100
AcDbLine
  8
0
 62
7
370
-1
  6
CONTINUOUS
 10
236.1052938087307496
 20
154.4753714995920291
 30
0.0
 11
236.1052938091796989
 21
164.4753714995920291
 31
0.0
  0
LINE
  5
11F
100
AcDbEntity
100
AcDbLine
  8
0
 62
7
370
-1
  6
CONTINUOUS
 10
237.1052938087307496
 20
98.4753714995920291
 30
0.0
 11
237.1052938096286482
 21
118.4753714995920291
 31
0.0
  0
LINE
  5
120
100
AcDbEntity
100
AcDbLine
  8
0
 62
7
370
-1
  6
CONTINUOUS
 10
237.1052938087307496
 20
120.4753714995920291
 30
0.0
 11
237.1052938096286482
 21
140.4753714995920291
 31
0.0
  0
LINE
  5
121
100
AcDbEntity
100
AcDbLine
  8
0
 62
7
370
-1
  6
CONTINUOUS
 10
237.1052938087307496
 20
142.4753714995920291
 30
0.0
 11
237.1052938096286482
 21
162.4753714995920291
 31
0.0
  0
LINE
  5
122
100
AcDbEntity
100
AcDbLine
  8
0
 62
7
370
-1
  6
CONTINUOUS
 10
238.1052938090898863
 20
96.4753714995920291
 30
0.0
 11
238.1052938096286482
 21
108.4753714995920291
 31
0.0
  0
LINE
  5
123
100
AcDbEntity
100
AcDbLine
  8
0
 62
7
370
-1
  6
CONTINUOUS
 10
238.1052938087307496
 20
110.4753714995920291
 30
0.0
 11
238.1052938096286482
 21
130.4753714995920291
 31
0.0
  0
LINE
  5
124
100
AcDbEntity
100
AcDbLine
  8
0
 62
7
370
-1
  6
CONTINUOUS
 10
238.1052938087307496
 20
132.4753714995920291
 30
0.0
 11
238.1052938096286482
 21
152.4753714995920291
 31
0.0
  0
LINE
  5
125
100
AcDbEntity
100
AcDbLine
  8
0
 62
7
370
-1
  6
CONTINUOUS
 10
238.1052938087307496
 20
154.4753714995920291
 30
0.0
 11
238.1052938091796989
 21
164.4753714995920291
 31
0.0
  0
LINE
  5
126
100
AcDbEntity
100
AcDbLine
  8
0
 62
7
370
-1
  6
CONTINUOUS
 10
239.1052938087307496
 20
98.4753714995920291
 30
0.0
 11
239.1052938096286482
 21
118.4753714995920291
 31
0.0
  0
LINE
  5
127
100
AcDbEntity
100
AcDbLine
  8
0
 62
7
370
-1
  6
CONTINUOUS
 10
239.1052938087307496
 20
120.4753714995920291
 30
0.0
 11
239.1052938096286482
 21
140.4753714995920291
 31
0.0
  0
LINE
  5
128
100
AcDbEntity
100
AcDbLine
  8
0
 62
7
370
-1
  6
CONTINUOUS
 10
239.1052938087307496
 20
142.4753714995920291
 30
0.0
 11
239.1052938096286482
 21
162.4753714995920291
 31
0.0
  0
LINE
  5
129
100
AcDbEntity
100
AcDbLine
  8
0
 62
7
370
-1
  6
CONTINUOUS
 10
240.1052938090898863
 20
96.4753714995920291
 30
0.0
 11
240.1052938096286482
 21
108.4753714995920291
 31
0.0
  0
LINE
  5
12A
100
AcDbEntity
100
AcDbLine
  8
0
 62
7
370
-1
  6
CONTINUOUS
 10
240.1052938087307496
 20
110.4753714995920291
 30
0.0
 11
240.1052938096286482
 21
130.4753714995920291
 31
0.0
  0
LINE
  5
12B
100
AcDbEntity
100
AcDbLine
  8
0
 62
7
370
-1
  6
CONTINUOUS
 10
240.1052938087307496
 20
132.4753714995920291
 30
0.0
 11
240.1052938096286482
 21
152.4753714995920291
 31
0.0
  0
LINE
  5
12C
100
AcDbEntity
100
AcDbLine
  8
0
 62
7
370
-1
  6
CONTINUOUS
 10
240.1052938087307496
 20
154.4753714995920291
 30
0.0
 11
240.1052938091796989
 21
164.4753714995920291
 31
0.0
  0
LINE
  5
12D
100
AcDbEntity
100
AcDbLine
  8
0
 62
7
370
-1
  6
CONTINUOUS
 10
241.1052938087307211
 20
98.4753714995920291
 30
0.0
 11
241.1052938096286198
 21
118.4753714995920291
 31
0.0
  0
LINE
  5
12E
100
AcDbEntity
100
AcDbLine
  8
0
 62
7
370
-1
  6
CONTINUOUS
 10
241.1052938087307211
 20
120.4753714995920291
 30
0.0
 11
241.1052938096286198
 21
140.4753714995920291
 31
0.0
  0
LINE
  5
12F
100
AcDbEntity
100
AcDbLine
  8
0
 62
7
370
-1
  6
CONTINUOUS
 10
241.1052938087307211
 20
142.4753714995920291
 30
0.0
 11
241.1052938096286198
 21
162.4753714995920291
 31
0.0
  0
LINE
  5
130
100
AcDbEntity
100
AcDbLine
  8
0
 62
7
370
-1
  6
CONTINUOUS
 10
242.1052938090898579
 20
96.4753714995920291
 30
0.0
 11
242.1052938096286198
 21
108.4753714995920291
 31
0.0
  0
LINE
  5
131
100
AcDbEntity
100
AcDbLine
  8
0
 62
7
370
-1
  6
CONTINUOUS
 10
242.1052938087307211
 20
110.4753714995920291
 30
0.0
 11
242.1052938096286198
 21
130.4753714995920291
 31
0.0
  0
LINE
  5
132
100
AcDbEntity
100
AcDbLine
  8
0
 62
7
370
-1
  6
CONTINUOUS
 10
242.1052938087307211
 20
132.4753714995920291
 30
0.0
 11
242.1052938096286198
 21
152.4753714995920291
 31
0.0
  0
LINE
  5
133
100
AcDbEntity
100
AcDbLine
  8
0
 62
7
370
-1
  6
CONTINUOUS
 10
242.1052938087307211
 20
154.4753714995920291
 30
0.0
 11
242.1052938091796705
 21
164.4753714995920291
 31
0.0
  0
LINE
  5
134
100
AcDbEntity
100
AcDbLine
  8
0
 62
7
370
-1
  6
CONTINUOUS
 10
243.1052938087307211
 20
98.4753714995920291
 30
0.0
 11
243.1052938096286198
 21
118.4753714995920291
 31
0.0
  0
LINE
  5
135
100
AcDbEntity
100
AcDbLine
  8
0
 62
7
370
-1
  6
CONTINUOUS
 10
243.1052938087307211
 20
120.4753714995920291
 30
0.0
 11
243.1052938096286198
 21
140.4753714995920291
 31
0.0
  0
LINE
  5
136
100
AcDbEntity
100
AcDbLine
  8
0
 62
7
370
-1
  6
CONTINUOUS
 10
243.1052938087307211
 20
142.4753714995920291
 30
0.0
 11
243.1052938096286198
 21
162.4753714995920291
 31
0.0
  0
LINE
  5
137
100
AcDbEntity
100
AcDbLine
  8
0
 62
7
370
-1
  6
CONTINUOUS
 10
244.1052938090898579
 20
96.4753714995920291
 30
0.0
 11
244.1052938096286198
 21
108.4753714995920291
 31
0.0
  0
LINE
  5
138
100
AcDbEntity
100
AcDbLine
  8
0
 62
7
370
-1
  6
CONTINUOUS
 10
244.1052938087307211
 20
110.4753714995920291
 30
0.0
 11
244.1052938096286198
 21
130.4753714995920291
 31
0.0
  0
LINE
  5
139
100
AcDbEntity
100
AcDbLine
  8
0
 62
7
370
-1
  6
CONTINUOUS
 10
244.1052938087307211
 20
132.4753714995920291
 30
0.0
 11
244.1052938096286198
 21
152.4753714995920291
 31
0.0
  0
LINE
  5
13A
100
AcDbEntity
100
AcDbLine
  8
0
 62
7
370
-1
  6
CONTINUOUS
 10
244.1052938087307211
 20
154.4753714995920291
 30
0.0
 11
244.1052938091796705
 21
164.4753714995920291
 31
0.0
  0
LINE
  5
13B
100
AcDbEntity
100
AcDbLine
  8
0
 62
7
370
-1
  6
CONTINUOUS
 10
228.1052938091796989
 20
164.4753714995920291
 30
0.0
 11
244.1052938091796705
 21
164.4753714995920291
 31
0.0
  0
LINE
  5
13C
100
AcDbEntity
100
AcDbLine
  8
0
 62
7
370
-1
  6
CONTINUOUS
 10
228.1052938090898863
 20
96.4753714995920291
 30
0.0
 11
244.1052938090898579
 21
96.4753714995920291
 31
0.0
  0
LINE
  5
13D
100
AcDbEntity
100
AcDbLine
  8
0
 62
7
370
-1
  6
CONTINUOUS
 10
45.7643118492015901
 20
164.4481454029893257
 30
0.0
 11
95.7873964472201038
 21
164.4282377845237306
 31
0.0
  0
LINE
  5
13E
100
AcDbEntity
100
AcDbLine
  8
0
 62
7
370
-1
  6
CONTINUOUS
 10
111.787396447220118
 20
164.4282377845237306
 30
0.0
 11
161.3120646705554577
 21
164.4315723204838378
 31
0.0
  0
LINE
  5
13F
100
AcDbEntity
100
AcDbLine
  8
0
 62
7
370
-1
  6
CONTINUOUS
 10
178.1203683560741808
 20
164.4282378248683472
 30
0.0
 11
228.1052938091796989
 21
164.4753714995920291
 31
0.0
  0
LINE
  5
140
100
AcDbEntity
100
AcDbLine
  8
0
 62
7
370
-1
  6
CONTINUOUS
 10
45.7643118491118059
 20
96.4481454029893257
 30
0.0
 11
95.7873964471303196
 21
96.4282377845237022
 31
0.0
  0
LINE
  5
141
100
AcDbEntity
100
AcDbLine
  8
0
 62
7
370
-1
  6
CONTINUOUS
 10
111.7873964471303054
 20
96.4282377845237022
 30
0.0
 11
162.1203683559843682
 21
96.4282378248683187
 31
0.0
  0
LINE
  5
142
100
AcDbEntity
100
AcDbLine
  8
0
 62
7
370
-1
  6
CONTINUOUS
 10
178.1203683559843682
 20
96.4282378248683187
 30
0.0
 11
228.1052938090898863
 21
96.4753714995920291
 31
0.0
  0
LINE
  5
143
100
AcDbEntity
100
AcDbLine
  8
0
 62
7
370
-1
  6
CONTINUOUS
 10
244.1052938091796705
 20
164.4753714995920291
 30
0.0
 11
269.1052938091796705
 21
164.4753714995920291
 31
0.0
  0
LINE
  5
144
100
AcDbEntity
100
AcDbLine
  8
0
 62
7
370
-1
  6
CONTINUOUS
 10
244.1052938090898579
 20
96.4753714995920291
 30
0.0
 11
269.1052938090898579
 21
96.4753714995920291
 31
0.0
  0
LINE
  5
145
100
AcDbEntity
100
AcDbLine
  8
0
 62
7
370
-1
  6
CONTINUOUS
 10
29.7643118492015901
 20
164.4481454029893257
 30
0.0
 11
4.7643118492015901
 21
164.4481454052341292
 31
0.0
  0
LINE
  5
146
100
AcDbEntity
100
AcDbLine
  8
0
 62
7
370
-1
  6
CONTINUOUS
 10
29.7643118491118059
 20
96.4481454029893257
 30
0.0
 11
4.7643118491118059
 21
96.4481454052341292
 31
0.0
  0
LINE
  5
147
100
AcDbEntity
100
AcDbLine
  8
0
 62
7
370
-1
  6
CONTINUOUS
 10
4.7643118491118059
 20
96.4481454052341292
 30
0.0
 11
4.7643118492015901
 21
164.4481454052341292
 31
0.0
  0
LINE
  5
148
100
AcDbEntity
100
AcDbLine
  8
0
 62
7
370
-1
  6
CONTINUOUS
 10
269.1052938091796705
 20
164.4753714995920291
 30
0.0
 11
269.1052938090898579
 21
96.4753714995920291
 31
0.0
  0
LINE
  5
149
100
AcDbEntity
100
AcDbLine
  8
0
 62
7
370
-1
  6
CONTINUOUS
 10
24.0501763327324625
 20
81.7906455883854164
 30
0.0
 11
74.0501763327324625
 21
81.7906455883854164
 31
0.0
  0
ARC
  5
14A
100
AcDbEntity
  8
0
 62
7
370
-1
  6
CONTINUOUS
100
AcDbCircle
 10
74.0501763327324625
 20
71.7906455883854164
 30
0.0
 40
10.0
100
AcDbArc
 50
0.0
 51
90.0
  0
LINE
  5
14B
100
AcDbEntity
100
AcDbLine
  8
0
 62
7
370
-1
  6
CONTINUOUS
 10
84.0501763327324625
 20
71.7906455883854164
 30
0.0
 11
84.0501763327324625
 21
21.7906455883854164
 31
0.0
  0
ARC
  5
14C
100
AcDbEntity
  8
0
 62
7
370
-1
  6
CONTINUOUS
100
AcDbCircle
 10
74.0501763327324625
 20
21.7906455883854164
 30
0.0
 40
10.0
100
AcDbArc
 50
270.0
 51
0.0
  0
LINE
  5
14D
100
AcDbEntity
100
AcDbLine
  8
0
 62
7
370
-1
  6
CONTINUOUS
 10
74.0501763327324625
 20
11.7906455883854164
 30
0.0
 11
24.0501763327324625
 21
11.7906455883854164
 31
0.0
  0
ARC
  5
14E
100
AcDbEntity
  8
0
 62
7
370
-1
  6
CONTINUOUS
100
AcDbCircle
 10
24.0501763327324625
 20
21.7906455883854164
 30
0.0
 40
10.0
100
AcDbArc
 50
180.0
 51
270.0
  0
LINE
  5
14F
100
AcDbEntity
100
AcDbLine
  8
0
 62
7
370
-1
  6
CONTINUOUS
 10
14.0501763327324625
 20
21.7906455883854164
 30
0.0
 11
14.0501763327324625
 21
71.7906455883854164
 31
0.0
  0
ARC
  5
150
100
AcDbEntity
  8
0
 62
7
370
-1
  6
CONTINUOUS
100
AcDbCircle
 10
24.0501763327324625
 20
71.7906455883854164
 30
0.0
 40
10.0
100
AcDbArc
 50
90.0
 51
180.0
  0
ARC
  5
151
100
AcDbEntity
  8
0
 62
7
370
-1
  6
CONTINUOUS
100
AcDbCircle
 10
74.0501763327325477
 20
71.7906455883854164
 30
0.0
 40
12.9999999999999147
100
AcDbArc
 50
0.0
 51
90.0
  0
LINE
  5
152
100
AcDbEntity
100
AcDbLine
  8
0
 62
7
370
-1
  6
CONTINUOUS
 10
74.0501763330916276
 20
84.7906455883854164
 30
0.0
 11
24.050176332867153
 21
84.7906455883854164
 31
0.0
  0
ARC
  5
153
100
AcDbEntity
  8
0
 62
7
370
-1
  6
CONTINUOUS
100
AcDbCircle
 10
24.0501763327319651
 20
71.7906455883854733
 30
0.0
 40
12.9999999999999432
100
AcDbArc
 50
90.0
 51
180.0
  0
LINE
  5
154
100
AcDbEntity
100
AcDbLine
  8
0
 62
7
370
-1
  6
CONTINUOUS
 10
11.0501763327324625
 20
71.7906455891038036
 30
0.0
 11
11.0501763327324625
 21
21.7906455886547974
 31
0.0
  0
ARC
  5
155
100
AcDbEntity
  8
0
 62
7
370
-1
  6
CONTINUOUS
100
AcDbCircle
 10
24.0501763327324625
 20
21.7906455883853027
 30
0.0
 40
13.0
100
AcDbArc
 50
180.0
 51
270.0
  0
LINE
  5
156
100
AcDbEntity
100
AcDbLine
  8
0
 62
7
370
-1
  6
CONTINUOUS
 10
24.0501763319243196
 20
8.7906455883854164
 30
0.0
 11
74.050176332867153
 21
8.7906455883854164
 31
0.0
  0
ARC
  5
157
100
AcDbEntity
  8
0
 62
7
370
-1
  6
CONTINUOUS
100
AcDbCircle
 10
74.0501763327325477
 20
21.7906455883853596
 30
0.0
 40
12.9999999999999432
100
AcDbArc
 50
270.0
 51
0.0
  0
LINE
  5
158
100
AcDbEntity
100
AcDbLine
  8
0
 62
7
370
-1
  6
CONTINUOUS
 10
87.0501763327324625
 20
21.7906455872181084
 30
0.0
 11
87.0501763327324625
 21
71.7906455883854164
 31
0.0
  0
ARC
  5
159
100
AcDbEntity
  8
0
 62
7
370
-1
  6
CONTINUOUS
100
AcDbCircle
 10
74.0501763327325477
 20
71.7906455883853596
 30
0.0
 40
18.9999999999999147
100
AcDbArc
 50
0.0
 51
90.0
  0
LINE
  5
15A
100
AcDbEntity
100
AcDbLine
  8
0
 62
7
370
-1
  6
CONTINUOUS
 10
74.0501763335855401
 20
90.7906455883853596
 30
0.0
 11
24.0501763333610086
 21
90.7906455883854164
 31
0.0
  0
ARC
  5
15B
100
AcDbEntity
  8
0
 62
7
370
-1
  6
CONTINUOUS
100
AcDbCircle
 10
24.0501763327320077
 20
71.7906455883854733
 30
0.0
 40
18.9999999999999432
100
AcDbArc
 50
90.0
 51
180.0
  0
LINE
  5
15C
100
AcDbEntity
100
AcDbLine
  8
0
 62
7
370
-1
  6
CONTINUOUS
 10
5.0501763327322422
 20
71.7906455900915148
 30
0.0
 11
5.0501763327324625
 21
21.7906455896425086
 31
0.0
  0
ARC
  5
15D
100
AcDbEntity
  8
0
 62
7
370
-1
  6
CONTINUOUS
100
AcDbCircle
 10
24.0501763327324625
 20
21.7906455883854164
 30
0.0
 40
19.0
100
AcDbArc
 50
180.0
 51
270.0
  0
LINE
  5
15E
100
AcDbEntity
100
AcDbLine
  8
0
 62
7
370
-1
  6
CONTINUOUS
 10
24.0501763307121053
 20
2.7906455883853596
 30
0.0
 11
74.0501763321937005
 21
2.7906455883854164
 31
0.0
  0
ARC
  5
15F
100
AcDbEntity
  8
0
 62
7
370
-1
  6
CONTINUOUS
100
AcDbCircle
 10
74.0501763327325477
 20
21.7906455883853596
 30
0.0
 40
18.9999999999999432
100
AcDbArc
 50
270.0
 51
0.0
  0
LINE
  5
160
100
AcDbEntity
100
AcDbLine
  8
0
 62
7
370
-1
  6
CONTINUOUS
 10
93.0501763327324909
 20
21.79064558551201
 30
0.0
 11
93.0501763327324625
 21
71.7906455883854164
 31
0.0
  0
ARC
  5
161
100
AcDbEntity
  8
0
 62
7
370
-1
  6
CONTINUOUS
100
AcDbCircle
 10
164.0501763327325477
 20
71.7906455883853596
 30
0.0
 40
18.9999999999999147
100
AcDbArc
 50
0.0
 51
90.0
  0
LINE
  5
162
100
AcDbEntity
100
AcDbLine
  8
0
 62
7
370
-1
  6
CONTINUOUS
 10
164.0501763335855401
 20
90.7906455883853596
 30
0.0
 11
114.0501763333610086
 21
90.7906455883854164
 31
0.0
  0
ARC
  5
163
100
AcDbEntity
  8
0
 62
7
370
-1
  6
CONTINUOUS
100
AcDbCircle
 10
114.0501763327320077
 20
71.7906455883854733
 30
0.0
 40
18.9999999999999432
100
AcDbArc
 50
90.0
 51
180.0
  0
LINE
  5
164
100
AcDbEntity
100
AcDbLine
  8
0
 62
7
370
-1
  6
CONTINUOUS
 10
95.0501763327322351
 20
71.7906455900915148
 30
0.0
 11
95.0501763327324625
 21
21.7906455896425086
 31
0.0
  0
ARC
  5
165
100
AcDbEntity
  8
0
 62
7
370
-1
  6
CONTINUOUS
100
AcDbCircle
 10
114.0501763327324625
 20
21.7906455883854164
 30
0.0
 40
19.0
100
AcDbArc
 50
180.0
 51
270.0
  0
LINE
  5
166
100
AcDbEntity
100
AcDbLine
  8
0
 62
7
370
-1
  6
CONTINUOUS
 10
114.0501763307121053
 20
2.7906455883853596
 30
0.0
 11
164.0501763321937005
 21
2.7906455883854164
 31
0.0
  0
ARC
  5
167
100
AcDbEntity
  8
0
 62
7
370
-1
  6
CONTINUOUS
100
AcDbCircle
 10
164.0501763327325193
 20
21.7906455883853596
 30
0.0
 40
18.9999999999999432
100
AcDbArc
 50
270.0
 51
0.0
  0
LINE
  5
168
100
AcDbEntity
100
AcDbLine
  8
0
 62
7
370
-1
  6
CONTINUOUS
 10
183.0501763327324909
 20
21.79064558551201
 30
0.0
 11
183.0501763327324625
 21
71.7906455883854164
 31
0.0
  0
ARC
  5
169
100
AcDbEntity
  8
0
 62
7
370
-1
  6
CONTINUOUS
100
AcDbCircle
 10
254.0501763327325477
 20
71.7906455883853596
 30
0.0
 40
18.9999999999999147
100
AcDbArc
 50
0.0
 51
90.0
  0
LINE
  5
16A
100
AcDbEntity
100
AcDbLine
  8
0
 62
7
370
-1
  6
CONTINUOUS
 10
254.0501763335855401
 20
90.7906455883853596
 30
0.0
 11
204.0501763333610086
 21
90.7906455883854164
 31
0.0
  0
ARC
  5
16B
100
AcDbEntity
  8
0
 62
7
370
-1
  6
CONTINUOUS
100
AcDbCircle
 10
204.0501763327319793
 20
71.7906455883854733
 30
0.0
 40
18.9999999999999432
100
AcDbArc
 50
90.0
 51
180.0
  0
LINE
  5
16C
100
AcDbEntity
100
AcDbLine
  8
0
 62
7
370
-1
  6
CONTINUOUS
 10
185.0501763327322351
 20
71.7906455900915148
 30
0.0
 11
185.0501763327324625
 21
21.7906455896425086
 31
0.0
  0
ARC
  5
16D
100
AcDbEntity
  8
0
 62
7
370
-1
  6
CONTINUOUS
100
AcDbCircle
 10
204.050176332732434
 20
21.7906455883854164
 30
0.0
 40
18.9999999999999716
100
AcDbArc
 50
180.0
 51
270.0
  0
LINE
  5
16E
100
AcDbEntity
100
AcDbLine
  8
0
 62
7
370
-1
  6
CONTINUOUS
 10
204.0501763307121053
 20
2.7906455883853596
 30
0.0
 11
254.0501763321936721
 21
2.7906455883854164
 31
0.0
  0
ARC
  5
16F
100
AcDbEntity
  8
0
 62
7
370
-1
  6
CONTINUOUS
100
AcDbCircle
 10
254.0501763327325477
 20
21.7906455883853596
 30
0.0
 40
18.9999999999999432
100
AcDbArc
 50
270.0
 51
0.0
  0
LINE
  5
170
100
AcDbEntity
100
AcDbLine
  8
0
 62
7
370
-1
  6
CONTINUOUS
 10
273.0501763327324625
 20
21.79064558551201
 30
0.0
 11
273.0501763327324625
 21
71.7906455883854164
 31
0.0
  0
ARC
  5
171
100
AcDbEntity
  8
0
 62
7
370
-1
  6
CONTINUOUS
100
AcDbCircle
 10
343.8426669418918777
 20
71.4315804106092855
 30
0.0
 40
9.5000000000004547
100
AcDbArc
 50
0.0
 51
90.0
  0
LINE
  5
172
100
AcDbEntity
100
AcDbLine
  8
0
 62
7
370
-1
  6
CONTINUOUS
 10
353.3426669418923325
 20
71.4315804106323071
 30
0.0
 11
353.3426669418923325
 21
21.4315804106547603
 31
0.0
  0
ARC
  5
173
100
AcDbEntity
  8
0
 62
7
370
-1
  6
CONTINUOUS
100
AcDbCircle
 10
343.8426669418924462
 20
21.4315804106099392
 30
0.0
 40
9.5000000000000853
100
AcDbArc
 50
270.0
 51
0.0
  0
LINE
  5
174
100
AcDbEntity
100
AcDbLine
  8
0
 62
7
370
-1
  6
CONTINUOUS
 10
343.842666942116864
 20
11.931580410609854
 30
0.0
 11
293.8426669419148425
 21
11.931580410609854
 31
0.0
  0
ARC
  5
175
100
AcDbEntity
  8
0
 62
7
370
-1
  6
CONTINUOUS
100
AcDbCircle
 10
293.8426669418923325
 20
21.4315804106098824
 30
0.0
 40
9.5
100
AcDbArc
 50
180.0
 51
270.0
  0
LINE
  5
176
100
AcDbEntity
100
AcDbLine
  8
0
 62
7
370
-1
  6
CONTINUOUS
 10
284.3426669418923325
 20
21.4315804110363786
 30
0.0
 11
284.3426669418923325
 21
71.431580410609854
 31
0.0
  0
ARC
  5
177
100
AcDbEntity
  8
0
 62
7
370
-1
  6
CONTINUOUS
100
AcDbCircle
 10
293.8426669418931283
 20
71.4315804106090582
 30
0.0
 40
9.5000000000007958
100
AcDbArc
 50
90.0
 51
180.0
  0
LINE
  5
178
100
AcDbEntity
100
AcDbLine
  8
0
 62
7
370
-1
  6
CONTINUOUS
 10
293.842666942116864
 20
80.931580410609854
 30
0.0
 11
343.8426669419148425
 21
80.931580410609854
 31
0.0
  0
ARC
  5
179
100
AcDbEntity
  8
0
 62
7
370
-1
  6
CONTINUOUS
100
AcDbCircle
 10
344.2505321080647605
 20
72.2473107429540846
 30
0.0
 40
12.9999999999999432
100
AcDbArc
 50
0.0
 51
90.0
  0
LINE
  5
17A
100
AcDbEntity
100
AcDbLine
  8
0
 62
7
370
-1
  6
CONTINUOUS
 10
344.2505321084238403
 20
85.2473107429540846
 30
0.0
 11
294.2505321081993657
 21
85.2473107429540846
 31
0.0
  0
ARC
  5
17B
100
AcDbEntity
  8
0
 62
7
370
-1
  6
CONTINUOUS
100
AcDbCircle
 10
294.250532108064192
 20
72.2473107429541415
 30
0.0
 40
12.9999999999999432
100
AcDbArc
 50
90.0
 51
180.0
  0
LINE
  5
17C
100
AcDbEntity
100
AcDbLine
  8
0
 62
7
370
-1
  6
CONTINUOUS
 10
281.2505321080647036
 20
72.2473107436724717
 30
0.0
 11
281.2505321080647036
 21
22.2473107432234656
 31
0.0
  0
ARC
  5
17D
100
AcDbEntity
  8
0
 62
7
370
-1
  6
CONTINUOUS
100
AcDbCircle
 10
294.2505321080647036
 20
22.2473107429539709
 30
0.0
 40
13.0
100
AcDbArc
 50
180.0
 51
270.0
  0
LINE
  5
17E
100
AcDbEntity
100
AcDbLine
  8
0
 62
7
370
-1
  6
CONTINUOUS
 10
294.2505321072565039
 20
9.2473107429540846
 30
0.0
 11
344.2505321081993657
 21
9.2473107429540846
 31
0.0
  0
ARC
  5
17F
100
AcDbEntity
  8
0
 62
7
370
-1
  6
CONTINUOUS
100
AcDbCircle
 10
344.2505321080647605
 20
22.2473107429540278
 30
0.0
 40
12.9999999999999432
100
AcDbArc
 50
270.0
 51
0.0
  0
LINE
  5
180
100
AcDbEntity
100
AcDbLine
  8
0
 62
7
370
-1
  6
CONTINUOUS
 10
357.2505321080647036
 20
22.2473107417867766
 30
0.0
 11
357.2505321080647036
 21
72.2473107429540846
 31
0.0
  0
ARC
  5
181
100
AcDbEntity
  8
0
 62
7
370
-1
  6
CONTINUOUS
100
AcDbCircle
 10
344.2505321080647605
 20
72.2473107429540278
 30
0.0
 40
18.9999999999999432
100
AcDbArc
 50
0.0
 51
90.0
  0
LINE
  5
182
100
AcDbEntity
100
AcDbLine
  8
0
 62
7
370
-1
  6
CONTINUOUS
 10
344.2505321089177528
 20
91.2473107429540278
 30
0.0
 11
294.2505321086932213
 21
91.2473107429540846
 31
0.0
  0
ARC
  5
183
100
AcDbEntity
  8
0
 62
7
370
-1
  6
CONTINUOUS
100
AcDbCircle
 10
294.2505321080642489
 20
72.2473107429541415
 30
0.0
 40
18.9999999999999432
100
AcDbArc
 50
90.0
 51
180.0
  0
LINE
  5
184
100
AcDbEntity
100
AcDbLine
  8
0
 62
7
370
-1
  6
CONTINUOUS
 10
275.2505321080644762
 20
72.247310744660183
 30
0.0
 11
275.2505321080647036
 21
22.2473107442111768
 31
0.0
  0
ARC
  5
185
100
AcDbEntity
  8
0
 62
7
370
-1
  6
CONTINUOUS
100
AcDbCircle
 10
294.2505321080647036
 20
22.2473107429540846
 30
0.0
 40
19.0
100
AcDbArc
 50
180.0
 51
270.0
  0
LINE
  5
186
100
AcDbEntity
100
AcDbLine
  8
0
 62
7
370
-1
  6
CONTINUOUS
 10
294.250532106044318
 20
3.2473107429540278
 30
0.0
 11
344.2505321075259417
 21
3.2473107429540846
 31
0.0
  0
ARC
  5
187
100
AcDbEntity
  8
0
 62
7
370
-1
  6
CONTINUOUS
100
AcDbCircle
 10
344.2505321080647605
 20
22.2473107429540278
 30
0.0
 40
18.9999999999999432
100
AcDbArc
 50
270.0
 51
0.0
  0
LINE
  5
188
100
AcDbEntity
100
AcDbLine
  8
0
 62
7
370
-1
  6
CONTINUOUS
 10
363.2505321080647036
 20
22.2473107400806782
 30
0.0
 11
363.2505321080647036
 21
72.2473107429540846
 31
0.0
  0
ENDSEC
  0
SECTION
  2
OBJECTS
  0
DICTIONARY
  5
C
100
AcDbDictionary
280
0
281
1
  3
ACAD_GROUP
350
D
  3
ACAD_LAYOUT
350
1A
  3
ACAD_MLINESTYLE
350
17
  3
ACAD_PLOTSETTINGS
350
19
  3
ACAD_PLOTSTYLENAME
350
E
  3
AcDbVariableDictionary
350
189
  0
DICTIONARY
  5
D
100
AcDbDictionary
280
0
281
1
  0
ACDBDICTIONARYWDFLT
  5
E
100
AcDbDictionary
281
1
  3
Normal
350
F
100
AcDbDictionaryWithDefault
340
F
  0
ACDBPLACEHOLDER
  5
F
  0
DICTIONARY
  5
17
100
AcDbDictionary
280
0
281
1
  3
Standard
350
18
  0
MLINESTYLE
  5
18
100
AcDbMlineStyle
  2
STANDARD
 70
0
  3

 62
256
 51
90.0
 52
90.0
 71
2
 49
0.5
 62
256
  6
BYLAYER
 49
-0.5
 62
256
  6
BYLAYER
  0
DICTIONARY
  5
19
100
AcDbDictionary
280
0
281
1
  0
DICTIONARY
  5
1A
100
AcDbDictionary
281
1
  3
Layout1
350
1E
  3
Layout2
350
26
  3
Model
350
22
  0
LAYOUT
  5
1E
100
AcDbPlotSettings
  1

  2
C:\Program Files\AutoCAD 2002\plotters\DWF ePlot (optimized for plotting).pc3
  4

  6

 40
0.0
 41
0.0
 42
0.0
 43
0.0
 44
0.0
 45
0.0
 46
0.0
 47
0.0
 48
0.0
 49
0.0
140
0.0
141
0.0
142
1.0
143
1.0
 70
688
 72
0
 73
0
 74
5
  7

 75
16
147
1.0
148
0.0
149
0.0
100
AcDbLayout
  1
Layout1
 70
1
 71
1
 10
0.0
 20
0.0
 11
420.0
 21
297.0
 12
0.0
 22
0.0
 32
0.0
 14
100000000000000000000.0
 24
100000000000000000000.0
 34
100000000000000000000.0
 15
-100000000000000000000.0
 25
-100000000000000000000.0
 35
-100000000000000000000.0
146
0.0
 13
0.0
 23
0.0
 33
0.0
 16
1.0
 26
0.0
 36
0.0
 17
0.0
 27
1.0
 37
0.0
 76
0
330
1B
  0
LAYOUT
  5
22
100
AcDbPlotSettings
  1

  2
C:\Program Files\AutoCAD 2002\plotters\DWF ePlot (optimized for plotting).pc3
  4

  6

 40
0.0
 41
0.0
 42
0.0
 43
0.0
 44
0.0
 45
0.0
 46
0.0
 47
0.0
 48
0.0
 49
0.0
140
0.0
141
0.0
142
1.0
143
1.0
 70
1712
 72
0
 73
0
 74
0
  7

 75
0
147
1.0
148
0.0
149
0.0
100
AcDbLayout
  1
Model
 70
1
 71
0
 10
0.0
 20
0.0
 11
12.0
 21
9.0
 12
0.0
 22
0.0
 32
0.0
 14
0.0
 24
0.0
 34
0.0
 15
0.0
 25
0.0
 35
0.0
146
0.0
 13
0.0
 23
0.0
 33
0.0
 16
1.0
 26
0.0
 36
0.0
 17
0.0
 27
1.0
 37
0.0
 76
0
330
1F
  0
LAYOUT
  5
26
100
AcDbPlotSettings
  1

  2
C:\Program Files\AutoCAD 2002\plotters\DWF ePlot (optimized for plotting).pc3
  4

  6

 40
0.0
 41
0.0
 42
0.0
 43
0.0
 44
0.0
 45
0.0
 46
0.0
 47
0.0
 48
0.0
 49
0.0
140
0.0
141
0.0
142
1.0
143
1.0
 70
688
 72
0
 73
0
 74
5
  7

 75
16
147
1.0
148
0.0
149
0.0
100
AcDbLayout
  1
Layout2
 70
1
 71
2
 10
0.0
 20
0.0
 11
12.0
 21
9.0
 12
0.0
 22
0.0
 32
0.0
 14
0.0
 24
0.0
 34
0.0
 15
0.0
 25
0.0
 35
0.0
146
0.0
 13
0.0
 23
0.0
 33
0.0
 16
1.0
 26
0.0
 36
0.0
 17
0.0
 27
1.0
 37
0.0
 76
0
330
23
  0
DICTIONARY
  5
189
100
AcDbDictionary
281
1
  3
DIMASSOC
350
18B
  3
HIDETEXT
350
18A
  0
DICTIONARYVAR
  5
18A
100
DictionaryVariables
280
0
  1
2
  0
DICTIONARYVAR
  5
18B
100
DictionaryVariables
280
0
  1
1
  0
ENDSEC
  0
EOF
