999
dxfrw 0.5.11
0
SECTION
2
HEADER
9
$ACADVER
1
AC1021
9
$HANDSEED
5
20000
9
$DWGCODEPAGE
3
ANSI_1252
9
$INSBASE
10
0
20
0
30
0
9
$EXTMIN
10
0
20
7
30
0
9
$EXTMAX
10
157
20
113
30
0
9
$LIMMIN
10
0
20
0
9
$LIMMAX
10
420
20
297
9
$ORTHOMODE
70
0
9
$LTSCALE
40
1
9
$TEXTSTYLE
7
STANDARD
9
$CLAYER
8
Cutouts
9
$DIMASZ
40
2.5
9
$DIMLFAC
40
1
9
$DIMSCALE
40
1
9
$DIMEXO
40
0.625
9
$DIMEXE
40
1.25
9
$DIMTXT
40
2.5
9
$DIMTSZ
40
0
9
$DIMAUNIT
70
0
9
$DIMADEC
70
0
9
$DIMLUNIT
70
2
9
$DIMSTYLE
2
STANDARD
9
$DIMGAP
40
0.625
9
$DIMTIH
70
0
9
$LUNITS
70
2
9
$LUPREC
70
4
9
$AUNITS
70
0
9
$AUPREC
70
2
9
$SPLINESEGS
70
8
9
$GRIDMODE
70
1
9
$SNAPSTYLE
70
0
9
$PINSBASE
10
0
20
0
30
0
9
$PLIMMIN
10
0
20
0
9
$PLIMMAX
10
210
20
297
9
$INSUNITS
70
4
9
$PSVPSCALE
40
0
0
ENDSEC
0
SECTION
2
CLASSES
0
ENDSEC
0
SECTION
2
TABLES
0
TABLE
2
VPORT
5
8
330
0
100
AcDbSymbolTable
70
1
0
VPORT
5
31
330
2
100
AcDbSymbolTableRecord
100
AcDbViewportTableRecord
2
*ACTIVE
70
0
10
0
20
0
11
1
21
1
12
84.3370202182
22
57.1484426523
13
0
23
0
14
10
24
10
15
10
25
10
16
0
26
0
36
1
17
0
27
0
37
0
40
108.904109589
41
1.78129298487
42
50
43
0
44
0
50
0
51
0
71
0
72
100
73
1
74
3
75
0
76
1
77
0
78
0
281
0
65
1
110
0
120
0
130
0
111
1
121
0
131
0
112
0
122
1
132
0
79
0
146
0
348
10020
60
7
61
5
292
1
282
1
141
0
142
0
63
250
421
3358443
0
ENDTAB
0
TABLE
2
LTYPE
5
5
330
0
100
AcDbSymbolTable
70
4
0
LTYPE
5
14
330
5
100
AcDbSymbolTableRecord
100
AcDbLinetypeTableRecord
2
ByBlock
70
0
3

72
65
73
0
40
0
0
LTYPE
5
15
330
5
100
AcDbSymbolTableRecord
100
AcDbLinetypeTableRecord
2
ByLayer
70
0
3

72
65
73
0
40
0
0
LTYPE
5
16
330
5
100
AcDbSymbolTableRecord
100
AcDbLinetypeTableRecord
2
Continuous
70
0
3
Solid line
72
65
73
0
40
0
0
LTYPE
5
32
330
5
100
AcDbSymbolTableRecord
100
AcDbLinetypeTableRecord
2
DOT
70
0
3
Dot . . . . . . . . . . . . . . . . . . . . . .
72
65
73
2
40
6.35
49
0
74
0
49
-6.35
74
0
0
LTYPE
5
33
330
5
100
AcDbSymbolTableRecord
100
AcDbLinetypeTableRecord
2
DOT2
70
0
3
Dot (.5x) .....................................
72
65
73
2
40
3.175
49
0
74
0
49
-3.175
74
0
0
LTYPE
5
34
330
5
100
AcDbSymbolTableRecord
100
AcDbLinetypeTableRecord
2
DOTX2
70
0
3
Dot (2x) .  .  .  .  .  .  .  .  .  .  .  .  .
72
65
73
2
40
12.7
49
0
74
0
49
-12.7
74
0
0
LTYPE
5
35
330
5
100
AcDbSymbolTableRecord
100
AcDbLinetypeTableRecord
2
DASHED
70
0
3
Dot . . . . . . . . . . . . . . . . . . . . . .
72
65
73
2
40
19.05
49
12.7
74
0
49
-6.35
74
0
0
LTYPE
5
36
330
5
100
AcDbSymbolTableRecord
100
AcDbLinetypeTableRecord
2
DASHED2
70
0
3
Dashed (.5x) _ _ _ _ _ _ _ _ _ _ _ _ _ _ _ _ _
72
65
73
2
40
9.525
49
6.35
74
0
49
-3.175
74
0
0
LTYPE
5
37
330
5
100
AcDbSymbolTableRecord
100
AcDbLinetypeTableRecord
2
DASHEDX2
70
0
3
Dashed (2x) ____  ____  ____  ____  ____  ___
72
65
73
2
40
38.1
49
25.4
74
0
49
-12.7
74
0
0
LTYPE
5
38
330
5
100
AcDbSymbolTableRecord
100
AcDbLinetypeTableRecord
2
DASHDOT
70
0
3
Dash dot __ . __ . __ . __ . __ . __ . __ . __
72
65
73
4
40
25.4
49
12.7
74
0
49
-6.35
74
0
49
0
74
0
49
-6.35
74
0
0
LTYPE
5
39
330
5
100
AcDbSymbolTableRecord
100
AcDbLinetypeTableRecord
2
DASHDOT2
70
0
3
Dash dot (.5x) _._._._._._._._._._._._._._._.
72
65
73
4
40
12.7
49
6.35
74
0
49
-3.175
74
0
49
0
74
0
49
-3.175
74
0
0
LTYPE
5
3A
330
5
100
AcDbSymbolTableRecord
100
AcDbLinetypeTableRecord
2
DASHDOTX2
70
0
3
Dash dot (2x) ____  .  ____  .  ____  .  ___
72
65
73
4
40
50.8
49
25.4
74
0
49
-12.7
74
0
49
0
74
0
49
-12.7
74
0
0
LTYPE
5
3B
330
5
100
AcDbSymbolTableRecord
100
AcDbLinetypeTableRecord
2
DIVIDE
70
0
3
Divide ____ . . ____ . . ____ . . ____ . . ____
72
65
73
6
40
31.75
49
12.7
74
0
49
-6.35
74
0
49
0
74
0
49
-6.35
74
0
49
0
74
0
49
-6.35
74
0
0
LTYPE
5
3C
330
5
100
AcDbSymbolTableRecord
100
AcDbLinetypeTableRecord
2
DIVIDE2
70
0
3
Divide (.5x) __..__..__..__..__..__..__..__.._
72
65
73
6
40
15.875
49
6.35
74
0
49
-3.175
74
0
49
0
74
0
49
-3.175
74
0
49
0
74
0
49
-3.175
74
0
0
LTYPE
5
3D
330
5
100
AcDbSymbolTableRecord
100
AcDbLinetypeTableRecord
2
DIVIDEX2
70
0
3
Divide (2x) ________  .  .  ________  .  .  _
72
65
73
6
40
63.5
49
25.4
74
0
49
-12.7
74
0
49
0
74
0
49
-12.7
74
0
49
0
74
0
49
-12.7
74
0
0
LTYPE
5
3E
330
5
100
AcDbSymbolTableRecord
100
AcDbLinetypeTableRecord
2
BORDER
70
0
3
Border __ __ . __ __ . __ __ . __ __ . __ __ .
72
65
73
6
40
44.45
49
12.7
74
0
49
-6.35
74
0
49
12.7
74
0
49
-6.35
74
0
49
0
74
0
49
-6.35
74
0
0
LTYPE
5
3F
330
5
100
AcDbSymbolTableRecord
100
AcDbLinetypeTableRecord
2
BORDER2
70
0
3
Border (.5x) __.__.__.__.__.__.__.__.__.__.__.
72
65
73
6
40
22.225
49
6.35
74
0
49
-3.175
74
0
49
6.35
74
0
49
-3.175
74
0
49
0
74
0
49
-3.175
74
0
0
LTYPE
5
40
330
5
100
AcDbSymbolTableRecord
100
AcDbLinetypeTableRecord
2
BORDERX2
70
0
3
Border (2x) ____  ____  .  ____  ____  .  ___
72
65
73
6
40
88.9
49
25.4
74
0
49
-12.7
74
0
49
25.4
74
0
49
-12.7
74
0
49
0
74
0
49
-12.7
74
0
0
LTYPE
5
41
330
5
100
AcDbSymbolTableRecord
100
AcDbLinetypeTableRecord
2
CENTER
70
0
3
Center ____ _ ____ _ ____ _ ____ _ ____ _ ____
72
65
73
4
40
50.8
49
31.75
74
0
49
-6.35
74
0
49
6.35
74
0
49
-6.35
74
0
0
LTYPE
5
42
330
5
100
AcDbSymbolTableRecord
100
AcDbLinetypeTableRecord
2
CENTER2
70
0
3
Center (.5x) ___ _ ___ _ ___ _ ___ _ ___ _ ___
72
65
73
4
40
28.575
49
19.05
74
0
49
-3.175
74
0
49
3.175
74
0
49
-3.175
74
0
0
LTYPE
5
43
330
5
100
AcDbSymbolTableRecord
100
AcDbLinetypeTableRecord
2
CENTERX2
70
0
3
Center (2x) ________  __  ________  __  _____
72
65
73
4
40
101.6
49
63.5
74
0
49
-12.7
74
0
49
12.7
74
0
49
-12.7
74
0
0
ENDTAB
0
TABLE
2
LAYER
5
2
330
0
100
AcDbSymbolTable
70
1
0
LAYER
5
10
330
2
100
AcDbSymbolTableRecord
100
AcDbLayerTableRecord
2
0
70
0
62
7
6
CONTINUOUS
370
0
390
F
0
LAYER
5
44
330
2
100
AcDbSymbolTableRecord
100
AcDbLayerTableRecord
2
2xPowerConn_MountingHoles
70
0
62
1
6
CONTINUOUS
370
0
390
F
0
LAYER
5
45
330
2
100
AcDbSymbolTableRecord
100
AcDbLayerTableRecord
2
2xPowerConn_Outer
70
0
62
2
6
CONTINUOUS
370
0
390
F
0
LAYER
5
46
330
2
100
AcDbSymbolTableRecord
100
AcDbLayerTableRecord
2
3x10_Male
70
0
62
1
6
CONTINUOUS
370
0
390
F
0
LAYER
5
47
330
2
100
AcDbSymbolTableRecord
100
AcDbLayerTableRecord
2
Cutouts
70
0
62
1
6
CONTINUOUS
370
0
390
F
0
LAYER
5
48
330
2
100
AcDbSymbolTableRecord
100
AcDbLayerTableRecord
2
M3_ScrewJoint
70
0
62
1
6
CONTINUOUS
370
0
390
F
0
LAYER
5
49
330
2
100
AcDbSymbolTableRecord
100
AcDbLayerTableRecord
2
Panel
70
0
62
1
6
CONTINUOUS
370
0
390
F
0
LAYER
5
4A
330
2
100
AcDbSymbolTableRecord
100
AcDbLayerTableRecord
2
Text
70
0
62
7
6
CONTINUOUS
370
0
390
F
0
ENDTAB
0
TABLE
2
STYLE
5
3
330
0
100
AcDbSymbolTable
70
3
0
STYLE
5
4B
330
2
100
AcDbSymbolTableRecord
100
AcDbTextStyleTableRecord
2
Standard
70
0
40
0
41
1
50
0
71
0
42
1
3
txt
4

0
ENDTAB
0
TABLE
2
VIEW
5
6
330
0
100
AcDbSymbolTable
70
0
0
ENDTAB
0
TABLE
2
UCS
5
7
330
0
100
AcDbSymbolTable
70
0
0
ENDTAB
0
TABLE
2
APPID
5
9
330
0
100
AcDbSymbolTable
70
1
0
APPID
5
12
330
9
100
AcDbSymbolTableRecord
100
AcDbRegAppTableRecord
2
ACAD
70
0
0
ENDTAB
0
TABLE
2
DIMSTYLE
5
A
330
0
100
AcDbSymbolTable
70
1
100
AcDbDimStyleTable
71
1
0
DIMSTYLE
105
4C
330
A
100
AcDbSymbolTableRecord
100
AcDbDimStyleTableRecord
2
Standard
70
0
40
1
41
2.5
42
0.625
43
0.38
44
1.25
45
0
46
0
47
0
48
0
140
2.5
141
0.09
142
0
143
25.4
144
1
145
0
146
1
147
0.625
148
0
71
0
72
0
73
0
74
1
75
0
76
0
77
0
78
0
79
0
170
0
171
2
172
0
173
0
174
0
175
0
176
0
177
0
178
0
179
0
271
4
272
4
273
2
274
2
275
0
276
0
277
2
278
46
279
0
280
0
281
0
282
0
283
1
284
0
285
0
286
0
288
0
289
3
340
Standard
341

371
-2
372
-2
0
ENDTAB
0
TABLE
2
BLOCK_RECORD
5
1
330
0
100
AcDbSymbolTable
70
2
0
BLOCK_RECORD
5
1F
330
1
100
AcDbSymbolTableRecord
100
AcDbBlockTableRecord
2
*Model_Space
70
0
280
1
281
0
0
BLOCK_RECORD
5
1E
330
1
100
AcDbSymbolTableRecord
100
AcDbBlockTableRecord
2
*Paper_Space
70
0
280
1
281
0
0
BLOCK_RECORD
5
4D
330
1
100
AcDbSymbolTableRecord
100
AcDbBlockTableRecord
2
3x10_Male-0
70
0
280
1
281
0
0
BLOCK_RECORD
5
50
330
1
100
AcDbSymbolTableRecord
100
AcDbBlockTableRecord
2
3x10_Male-1
70
0
280
1
281
0
0
BLOCK_RECORD
5
53
330
1
100
AcDbSymbolTableRecord
100
AcDbBlockTableRecord
2
3x10_Male-2
70
0
280
1
281
0
0
BLOCK_RECORD
5
56
330
1
100
AcDbSymbolTableRecord
100
AcDbBlockTableRecord
2
M3_ScrewJoint-0
70
0
280
1
281
0
0
BLOCK_RECORD
5
59
330
1
100
AcDbSymbolTableRecord
100
AcDbBlockTableRecord
2
M3_ScrewJoint-1
70
0
280
1
281
0
0
BLOCK_RECORD
5
5C
330
1
100
AcDbSymbolTableRecord
100
AcDbBlockTableRecord
2
M3_ScrewJoint-2
70
0
280
1
281
0
0
BLOCK_RECORD
5
5F
330
1
100
AcDbSymbolTableRecord
100
AcDbBlockTableRecord
2
M3_ScrewJoint-3
70
0
280
1
281
0
0
BLOCK_RECORD
5
62
330
1
100
AcDbSymbolTableRecord
100
AcDbBlockTableRecord
2
2Pole_PowerConnector-0
70
0
280
1
281
0
0
BLOCK_RECORD
5
65
330
1
100
AcDbSymbolTableRecord
100
AcDbBlockTableRecord
2
2Pole_PowerConnector-1
70
0
280
1
281
0
0
ENDTAB
0
ENDSEC
0
SECTION
2
BLOCKS
0
BLOCK
5
20
330
1F
100
AcDbEntity
8
0
100
AcDbBlockBegin
2
*Model_Space
70
0
10
0
20
0
30
0
3
*Model_Space
1

0
ENDBLK
5
21
330
1F
100
AcDbEntity
8
0
100
AcDbBlockEnd
0
BLOCK
5
1C
330
1B
100
AcDbEntity
8
0
100
AcDbBlockBegin
2
*Paper_Space
70
0
10
0
20
0
30
0
3
*Paper_Space
1

0
ENDBLK
5
1D
330
1F
100
AcDbEntity
8
0
100
AcDbBlockEnd
0
BLOCK
5
4E
330
4D
100
AcDbEntity
8
0
100
AcDbBlockBegin
2
3x10_Male-0
70
0
10
0
20
0
3
3x10_Male-0
1

0
LINE
5
68
100
AcDbEntity
8
3x10_Male
6
ByLayer
62
256
370
-1
100
AcDbLine
10
0
20
5
11
3
21
5
0
LINE
5
69
100
AcDbEntity
8
3x10_Male
6
ByLayer
62
256
370
-1
100
AcDbLine
10
3
20
5
11
3
21
-5
0
LINE
5
6A
100
AcDbEntity
8
3x10_Male
6
ByLayer
62
256
370
-1
100
AcDbLine
10
3
20
-5
11
0
21
-5
0
ENDBLK
5
4F
330
4D
100
AcDbEntity
8
0
100
AcDbBlockEnd
0
BLOCK
5
51
330
50
100
AcDbEntity
8
0
100
AcDbBlockBegin
2
3x10_Male-1
70
0
10
0
20
0
3
3x10_Male-1
1

0
LINE
5
6B
100
AcDbEntity
8
3x10_Male
6
ByLayer
62
256
370
-1
100
AcDbLine
10
0
20
5
11
3
21
5
0
LINE
5
6C
100
AcDbEntity
8
3x10_Male
6
ByLayer
62
256
370
-1
100
AcDbLine
10
3
20
5
11
3
21
-5
0
LINE
5
6D
100
AcDbEntity
8
3x10_Male
6
ByLayer
62
256
370
-1
100
AcDbLine
10
3
20
-5
11
0
21
-5
0
ENDBLK
5
52
330
50
100
AcDbEntity
8
0
100
AcDbBlockEnd
0
BLOCK
5
54
330
53
100
AcDbEntity
8
0
100
AcDbBlockBegin
2
3x10_Male-2
70
0
10
0
20
0
3
3x10_Male-2
1

0
LINE
5
6E
100
AcDbEntity
8
3x10_Male
6
ByLayer
62
256
370
-1
100
AcDbLine
10
0
20
5
11
3
21
5
0
LINE
5
6F
100
AcDbEntity
8
3x10_Male
6
ByLayer
62
256
370
-1
100
AcDbLine
10
3
20
5
11
3
21
-5
0
LINE
5
70
100
AcDbEntity
8
3x10_Male
6
ByLayer
62
256
370
-1
100
AcDbLine
10
3
20
-5
11
0
21
-5
0
ENDBLK
5
55
330
53
100
AcDbEntity
8
0
100
AcDbBlockEnd
0
BLOCK
5
57
330
56
100
AcDbEntity
8
0
100
AcDbBlockBegin
2
M3_ScrewJoint-0
70
0
10
0
20
0
3
M3_ScrewJoint-0
1

0
LINE
5
71
100
AcDbEntity
8
M3_ScrewJoint
6
ByLayer
62
256
370
-1
100
AcDbLine
10
1.75
20
10
11
-1.75
21
10
0
LINE
5
72
100
AcDbEntity
8
M3_ScrewJoint
6
ByLayer
62
256
370
-1
100
AcDbLine
10
-3
20
8
11
-3
21
5.5
0
LINE
5
73
100
AcDbEntity
8
M3_ScrewJoint
6
ByLayer
62
256
370
-1
100
AcDbLine
10
3
20
8
11
3
21
5.5
0
LINE
5
74
100
AcDbEntity
8
M3_ScrewJoint
6
ByLayer
62
256
370
-1
100
AcDbLine
10
-1.75
20
5.5
11
-1.75
21
0
0
LINE
5
75
100
AcDbEntity
8
M3_ScrewJoint
6
ByLayer
62
256
370
-1
100
AcDbLine
10
-1.75
20
10
11
-1.75
21
8
0
LINE
5
76
100
AcDbEntity
8
M3_ScrewJoint
6
ByLayer
62
256
370
-1
100
AcDbLine
10
1.75
20
8
11
1.75
21
10
0
LINE
5
77
100
AcDbEntity
8
M3_ScrewJoint
6
ByLayer
62
256
370
-1
100
AcDbLine
10
1.75
20
0
11
1.75
21
5.5
0
LINE
5
78
100
AcDbEntity
8
M3_ScrewJoint
6
ByLayer
62
256
370
-1
100
AcDbLine
10
-3
20
5.5
11
-1.75
21
5.5
0
LINE
5
79
100
AcDbEntity
8
M3_ScrewJoint
6
ByLayer
62
256
370
-1
100
AcDbLine
10
1.75
20
5.5
11
3
21
5.5
0
LINE
5
7A
100
AcDbEntity
8
M3_ScrewJoint
6
ByLayer
62
256
370
-1
100
AcDbLine
10
3
20
8
11
1.75
21
8
0
LINE
5
7B
100
AcDbEntity
8
M3_ScrewJoint
6
ByLayer
62
256
370
-1
100
AcDbLine
10
-1.75
20
8
11
-3
21
8
0
ENDBLK
5
58
330
56
100
AcDbEntity
8
0
100
AcDbBlockEnd
0
BLOCK
5
5A
330
59
100
AcDbEntity
8
0
100
AcDbBlockBegin
2
M3_ScrewJoint-1
70
0
10
0
20
0
3
M3_ScrewJoint-1
1

0
LINE
5
7C
100
AcDbEntity
8
M3_ScrewJoint
6
ByLayer
62
256
370
-1
100
AcDbLine
10
1.75
20
10
11
-1.75
21
10
0
LINE
5
7D
100
AcDbEntity
8
M3_ScrewJoint
6
ByLayer
62
256
370
-1
100
AcDbLine
10
-3
20
8
11
-3
21
5.5
0
LINE
5
7E
100
AcDbEntity
8
M3_ScrewJoint
6
ByLayer
62
256
370
-1
100
AcDbLine
10
3
20
8
11
3
21
5.5
0
LINE
5
7F
100
AcDbEntity
8
M3_ScrewJoint
6
ByLayer
62
256
370
-1
100
AcDbLine
10
-1.75
20
5.5
11
-1.75
21
0
0
LINE
5
80
100
AcDbEntity
8
M3_ScrewJoint
6
ByLayer
62
256
370
-1
100
AcDbLine
10
-1.75
20
10
11
-1.75
21
8
0
LINE
5
81
100
AcDbEntity
8
M3_ScrewJoint
6
ByLayer
62
256
370
-1
100
AcDbLine
10
1.75
20
8
11
1.75
21
10
0
LINE
5
82
100
AcDbEntity
8
M3_ScrewJoint
6
ByLayer
62
256
370
-1
100
AcDbLine
10
1.75
20
0
11
1.75
21
5.5
0
LINE
5
83
100
AcDbEntity
8
M3_ScrewJoint
6
ByLayer
62
256
370
-1
100
AcDbLine
10
-3
20
5.5
11
-1.75
21
5.5
0
LINE
5
84
100
AcDbEntity
8
M3_ScrewJoint
6
ByLayer
62
256
370
-1
100
AcDbLine
10
1.75
20
5.5
11
3
21
5.5
0
LINE
5
85
100
AcDbEntity
8
M3_ScrewJoint
6
ByLayer
62
256
370
-1
100
AcDbLine
10
3
20
8
11
1.75
21
8
0
LINE
5
86
100
AcDbEntity
8
M3_ScrewJoint
6
ByLayer
62
256
370
-1
100
AcDbLine
10
-1.75
20
8
11
-3
21
8
0
ENDBLK
5
5B
330
59
100
AcDbEntity
8
0
100
AcDbBlockEnd
0
BLOCK
5
5D
330
5C
100
AcDbEntity
8
0
100
AcDbBlockBegin
2
M3_ScrewJoint-2
70
0
10
0
20
0
3
M3_ScrewJoint-2
1

0
LINE
5
87
100
AcDbEntity
8
M3_ScrewJoint
6
ByLayer
62
256
370
-1
100
AcDbLine
10
1.75
20
10
11
-1.75
21
10
0
LINE
5
88
100
AcDbEntity
8
M3_ScrewJoint
6
ByLayer
62
256
370
-1
100
AcDbLine
10
-3
20
8
11
-3
21
5.5
0
LINE
5
89
100
AcDbEntity
8
M3_ScrewJoint
6
ByLayer
62
256
370
-1
100
AcDbLine
10
3
20
8
11
3
21
5.5
0
LINE
5
8A
100
AcDbEntity
8
M3_ScrewJoint
6
ByLayer
62
256
370
-1
100
AcDbLine
10
-1.75
20
5.5
11
-1.75
21
0
0
LINE
5
8B
100
AcDbEntity
8
M3_ScrewJoint
6
ByLayer
62
256
370
-1
100
AcDbLine
10
-1.75
20
10
11
-1.75
21
8
0
LINE
5
8C
100
AcDbEntity
8
M3_ScrewJoint
6
ByLayer
62
256
370
-1
100
AcDbLine
10
1.75
20
8
11
1.75
21
10
0
LINE
5
8D
100
AcDbEntity
8
M3_ScrewJoint
6
ByLayer
62
256
370
-1
100
AcDbLine
10
1.75
20
0
11
1.75
21
5.5
0
LINE
5
8E
100
AcDbEntity
8
M3_ScrewJoint
6
ByLayer
62
256
370
-1
100
AcDbLine
10
-3
20
5.5
11
-1.75
21
5.5
0
LINE
5
8F
100
AcDbEntity
8
M3_ScrewJoint
6
ByLayer
62
256
370
-1
100
AcDbLine
10
1.75
20
5.5
11
3
21
5.5
0
LINE
5
90
100
AcDbEntity
8
M3_ScrewJoint
6
ByLayer
62
256
370
-1
100
AcDbLine
10
3
20
8
11
1.75
21
8
0
LINE
5
91
100
AcDbEntity
8
M3_ScrewJoint
6
ByLayer
62
256
370
-1
100
AcDbLine
10
-1.75
20
8
11
-3
21
8
0
ENDBLK
5
5E
330
5C
100
AcDbEntity
8
0
100
AcDbBlockEnd
0
BLOCK
5
60
330
5F
100
AcDbEntity
8
0
100
AcDbBlockBegin
2
M3_ScrewJoint-3
70
0
10
0
20
0
3
M3_ScrewJoint-3
1

0
LINE
5
92
100
AcDbEntity
8
M3_ScrewJoint
6
ByLayer
62
256
370
-1
100
AcDbLine
10
1.75
20
10
11
-1.75
21
10
0
LINE
5
93
100
AcDbEntity
8
M3_ScrewJoint
6
ByLayer
62
256
370
-1
100
AcDbLine
10
-3
20
8
11
-3
21
5.5
0
LINE
5
94
100
AcDbEntity
8
M3_ScrewJoint
6
ByLayer
62
256
370
-1
100
AcDbLine
10
3
20
8
11
3
21
5.5
0
LINE
5
95
100
AcDbEntity
8
M3_ScrewJoint
6
ByLayer
62
256
370
-1
100
AcDbLine
10
-1.75
20
5.5
11
-1.75
21
0
0
LINE
5
96
100
AcDbEntity
8
M3_ScrewJoint
6
ByLayer
62
256
370
-1
100
AcDbLine
10
-1.75
20
10
11
-1.75
21
8
0
LINE
5
97
100
AcDbEntity
8
M3_ScrewJoint
6
ByLayer
62
256
370
-1
100
AcDbLine
10
1.75
20
8
11
1.75
21
10
0
LINE
5
98
100
AcDbEntity
8
M3_ScrewJoint
6
ByLayer
62
256
370
-1
100
AcDbLine
10
1.75
20
0
11
1.75
21
5.5
0
LINE
5
99
100
AcDbEntity
8
M3_ScrewJoint
6
ByLayer
62
256
370
-1
100
AcDbLine
10
-3
20
5.5
11
-1.75
21
5.5
0
LINE
5
9A
100
AcDbEntity
8
M3_ScrewJoint
6
ByLayer
62
256
370
-1
100
AcDbLine
10
1.75
20
5.5
11
3
21
5.5
0
LINE
5
9B
100
AcDbEntity
8
M3_ScrewJoint
6
ByLayer
62
256
370
-1
100
AcDbLine
10
3
20
8
11
1.75
21
8
0
LINE
5
9C
100
AcDbEntity
8
M3_ScrewJoint
6
ByLayer
62
256
370
-1
100
AcDbLine
10
-1.75
20
8
11
-3
21
8
0
ENDBLK
5
61
330
5F
100
AcDbEntity
8
0
100
AcDbBlockEnd
0
BLOCK
5
63
330
62
100
AcDbEntity
8
0
100
AcDbBlockBegin
2
2Pole_PowerConnector-0
70
0
10
0
20
0
3
2Pole_PowerConnector-0
1

0
CIRCLE
5
9D
100
AcDbEntity
8
2xPowerConn_MountingHoles
6
ByLayer
62
256
370
-1
100
AcDbCircle
10
-9
20
0
40
6
0
CIRCLE
5
9E
100
AcDbEntity
8
2xPowerConn_MountingHoles
6
ByLayer
62
256
370
-1
100
AcDbCircle
10
9
20
0
40
6
0
LINE
5
9F
100
AcDbEntity
8
2xPowerConn_Outer
6
ByLayer
62
256
370
-1
100
AcDbLine
10
-9
20
7.5
11
9
21
7.5
0
LINE
5
A0
100
AcDbEntity
8
2xPowerConn_Outer
6
ByLayer
62
256
370
-1
100
AcDbLine
10
9
20
-7.5
11
-9
21
-7.5
0
ARC
5
A1
100
AcDbEntity
8
2xPowerConn_Outer
6
ByLayer
62
256
370
-1
100
AcDbCircle
10
-9
20
0
40
7.5
100
AcDbArc
50
90
51
270
0
ARC
5
A2
100
AcDbEntity
8
2xPowerConn_Outer
6
ByLayer
62
256
370
-1
100
AcDbCircle
10
9
20
0
40
7.5
100
AcDbArc
50
270
51
90
0
ENDBLK
5
64
330
62
100
AcDbEntity
8
0
100
AcDbBlockEnd
0
BLOCK
5
66
330
65
100
AcDbEntity
8
0
100
AcDbBlockBegin
2
2Pole_PowerConnector-1
70
0
10
0
20
0
3
2Pole_PowerConnector-1
1

0
CIRCLE
5
A3
100
AcDbEntity
8
2xPowerConn_MountingHoles
6
ByLayer
62
256
370
-1
100
AcDbCircle
10
-9
20
0
40
6
0
CIRCLE
5
A4
100
AcDbEntity
8
2xPowerConn_MountingHoles
6
ByLayer
62
256
370
-1
100
AcDbCircle
10
9
20
0
40
6
0
LINE
5
A5
100
AcDbEntity
8
2xPowerConn_Outer
6
ByLayer
62
256
370
-1
100
AcDbLine
10
-9
20
7.5
11
9
21
7.5
0
LINE
5
A6
100
AcDbEntity
8
2xPowerConn_Outer
6
ByLayer
62
256
370
-1
100
AcDbLine
10
9
20
-7.5
11
-9
21
-7.5
0
ARC
5
A7
100
AcDbEntity
8
2xPowerConn_Outer
6
ByLayer
62
256
370
-1
100
AcDbCircle
10
-9
20
0
40
7.5
100
AcDbArc
50
90
51
270
0
ARC
5
A8
100
AcDbEntity
8
2xPowerConn_Outer
6
ByLayer
62
256
370
-1
100
AcDbCircle
10
9
20
0
40
7.5
100
AcDbArc
50
270
51
90
0
ENDBLK
5
67
330
65
100
AcDbEntity
8
0
100
AcDbBlockEnd
0
ENDSEC
0
SECTION
2
ENTITIES
0
LINE
5
A9
100
AcDbEntity
8
3x10_Male
6
ByLayer
62
256
370
-1
100
AcDbLine
10
73.5
20
110
11
73.5
21
113
0
LINE
5
AA
100
AcDbEntity
8
3x10_Male
6
ByLayer
62
256
370
-1
100
AcDbLine
10
73.5
20
113
11
83.5
21
113
0
LINE
5
AB
100
AcDbEntity
8
3x10_Male
6
ByLayer
62
256
370
-1
100
AcDbLine
10
83.5
20
113
11
83.5
21
110
0
LINE
5
AC
100
AcDbEntity
8
3x10_Male
6
ByLayer
62
256
370
-1
100
AcDbLine
10
8.49859113017
20
110
11
8.49859113017
21
113
0
LINE
5
AD
100
AcDbEntity
8
3x10_Male
6
ByLayer
62
256
370
-1
100
AcDbLine
10
8.49859113017
20
113
11
18.4985911302
21
113
0
LINE
5
AE
100
AcDbEntity
8
3x10_Male
6
ByLayer
62
256
370
-1
100
AcDbLine
10
18.4985911302
20
113
11
18.4985911302
21
110
0
LINE
5
AF
100
AcDbEntity
8
3x10_Male
6
ByLayer
62
256
370
-1
100
AcDbLine
10
138.497191107
20
110
11
138.497191107
21
113
0
LINE
5
B0
100
AcDbEntity
8
3x10_Male
6
ByLayer
62
256
370
-1
100
AcDbLine
10
138.497191107
20
113
11
148.497191107
21
113
0
LINE
5
B1
100
AcDbEntity
8
3x10_Male
6
ByLayer
62
256
370
-1
100
AcDbLine
10
148.497191107
20
113
11
148.497191107
21
110
0
LINE
5
B2
100
AcDbEntity
8
3x10_Male
6
ByLayer
62
256
370
-1
100
AcDbLine
10
73.5
20
10
11
73.5
21
7
0
LINE
5
B3
100
AcDbEntity
8
3x10_Male
6
ByLayer
62
256
370
-1
100
AcDbLine
10
73.5
20
7
11
83.5
21
7
0
LINE
5
B4
100
AcDbEntity
8
3x10_Male
6
ByLayer
62
256
370
-1
100
AcDbLine
10
83.5
20
7
11
83.5
21
10
0
LINE
5
B5
100
AcDbEntity
8
3x10_Male
6
ByLayer
62
256
370
-1
100
AcDbLine
10
8.49859113017
20
10
11
8.49859113017
21
7
0
LINE
5
B6
100
AcDbEntity
8
3x10_Male
6
ByLayer
62
256
370
-1
100
AcDbLine
10
8.49859113017
20
7
11
18.4985911302
21
7
0
LINE
5
B7
100
AcDbEntity
8
3x10_Male
6
ByLayer
62
256
370
-1
100
AcDbLine
10
18.4985911302
20
7
11
18.4985911302
21
10
0
LINE
5
B8
100
AcDbEntity
8
3x10_Male
6
ByLayer
62
256
370
-1
100
AcDbLine
10
138.497191107
20
10
11
138.497191107
21
7
0
LINE
5
B9
100
AcDbEntity
8
3x10_Male
6
ByLayer
62
256
370
-1
100
AcDbLine
10
138.497191107
20
7
11
148.497191107
21
7
0
LINE
5
BA
100
AcDbEntity
8
3x10_Male
6
ByLayer
62
256
370
-1
100
AcDbLine
10
148.497191107
20
7
11
148.497191107
21
10
0
LINE
5
BB
100
AcDbEntity
8
Panel
6
ByLayer
62
256
370
-1
100
AcDbLine
10
0
20
10
11
6.12303176911e-015
21
110
0
LINE
5
BC
100
AcDbEntity
8
Panel
6
ByLayer
62
256
370
-1
100
AcDbLine
10
157
20
10
11
157
21
110
0
LINE
5
BD
100
AcDbEntity
8
Panel
6
ByLayer
62
256
370
-1
100
AcDbLine
10
6.12303176911e-015
20
110
11
8.49859113017
21
110
0
LINE
5
BE
100
AcDbEntity
8
Panel
6
ByLayer
62
256
370
-1
100
AcDbLine
10
148.497191107
20
110
11
157
21
110
0
LINE
5
BF
100
AcDbEntity
8
Panel
6
ByLayer
62
256
370
-1
100
AcDbLine
10
6.12303176911e-015
20
10
11
8.49859113017
21
10
0
LINE
5
C0
100
AcDbEntity
8
Panel
6
ByLayer
62
256
370
-1
100
AcDbLine
10
148.497191107
20
10
11
157
21
10
0
LINE
5
C1
100
AcDbEntity
8
M3_ScrewJoint
6
ByLayer
62
256
370
-1
100
AcDbLine
10
44.2492955651
20
100
11
47.7492955651
21
100
0
LINE
5
C2
100
AcDbEntity
8
M3_ScrewJoint
6
ByLayer
62
256
370
-1
100
AcDbLine
10
48.9992955651
20
102
11
48.9992955651
21
104.5
0
LINE
5
C3
100
AcDbEntity
8
M3_ScrewJoint
6
ByLayer
62
256
370
-1
100
AcDbLine
10
42.9992955651
20
102
11
42.9992955651
21
104.5
0
LINE
5
C4
100
AcDbEntity
8
M3_ScrewJoint
6
ByLayer
62
256
370
-1
100
AcDbLine
10
47.7492955651
20
104.5
11
47.7492955651
21
110
0
LINE
5
C5
100
AcDbEntity
8
M3_ScrewJoint
6
ByLayer
62
256
370
-1
100
AcDbLine
10
47.7492955651
20
100
11
47.7492955651
21
102
0
LINE
5
C6
100
AcDbEntity
8
M3_ScrewJoint
6
ByLayer
62
256
370
-1
100
AcDbLine
10
44.2492955651
20
102
11
44.2492955651
21
100
0
LINE
5
C7
100
AcDbEntity
8
M3_ScrewJoint
6
ByLayer
62
256
370
-1
100
AcDbLine
10
44.2492955651
20
110
11
44.2492955651
21
104.5
0
LINE
5
C8
100
AcDbEntity
8
M3_ScrewJoint
6
ByLayer
62
256
370
-1
100
AcDbLine
10
48.9992955651
20
104.5
11
47.7492955651
21
104.5
0
LINE
5
C9
100
AcDbEntity
8
M3_ScrewJoint
6
ByLayer
62
256
370
-1
100
AcDbLine
10
44.2492955651
20
104.5
11
42.9992955651
21
104.5
0
LINE
5
CA
100
AcDbEntity
8
M3_ScrewJoint
6
ByLayer
62
256
370
-1
100
AcDbLine
10
42.9992955651
20
102
11
44.2492955651
21
102
0
LINE
5
CB
100
AcDbEntity
8
M3_ScrewJoint
6
ByLayer
62
256
370
-1
100
AcDbLine
10
47.7492955651
20
102
11
48.9992955651
21
102
0
LINE
5
CC
100
AcDbEntity
8
M3_ScrewJoint
6
ByLayer
62
256
370
-1
100
AcDbLine
10
109.248595554
20
100
11
112.748595554
21
100
0
LINE
5
CD
100
AcDbEntity
8
M3_ScrewJoint
6
ByLayer
62
256
370
-1
100
AcDbLine
10
113.998595554
20
102
11
113.998595554
21
104.5
0
LINE
5
CE
100
AcDbEntity
8
M3_ScrewJoint
6
ByLayer
62
256
370
-1
100
AcDbLine
10
107.998595554
20
102
11
107.998595554
21
104.5
0
LINE
5
CF
100
AcDbEntity
8
M3_ScrewJoint
6
ByLayer
62
256
370
-1
100
AcDbLine
10
112.748595554
20
104.5
11
112.748595554
21
110
0
LINE
5
D0
100
AcDbEntity
8
M3_ScrewJoint
6
ByLayer
62
256
370
-1
100
AcDbLine
10
112.748595554
20
100
11
112.748595554
21
102
0
LINE
5
D1
100
AcDbEntity
8
M3_ScrewJoint
6
ByLayer
62
256
370
-1
100
AcDbLine
10
109.248595554
20
102
11
109.248595554
21
100
0
LINE
5
D2
100
AcDbEntity
8
M3_ScrewJoint
6
ByLayer
62
256
370
-1
100
AcDbLine
10
109.248595554
20
110
11
109.248595554
21
104.5
0
LINE
5
D3
100
AcDbEntity
8
M3_ScrewJoint
6
ByLayer
62
256
370
-1
100
AcDbLine
10
113.998595554
20
104.5
11
112.748595554
21
104.5
0
LINE
5
D4
100
AcDbEntity
8
M3_ScrewJoint
6
ByLayer
62
256
370
-1
100
AcDbLine
10
109.248595554
20
104.5
11
107.998595554
21
104.5
0
LINE
5
D5
100
AcDbEntity
8
M3_ScrewJoint
6
ByLayer
62
256
370
-1
100
AcDbLine
10
107.998595554
20
102
11
109.248595554
21
102
0
LINE
5
D6
100
AcDbEntity
8
M3_ScrewJoint
6
ByLayer
62
256
370
-1
100
AcDbLine
10
112.748595554
20
102
11
113.998595554
21
102
0
LINE
5
D7
100
AcDbEntity
8
M3_ScrewJoint
6
ByLayer
62
256
370
-1
100
AcDbLine
10
47.7492955651
20
20
11
44.2492955651
21
20
0
LINE
5
D8
100
AcDbEntity
8
M3_ScrewJoint
6
ByLayer
62
256
370
-1
100
AcDbLine
10
42.9992955651
20
18
11
42.9992955651
21
15.5
0
LINE
5
D9
100
AcDbEntity
8
M3_ScrewJoint
6
ByLayer
62
256
370
-1
100
AcDbLine
10
48.9992955651
20
18
11
48.9992955651
21
15.5
0
LINE
5
DA
100
AcDbEntity
8
M3_ScrewJoint
6
ByLayer
62
256
370
-1
100
AcDbLine
10
44.2492955651
20
15.5
11
44.2492955651
21
10
0
LINE
5
DB
100
AcDbEntity
8
M3_ScrewJoint
6
ByLayer
62
256
370
-1
100
AcDbLine
10
44.2492955651
20
20
11
44.2492955651
21
18
0
LINE
5
DC
100
AcDbEntity
8
M3_ScrewJoint
6
ByLayer
62
256
370
-1
100
AcDbLine
10
47.7492955651
20
18
11
47.7492955651
21
20
0
LINE
5
DD
100
AcDbEntity
8
M3_ScrewJoint
6
ByLayer
62
256
370
-1
100
AcDbLine
10
47.7492955651
20
10
11
47.7492955651
21
15.5
0
LINE
5
DE
100
AcDbEntity
8
M3_ScrewJoint
6
ByLayer
62
256
370
-1
100
AcDbLine
10
42.9992955651
20
15.5
11
44.2492955651
21
15.5
0
LINE
5
DF
100
AcDbEntity
8
M3_ScrewJoint
6
ByLayer
62
256
370
-1
100
AcDbLine
10
47.7492955651
20
15.5
11
48.9992955651
21
15.5
0
LINE
5
E0
100
AcDbEntity
8
M3_ScrewJoint
6
ByLayer
62
256
370
-1
100
AcDbLine
10
48.9992955651
20
18
11
47.7492955651
21
18
0
LINE
5
E1
100
AcDbEntity
8
M3_ScrewJoint
6
ByLayer
62
256
370
-1
100
AcDbLine
10
44.2492955651
20
18
11
42.9992955651
21
18
0
LINE
5
E2
100
AcDbEntity
8
M3_ScrewJoint
6
ByLayer
62
256
370
-1
100
AcDbLine
10
112.748595554
20
20
11
109.248595554
21
20
0
LINE
5
E3
100
AcDbEntity
8
M3_ScrewJoint
6
ByLayer
62
256
370
-1
100
AcDbLine
10
107.998595554
20
18
11
107.998595554
21
15.5
0
LINE
5
E4
100
AcDbEntity
8
M3_ScrewJoint
6
ByLayer
62
256
370
-1
100
AcDbLine
10
113.998595554
20
18
11
113.998595554
21
15.5
0
LINE
5
E5
100
AcDbEntity
8
M3_ScrewJoint
6
ByLayer
62
256
370
-1
100
AcDbLine
10
109.248595554
20
15.5
11
109.248595554
21
10
0
LINE
5
E6
100
AcDbEntity
8
M3_ScrewJoint
6
ByLayer
62
256
370
-1
100
AcDbLine
10
109.248595554
20
20
11
109.248595554
21
18
0
LINE
5
E7
100
AcDbEntity
8
M3_ScrewJoint
6
ByLayer
62
256
370
-1
100
AcDbLine
10
112.748595554
20
18
11
112.748595554
21
20
0
LINE
5
E8
100
AcDbEntity
8
M3_ScrewJoint
6
ByLayer
62
256
370
-1
100
AcDbLine
10
112.748595554
20
10
11
112.748595554
21
15.5
0
LINE
5
E9
100
AcDbEntity
8
M3_ScrewJoint
6
ByLayer
62
256
370
-1
100
AcDbLine
10
107.998595554
20
15.5
11
109.248595554
21
15.5
0
LINE
5
EA
100
AcDbEntity
8
M3_ScrewJoint
6
ByLayer
62
256
370
-1
100
AcDbLine
10
112.748595554
20
15.5
11
113.998595554
21
15.5
0
LINE
5
EB
100
AcDbEntity
8
M3_ScrewJoint
6
ByLayer
62
256
370
-1
100
AcDbLine
10
113.998595554
20
18
11
112.748595554
21
18
0
LINE
5
EC
100
AcDbEntity
8
M3_ScrewJoint
6
ByLayer
62
256
370
-1
100
AcDbLine
10
109.248595554
20
18
11
107.998595554
21
18
0
LINE
5
ED
100
AcDbEntity
8
Panel
6
ByLayer
62
256
370
-1
100
AcDbLine
10
18.4985911302
20
110
11
44.2492955651
21
110
0
LINE
5
EE
100
AcDbEntity
8
Panel
6
ByLayer
62
256
370
-1
100
AcDbLine
10
47.7492955651
20
110
11
73.5
21
110
0
LINE
5
EF
100
AcDbEntity
8
Panel
6
ByLayer
62
256
370
-1
100
AcDbLine
10
83.5
20
110
11
109.248595554
21
110
0
LINE
5
F0
100
AcDbEntity
8
Panel
6
ByLayer
62
256
370
-1
100
AcDbLine
10
112.748595554
20
110
11
138.497191107
21
110
0
LINE
5
F1
100
AcDbEntity
8
Panel
6
ByLayer
62
256
370
-1
100
AcDbLine
10
83.5
20
10
11
109.248595554
21
10
0
LINE
5
F2
100
AcDbEntity
8
Panel
6
ByLayer
62
256
370
-1
100
AcDbLine
10
112.748595554
20
10
11
138.497191107
21
10
0
LINE
5
F3
100
AcDbEntity
8
Panel
6
ByLayer
62
256
370
-1
100
AcDbLine
10
73.5
20
10
11
47.7492955651
21
10
0
LINE
5
F4
100
AcDbEntity
8
Panel
6
ByLayer
62
256
370
-1
100
AcDbLine
10
44.2492955651
20
10
11
18.4985911302
21
10
0
CIRCLE
5
F5
100
AcDbEntity
8
Cutouts
6
ByLayer
62
256
370
-1
100
AcDbCircle
10
70
20
35
40
5
0
CIRCLE
5
F6
100
AcDbEntity
8
Cutouts
6
ByLayer
62
256
370
-1
100
AcDbCircle
10
90
20
35
40
5
0
CIRCLE
5
F7
100
AcDbEntity
8
Cutouts
6
ByLayer
62
256
370
-1
100
AcDbCircle
10
120
20
35
40
5
0
CIRCLE
5
F8
100
AcDbEntity
8
Cutouts
6
ByLayer
62
256
370
-1
100
AcDbCircle
10
140
20
35
40
5
0
INSERT
5
F9
100
AcDbEntity
8
Cutouts
6
ByLayer
62
256
370
-1
100
AcDbBlockReference
2
2Pole_PowerConnector-0
10
60
20
80
30
0
41
1
42
1
43
0
50
0
70
1
71
1
44
0
45
0
0
INSERT
5
FA
100
AcDbEntity
8
Cutouts
6
ByLayer
62
256
370
-1
100
AcDbBlockReference
2
2Pole_PowerConnector-1
10
100
20
80
30
0
41
1
42
1
43
0
50
0
70
1
71
1
44
0
45
0
0
LINE
5
FB
100
AcDbEntity
8
Text
6
ByLayer
62
256
370
-1
100
AcDbLine
10
118.888888889
20
50
11
118.888888889
21
45
0
LINE
5
FC
100
AcDbEntity
8
Text
6
ByLayer
62
256
370
-1
100
AcDbLine
10
118.888888889
20
45
11
121.111111111
21
45
0
LINE
5
FD
100
AcDbEntity
8
Text
6
ByLayer
62
256
370
-1
100
AcDbLine
10
138.611111111
20
45
11
138.611111111
21
50
0
LINE
5
FE
100
AcDbEntity
8
Text
6
ByLayer
62
256
370
-1
100
AcDbLine
10
138.611111111
20
50
11
140
21
50
0
ARC
5
FF
100
AcDbEntity
8
Text
6
ByLayer
62
256
370
-1
100
AcDbCircle
10
140
20
48.6111111111
40
1.38888888889
100
AcDbArc
50
270
51
90
0
LINE
5
100
100
AcDbEntity
8
Text
6
ByLayer
62
256
370
-1
100
AcDbLine
10
140
20
47.2222222222
11
138.611111111
21
47.2222222222
0
LINE
5
101
100
AcDbEntity
8
Text
6
ByLayer
62
256
370
-1
100
AcDbLine
10
141.388888889
20
45
11
140.26595
21
47.2479222222
0
LINE
5
102
100
AcDbEntity
8
Text
6
ByLayer
62
256
370
-1
100
AcDbLine
10
120.069444444
20
55
11
120.069444444
21
60
0
LINE
5
103
100
AcDbEntity
8
Text
6
ByLayer
62
256
370
-1
100
AcDbLine
10
120.069444444
20
60
11
121.458333333
21
60
0
ARC
5
104
100
AcDbEntity
8
Text
6
ByLayer
62
256
370
-1
100
AcDbCircle
10
121.458333333
20
58.6111111111
40
1.38888888889
100
AcDbArc
50
270
51
90
0
LINE
5
105
100
AcDbEntity
8
Text
6
ByLayer
62
256
370
-1
100
AcDbLine
10
121.458333333
20
57.2222222222
11
120.069444444
21
57.2222222222
0
LINE
5
106
100
AcDbEntity
8
Text
6
ByLayer
62
256
370
-1
100
AcDbLine
10
124.513888889
20
55
11
124.513888889
21
58.3333333333
0
LINE
5
107
100
AcDbEntity
8
Text
6
ByLayer
62
256
370
-1
100
AcDbLine
10
124.513888889
20
59.7222222222
11
124.513888889
21
60
0
ARC
5
108
100
AcDbEntity
8
Text
6
ByLayer
62
256
370
-1
100
AcDbCircle
10
131.319444444
20
56.3888888889
40
1.38888888889
100
AcDbArc
50
180
51
0
0
LINE
5
109
100
AcDbEntity
8
Text
6
ByLayer
62
256
370
-1
100
AcDbLine
10
129.930555556
20
56.3888888889
11
129.930555556
21
58.6111111111
0
ARC
5
10A
100
AcDbEntity
8
Text
6
ByLayer
62
256
370
-1
100
AcDbCircle
10
131.319444444
20
58.6111111111
40
1.38888888889
100
AcDbArc
50
0
51
180
0
LINE
5
10B
100
AcDbEntity
8
Text
6
ByLayer
62
256
370
-1
100
AcDbLine
10
132.708333333
20
58.6111111111
11
132.708333333
21
56.3888888889
0
LINE
5
10C
100
AcDbEntity
8
Text
6
ByLayer
62
256
370
-1
100
AcDbLine
10
134.375
20
58.3333333333
11
134.375
21
55.8333333333
0
ARC
5
10D
100
AcDbEntity
8
Text
6
ByLayer
62
256
370
-1
100
AcDbCircle
10
135.208332711
20
55.8333327108
40
0.833332710771
100
AcDbArc
50
179.999957196
51
270.000042804
0
LINE
5
10E
100
AcDbEntity
8
Text
6
ByLayer
62
256
370
-1
100
AcDbLine
10
135.208333333
20
55
11
136.597222222
21
55
0
LINE
5
10F
100
AcDbEntity
8
Text
6
ByLayer
62
256
370
-1
100
AcDbLine
10
136.597222222
20
55
11
136.597222222
21
58.3333333333
0
LINE
5
110
100
AcDbEntity
8
Text
6
ByLayer
62
256
370
-1
100
AcDbLine
10
138.819444444
20
55
11
138.819444444
21
60
0
LINE
5
111
100
AcDbEntity
8
Text
6
ByLayer
62
256
370
-1
100
AcDbLine
10
138.263888889
20
58.3333333333
11
139.930555556
21
58.3333333333
0
LINE
5
112
100
AcDbEntity
8
Text
6
ByLayer
62
256
370
-1
100
AcDbLine
10
66.2962777778
20
58.0555555556
11
68.7036666667
21
58.0555555556
0
LINE
5
113
100
AcDbEntity
8
Text
6
ByLayer
62
256
370
-1
100
AcDbLine
10
65.8333333333
20
56.6666666667
11
67.5
21
61.6666666667
0
LINE
5
114
100
AcDbEntity
8
Text
6
ByLayer
62
256
370
-1
100
AcDbLine
10
67.5
20
61.6666666667
11
69.1666666667
21
56.6666666667
0
LINE
5
115
100
AcDbEntity
8
Text
6
ByLayer
62
256
370
-1
100
AcDbLine
10
72.5
20
56.6666666667
11
72.5
21
60
0
LINE
5
116
100
AcDbEntity
8
Text
6
ByLayer
62
256
370
-1
100
AcDbLine
10
70.8333333333
20
56.6666666667
11
70.8333333333
21
60
0
LINE
5
117
100
AcDbEntity
8
Text
6
ByLayer
62
256
370
-1
100
AcDbLine
10
70.8333333333
20
60
11
73.3333333333
21
60
0
ARC
5
118
100
AcDbEntity
8
Text
6
ByLayer
62
256
370
-1
100
AcDbCircle
10
73.3333339559
20
59.1666672892
40
0.833332710771
100
AcDbArc
50
359.999957196
51
90.0000428043
0
LINE
5
119
100
AcDbEntity
8
Text
6
ByLayer
62
256
370
-1
100
AcDbLine
10
74.1666666667
20
59.1666666667
11
74.1666666667
21
56.6666666667
0
LINE
5
11A
100
AcDbEntity
8
Text
6
ByLayer
62
256
370
-1
100
AcDbLine
10
75.8333333333
20
55
11
75.8333333333
21
60
0
LINE
5
11B
100
AcDbEntity
8
Text
6
ByLayer
62
256
370
-1
100
AcDbLine
10
75.8333333333
20
60
11
77.2222222222
21
60
0
ARC
5
11C
100
AcDbEntity
8
Text
6
ByLayer
62
256
370
-1
100
AcDbCircle
10
77.222202928
20
59.1666473724
40
0.833352627778
100
AcDbArc
50
0.00132654225952
51
89.9986734577
0
LINE
5
11D
100
AcDbEntity
8
Text
6
ByLayer
62
256
370
-1
100
AcDbLine
10
78.0555555556
20
59.1666666667
11
78.0555555556
21
57.5
0
ARC
5
11E
100
AcDbEntity
8
Text
6
ByLayer
62
256
370
-1
100
AcDbCircle
10
77.222202928
20
57.5000192942
40
0.833352627778
100
AcDbArc
50
270.001326542
51
359.998673458
0
LINE
5
11F
100
AcDbEntity
8
Text
6
ByLayer
62
256
370
-1
100
AcDbLine
10
77.2222222222
20
56.6666666667
11
75.8333333333
21
56.6666666667
0
LINE
5
120
100
AcDbEntity
8
Text
6
ByLayer
62
256
370
-1
100
AcDbLine
10
79.7222222222
20
61.6666666667
11
79.7222222222
21
57.2222222222
0
ARC
5
121
100
AcDbEntity
8
Text
6
ByLayer
62
256
370
-1
100
AcDbCircle
10
80.2777773627
20
57.2222218072
40
0.555555140514
100
AcDbArc
50
179.999957196
51
270.000042804
0
LINE
5
122
100
AcDbEntity
8
Text
6
ByLayer
62
256
370
-1
100
AcDbLine
10
81.9444444444
20
56.6666666667
11
81.9444444444
21
60
0
LINE
5
123
100
AcDbEntity
8
Text
6
ByLayer
62
256
370
-1
100
AcDbLine
10
81.9444444444
20
61.3888888889
11
81.9444444444
21
61.6666666667
0
LINE
5
124
100
AcDbEntity
8
Text
6
ByLayer
62
256
370
-1
100
AcDbLine
10
84.1666666667
20
56.6666666667
11
84.1666666667
21
60.8333333333
0
ARC
5
125
100
AcDbEntity
8
Text
6
ByLayer
62
256
370
-1
100
AcDbCircle
10
84.9999993774
20
60.8333339559
40
0.833332710771
100
AcDbArc
50
89.9999571957
51
180.000042804
0
LINE
5
126
100
AcDbEntity
8
Text
6
ByLayer
62
256
370
-1
100
AcDbLine
10
85
20
61.6666666667
11
85.2777777778
21
61.6666666667
0
LINE
5
127
100
AcDbEntity
8
Text
6
ByLayer
62
256
370
-1
100
AcDbLine
10
83.6111111111
20
60
11
85.2777777778
21
60
0
LINE
5
128
100
AcDbEntity
8
Text
6
ByLayer
62
256
370
-1
100
AcDbLine
10
86.9444444444
20
56.6666666667
11
86.9444444444
21
60
0
LINE
5
129
100
AcDbEntity
8
Text
6
ByLayer
62
256
370
-1
100
AcDbLine
10
86.9444444444
20
61.3888888889
11
86.9444444444
21
61.6666666667
0
LINE
5
12A
100
AcDbEntity
8
Text
6
ByLayer
62
256
370
-1
100
AcDbLine
10
90.8333333333
20
56.6666666667
11
89.4444444444
21
56.6666666667
0
ARC
5
12B
100
AcDbEntity
8
Text
6
ByLayer
62
256
370
-1
100
AcDbCircle
10
89.4444438219
20
57.4999993774
40
0.833332710771
100
AcDbArc
50
179.999957196
51
270.000042804
0
LINE
5
12C
100
AcDbEntity
8
Text
6
ByLayer
62
256
370
-1
100
AcDbLine
10
88.6111111111
20
57.5
11
88.6111111111
21
58.8888888889
0
ARC
5
12D
100
AcDbEntity
8
Text
6
ByLayer
62
256
370
-1
100
AcDbCircle
10
89.7222222222
20
58.8888888889
40
1.11111111111
100
AcDbArc
50
0
51
180
0
LINE
5
12E
100
AcDbEntity
8
Text
6
ByLayer
62
256
370
-1
100
AcDbLine
10
90.8333333333
20
58.8888888889
11
90.8333333333
21
58.3333333333
0
LINE
5
12F
100
AcDbEntity
8
Text
6
ByLayer
62
256
370
-1
100
AcDbLine
10
90.8333333333
20
58.3333333333
11
88.6111111111
21
58.3333333333
0
LINE
5
130
100
AcDbEntity
8
Text
6
ByLayer
62
256
370
-1
100
AcDbLine
10
92.5
20
56.6666666667
11
92.5
21
60
0
LINE
5
131
100
AcDbEntity
8
Text
6
ByLayer
62
256
370
-1
100
AcDbLine
10
92.5
20
60
11
94.1666666667
21
60
0
LINE
5
132
100
AcDbEntity
8
Text
6
ByLayer
62
256
370
-1
100
AcDbLine
10
94.1666666667
20
60
11
94.1666666667
21
59.4444444444
0
LINE
5
133
100
AcDbEntity
8
Text
6
ByLayer
62
256
370
-1
100
AcDbLine
10
5.90277777778
20
45
11
5.90277777778
21
50
0
LINE
5
134
100
AcDbEntity
8
Text
6
ByLayer
62
256
370
-1
100
AcDbLine
10
5.90277777778
20
50
11
7.29166666667
21
50
0
ARC
5
135
100
AcDbEntity
8
Text
6
ByLayer
62
256
370
-1
100
AcDbCircle
10
7.29166666667
20
48.6111111111
40
1.38888888889
100
AcDbArc
50
270
51
90
0
LINE
5
136
100
AcDbEntity
8
Text
6
ByLayer
62
256
370
-1
100
AcDbLine
10
7.29166666667
20
47.2222222222
11
5.90277777778
21
47.2222222222
0
ARC
5
137
100
AcDbEntity
8
Text
6
ByLayer
62
256
370
-1
100
AcDbCircle
10
11.4583333333
20
46.1111111111
40
1.11111111111
100
AcDbArc
50
180
51
0
0
LINE
5
138
100
AcDbEntity
8
Text
6
ByLayer
62
256
370
-1
100
AcDbLine
10
10.3472222222
20
46.1111111111
11
10.3472222222
21
47.2222222222
0
ARC
5
139
100
AcDbEntity
8
Text
6
ByLayer
62
256
370
-1
100
AcDbCircle
10
11.4583333333
20
47.2222222222
40
1.11111111111
100
AcDbArc
50
0
51
180
0
LINE
5
13A
100
AcDbEntity
8
Text
6
ByLayer
62
256
370
-1
100
AcDbLine
10
12.5694444444
20
47.2222222222
11
12.5694444444
21
46.1111111111
0
LINE
5
13B
100
AcDbEntity
8
Text
6
ByLayer
62
256
370
-1
100
AcDbLine
10
14.2361111111
20
48.3333333333
11
15.0694444444
21
45
0
LINE
5
13C
100
AcDbEntity
8
Text
6
ByLayer
62
256
370
-1
100
AcDbLine
10
15.0694444444
20
45
11
15.9027777778
21
47.2222222222
0
LINE
5
13D
100
AcDbEntity
8
Text
6
ByLayer
62
256
370
-1
100
AcDbLine
10
15.9027777778
20
47.2222222222
11
16.7361111111
21
45
0
LINE
5
13E
100
AcDbEntity
8
Text
6
ByLayer
62
256
370
-1
100
AcDbLine
10
16.7361111111
20
45
11
17.5694444444
21
48.3333333333
0
LINE
5
13F
100
AcDbEntity
8
Text
6
ByLayer
62
256
370
-1
100
AcDbLine
10
21.4583333333
20
45
11
20.0694444444
21
45
0
ARC
5
140
100
AcDbEntity
8
Text
6
ByLayer
62
256
370
-1
100
AcDbCircle
10
20.0694438219
20
45.8333327108
40
0.833332710771
100
AcDbArc
50
179.999957196
51
270.000042804
0
LINE
5
141
100
AcDbEntity
8
Text
6
ByLayer
62
256
370
-1
100
AcDbLine
10
19.2361111111
20
45.8333333333
11
19.2361111111
21
47.2222222222
0
ARC
5
142
100
AcDbEntity
8
Text
6
ByLayer
62
256
370
-1
100
AcDbCircle
10
20.3472222222
20
47.2222222222
40
1.11111111111
100
AcDbArc
50
0
51
180
0
LINE
5
143
100
AcDbEntity
8
Text
6
ByLayer
62
256
370
-1
100
AcDbLine
10
21.4583333333
20
47.2222222222
11
21.4583333333
21
46.6666666667
0
LINE
5
144
100
AcDbEntity
8
Text
6
ByLayer
62
256
370
-1
100
AcDbLine
10
21.4583333333
20
46.6666666667
11
19.2361111111
21
46.6666666667
0
LINE
5
145
100
AcDbEntity
8
Text
6
ByLayer
62
256
370
-1
100
AcDbLine
10
23.125
20
45
11
23.125
21
48.3333333333
0
LINE
5
146
100
AcDbEntity
8
Text
6
ByLayer
62
256
370
-1
100
AcDbLine
10
23.125
20
48.3333333333
11
24.7916666667
21
48.3333333333
0
LINE
5
147
100
AcDbEntity
8
Text
6
ByLayer
62
256
370
-1
100
AcDbLine
10
24.7916666667
20
48.3333333333
11
24.7916666667
21
47.7777777778
0
LINE
5
148
100
AcDbEntity
8
Text
6
ByLayer
62
256
370
-1
100
AcDbLine
10
30.2083333333
20
45
11
30.2083333333
21
50
0
LINE
5
149
100
AcDbEntity
8
Text
6
ByLayer
62
256
370
-1
100
AcDbLine
10
31.875
20
45
11
31.875
21
48.3333333333
0
LINE
5
14A
100
AcDbEntity
8
Text
6
ByLayer
62
256
370
-1
100
AcDbLine
10
31.875
20
48.3333333333
11
33.2638888889
21
48.3333333333
0
ARC
5
14B
100
AcDbEntity
8
Text
6
ByLayer
62
256
370
-1
100
AcDbCircle
10
33.2638895115
20
47.5000006226
40
0.833332710771
100
AcDbArc
50
359.999957196
51
90.0000428043
0
LINE
5
14C
100
AcDbEntity
8
Text
6
ByLayer
62
256
370
-1
100
AcDbLine
10
34.0972222222
20
47.5
11
34.0972222222
21
45
0
LINE
5
14D
100
AcDbEntity
8
0
6
ByLayer
62
256
370
-1
100
AcDbLine
10
68.8888888889
20
50
11
68.8888888889
21
45
0
LINE
5
14E
100
AcDbEntity
8
0
6
ByLayer
62
256
370
-1
100
AcDbLine
10
68.8888888889
20
45
11
71.1111111111
21
45
0
LINE
5
14F
100
AcDbEntity
8
0
6
ByLayer
62
256
370
-1
100
AcDbLine
10
88.6111111111
20
45
11
88.6111111111
21
50
0
LINE
5
150
100
AcDbEntity
8
0
6
ByLayer
62
256
370
-1
100
AcDbLine
10
88.6111111111
20
50
11
90
21
50
0
ARC
5
151
100
AcDbEntity
8
0
6
ByLayer
62
256
370
-1
100
AcDbCircle
10
90
20
48.6111111111
40
1.38888888889
100
AcDbArc
50
270
51
90
0
LINE
5
152
100
AcDbEntity
8
0
6
ByLayer
62
256
370
-1
100
AcDbLine
10
90
20
47.2222222222
11
88.6111111111
21
47.2222222222
0
LINE
5
153
100
AcDbEntity
8
0
6
ByLayer
62
256
370
-1
100
AcDbLine
10
91.3888888889
20
45
11
90.26595
21
47.2479222222
0
ENDSEC
0
SECTION
2
OBJECTS
0
DICTIONARY
5
C
330
0
100
AcDbDictionary
281
1
3
ACAD_GROUP
350
D
0
DICTIONARY
5
D
330
C
100
AcDbDictionary
281
1
0
ENDSEC
0
EOF
