999
dxflib 2.2.0.0
  0
SECTION
  2
HEADER
  9
$ACADVER
  1
AC1015
  9
$HANDSEED
  5
FFFF
  9
$SNAPSTYLE
 70
0
  9
$DIMAUNIT
 70
0
  9
$EXTMAX
 10
157.0
 20
113.0
 30
0.0
  9
$ORTHOMODE
 70
0
  9
$INSBASE
 10
0.0
 20
0.0
 30
0.0
  9
$DIMEXE
 40
1.25
  9
$PSVPSCALE
 40
0.0
  9
$AUPREC
 70
2
  9
$SPLINESEGS
 70
8
  9
$GRIDMODE
 70
1
  9
$DIMEXO
 40
0.625
  9
$AUNITS
 70
0
  9
$LIMMIN
 10
0.0
 20
0.0
  9
$PINSBASE
 10
0.0
 20
0.0
 30
0.0
  9
$PLIMMIN
 10
0.0
 20
0.0
  9
$DIMGAP
 40
0.625
  9
$LUPREC
 70
4
  9
$DIMTSZ
 40
0.0
  9
$GRIDUNIT
 10
0.0
 20
0.0
  9
$CLAYER
  8
Cutouts
  9
$LIMMAX
 10
420.0
 20
297.0
  9
$LUNITS
 70
2
  9
$LTSCALE
 40
1.0
  9
$INSUNITS
 70
4
  9
$DIMLUNIT
 70
2
  9
$DIMTXT
 40
2.5
  9
$PLIMMAX
 10
200.0
 20
150.0
  9
$DIMADEC
 70
2
  9
$DIMSCALE
 40
1.0
  9
$TEXTSTYLE
  7
STANDARD
  9
$DWGCODEPAGE
  3
ANSI_1252
  9
$EXTMIN
 10
0.0
 20
7.0
 30
0.0
  9
$DIMSTYLE
  2
STANDARD
  9
$DIMASZ
 40
2.5
  9
$DIMLFAC
 40
1.0
  9
$DIMTIH
 70
0
  0
ENDSEC
  0
SECTION
  2
TABLES
  0
TABLE
  2
VPORT
  5
8
100
AcDbSymbolTable
 70
1
  0
VPORT
  5
30
100
AcDbSymbolTableRecord
100
AcDbViewportTableRecord
  2
*Active
 70
0
 10
0.0
 20
0.0
 11
1.0
 21
1.0
 12
286.30555555555549
 22
148.5
 13
0.0
 23
0.0
 14
10.0
 24
10.0
 15
10.0
 25
10.0
 16
0.0
 26
0.0
 36
1.0
 17
0.0
 27
0.0
 37
0.0
 40
297.0
 41
1.92798353909465
 42
50.0
 43
0.0
 44
0.0
 50
0.0
 51
0.0
 71
0
 72
100
 73
1
 74
3
 75
1
 76
1
 77
0
 78
0
281
0
 65
1
110
0.0
120
0.0
130
0.0
111
1.0
121
0.0
131
0.0
112
0.0
122
1.0
132
0.0
 79
0
146
0.0
  0
ENDTAB
  0
TABLE
  2
LTYPE
  5
5
100
AcDbSymbolTable
 70
21
  0
LTYPE
  5
14
100
AcDbSymbolTableRecord
100
AcDbLinetypeTableRecord
  2
ByBlock
 70
0
  3

 72
65
 73
0
 40
0.0
  0
LTYPE
  5
15
100
AcDbSymbolTableRecord
100
AcDbLinetypeTableRecord
  2
ByLayer
 70
0
  3

 72
65
 73
0
 40
0.0
  0
LTYPE
  5
16
100
AcDbSymbolTableRecord
100
AcDbLinetypeTableRecord
  2
CONTINUOUS
 70
0
  3
Solid line
 72
65
 73
0
 40
0.0
  0
LTYPE
  5
31
100
AcDbSymbolTableRecord
100
AcDbLinetypeTableRecord
  2
DOT
 70
0
  3
Dot . . . . . . . . . . . . . . . . . . . . . .
 72
65
 73
2
 40
6.3499999999999996
 49
0.0
 74
0
 49
-6.3499999999999996
 74
0
  0
LTYPE
  5
32
100
AcDbSymbolTableRecord
100
AcDbLinetypeTableRecord
  2
DOT2
 70
0
  3
Dot (.5x) .....................................
 72
65
 73
2
 40
3.1749999999999998
 49
0.0
 74
0
 49
-3.1749999999999998
 74
0
  0
LTYPE
  5
33
100
AcDbSymbolTableRecord
100
AcDbLinetypeTableRecord
  2
DOTX2
 70
0
  3
Dot (2x) .  .  .  .  .  .  .  .  .  .  .  .  .
 72
65
 73
2
 40
12.699999999999999
 49
0.0
 74
0
 49
-12.699999999999999
 74
0
  0
LTYPE
  5
34
100
AcDbSymbolTableRecord
100
AcDbLinetypeTableRecord
  2
DASHED
 70
0
  3
Dashed __ __ __ __ __ __ __ __ __ __ __ __ __ _
 72
65
 73
2
 40
19.050000000000001
 49
12.699999999999999
 74
0
 49
-6.3499999999999996
 74
0
  0
LTYPE
  5
35
100
AcDbSymbolTableRecord
100
AcDbLinetypeTableRecord
  2
DASHED2
 70
0
  3
Dashed (.5x) _ _ _ _ _ _ _ _ _ _ _ _ _ _ _ _ _
 72
65
 73
2
 40
9.5250000000000004
 49
6.3499999999999996
 74
0
 49
-3.1749999999999998
 74
0
  0
LTYPE
  5
36
100
AcDbSymbolTableRecord
100
AcDbLinetypeTableRecord
  2
DASHEDX2
 70
0
  3
Dashed (2x) ____  ____  ____  ____  ____  ___
 72
65
 73
2
 40
38.100000000000001
 49
25.399999999999999
 74
0
 49
-12.699999999999999
 74
0
  0
LTYPE
  5
37
100
AcDbSymbolTableRecord
100
AcDbLinetypeTableRecord
  2
DASHDOT
 70
0
  3
Dash dot __ . __ . __ . __ . __ . __ . __ . __
 72
65
 73
4
 40
25.399999999999999
 49
12.699999999999999
 74
0
 49
-6.3499999999999996
 74
0
 49
0.0
 74
0
 49
-6.3499999999999996
 74
0
  0
LTYPE
  5
38
100
AcDbSymbolTableRecord
100
AcDbLinetypeTableRecord
  2
DASHDOT2
 70
0
  3
Dash dot (.5x) _._._._._._._._._._._._._._._.
 72
65
 73
4
 40
12.699999999999999
 49
6.3499999999999996
 74
0
 49
-3.1749999999999998
 74
0
 49
0.0
 74
0
 49
-3.1749999999999998
 74
0
  0
LTYPE
  5
39
100
AcDbSymbolTableRecord
100
AcDbLinetypeTableRecord
  2
DASHDOTX2
 70
0
  3
Dash dot (2x) ____  .  ____  .  ____  .  ___
 72
65
 73
4
 40
50.799999999999997
 49
25.399999999999999
 74
0
 49
-12.699999999999999
 74
0
 49
0.0
 74
0
 49
-12.699999999999999
 74
0
  0
LTYPE
  5
3A
100
AcDbSymbolTableRecord
100
AcDbLinetypeTableRecord
  2
DIVIDE
 70
0
  3
Divide ____ . . ____ . . ____ . . ____ . . ____
 72
65
 73
6
 40
31.75
 49
12.699999999999999
 74
0
 49
-6.3499999999999996
 74
0
 49
0.0
 74
0
 49
-6.3499999999999996
 74
0
 49
0.0
 74
0
 49
-6.3499999999999996
 74
0
  0
LTYPE
  5
3B
100
AcDbSymbolTableRecord
100
AcDbLinetypeTableRecord
  2
DIVIDE2
 70
0
  3
Divide (.5x) __..__..__..__..__..__..__..__.._
 72
65
 73
6
 40
15.875
 49
6.3499999999999996
 74
0
 49
-3.1749999999999998
 74
0
 49
0.0
 74
0
 49
-3.1749999999999998
 74
0
 49
0.0
 74
0
 49
-3.1749999999999998
 74
0
  0
LTYPE
  5
3C
100
AcDbSymbolTableRecord
100
AcDbLinetypeTableRecord
  2
DIVIDEX2
 70
0
  3
Divide (2x) ________  .  .  ________  .  .  _
 72
65
 73
6
 40
63.5
 49
25.399999999999999
 74
0
 49
-12.699999999999999
 74
0
 49
0.0
 74
0
 49
-12.699999999999999
 74
0
 49
0.0
 74
0
 49
-12.699999999999999
 74
0
  0
LTYPE
  5
3D
100
AcDbSymbolTableRecord
100
AcDbLinetypeTableRecord
  2
CENTER
 70
0
  3
Center ____ _ ____ _ ____ _ ____ _ ____ _ ____
 72
65
 73
4
 40
50.799999999999997
 49
31.75
 74
0
 49
-6.3499999999999996
 74
0
 49
6.3499999999999996
 74
0
 49
-6.3499999999999996
 74
0
  0
LTYPE
  5
3E
100
AcDbSymbolTableRecord
100
AcDbLinetypeTableRecord
  2
CENTER2
 70
0
  3
Center (.5x) ___ _ ___ _ ___ _ ___ _ ___ _ ___
 72
65
 73
4
 40
28.574999999999999
 49
19.050000000000001
 74
0
 49
-3.1749999999999998
 74
0
 49
3.1749999999999998
 74
0
 49
-3.1749999999999998
 74
0
  0
LTYPE
  5
3F
100
AcDbSymbolTableRecord
100
AcDbLinetypeTableRecord
  2
CENTERX2
 70
0
  3
Center (2x) ________  __  ________  __  _____
 72
65
 73
4
 40
101.59999999999999
 49
63.5
 74
0
 49
-12.699999999999999
 74
0
 49
12.699999999999999
 74
0
 49
-12.699999999999999
 74
0
  0
LTYPE
  5
40
100
AcDbSymbolTableRecord
100
AcDbLinetypeTableRecord
  2
BORDER
 70
0
  3
Border __ __ . __ __ . __ __ . __ __ . __ __ .
 72
65
 73
6
 40
44.450000000000003
 49
12.699999999999999
 74
0
 49
-6.3499999999999996
 74
0
 49
12.699999999999999
 74
0
 49
-6.3499999999999996
 74
0
 49
0.0
 74
0
 49
-6.3499999999999996
 74
0
  0
LTYPE
  5
41
100
AcDbSymbolTableRecord
100
AcDbLinetypeTableRecord
  2
BORDER2
 70
0
  3
Border (.5x) __.__.__.__.__.__.__.__.__.__.__.
 72
65
 73
6
 40
22.225000000000001
 49
6.3499999999999996
 74
0
 49
-3.1749999999999998
 74
0
 49
6.3499999999999996
 74
0
 49
-3.1749999999999998
 74
0
 49
0.0
 74
0
 49
-3.1749999999999998
 74
0
  0
LTYPE
  5
42
100
AcDbSymbolTableRecord
100
AcDbLinetypeTableRecord
  2
BORDERX2
 70
0
  3
Border (2x) ____  ____  .  ____  ____  .  ___
 72
65
 73
6
 40
88.900000000000006
 49
25.399999999999999
 74
0
 49
-12.699999999999999
 74
0
 49
25.399999999999999
 74
0
 49
-12.699999999999999
 74
0
 49
0.0
 74
0
 49
-12.699999999999999
 74
0
  0
ENDTAB
  0
TABLE
  2
LAYER
  5
2
100
AcDbSymbolTable
 70
8
  0
LAYER
  5
10
100
AcDbSymbolTableRecord
100
AcDbLayerTableRecord
  2
0
 70
0
 62
7
  6
CONTINUOUS
370
0
390
F
  0
LAYER
  5
43
100
AcDbSymbolTableRecord
100
AcDbLayerTableRecord
  2
2xPowerConn_MountingHoles
 70
0
 62
1
  6
CONTINUOUS
370
0
390
F
  0
LAYER
  5
44
100
AcDbSymbolTableRecord
100
AcDbLayerTableRecord
  2
2xPowerConn_Outer
 70
1
 62
2
  6
CONTINUOUS
370
0
390
F
  0
LAYER
  5
45
100
AcDbSymbolTableRecord
100
AcDbLayerTableRecord
  2
3x10_Male
 70
0
 62
1
  6
CONTINUOUS
370
0
390
F
  0
LAYER
  5
46
100
AcDbSymbolTableRecord
100
AcDbLayerTableRecord
  2
Cutouts
 70
0
 62
1
  6
CONTINUOUS
370
0
390
F
  0
LAYER
  5
47
100
AcDbSymbolTableRecord
100
AcDbLayerTableRecord
  2
M3_ScrewJoint
 70
0
 62
1
  6
CONTINUOUS
370
0
390
F
  0
LAYER
  5
48
100
AcDbSymbolTableRecord
100
AcDbLayerTableRecord
  2
Panel
 70
0
 62
1
  6
CONTINUOUS
370
0
390
F
  0
LAYER
  5
49
100
AcDbSymbolTableRecord
100
AcDbLayerTableRecord
  2
Text
 70
0
 62
7
  6
CONTINUOUS
370
0
390
F
  0
ENDTAB
  0
TABLE
  2
STYLE
  5
3
100
AcDbSymbolTable
 70
1
  0
STYLE
  5
11
100
AcDbSymbolTableRecord
100
AcDbTextStyleTableRecord
  2
Standard
 70
0
 40
0.0
 41
0.75
 50
0.0
 71
0
 42
2.5
  3
txt
  4

  0
ENDTAB
  0
TABLE
  2
VIEW
  5
6
100
AcDbSymbolTable
 70
0
  0
ENDTAB
  0
TABLE
  2
UCS
  5
7
100
AcDbSymbolTable
 70
0
  0
ENDTAB
  0
TABLE
  2
APPID
  5
9
100
AcDbSymbolTable
 70
1
  0
APPID
  5
12
100
AcDbSymbolTableRecord
100
AcDbRegAppTableRecord
  2
ACAD
 70
0
  0
ENDTAB
  0
TABLE
  2
DIMSTYLE
  5
A
100
AcDbSymbolTable
 70
1
100
AcDbDimStyleTable
 71
0
  0
DIMSTYLE
105
27
100
AcDbSymbolTableRecord
100
AcDbDimStyleTableRecord
  2
Standard
 41
2.5
 42
0.625
 43
3.75
 44
1.25
 70
0
 73
0
 74
0
 77
1
 78
8
140
2.5
141
2.5
143
0.03937007874016
147
0.625
171
3
172
1
271
2
272
2
274
3
278
44
283
0
284
8
340
11
  0
ENDTAB
  0
TABLE
  2
BLOCK_RECORD
  5
1
100
AcDbSymbolTable
 70
1
  0
BLOCK_RECORD
  5
1F
100
AcDbSymbolTableRecord
100
AcDbBlockTableRecord
  2
*Model_Space
340
22
  0
BLOCK_RECORD
  5
1B
100
AcDbSymbolTableRecord
100
AcDbBlockTableRecord
  2
*Paper_Space
340
1E
  0
BLOCK_RECORD
  5
23
100
AcDbSymbolTableRecord
100
AcDbBlockTableRecord
  2
*Paper_Space0
340
26
  0
BLOCK_RECORD
  5
4A
100
AcDbSymbolTableRecord
100
AcDbBlockTableRecord
  2
3x10_Male-0
340
0
  0
BLOCK_RECORD
  5
4B
100
AcDbSymbolTableRecord
100
AcDbBlockTableRecord
  2
3x10_Male-1
340
0
  0
BLOCK_RECORD
  5
4C
100
AcDbSymbolTableRecord
100
AcDbBlockTableRecord
  2
3x10_Male-2
340
0
  0
BLOCK_RECORD
  5
4D
100
AcDbSymbolTableRecord
100
AcDbBlockTableRecord
  2
M3_ScrewJoint-0
340
0
  0
BLOCK_RECORD
  5
4E
100
AcDbSymbolTableRecord
100
AcDbBlockTableRecord
  2
M3_ScrewJoint-1
340
0
  0
BLOCK_RECORD
  5
4F
100
AcDbSymbolTableRecord
100
AcDbBlockTableRecord
  2
M3_ScrewJoint-2
340
0
  0
BLOCK_RECORD
  5
50
100
AcDbSymbolTableRecord
100
AcDbBlockTableRecord
  2
M3_ScrewJoint-3
340
0
  0
BLOCK_RECORD
  5
51
100
AcDbSymbolTableRecord
100
AcDbBlockTableRecord
  2
2Pole_PowerConnector-0
340
0
  0
BLOCK_RECORD
  5
52
100
AcDbSymbolTableRecord
100
AcDbBlockTableRecord
  2
2Pole_PowerConnector-1
340
0
  0
ENDTAB
  0
ENDSEC
  0
SECTION
  2
BLOCKS
  0
BLOCK
  5
20
100
AcDbEntity
  8
0
100
AcDbBlockBegin
  2
*Model_Space
 70
0
 10
0.0
 20
0.0
 30
0.0
  3
*Model_Space
  1

  0
ENDBLK
  5
21
100
AcDbEntity
  8
0
100
AcDbBlockEnd
  0
BLOCK
  5
1C
100
AcDbEntity
 67
1
  8
0
100
AcDbBlockBegin
  2
*Paper_Space
 70
0
 10
0.0
 20
0.0
 30
0.0
  3
*Paper_Space
  1

  0
ENDBLK
  5
1D
100
AcDbEntity
 67
1
  8
0
100
AcDbBlockEnd
  0
BLOCK
  5
24
100
AcDbEntity
  8
0
100
AcDbBlockBegin
  2
*Paper_Space0
 70
0
 10
0.0
 20
0.0
 30
0.0
  3
*Paper_Space0
  1

  0
ENDBLK
  5
25
100
AcDbEntity
  8
0
100
AcDbBlockEnd
  0
BLOCK
  5
53
100
AcDbEntity
  8
0
100
AcDbBlockBegin
  2
3x10_Male-0
 70
0
 10
0.0
 20
0.0
 30
0.0
  3
3x10_Male-0
  1

  0
LINE
  5
54
100
AcDbEntity
100
AcDbLine
  8
3x10_Male
 62
256
370
-1
  6
ByLayer
 10
0.0
 20
5.0
 30
0.0
 11
3.0
 21
5.0
 31
0.0
  0
LINE
  5
55
100
AcDbEntity
100
AcDbLine
  8
3x10_Male
 62
256
370
-1
  6
ByLayer
 10
3.0
 20
5.0
 30
0.0
 11
3.0
 21
-5.0
 31
0.0
  0
LINE
  5
56
100
AcDbEntity
100
AcDbLine
  8
3x10_Male
 62
256
370
-1
  6
ByLayer
 10
3.0
 20
-5.0
 30
0.0
 11
0.0
 21
-5.0
 31
0.0
  0
ENDBLK
  5
57
100
AcDbEntity
  8
0
100
AcDbBlockEnd
  0
BLOCK
  5
58
100
AcDbEntity
  8
0
100
AcDbBlockBegin
  2
3x10_Male-1
 70
0
 10
0.0
 20
0.0
 30
0.0
  3
3x10_Male-1
  1

  0
LINE
  5
59
100
AcDbEntity
100
AcDbLine
  8
3x10_Male
 62
256
370
-1
  6
ByLayer
 10
0.0
 20
5.0
 30
0.0
 11
3.0
 21
5.0
 31
0.0
  0
LINE
  5
5A
100
AcDbEntity
100
AcDbLine
  8
3x10_Male
 62
256
370
-1
  6
ByLayer
 10
3.0
 20
5.0
 30
0.0
 11
3.0
 21
-5.0
 31
0.0
  0
LINE
  5
5B
100
AcDbEntity
100
AcDbLine
  8
3x10_Male
 62
256
370
-1
  6
ByLayer
 10
3.0
 20
-5.0
 30
0.0
 11
0.0
 21
-5.0
 31
0.0
  0
ENDBLK
  5
5C
100
AcDbEntity
  8
0
100
AcDbBlockEnd
  0
BLOCK
  5
5D
100
AcDbEntity
  8
0
100
AcDbBlockBegin
  2
3x10_Male-2
 70
0
 10
0.0
 20
0.0
 30
0.0
  3
3x10_Male-2
  1

  0
LINE
  5
5E
100
AcDbEntity
100
AcDbLine
  8
3x10_Male
 62
256
370
-1
  6
ByLayer
 10
0.0
 20
5.0
 30
0.0
 11
3.0
 21
5.0
 31
0.0
  0
LINE
  5
5F
100
AcDbEntity
100
AcDbLine
  8
3x10_Male
 62
256
370
-1
  6
ByLayer
 10
3.0
 20
5.0
 30
0.0
 11
3.0
 21
-5.0
 31
0.0
  0
LINE
  5
60
100
AcDbEntity
100
AcDbLine
  8
3x10_Male
 62
256
370
-1
  6
ByLayer
 10
3.0
 20
-5.0
 30
0.0
 11
0.0
 21
-5.0
 31
0.0
  0
ENDBLK
  5
61
100
AcDbEntity
  8
0
100
AcDbBlockEnd
  0
BLOCK
  5
62
100
AcDbEntity
  8
0
100
AcDbBlockBegin
  2
M3_ScrewJoint-0
 70
0
 10
0.0
 20
0.0
 30
0.0
  3
M3_ScrewJoint-0
  1

  0
LINE
  5
63
100
AcDbEntity
100
AcDbLine
  8
M3_ScrewJoint
 62
256
370
-1
  6
ByLayer
 10
1.75
 20
10.0
 30
0.0
 11
-1.75
 21
10.0
 31
0.0
  0
LINE
  5
64
100
AcDbEntity
100
AcDbLine
  8
M3_ScrewJoint
 62
256
370
-1
  6
ByLayer
 10
-3.0
 20
8.0
 30
0.0
 11
-3.0
 21
5.5
 31
0.0
  0
LINE
  5
65
100
AcDbEntity
100
AcDbLine
  8
M3_ScrewJoint
 62
256
370
-1
  6
ByLayer
 10
3.0
 20
8.0
 30
0.0
 11
3.0
 21
5.5
 31
0.0
  0
LINE
  5
66
100
AcDbEntity
100
AcDbLine
  8
M3_ScrewJoint
 62
256
370
-1
  6
ByLayer
 10
-1.75
 20
5.5
 30
0.0
 11
-1.75
 21
0.0
 31
0.0
  0
LINE
  5
67
100
AcDbEntity
100
AcDbLine
  8
M3_ScrewJoint
 62
256
370
-1
  6
ByLayer
 10
-1.75
 20
10.0
 30
0.0
 11
-1.75
 21
8.0
 31
0.0
  0
LINE
  5
68
100
AcDbEntity
100
AcDbLine
  8
M3_ScrewJoint
 62
256
370
-1
  6
ByLayer
 10
1.75
 20
8.0
 30
0.0
 11
1.75
 21
10.0
 31
0.0
  0
LINE
  5
69
100
AcDbEntity
100
AcDbLine
  8
M3_ScrewJoint
 62
256
370
-1
  6
ByLayer
 10
1.75
 20
0.0
 30
0.0
 11
1.75
 21
5.5
 31
0.0
  0
LINE
  5
6A
100
AcDbEntity
100
AcDbLine
  8
M3_ScrewJoint
 62
256
370
-1
  6
ByLayer
 10
-3.0
 20
5.5
 30
0.0
 11
-1.75
 21
5.5
 31
0.0
  0
LINE
  5
6B
100
AcDbEntity
100
AcDbLine
  8
M3_ScrewJoint
 62
256
370
-1
  6
ByLayer
 10
1.75
 20
5.5
 30
0.0
 11
3.0
 21
5.5
 31
0.0
  0
LINE
  5
6C
100
AcDbEntity
100
AcDbLine
  8
M3_ScrewJoint
 62
256
370
-1
  6
ByLayer
 10
3.0
 20
8.0
 30
0.0
 11
1.75
 21
8.0
 31
0.0
  0
LINE
  5
6D
100
AcDbEntity
100
AcDbLine
  8
M3_ScrewJoint
 62
256
370
-1
  6
ByLayer
 10
-1.75
 20
8.0
 30
0.0
 11
-3.0
 21
8.0
 31
0.0
  0
ENDBLK
  5
6E
100
AcDbEntity
  8
0
100
AcDbBlockEnd
  0
BLOCK
  5
6F
100
AcDbEntity
  8
0
100
AcDbBlockBegin
  2
M3_ScrewJoint-1
 70
0
 10
0.0
 20
0.0
 30
0.0
  3
M3_ScrewJoint-1
  1

  0
LINE
  5
70
100
AcDbEntity
100
AcDbLine
  8
M3_ScrewJoint
 62
256
370
-1
  6
ByLayer
 10
1.75
 20
10.0
 30
0.0
 11
-1.75
 21
10.0
 31
0.0
  0
LINE
  5
71
100
AcDbEntity
100
AcDbLine
  8
M3_ScrewJoint
 62
256
370
-1
  6
ByLayer
 10
-3.0
 20
8.0
 30
0.0
 11
-3.0
 21
5.5
 31
0.0
  0
LINE
  5
72
100
AcDbEntity
100
AcDbLine
  8
M3_ScrewJoint
 62
256
370
-1
  6
ByLayer
 10
3.0
 20
8.0
 30
0.0
 11
3.0
 21
5.5
 31
0.0
  0
LINE
  5
73
100
AcDbEntity
100
AcDbLine
  8
M3_ScrewJoint
 62
256
370
-1
  6
ByLayer
 10
-1.75
 20
5.5
 30
0.0
 11
-1.75
 21
0.0
 31
0.0
  0
LINE
  5
74
100
AcDbEntity
100
AcDbLine
  8
M3_ScrewJoint
 62
256
370
-1
  6
ByLayer
 10
-1.75
 20
10.0
 30
0.0
 11
-1.75
 21
8.0
 31
0.0
  0
LINE
  5
75
100
AcDbEntity
100
AcDbLine
  8
M3_ScrewJoint
 62
256
370
-1
  6
ByLayer
 10
1.75
 20
8.0
 30
0.0
 11
1.75
 21
10.0
 31
0.0
  0
LINE
  5
76
100
AcDbEntity
100
AcDbLine
  8
M3_ScrewJoint
 62
256
370
-1
  6
ByLayer
 10
1.75
 20
0.0
 30
0.0
 11
1.75
 21
5.5
 31
0.0
  0
LINE
  5
77
100
AcDbEntity
100
AcDbLine
  8
M3_ScrewJoint
 62
256
370
-1
  6
ByLayer
 10
-3.0
 20
5.5
 30
0.0
 11
-1.75
 21
5.5
 31
0.0
  0
LINE
  5
78
100
AcDbEntity
100
AcDbLine
  8
M3_ScrewJoint
 62
256
370
-1
  6
ByLayer
 10
1.75
 20
5.5
 30
0.0
 11
3.0
 21
5.5
 31
0.0
  0
LINE
  5
79
100
AcDbEntity
100
AcDbLine
  8
M3_ScrewJoint
 62
256
370
-1
  6
ByLayer
 10
3.0
 20
8.0
 30
0.0
 11
1.75
 21
8.0
 31
0.0
  0
LINE
  5
7A
100
AcDbEntity
100
AcDbLine
  8
M3_ScrewJoint
 62
256
370
-1
  6
ByLayer
 10
-1.75
 20
8.0
 30
0.0
 11
-3.0
 21
8.0
 31
0.0
  0
ENDBLK
  5
7B
100
AcDbEntity
  8
0
100
AcDbBlockEnd
  0
BLOCK
  5
7C
100
AcDbEntity
  8
0
100
AcDbBlockBegin
  2
M3_ScrewJoint-2
 70
0
 10
0.0
 20
0.0
 30
0.0
  3
M3_ScrewJoint-2
  1

  0
LINE
  5
7D
100
AcDbEntity
100
AcDbLine
  8
M3_ScrewJoint
 62
256
370
-1
  6
ByLayer
 10
1.75
 20
10.0
 30
0.0
 11
-1.75
 21
10.0
 31
0.0
  0
LINE
  5
7E
100
AcDbEntity
100
AcDbLine
  8
M3_ScrewJoint
 62
256
370
-1
  6
ByLayer
 10
-3.0
 20
8.0
 30
0.0
 11
-3.0
 21
5.5
 31
0.0
  0
LINE
  5
7F
100
AcDbEntity
100
AcDbLine
  8
M3_ScrewJoint
 62
256
370
-1
  6
ByLayer
 10
3.0
 20
8.0
 30
0.0
 11
3.0
 21
5.5
 31
0.0
  0
LINE
  5
80
100
AcDbEntity
100
AcDbLine
  8
M3_ScrewJoint
 62
256
370
-1
  6
ByLayer
 10
-1.75
 20
5.5
 30
0.0
 11
-1.75
 21
0.0
 31
0.0
  0
LINE
  5
81
100
AcDbEntity
100
AcDbLine
  8
M3_ScrewJoint
 62
256
370
-1
  6
ByLayer
 10
-1.75
 20
10.0
 30
0.0
 11
-1.75
 21
8.0
 31
0.0
  0
LINE
  5
82
100
AcDbEntity
100
AcDbLine
  8
M3_ScrewJoint
 62
256
370
-1
  6
ByLayer
 10
1.75
 20
8.0
 30
0.0
 11
1.75
 21
10.0
 31
0.0
  0
LINE
  5
83
100
AcDbEntity
100
AcDbLine
  8
M3_ScrewJoint
 62
256
370
-1
  6
ByLayer
 10
1.75
 20
0.0
 30
0.0
 11
1.75
 21
5.5
 31
0.0
  0
LINE
  5
84
100
AcDbEntity
100
AcDbLine
  8
M3_ScrewJoint
 62
256
370
-1
  6
ByLayer
 10
-3.0
 20
5.5
 30
0.0
 11
-1.75
 21
5.5
 31
0.0
  0
LINE
  5
85
100
AcDbEntity
100
AcDbLine
  8
M3_ScrewJoint
 62
256
370
-1
  6
ByLayer
 10
1.75
 20
5.5
 30
0.0
 11
3.0
 21
5.5
 31
0.0
  0
LINE
  5
86
100
AcDbEntity
100
AcDbLine
  8
M3_ScrewJoint
 62
256
370
-1
  6
ByLayer
 10
3.0
 20
8.0
 30
0.0
 11
1.75
 21
8.0
 31
0.0
  0
LINE
  5
87
100
AcDbEntity
100
AcDbLine
  8
M3_ScrewJoint
 62
256
370
-1
  6
ByLayer
 10
-1.75
 20
8.0
 30
0.0
 11
-3.0
 21
8.0
 31
0.0
  0
ENDBLK
  5
88
100
AcDbEntity
  8
0
100
AcDbBlockEnd
  0
BLOCK
  5
89
100
AcDbEntity
  8
0
100
AcDbBlockBegin
  2
M3_ScrewJoint-3
 70
0
 10
0.0
 20
0.0
 30
0.0
  3
M3_ScrewJoint-3
  1

  0
LINE
  5
8A
100
AcDbEntity
100
AcDbLine
  8
M3_ScrewJoint
 62
256
370
-1
  6
ByLayer
 10
1.75
 20
10.0
 30
0.0
 11
-1.75
 21
10.0
 31
0.0
  0
LINE
  5
8B
100
AcDbEntity
100
AcDbLine
  8
M3_ScrewJoint
 62
256
370
-1
  6
ByLayer
 10
-3.0
 20
8.0
 30
0.0
 11
-3.0
 21
5.5
 31
0.0
  0
LINE
  5
8C
100
AcDbEntity
100
AcDbLine
  8
M3_ScrewJoint
 62
256
370
-1
  6
ByLayer
 10
3.0
 20
8.0
 30
0.0
 11
3.0
 21
5.5
 31
0.0
  0
LINE
  5
8D
100
AcDbEntity
100
AcDbLine
  8
M3_ScrewJoint
 62
256
370
-1
  6
ByLayer
 10
-1.75
 20
5.5
 30
0.0
 11
-1.75
 21
0.0
 31
0.0
  0
LINE
  5
8E
100
AcDbEntity
100
AcDbLine
  8
M3_ScrewJoint
 62
256
370
-1
  6
ByLayer
 10
-1.75
 20
10.0
 30
0.0
 11
-1.75
 21
8.0
 31
0.0
  0
LINE
  5
8F
100
AcDbEntity
100
AcDbLine
  8
M3_ScrewJoint
 62
256
370
-1
  6
ByLayer
 10
1.75
 20
8.0
 30
0.0
 11
1.75
 21
10.0
 31
0.0
  0
LINE
  5
90
100
AcDbEntity
100
AcDbLine
  8
M3_ScrewJoint
 62
256
370
-1
  6
ByLayer
 10
1.75
 20
0.0
 30
0.0
 11
1.75
 21
5.5
 31
0.0
  0
LINE
  5
91
100
AcDbEntity
100
AcDbLine
  8
M3_ScrewJoint
 62
256
370
-1
  6
ByLayer
 10
-3.0
 20
5.5
 30
0.0
 11
-1.75
 21
5.5
 31
0.0
  0
LINE
  5
92
100
AcDbEntity
100
AcDbLine
  8
M3_ScrewJoint
 62
256
370
-1
  6
ByLayer
 10
1.75
 20
5.5
 30
0.0
 11
3.0
 21
5.5
 31
0.0
  0
LINE
  5
93
100
AcDbEntity
100
AcDbLine
  8
M3_ScrewJoint
 62
256
370
-1
  6
ByLayer
 10
3.0
 20
8.0
 30
0.0
 11
1.75
 21
8.0
 31
0.0
  0
LINE
  5
94
100
AcDbEntity
100
AcDbLine
  8
M3_ScrewJoint
 62
256
370
-1
  6
ByLayer
 10
-1.75
 20
8.0
 30
0.0
 11
-3.0
 21
8.0
 31
0.0
  0
ENDBLK
  5
95
100
AcDbEntity
  8
0
100
AcDbBlockEnd
  0
BLOCK
  5
96
100
AcDbEntity
  8
0
100
AcDbBlockBegin
  2
2Pole_PowerConnector-0
 70
0
 10
0.0
 20
0.0
 30
0.0
  3
2Pole_PowerConnector-0
  1

  0
CIRCLE
  5
97
100
AcDbEntity
100
AcDbCircle
  8
2xPowerConn_MountingHoles
 62
256
370
-1
  6
ByLayer
 10
-9.0
 20
0.0
 30
0.0
 40
6.0
  0
CIRCLE
  5
98
100
AcDbEntity
100
AcDbCircle
  8
2xPowerConn_MountingHoles
 62
256
370
-1
  6
ByLayer
 10
9.0
 20
0.0
 30
0.0
 40
6.0
  0
LINE
  5
99
100
AcDbEntity
100
AcDbLine
  8
2xPowerConn_Outer
 62
256
370
-1
  6
ByLayer
 10
-9.0
 20
7.5
 30
0.0
 11
9.0
 21
7.5
 31
0.0
  0
LINE
  5
9A
100
AcDbEntity
100
AcDbLine
  8
2xPowerConn_Outer
 62
256
370
-1
  6
ByLayer
 10
9.0
 20
-7.5
 30
0.0
 11
-9.0
 21
-7.5
 31
0.0
  0
ARC
  5
9B
100
AcDbEntity
  8
2xPowerConn_Outer
 62
256
370
-1
  6
ByLayer
100
AcDbCircle
 10
-9.0
 20
0.0
 30
0.0
 40
7.5
100
AcDbArc
 50
90.0
 51
270.0
  0
ARC
  5
9C
100
AcDbEntity
  8
2xPowerConn_Outer
 62
256
370
-1
  6
ByLayer
100
AcDbCircle
 10
9.0
 20
0.0
 30
0.0
 40
7.5
100
AcDbArc
 50
270.0
 51
90.0
  0
ENDBLK
  5
9D
100
AcDbEntity
  8
0
100
AcDbBlockEnd
  0
BLOCK
  5
9E
100
AcDbEntity
  8
0
100
AcDbBlockBegin
  2
2Pole_PowerConnector-1
 70
0
 10
0.0
 20
0.0
 30
0.0
  3
2Pole_PowerConnector-1
  1

  0
CIRCLE
  5
9F
100
AcDbEntity
100
AcDbCircle
  8
2xPowerConn_MountingHoles
 62
256
370
-1
  6
ByLayer
 10
-9.0
 20
0.0
 30
0.0
 40
6.0
  0
CIRCLE
  5
A0
100
AcDbEntity
100
AcDbCircle
  8
2xPowerConn_MountingHoles
 62
256
370
-1
  6
ByLayer
 10
9.0
 20
0.0
 30
0.0
 40
6.0
  0
LINE
  5
A1
100
AcDbEntity
100
AcDbLine
  8
2xPowerConn_Outer
 62
256
370
-1
  6
ByLayer
 10
-9.0
 20
7.5
 30
0.0
 11
9.0
 21
7.5
 31
0.0
  0
LINE
  5
A2
100
AcDbEntity
100
AcDbLine
  8
2xPowerConn_Outer
 62
256
370
-1
  6
ByLayer
 10
9.0
 20
-7.5
 30
0.0
 11
-9.0
 21
-7.5
 31
0.0
  0
ARC
  5
A3
100
AcDbEntity
  8
2xPowerConn_Outer
 62
256
370
-1
  6
ByLayer
100
AcDbCircle
 10
-9.0
 20
0.0
 30
0.0
 40
7.5
100
AcDbArc
 50
90.0
 51
270.0
  0
ARC
  5
A4
100
AcDbEntity
  8
2xPowerConn_Outer
 62
256
370
-1
  6
ByLayer
100
AcDbCircle
 10
9.0
 20
0.0
 30
0.0
 40
7.5
100
AcDbArc
 50
270.0
 51
90.0
  0
ENDBLK
  5
A5
100
AcDbEntity
  8
0
100
AcDbBlockEnd
  0
ENDSEC
  0
SECTION
  2
ENTITIES
  0
LINE
  5
A6
100
AcDbEntity
100
AcDbLine
  8
3x10_Male
 62
256
370
-1
  6
ByLayer
 10
73.5
 20
110.0
 30
0.0
 11
73.5
 21
113.0
 31
0.0
  0
LINE
  5
A7
100
AcDbEntity
100
AcDbLine
  8
3x10_Male
 62
256
370
-1
  6
ByLayer
 10
73.5
 20
113.0
 30
0.0
 11
83.5
 21
113.0
 31
0.0
  0
LINE
  5
A8
100
AcDbEntity
100
AcDbLine
  8
3x10_Male
 62
256
370
-1
  6
ByLayer
 10
83.5
 20
113.0
 30
0.0
 11
83.5
 21
110.0
 31
0.0
  0
LINE
  5
A9
100
AcDbEntity
100
AcDbLine
  8
3x10_Male
 62
256
370
-1
  6
ByLayer
 10
8.4985911301700003
 20
110.0
 30
0.0
 11
8.4985911301700003
 21
113.0
 31
0.0
  0
LINE
  5
AA
100
AcDbEntity
100
AcDbLine
  8
3x10_Male
 62
256
370
-1
  6
ByLayer
 10
8.4985911301700003
 20
113.0
 30
0.0
 11
18.498591130200001
 21
113.0
 31
0.0
  0
LINE
  5
AB
100
AcDbEntity
100
AcDbLine
  8
3x10_Male
 62
256
370
-1
  6
ByLayer
 10
18.498591130200001
 20
113.0
 30
0.0
 11
18.498591130200001
 21
110.0
 31
0.0
  0
LINE
  5
AC
100
AcDbEntity
100
AcDbLine
  8
3x10_Male
 62
256
370
-1
  6
ByLayer
 10
138.49719110699999
 20
110.0
 30
0.0
 11
138.49719110699999
 21
113.0
 31
0.0
  0
LINE
  5
AD
100
AcDbEntity
100
AcDbLine
  8
3x10_Male
 62
256
370
-1
  6
ByLayer
 10
138.49719110699999
 20
113.0
 30
0.0
 11
148.49719110699999
 21
113.0
 31
0.0
  0
LINE
  5
AE
100
AcDbEntity
100
AcDbLine
  8
3x10_Male
 62
256
370
-1
  6
ByLayer
 10
148.49719110699999
 20
113.0
 30
0.0
 11
148.49719110699999
 21
110.0
 31
0.0
  0
LINE
  5
AF
100
AcDbEntity
100
AcDbLine
  8
3x10_Male
 62
256
370
-1
  6
ByLayer
 10
73.5
 20
10.0
 30
0.0
 11
73.5
 21
7.0
 31
0.0
  0
LINE
  5
B0
100
AcDbEntity
100
AcDbLine
  8
3x10_Male
 62
256
370
-1
  6
ByLayer
 10
73.5
 20
7.0
 30
0.0
 11
83.5
 21
7.0
 31
0.0
  0
LINE
  5
B1
100
AcDbEntity
100
AcDbLine
  8
3x10_Male
 62
256
370
-1
  6
ByLayer
 10
83.5
 20
7.0
 30
0.0
 11
83.5
 21
10.0
 31
0.0
  0
LINE
  5
B2
100
AcDbEntity
100
AcDbLine
  8
3x10_Male
 62
256
370
-1
  6
ByLayer
 10
8.4985911301700003
 20
10.0
 30
0.0
 11
8.4985911301700003
 21
7.0
 31
0.0
  0
LINE
  5
B3
100
AcDbEntity
100
AcDbLine
  8
3x10_Male
 62
256
370
-1
  6
ByLayer
 10
8.4985911301700003
 20
7.0
 30
0.0
 11
18.498591130200001
 21
7.0
 31
0.0
  0
LINE
  5
B4
100
AcDbEntity
100
AcDbLine
  8
3x10_Male
 62
256
370
-1
  6
ByLayer
 10
18.498591130200001
 20
7.0
 30
0.0
 11
18.498591130200001
 21
10.0
 31
0.0
  0
LINE
  5
B5
100
AcDbEntity
100
AcDbLine
  8
3x10_Male
 62
256
370
-1
  6
ByLayer
 10
138.49719110699999
 20
10.0
 30
0.0
 11
138.49719110699999
 21
7.0
 31
0.0
  0
LINE
  5
B6
100
AcDbEntity
100
AcDbLine
  8
3x10_Male
 62
256
370
-1
  6
ByLayer
 10
138.49719110699999
 20
7.0
 30
0.0
 11
148.49719110699999
 21
7.0
 31
0.0
  0
LINE
  5
B7
100
AcDbEntity
100
AcDbLine
  8
3x10_Male
 62
256
370
-1
  6
ByLayer
 10
148.49719110699999
 20
7.0
 30
0.0
 11
148.49719110699999
 21
10.0
 31
0.0
  0
LINE
  5
B8
100
AcDbEntity
100
AcDbLine
  8
Panel
 62
256
370
-1
  6
ByLayer
 10
0.0
 20
10.0
 30
0.0
 11
0.0000000000000061
 21
110.0
 31
0.0
  0
LINE
  5
B9
100
AcDbEntity
100
AcDbLine
  8
Panel
 62
256
370
-1
  6
ByLayer
 10
157.0
 20
10.0
 30
0.0
 11
157.0
 21
110.0
 31
0.0
  0
LINE
  5
BA
100
AcDbEntity
100
AcDbLine
  8
Panel
 62
256
370
-1
  6
ByLayer
 10
0.0000000000000061
 20
110.0
 30
0.0
 11
8.4985911301700003
 21
110.0
 31
0.0
  0
LINE
  5
BB
100
AcDbEntity
100
AcDbLine
  8
Panel
 62
256
370
-1
  6
ByLayer
 10
148.49719110699999
 20
110.0
 30
0.0
 11
157.0
 21
110.0
 31
0.0
  0
LINE
  5
BC
100
AcDbEntity
100
AcDbLine
  8
Panel
 62
256
370
-1
  6
ByLayer
 10
0.0000000000000061
 20
10.0
 30
0.0
 11
8.4985911301700003
 21
10.0
 31
0.0
  0
LINE
  5
BD
100
AcDbEntity
100
AcDbLine
  8
Panel
 62
256
370
-1
  6
ByLayer
 10
148.49719110699999
 20
10.0
 30
0.0
 11
157.0
 21
10.0
 31
0.0
  0
LINE
  5
BE
100
AcDbEntity
100
AcDbLine
  8
M3_ScrewJoint
 62
256
370
-1
  6
ByLayer
 10
44.249295565099999
 20
100.0
 30
0.0
 11
47.749295565099999
 21
100.0
 31
0.0
  0
LINE
  5
BF
100
AcDbEntity
100
AcDbLine
  8
M3_ScrewJoint
 62
256
370
-1
  6
ByLayer
 10
48.999295565099999
 20
102.0
 30
0.0
 11
48.999295565099999
 21
104.5
 31
0.0
  0
LINE
  5
C0
100
AcDbEntity
100
AcDbLine
  8
M3_ScrewJoint
 62
256
370
-1
  6
ByLayer
 10
42.999295565099999
 20
102.0
 30
0.0
 11
42.999295565099999
 21
104.5
 31
0.0
  0
LINE
  5
C1
100
AcDbEntity
100
AcDbLine
  8
M3_ScrewJoint
 62
256
370
-1
  6
ByLayer
 10
47.749295565099999
 20
104.5
 30
0.0
 11
47.749295565099999
 21
110.0
 31
0.0
  0
LINE
  5
C2
100
AcDbEntity
100
AcDbLine
  8
M3_ScrewJoint
 62
256
370
-1
  6
ByLayer
 10
47.749295565099999
 20
100.0
 30
0.0
 11
47.749295565099999
 21
102.0
 31
0.0
  0
LINE
  5
C3
100
AcDbEntity
100
AcDbLine
  8
M3_ScrewJoint
 62
256
370
-1
  6
ByLayer
 10
44.249295565099999
 20
102.0
 30
0.0
 11
44.249295565099999
 21
100.0
 31
0.0
  0
LINE
  5
C4
100
AcDbEntity
100
AcDbLine
  8
M3_ScrewJoint
 62
256
370
-1
  6
ByLayer
 10
44.249295565099999
 20
110.0
 30
0.0
 11
44.249295565099999
 21
104.5
 31
0.0
  0
LINE
  5
C5
100
AcDbEntity
100
AcDbLine
  8
M3_ScrewJoint
 62
256
370
-1
  6
ByLayer
 10
48.999295565099999
 20
104.5
 30
0.0
 11
47.749295565099999
 21
104.5
 31
0.0
  0
LINE
  5
C6
100
AcDbEntity
100
AcDbLine
  8
M3_ScrewJoint
 62
256
370
-1
  6
ByLayer
 10
44.249295565099999
 20
104.5
 30
0.0
 11
42.999295565099999
 21
104.5
 31
0.0
  0
LINE
  5
C7
100
AcDbEntity
100
AcDbLine
  8
M3_ScrewJoint
 62
256
370
-1
  6
ByLayer
 10
42.999295565099999
 20
102.0
 30
0.0
 11
44.249295565099999
 21
102.0
 31
0.0
  0
LINE
  5
C8
100
AcDbEntity
100
AcDbLine
  8
M3_ScrewJoint
 62
256
370
-1
  6
ByLayer
 10
47.749295565099999
 20
102.0
 30
0.0
 11
48.999295565099999
 21
102.0
 31
0.0
  0
LINE
  5
C9
100
AcDbEntity
100
AcDbLine
  8
M3_ScrewJoint
 62
256
370
-1
  6
ByLayer
 10
109.248595554
 20
100.0
 30
0.0
 11
112.748595554
 21
100.0
 31
0.0
  0
LINE
  5
CA
100
AcDbEntity
100
AcDbLine
  8
M3_ScrewJoint
 62
256
370
-1
  6
ByLayer
 10
113.998595554
 20
102.0
 30
0.0
 11
113.998595554
 21
104.5
 31
0.0
  0
LINE
  5
CB
100
AcDbEntity
100
AcDbLine
  8
M3_ScrewJoint
 62
256
370
-1
  6
ByLayer
 10
107.998595554
 20
102.0
 30
0.0
 11
107.998595554
 21
104.5
 31
0.0
  0
LINE
  5
CC
100
AcDbEntity
100
AcDbLine
  8
M3_ScrewJoint
 62
256
370
-1
  6
ByLayer
 10
112.748595554
 20
104.5
 30
0.0
 11
112.748595554
 21
110.0
 31
0.0
  0
LINE
  5
CD
100
AcDbEntity
100
AcDbLine
  8
M3_ScrewJoint
 62
256
370
-1
  6
ByLayer
 10
112.748595554
 20
100.0
 30
0.0
 11
112.748595554
 21
102.0
 31
0.0
  0
LINE
  5
CE
100
AcDbEntity
100
AcDbLine
  8
M3_ScrewJoint
 62
256
370
-1
  6
ByLayer
 10
109.248595554
 20
102.0
 30
0.0
 11
109.248595554
 21
100.0
 31
0.0
  0
LINE
  5
CF
100
AcDbEntity
100
AcDbLine
  8
M3_ScrewJoint
 62
256
370
-1
  6
ByLayer
 10
109.248595554
 20
110.0
 30
0.0
 11
109.248595554
 21
104.5
 31
0.0
  0
LINE
  5
D0
100
AcDbEntity
100
AcDbLine
  8
M3_ScrewJoint
 62
256
370
-1
  6
ByLayer
 10
113.998595554
 20
104.5
 30
0.0
 11
112.748595554
 21
104.5
 31
0.0
  0
LINE
  5
D1
100
AcDbEntity
100
AcDbLine
  8
M3_ScrewJoint
 62
256
370
-1
  6
ByLayer
 10
109.248595554
 20
104.5
 30
0.0
 11
107.998595554
 21
104.5
 31
0.0
  0
LINE
  5
D2
100
AcDbEntity
100
AcDbLine
  8
M3_ScrewJoint
 62
256
370
-1
  6
ByLayer
 10
107.998595554
 20
102.0
 30
0.0
 11
109.248595554
 21
102.0
 31
0.0
  0
LINE
  5
D3
100
AcDbEntity
100
AcDbLine
  8
M3_ScrewJoint
 62
256
370
-1
  6
ByLayer
 10
112.748595554
 20
102.0
 30
0.0
 11
113.998595554
 21
102.0
 31
0.0
  0
LINE
  5
D4
100
AcDbEntity
100
AcDbLine
  8
M3_ScrewJoint
 62
256
370
-1
  6
ByLayer
 10
47.749295565099999
 20
20.0
 30
0.0
 11
44.249295565099999
 21
20.0
 31
0.0
  0
LINE
  5
D5
100
AcDbEntity
100
AcDbLine
  8
M3_ScrewJoint
 62
256
370
-1
  6
ByLayer
 10
42.999295565099999
 20
18.0
 30
0.0
 11
42.999295565099999
 21
15.5
 31
0.0
  0
LINE
  5
D6
100
AcDbEntity
100
AcDbLine
  8
M3_ScrewJoint
 62
256
370
-1
  6
ByLayer
 10
48.999295565099999
 20
18.0
 30
0.0
 11
48.999295565099999
 21
15.5
 31
0.0
  0
LINE
  5
D7
100
AcDbEntity
100
AcDbLine
  8
M3_ScrewJoint
 62
256
370
-1
  6
ByLayer
 10
44.249295565099999
 20
15.5
 30
0.0
 11
44.249295565099999
 21
10.0
 31
0.0
  0
LINE
  5
D8
100
AcDbEntity
100
AcDbLine
  8
M3_ScrewJoint
 62
256
370
-1
  6
ByLayer
 10
44.249295565099999
 20
20.0
 30
0.0
 11
44.249295565099999
 21
18.0
 31
0.0
  0
LINE
  5
D9
100
AcDbEntity
100
AcDbLine
  8
M3_ScrewJoint
 62
256
370
-1
  6
ByLayer
 10
47.749295565099999
 20
18.0
 30
0.0
 11
47.749295565099999
 21
20.0
 31
0.0
  0
LINE
  5
DA
100
AcDbEntity
100
AcDbLine
  8
M3_ScrewJoint
 62
256
370
-1
  6
ByLayer
 10
47.749295565099999
 20
10.0
 30
0.0
 11
47.749295565099999
 21
15.5
 31
0.0
  0
LINE
  5
DB
100
AcDbEntity
100
AcDbLine
  8
M3_ScrewJoint
 62
256
370
-1
  6
ByLayer
 10
42.999295565099999
 20
15.5
 30
0.0
 11
44.249295565099999
 21
15.5
 31
0.0
  0
LINE
  5
DC
100
AcDbEntity
100
AcDbLine
  8
M3_ScrewJoint
 62
256
370
-1
  6
ByLayer
 10
47.749295565099999
 20
15.5
 30
0.0
 11
48.999295565099999
 21
15.5
 31
0.0
  0
LINE
  5
DD
100
AcDbEntity
100
AcDbLine
  8
M3_ScrewJoint
 62
256
370
-1
  6
ByLayer
 10
48.999295565099999
 20
18.0
 30
0.0
 11
47.749295565099999
 21
18.0
 31
0.0
  0
LINE
  5
DE
100
AcDbEntity
100
AcDbLine
  8
M3_ScrewJoint
 62
256
370
-1
  6
ByLayer
 10
44.249295565099999
 20
18.0
 30
0.0
 11
42.999295565099999
 21
18.0
 31
0.0
  0
LINE
  5
DF
100
AcDbEntity
100
AcDbLine
  8
M3_ScrewJoint
 62
256
370
-1
  6
ByLayer
 10
112.748595554
 20
20.0
 30
0.0
 11
109.248595554
 21
20.0
 31
0.0
  0
LINE
  5
E0
100
AcDbEntity
100
AcDbLine
  8
M3_ScrewJoint
 62
256
370
-1
  6
ByLayer
 10
107.998595554
 20
18.0
 30
0.0
 11
107.998595554
 21
15.5
 31
0.0
  0
LINE
  5
E1
100
AcDbEntity
100
AcDbLine
  8
M3_ScrewJoint
 62
256
370
-1
  6
ByLayer
 10
113.998595554
 20
18.0
 30
0.0
 11
113.998595554
 21
15.5
 31
0.0
  0
LINE
  5
E2
100
AcDbEntity
100
AcDbLine
  8
M3_ScrewJoint
 62
256
370
-1
  6
ByLayer
 10
109.248595554
 20
15.5
 30
0.0
 11
109.248595554
 21
10.0
 31
0.0
  0
LINE
  5
E3
100
AcDbEntity
100
AcDbLine
  8
M3_ScrewJoint
 62
256
370
-1
  6
ByLayer
 10
109.248595554
 20
20.0
 30
0.0
 11
109.248595554
 21
18.0
 31
0.0
  0
LINE
  5
E4
100
AcDbEntity
100
AcDbLine
  8
M3_ScrewJoint
 62
256
370
-1
  6
ByLayer
 10
112.748595554
 20
18.0
 30
0.0
 11
112.748595554
 21
20.0
 31
0.0
  0
LINE
  5
E5
100
AcDbEntity
100
AcDbLine
  8
M3_ScrewJoint
 62
256
370
-1
  6
ByLayer
 10
112.748595554
 20
10.0
 30
0.0
 11
112.748595554
 21
15.5
 31
0.0
  0
LINE
  5
E6
100
AcDbEntity
100
AcDbLine
  8
M3_ScrewJoint
 62
256
370
-1
  6
ByLayer
 10
107.998595554
 20
15.5
 30
0.0
 11
109.248595554
 21
15.5
 31
0.0
  0
LINE
  5
E7
100
AcDbEntity
100
AcDbLine
  8
M3_ScrewJoint
 62
256
370
-1
  6
ByLayer
 10
112.748595554
 20
15.5
 30
0.0
 11
113.998595554
 21
15.5
 31
0.0
  0
LINE
  5
E8
100
AcDbEntity
100
AcDbLine
  8
M3_ScrewJoint
 62
256
370
-1
  6
ByLayer
 10
113.998595554
 20
18.0
 30
0.0
 11
112.748595554
 21
18.0
 31
0.0
  0
LINE
  5
E9
100
AcDbEntity
100
AcDbLine
  8
M3_ScrewJoint
 62
256
370
-1
  6
ByLayer
 10
109.248595554
 20
18.0
 30
0.0
 11
107.998595554
 21
18.0
 31
0.0
  0
LINE
  5
EA
100
AcDbEntity
100
AcDbLine
  8
Panel
 62
256
370
-1
  6
ByLayer
 10
18.498591130200001
 20
110.0
 30
0.0
 11
44.249295565099999
 21
110.0
 31
0.0
  0
LINE
  5
EB
100
AcDbEntity
100
AcDbLine
  8
Panel
 62
256
370
-1
  6
ByLayer
 10
47.749295565099999
 20
110.0
 30
0.0
 11
73.5
 21
110.0
 31
0.0
  0
LINE
  5
EC
100
AcDbEntity
100
AcDbLine
  8
Panel
 62
256
370
-1
  6
ByLayer
 10
83.5
 20
110.0
 30
0.0
 11
109.248595554
 21
110.0
 31
0.0
  0
LINE
  5
ED
100
AcDbEntity
100
AcDbLine
  8
Panel
 62
256
370
-1
  6
ByLayer
 10
112.748595554
 20
110.0
 30
0.0
 11
138.49719110699999
 21
110.0
 31
0.0
  0
LINE
  5
EE
100
AcDbEntity
100
AcDbLine
  8
Panel
 62
256
370
-1
  6
ByLayer
 10
83.5
 20
10.0
 30
0.0
 11
109.248595554
 21
10.0
 31
0.0
  0
LINE
  5
EF
100
AcDbEntity
100
AcDbLine
  8
Panel
 62
256
370
-1
  6
ByLayer
 10
112.748595554
 20
10.0
 30
0.0
 11
138.49719110699999
 21
10.0
 31
0.0
  0
LINE
  5
F0
100
AcDbEntity
100
AcDbLine
  8
Panel
 62
256
370
-1
  6
ByLayer
 10
73.5
 20
10.0
 30
0.0
 11
47.749295565099999
 21
10.0
 31
0.0
  0
LINE
  5
F1
100
AcDbEntity
100
AcDbLine
  8
Panel
 62
256
370
-1
  6
ByLayer
 10
44.249295565099999
 20
10.0
 30
0.0
 11
18.498591130200001
 21
10.0
 31
0.0
  0
CIRCLE
  5
F2
100
AcDbEntity
100
AcDbCircle
  8
Cutouts
 62
256
370
-1
  6
ByLayer
 10
70.0
 20
35.0
 30
0.0
 40
5.0
  0
CIRCLE
  5
F3
100
AcDbEntity
100
AcDbCircle
  8
Cutouts
 62
256
370
-1
  6
ByLayer
 10
90.0
 20
35.0
 30
0.0
 40
5.0
  0
CIRCLE
  5
F4
100
AcDbEntity
100
AcDbCircle
  8
Cutouts
 62
256
370
-1
  6
ByLayer
 10
120.0
 20
35.0
 30
0.0
 40
5.0
  0
CIRCLE
  5
F5
100
AcDbEntity
100
AcDbCircle
  8
Cutouts
 62
256
370
-1
  6
ByLayer
 10
140.0
 20
35.0
 30
0.0
 40
5.0
  0
INSERT
  5
F6
100
AcDbEntity
100
AcDbBlockReference
  8
Cutouts
 62
256
370
-1
  6
ByLayer
  2
2Pole_PowerConnector-0
 10
60.0
 20
80.0
 30
0.0
  0
INSERT
  5
F7
100
AcDbEntity
100
AcDbBlockReference
  8
Cutouts
 62
256
370
-1
  6
ByLayer
  2
2Pole_PowerConnector-1
 10
100.0
 20
80.0
 30
0.0
  0
LINE
  5
F8
100
AcDbEntity
100
AcDbLine
  8
Text
 62
256
370
-1
  6
ByLayer
 10
118.888888889
 20
50.0
 30
0.0
 11
118.888888889
 21
45.0
 31
0.0
  0
LINE
  5
F9
100
AcDbEntity
100
AcDbLine
  8
Text
 62
256
370
-1
  6
ByLayer
 10
118.888888889
 20
45.0
 30
0.0
 11
121.111111111
 21
45.0
 31
0.0
  0
LINE
  5
FA
100
AcDbEntity
100
AcDbLine
  8
Text
 62
256
370
-1
  6
ByLayer
 10
138.61111111100001
 20
45.0
 30
0.0
 11
138.61111111100001
 21
50.0
 31
0.0
  0
LINE
  5
FB
100
AcDbEntity
100
AcDbLine
  8
Text
 62
256
370
-1
  6
ByLayer
 10
138.61111111100001
 20
50.0
 30
0.0
 11
140.0
 21
50.0
 31
0.0
  0
ARC
  5
FC
100
AcDbEntity
  8
Text
 62
256
370
-1
  6
ByLayer
100
AcDbCircle
 10
140.0
 20
48.611111111100001
 30
0.0
 40
1.38888888889
100
AcDbArc
 50
270.0
 51
90.0
  0
LINE
  5
FD
100
AcDbEntity
100
AcDbLine
  8
Text
 62
256
370
-1
  6
ByLayer
 10
140.0
 20
47.222222222200003
 30
0.0
 11
138.61111111100001
 21
47.222222222200003
 31
0.0
  0
LINE
  5
FE
100
AcDbEntity
100
AcDbLine
  8
Text
 62
256
370
-1
  6
ByLayer
 10
141.38888888899999
 20
45.0
 30
0.0
 11
140.26595
 21
47.247922222200003
 31
0.0
  0
LINE
  5
FF
100
AcDbEntity
100
AcDbLine
  8
Text
 62
256
370
-1
  6
ByLayer
 10
120.069444444
 20
55.0
 30
0.0
 11
120.069444444
 21
60.0
 31
0.0
  0
LINE
  5
100
100
AcDbEntity
100
AcDbLine
  8
Text
 62
256
370
-1
  6
ByLayer
 10
120.069444444
 20
60.0
 30
0.0
 11
121.458333333
 21
60.0
 31
0.0
  0
ARC
  5
101
100
AcDbEntity
  8
Text
 62
256
370
-1
  6
ByLayer
100
AcDbCircle
 10
121.458333333
 20
58.611111111100001
 30
0.0
 40
1.38888888889
100
AcDbArc
 50
270.0
 51
90.0
  0
LINE
  5
102
100
AcDbEntity
100
AcDbLine
  8
Text
 62
256
370
-1
  6
ByLayer
 10
121.458333333
 20
57.222222222200003
 30
0.0
 11
120.069444444
 21
57.222222222200003
 31
0.0
  0
LINE
  5
103
100
AcDbEntity
100
AcDbLine
  8
Text
 62
256
370
-1
  6
ByLayer
 10
124.513888889
 20
55.0
 30
0.0
 11
124.513888889
 21
58.333333333299997
 31
0.0
  0
LINE
  5
104
100
AcDbEntity
100
AcDbLine
  8
Text
 62
256
370
-1
  6
ByLayer
 10
124.513888889
 20
59.722222222200003
 30
0.0
 11
124.513888889
 21
60.0
 31
0.0
  0
ARC
  5
105
100
AcDbEntity
  8
Text
 62
256
370
-1
  6
ByLayer
100
AcDbCircle
 10
131.319444444
 20
56.388888888899999
 30
0.0
 40
1.38888888889
100
AcDbArc
 50
180.0
 51
0.0
  0
LINE
  5
106
100
AcDbEntity
100
AcDbLine
  8
Text
 62
256
370
-1
  6
ByLayer
 10
129.930555556
 20
56.388888888899999
 30
0.0
 11
129.930555556
 21
58.611111111100001
 31
0.0
  0
ARC
  5
107
100
AcDbEntity
  8
Text
 62
256
370
-1
  6
ByLayer
100
AcDbCircle
 10
131.319444444
 20
58.611111111100001
 30
0.0
 40
1.38888888889
100
AcDbArc
 50
0.0
 51
180.0
  0
LINE
  5
108
100
AcDbEntity
100
AcDbLine
  8
Text
 62
256
370
-1
  6
ByLayer
 10
132.70833333300001
 20
58.611111111100001
 30
0.0
 11
132.70833333300001
 21
56.388888888899999
 31
0.0
  0
LINE
  5
109
100
AcDbEntity
100
AcDbLine
  8
Text
 62
256
370
-1
  6
ByLayer
 10
134.375
 20
58.333333333299997
 30
0.0
 11
134.375
 21
55.833333333299997
 31
0.0
  0
ARC
  5
10A
100
AcDbEntity
  8
Text
 62
256
370
-1
  6
ByLayer
100
AcDbCircle
 10
135.208332711
 20
55.833332710800001
 30
0.0
 40
0.833332710771
100
AcDbArc
 50
179.999957196
 51
270.00004280399997
  0
LINE
  5
10B
100
AcDbEntity
100
AcDbLine
  8
Text
 62
256
370
-1
  6
ByLayer
 10
135.20833333300001
 20
55.0
 30
0.0
 11
136.597222222
 21
55.0
 31
0.0
  0
LINE
  5
10C
100
AcDbEntity
100
AcDbLine
  8
Text
 62
256
370
-1
  6
ByLayer
 10
136.597222222
 20
55.0
 30
0.0
 11
136.597222222
 21
58.333333333299997
 31
0.0
  0
LINE
  5
10D
100
AcDbEntity
100
AcDbLine
  8
Text
 62
256
370
-1
  6
ByLayer
 10
138.819444444
 20
55.0
 30
0.0
 11
138.819444444
 21
60.0
 31
0.0
  0
LINE
  5
10E
100
AcDbEntity
100
AcDbLine
  8
Text
 62
256
370
-1
  6
ByLayer
 10
138.26388888899999
 20
58.333333333299997
 30
0.0
 11
139.930555556
 21
58.333333333299997
 31
0.0
  0
LINE
  5
10F
100
AcDbEntity
100
AcDbLine
  8
Text
 62
256
370
-1
  6
ByLayer
 10
66.2962777778
 20
58.055555555600002
 30
0.0
 11
68.703666666700002
 21
58.055555555600002
 31
0.0
  0
LINE
  5
110
100
AcDbEntity
100
AcDbLine
  8
Text
 62
256
370
-1
  6
ByLayer
 10
65.833333333300004
 20
56.666666666700003
 30
0.0
 11
67.5
 21
61.666666666700003
 31
0.0
  0
LINE
  5
111
100
AcDbEntity
100
AcDbLine
  8
Text
 62
256
370
-1
  6
ByLayer
 10
67.5
 20
61.666666666700003
 30
0.0
 11
69.166666666699996
 21
56.666666666700003
 31
0.0
  0
LINE
  5
112
100
AcDbEntity
100
AcDbLine
  8
Text
 62
256
370
-1
  6
ByLayer
 10
72.5
 20
56.666666666700003
 30
0.0
 11
72.5
 21
60.0
 31
0.0
  0
LINE
  5
113
100
AcDbEntity
100
AcDbLine
  8
Text
 62
256
370
-1
  6
ByLayer
 10
70.833333333300004
 20
56.666666666700003
 30
0.0
 11
70.833333333300004
 21
60.0
 31
0.0
  0
LINE
  5
114
100
AcDbEntity
100
AcDbLine
  8
Text
 62
256
370
-1
  6
ByLayer
 10
70.833333333300004
 20
60.0
 30
0.0
 11
73.333333333300004
 21
60.0
 31
0.0
  0
ARC
  5
115
100
AcDbEntity
  8
Text
 62
256
370
-1
  6
ByLayer
100
AcDbCircle
 10
73.333333955900002
 20
59.166667289199999
 30
0.0
 40
0.833332710771
100
AcDbArc
 50
359.99995719600003
 51
90.000042804299994
  0
LINE
  5
116
100
AcDbEntity
100
AcDbLine
  8
Text
 62
256
370
-1
  6
ByLayer
 10
74.166666666699996
 20
59.166666666700003
 30
0.0
 11
74.166666666699996
 21
56.666666666700003
 31
0.0
  0
LINE
  5
117
100
AcDbEntity
100
AcDbLine
  8
Text
 62
256
370
-1
  6
ByLayer
 10
75.833333333300004
 20
55.0
 30
0.0
 11
75.833333333300004
 21
60.0
 31
0.0
  0
LINE
  5
118
100
AcDbEntity
100
AcDbLine
  8
Text
 62
256
370
-1
  6
ByLayer
 10
75.833333333300004
 20
60.0
 30
0.0
 11
77.222222222200003
 21
60.0
 31
0.0
  0
ARC
  5
119
100
AcDbEntity
  8
Text
 62
256
370
-1
  6
ByLayer
100
AcDbCircle
 10
77.222202928000002
 20
59.1666473724
 30
0.0
 40
0.833352627778
100
AcDbArc
 50
0.00132654225952
 51
89.998673457699994
  0
LINE
  5
11A
100
AcDbEntity
100
AcDbLine
  8
Text
 62
256
370
-1
  6
ByLayer
 10
78.055555555599994
 20
59.166666666700003
 30
0.0
 11
78.055555555599994
 21
57.5
 31
0.0
  0
ARC
  5
11B
100
AcDbEntity
  8
Text
 62
256
370
-1
  6
ByLayer
100
AcDbCircle
 10
77.222202928000002
 20
57.500019294200001
 30
0.0
 40
0.833352627778
100
AcDbArc
 50
270.00132654200002
 51
359.99867345799998
  0
LINE
  5
11C
100
AcDbEntity
100
AcDbLine
  8
Text
 62
256
370
-1
  6
ByLayer
 10
77.222222222200003
 20
56.666666666700003
 30
0.0
 11
75.833333333300004
 21
56.666666666700003
 31
0.0
  0
LINE
  5
11D
100
AcDbEntity
100
AcDbLine
  8
Text
 62
256
370
-1
  6
ByLayer
 10
79.722222222200003
 20
61.666666666700003
 30
0.0
 11
79.722222222200003
 21
57.222222222200003
 31
0.0
  0
ARC
  5
11E
100
AcDbEntity
  8
Text
 62
256
370
-1
  6
ByLayer
100
AcDbCircle
 10
80.277777362699993
 20
57.2222218072
 30
0.0
 40
0.555555140514
100
AcDbArc
 50
179.999957196
 51
270.00004280399997
  0
LINE
  5
11F
100
AcDbEntity
100
AcDbLine
  8
Text
 62
256
370
-1
  6
ByLayer
 10
81.944444444400006
 20
56.666666666700003
 30
0.0
 11
81.944444444400006
 21
60.0
 31
0.0
  0
LINE
  5
120
100
AcDbEntity
100
AcDbLine
  8
Text
 62
256
370
-1
  6
ByLayer
 10
81.944444444400006
 20
61.388888888899999
 30
0.0
 11
81.944444444400006
 21
61.666666666700003
 31
0.0
  0
LINE
  5
121
100
AcDbEntity
100
AcDbLine
  8
Text
 62
256
370
-1
  6
ByLayer
 10
84.166666666699996
 20
56.666666666700003
 30
0.0
 11
84.166666666699996
 21
60.833333333299997
 31
0.0
  0
ARC
  5
122
100
AcDbEntity
  8
Text
 62
256
370
-1
  6
ByLayer
100
AcDbCircle
 10
84.999999377400002
 20
60.833333955900002
 30
0.0
 40
0.833332710771
100
AcDbArc
 50
89.999957195700006
 51
180.000042804
  0
LINE
  5
123
100
AcDbEntity
100
AcDbLine
  8
Text
 62
256
370
-1
  6
ByLayer
 10
85.0
 20
61.666666666700003
 30
0.0
 11
85.277777777799997
 21
61.666666666700003
 31
0.0
  0
LINE
  5
124
100
AcDbEntity
100
AcDbLine
  8
Text
 62
256
370
-1
  6
ByLayer
 10
83.611111111100001
 20
60.0
 30
0.0
 11
85.277777777799997
 21
60.0
 31
0.0
  0
LINE
  5
125
100
AcDbEntity
100
AcDbLine
  8
Text
 62
256
370
-1
  6
ByLayer
 10
86.944444444400006
 20
56.666666666700003
 30
0.0
 11
86.944444444400006
 21
60.0
 31
0.0
  0
LINE
  5
126
100
AcDbEntity
100
AcDbLine
  8
Text
 62
256
370
-1
  6
ByLayer
 10
86.944444444400006
 20
61.388888888899999
 30
0.0
 11
86.944444444400006
 21
61.666666666700003
 31
0.0
  0
LINE
  5
127
100
AcDbEntity
100
AcDbLine
  8
Text
 62
256
370
-1
  6
ByLayer
 10
90.833333333300004
 20
56.666666666700003
 30
0.0
 11
89.444444444400006
 21
56.666666666700003
 31
0.0
  0
ARC
  5
128
100
AcDbEntity
  8
Text
 62
256
370
-1
  6
ByLayer
100
AcDbCircle
 10
89.444443821899995
 20
57.499999377400002
 30
0.0
 40
0.833332710771
100
AcDbArc
 50
179.999957196
 51
270.00004280399997
  0
LINE
  5
129
100
AcDbEntity
100
AcDbLine
  8
Text
 62
256
370
-1
  6
ByLayer
 10
88.611111111100001
 20
57.5
 30
0.0
 11
88.611111111100001
 21
58.888888888899999
 31
0.0
  0
ARC
  5
12A
100
AcDbEntity
  8
Text
 62
256
370
-1
  6
ByLayer
100
AcDbCircle
 10
89.722222222200003
 20
58.888888888899999
 30
0.0
 40
1.11111111111
100
AcDbArc
 50
0.0
 51
180.0
  0
LINE
  5
12B
100
AcDbEntity
100
AcDbLine
  8
Text
 62
256
370
-1
  6
ByLayer
 10
90.833333333300004
 20
58.888888888899999
 30
0.0
 11
90.833333333300004
 21
58.333333333299997
 31
0.0
  0
LINE
  5
12C
100
AcDbEntity
100
AcDbLine
  8
Text
 62
256
370
-1
  6
ByLayer
 10
90.833333333300004
 20
58.333333333299997
 30
0.0
 11
88.611111111100001
 21
58.333333333299997
 31
0.0
  0
LINE
  5
12D
100
AcDbEntity
100
AcDbLine
  8
Text
 62
256
370
-1
  6
ByLayer
 10
92.5
 20
56.666666666700003
 30
0.0
 11
92.5
 21
60.0
 31
0.0
  0
LINE
  5
12E
100
AcDbEntity
100
AcDbLine
  8
Text
 62
256
370
-1
  6
ByLayer
 10
92.5
 20
60.0
 30
0.0
 11
94.166666666699996
 21
60.0
 31
0.0
  0
LINE
  5
12F
100
AcDbEntity
100
AcDbLine
  8
Text
 62
256
370
-1
  6
ByLayer
 10
94.166666666699996
 20
60.0
 30
0.0
 11
94.166666666699996
 21
59.444444444399998
 31
0.0
  0
LINE
  5
130
100
AcDbEntity
100
AcDbLine
  8
Text
 62
256
370
-1
  6
ByLayer
 10
5.9027777777799999
 20
45.0
 30
0.0
 11
5.9027777777799999
 21
50.0
 31
0.0
  0
LINE
  5
131
100
AcDbEntity
100
AcDbLine
  8
Text
 62
256
370
-1
  6
ByLayer
 10
5.9027777777799999
 20
50.0
 30
0.0
 11
7.2916666666700003
 21
50.0
 31
0.0
  0
ARC
  5
132
100
AcDbEntity
  8
Text
 62
256
370
-1
  6
ByLayer
100
AcDbCircle
 10
7.2916666666700003
 20
48.611111111100001
 30
0.0
 40
1.38888888889
100
AcDbArc
 50
270.0
 51
90.0
  0
LINE
  5
133
100
AcDbEntity
100
AcDbLine
  8
Text
 62
256
370
-1
  6
ByLayer
 10
7.2916666666700003
 20
47.222222222200003
 30
0.0
 11
5.9027777777799999
 21
47.222222222200003
 31
0.0
  0
ARC
  5
134
100
AcDbEntity
  8
Text
 62
256
370
-1
  6
ByLayer
100
AcDbCircle
 10
11.458333333300001
 20
46.111111111100001
 30
0.0
 40
1.11111111111
100
AcDbArc
 50
180.0
 51
0.0
  0
LINE
  5
135
100
AcDbEntity
100
AcDbLine
  8
Text
 62
256
370
-1
  6
ByLayer
 10
10.347222222199999
 20
46.111111111100001
 30
0.0
 11
10.347222222199999
 21
47.222222222200003
 31
0.0
  0
ARC
  5
136
100
AcDbEntity
  8
Text
 62
256
370
-1
  6
ByLayer
100
AcDbCircle
 10
11.458333333300001
 20
47.222222222200003
 30
0.0
 40
1.11111111111
100
AcDbArc
 50
0.0
 51
180.0
  0
LINE
  5
137
100
AcDbEntity
100
AcDbLine
  8
Text
 62
256
370
-1
  6
ByLayer
 10
12.5694444444
 20
47.222222222200003
 30
0.0
 11
12.5694444444
 21
46.111111111100001
 31
0.0
  0
LINE
  5
138
100
AcDbEntity
100
AcDbLine
  8
Text
 62
256
370
-1
  6
ByLayer
 10
14.2361111111
 20
48.333333333299997
 30
0.0
 11
15.0694444444
 21
45.0
 31
0.0
  0
LINE
  5
139
100
AcDbEntity
100
AcDbLine
  8
Text
 62
256
370
-1
  6
ByLayer
 10
15.0694444444
 20
45.0
 30
0.0
 11
15.902777777800001
 21
47.222222222200003
 31
0.0
  0
LINE
  5
13A
100
AcDbEntity
100
AcDbLine
  8
Text
 62
256
370
-1
  6
ByLayer
 10
15.902777777800001
 20
47.222222222200003
 30
0.0
 11
16.736111111100001
 21
45.0
 31
0.0
  0
LINE
  5
13B
100
AcDbEntity
100
AcDbLine
  8
Text
 62
256
370
-1
  6
ByLayer
 10
16.736111111100001
 20
45.0
 30
0.0
 11
17.569444444399998
 21
48.333333333299997
 31
0.0
  0
LINE
  5
13C
100
AcDbEntity
100
AcDbLine
  8
Text
 62
256
370
-1
  6
ByLayer
 10
21.458333333300001
 20
45.0
 30
0.0
 11
20.069444444399998
 21
45.0
 31
0.0
  0
ARC
  5
13D
100
AcDbEntity
  8
Text
 62
256
370
-1
  6
ByLayer
100
AcDbCircle
 10
20.069443821899998
 20
45.833332710800001
 30
0.0
 40
0.833332710771
100
AcDbArc
 50
179.999957196
 51
270.00004280399997
  0
LINE
  5
13E
100
AcDbEntity
100
AcDbLine
  8
Text
 62
256
370
-1
  6
ByLayer
 10
19.236111111100001
 20
45.833333333299997
 30
0.0
 11
19.236111111100001
 21
47.222222222200003
 31
0.0
  0
ARC
  5
13F
100
AcDbEntity
  8
Text
 62
256
370
-1
  6
ByLayer
100
AcDbCircle
 10
20.347222222199999
 20
47.222222222200003
 30
0.0
 40
1.11111111111
100
AcDbArc
 50
0.0
 51
180.0
  0
LINE
  5
140
100
AcDbEntity
100
AcDbLine
  8
Text
 62
256
370
-1
  6
ByLayer
 10
21.458333333300001
 20
47.222222222200003
 30
0.0
 11
21.458333333300001
 21
46.666666666700003
 31
0.0
  0
LINE
  5
141
100
AcDbEntity
100
AcDbLine
  8
Text
 62
256
370
-1
  6
ByLayer
 10
21.458333333300001
 20
46.666666666700003
 30
0.0
 11
19.236111111100001
 21
46.666666666700003
 31
0.0
  0
LINE
  5
142
100
AcDbEntity
100
AcDbLine
  8
Text
 62
256
370
-1
  6
ByLayer
 10
23.125
 20
45.0
 30
0.0
 11
23.125
 21
48.333333333299997
 31
0.0
  0
LINE
  5
143
100
AcDbEntity
100
AcDbLine
  8
Text
 62
256
370
-1
  6
ByLayer
 10
23.125
 20
48.333333333299997
 30
0.0
 11
24.791666666699999
 21
48.333333333299997
 31
0.0
  0
LINE
  5
144
100
AcDbEntity
100
AcDbLine
  8
Text
 62
256
370
-1
  6
ByLayer
 10
24.791666666699999
 20
48.333333333299997
 30
0.0
 11
24.791666666699999
 21
47.777777777799997
 31
0.0
  0
LINE
  5
145
100
AcDbEntity
100
AcDbLine
  8
Text
 62
256
370
-1
  6
ByLayer
 10
30.208333333300001
 20
45.0
 30
0.0
 11
30.208333333300001
 21
50.0
 31
0.0
  0
LINE
  5
146
100
AcDbEntity
100
AcDbLine
  8
Text
 62
256
370
-1
  6
ByLayer
 10
31.875
 20
45.0
 30
0.0
 11
31.875
 21
48.333333333299997
 31
0.0
  0
LINE
  5
147
100
AcDbEntity
100
AcDbLine
  8
Text
 62
256
370
-1
  6
ByLayer
 10
31.875
 20
48.333333333299997
 30
0.0
 11
33.263888888899999
 21
48.333333333299997
 31
0.0
  0
ARC
  5
148
100
AcDbEntity
  8
Text
 62
256
370
-1
  6
ByLayer
100
AcDbCircle
 10
33.263889511499997
 20
47.500000622599998
 30
0.0
 40
0.833332710771
100
AcDbArc
 50
359.99995719600003
 51
90.000042804299994
  0
LINE
  5
149
100
AcDbEntity
100
AcDbLine
  8
Text
 62
256
370
-1
  6
ByLayer
 10
34.097222222200003
 20
47.5
 30
0.0
 11
34.097222222200003
 21
45.0
 31
0.0
  0
LINE
  5
14A
100
AcDbEntity
100
AcDbLine
  8
0
 62
256
370
-1
  6
ByLayer
 10
68.888888888899999
 20
50.0
 30
0.0
 11
68.888888888899999
 21
45.0
 31
0.0
  0
LINE
  5
14B
100
AcDbEntity
100
AcDbLine
  8
0
 62
256
370
-1
  6
ByLayer
 10
68.888888888899999
 20
45.0
 30
0.0
 11
71.111111111100001
 21
45.0
 31
0.0
  0
LINE
  5
14C
100
AcDbEntity
100
AcDbLine
  8
0
 62
256
370
-1
  6
ByLayer
 10
88.611111111100001
 20
45.0
 30
0.0
 11
88.611111111100001
 21
50.0
 31
0.0
  0
LINE
  5
14D
100
AcDbEntity
100
AcDbLine
  8
0
 62
256
370
-1
  6
ByLayer
 10
88.611111111100001
 20
50.0
 30
0.0
 11
90.0
 21
50.0
 31
0.0
  0
ARC
  5
14E
100
AcDbEntity
  8
0
 62
256
370
-1
  6
ByLayer
100
AcDbCircle
 10
90.0
 20
48.611111111100001
 30
0.0
 40
1.38888888889
100
AcDbArc
 50
270.0
 51
90.0
  0
LINE
  5
14F
100
AcDbEntity
100
AcDbLine
  8
0
 62
256
370
-1
  6
ByLayer
 10
90.0
 20
47.222222222200003
 30
0.0
 11
88.611111111100001
 21
47.222222222200003
 31
0.0
  0
LINE
  5
150
100
AcDbEntity
100
AcDbLine
  8
0
 62
256
370
-1
  6
ByLayer
 10
91.388888888899999
 20
45.0
 30
0.0
 11
90.265950000000004
 21
47.247922222200003
 31
0.0
  0
LINE
  5
151
100
AcDbEntity
100
AcDbLine
  8
Cutouts
 62
256
370
-1
  6
ByLayer
 10
15.5
 20
29.25
 30
0.0
 11
15.5
 21
40.75
 31
0.0
  0
LINE
  5
152
100
AcDbEntity
100
AcDbLine
  8
Cutouts
 62
256
370
-1
  6
ByLayer
 10
24.5
 20
29.25
 30
0.0
 11
24.5
 21
40.75
 31
0.0
  0
LINE
  5
153
100
AcDbEntity
100
AcDbLine
  8
Cutouts
 62
256
370
-1
  6
ByLayer
 10
15.5
 20
40.75
 30
0.0
 11
24.5
 21
40.75
 31
0.0
  0
LINE
  5
154
100
AcDbEntity
100
AcDbLine
  8
Cutouts
 62
256
370
-1
  6
ByLayer
 10
15.5
 20
29.25
 30
0.0
 11
24.5
 21
29.25
 31
0.0
  0
ENDSEC
  0
SECTION
  2
OBJECTS
  0
DICTIONARY
  5
C
100
AcDbDictionary
280
0
281
1
  3
ACAD_GROUP
350
D
  3
ACAD_LAYOUT
350
1A
  3
ACAD_MLINESTYLE
350
17
  3
ACAD_PLOTSETTINGS
350
19
  3
ACAD_PLOTSTYLENAME
350
E
  3
AcDbVariableDictionary
350
155
  0
DICTIONARY
  5
D
100
AcDbDictionary
280
0
281
1
  0
ACDBDICTIONARYWDFLT
  5
E
100
AcDbDictionary
281
1
  3
Normal
350
F
100
AcDbDictionaryWithDefault
340
F
  0
ACDBPLACEHOLDER
  5
F
  0
DICTIONARY
  5
17
100
AcDbDictionary
280
0
281
1
  3
Standard
350
18
  0
MLINESTYLE
  5
18
100
AcDbMlineStyle
  2
STANDARD
 70
0
  3

 62
256
 51
90.0
 52
90.0
 71
2
 49
0.5
 62
256
  6
BYLAYER
 49
-0.5
 62
256
  6
BYLAYER
  0
DICTIONARY
  5
19
100
AcDbDictionary
280
0
281
1
  0
DICTIONARY
  5
1A
100
AcDbDictionary
281
1
  3
Layout1
350
1E
  3
Layout2
350
26
  3
Model
350
22
  0
LAYOUT
  5
1E
100
AcDbPlotSettings
  1

  2
C:\Program Files\AutoCAD 2002\plotters\DWF ePlot (optimized for plotting).pc3
  4

  6

 40
0.0
 41
0.0
 42
0.0
 43
0.0
 44
0.0
 45
0.0
 46
0.0
 47
0.0
 48
0.0
 49
0.0
140
0.0
141
0.0
142
1.0
143
1.0
 70
688
 72
0
 73
0
 74
5
  7

 75
16
147
1.0
148
0.0
149
0.0
100
AcDbLayout
  1
Layout1
 70
1
 71
1
 10
0.0
 20
0.0
 11
420.0
 21
297.0
 12
0.0
 22
0.0
 32
0.0
 14
100000000000000000000.0
 24
100000000000000000000.0
 34
100000000000000000000.0
 15
-100000000000000000000.0
 25
-100000000000000000000.0
 35
-100000000000000000000.0
146
0.0
 13
0.0
 23
0.0
 33
0.0
 16
1.0
 26
0.0
 36
0.0
 17
0.0
 27
1.0
 37
0.0
 76
0
330
1B
  0
LAYOUT
  5
22
100
AcDbPlotSettings
  1

  2
C:\Program Files\AutoCAD 2002\plotters\DWF ePlot (optimized for plotting).pc3
  4

  6

 40
0.0
 41
0.0
 42
0.0
 43
0.0
 44
0.0
 45
0.0
 46
0.0
 47
0.0
 48
0.0
 49
0.0
140
0.0
141
0.0
142
1.0
143
1.0
 70
1712
 72
0
 73
0
 74
0
  7

 75
0
147
1.0
148
0.0
149
0.0
100
AcDbLayout
  1
Model
 70
1
 71
0
 10
0.0
 20
0.0
 11
12.0
 21
9.0
 12
0.0
 22
0.0
 32
0.0
 14
0.0
 24
0.0
 34
0.0
 15
0.0
 25
0.0
 35
0.0
146
0.0
 13
0.0
 23
0.0
 33
0.0
 16
1.0
 26
0.0
 36
0.0
 17
0.0
 27
1.0
 37
0.0
 76
0
330
1F
  0
LAYOUT
  5
26
100
AcDbPlotSettings
  1

  2
C:\Program Files\AutoCAD 2002\plotters\DWF ePlot (optimized for plotting).pc3
  4

  6

 40
0.0
 41
0.0
 42
0.0
 43
0.0
 44
0.0
 45
0.0
 46
0.0
 47
0.0
 48
0.0
 49
0.0
140
0.0
141
0.0
142
1.0
143
1.0
 70
688
 72
0
 73
0
 74
5
  7

 75
16
147
1.0
148
0.0
149
0.0
100
AcDbLayout
  1
Layout2
 70
1
 71
2
 10
0.0
 20
0.0
 11
12.0
 21
9.0
 12
0.0
 22
0.0
 32
0.0
 14
0.0
 24
0.0
 34
0.0
 15
0.0
 25
0.0
 35
0.0
146
0.0
 13
0.0
 23
0.0
 33
0.0
 16
1.0
 26
0.0
 36
0.0
 17
0.0
 27
1.0
 37
0.0
 76
0
330
23
  0
DICTIONARY
  5
155
100
AcDbDictionary
281
1
  3
DIMASSOC
350
157
  3
HIDETEXT
350
156
  0
DICTIONARYVAR
  5
156
100
DictionaryVariables
280
0
  1
2
  0
DICTIONARYVAR
  5
157
100
DictionaryVariables
280
0
  1
1
  0
ENDSEC
  0
EOF
